<?xml version="1.0" encoding="utf-8"?>
<!-- Generator: Adobe Illustrator 23.0.3, SVG Export Plug-In . SVG Version: 6.00 Build 0)  -->
<svg version="1.1" id="Layer_1" xmlns="http://www.w3.org/2000/svg" xmlns:xlink="http://www.w3.org/1999/xlink" x="0px" y="0px"
	 viewBox="0 0 63 58" style="enable-background:new 0 0 63 58;" xml:space="preserve">
<style type="text/css">
	.st0{fill-rule:evenodd;clip-rule:evenodd;fill:#A999F6;}
	.st1{fill-rule:evenodd;clip-rule:evenodd;}
</style>
<g id="group-11svg">
	<path id="path-1" class="st0" d="M40.5,27.4C55.5,19.5,58.4,4,58.4,4H36.9H15.6c0,0,0.9,15.5,14.9,23.4V43h-6.7
		c-2.1,0-4.3,1.5-4.3,3.6v6.8c0,2.1,2.2,4.6,4.3,4.6h13.1h12c2.1,0,2.6-2.5,2.6-4.6v-6.8c0-2.1-0.4-3.6-2.6-3.6h-8.4V27.4z"/>
	<path id="path-2" class="st1" d="M43.9,57H18.8c-2.9,0-5.3-2.6-5.3-5.6v-6.8c0-3.1,2.4-5.6,5.3-5.6h5.7V26.3
		C10.7,17.9,9.1,2.3,9.1,1.6c0-0.4,0.1-0.8,0.4-1.1C9.7,0.2,10.1,0,10.6,0h42.8c0.4,0,0.9,0.2,1.1,0.5s0.4,0.8,0.3,1.2
		C54.8,2.4,52.3,18,37.5,26.3V39h6.4c2.7,0,4.6,2.3,4.6,5.6v6.8C48.5,54.8,46.6,57,43.9,57z M18.8,42c-1.2,0-2.3,1.3-2.3,2.6v6.8
		c0,1.4,1.1,2.6,2.3,2.6h25.1c1.5,0,1.6-2,1.6-2.6v-6.8c0-0.4-0.1-2.6-1.6-2.6H36c-0.8,0-1.5-0.7-1.5-1.5V25.4
		c0-0.6,0.3-1.1,0.8-1.3C46.6,18.1,50.4,7.2,51.5,3H12.3c0.8,4.1,3.8,15.1,14.4,21.1c0.5,0.3,0.8,0.8,0.8,1.3v15.1
		c0,0.8-0.7,1.5-1.5,1.5H18.8z"/>
	<path id="path-3" class="st1" d="M54.1,19.9c-0.5,0-1-0.3-1.3-0.8c-0.4-0.7-0.1-1.6,0.6-2c3.6-1.9,5.3-5.1,6-7.1h-8
		C50.6,10,50,9.3,50,8.5S50.6,7,51.5,7h10c0.4,0,0.9,0.2,1.2,0.5C62.9,7.9,63,8.3,63,8.8c-0.1,0.3-1.4,7.3-8.1,10.9
		C54.6,19.8,54.4,19.9,54.1,19.9z"/>
	<path id="path-4" class="st1" d="M8.3,19.9c-0.2,0-0.5-0.1-0.7-0.2C0.9,16,0,9,0,8.7c0-0.4,0.1-0.8,0.4-1.2C0.6,7.2,1.1,7,1.5,7h9
		C11.3,7,12,7.7,12,8.5S11.3,10,10.5,10H3.3c0.6,1.9,2.1,5.1,5.7,7.1c0.7,0.4,1,1.3,0.6,2C9.4,19.6,8.8,19.9,8.3,19.9z"/>
	<path id="path-5" class="st1" d="M40.5,51h-18c-0.8,0-1.5-0.7-1.5-1.5s0.7-1.5,1.5-1.5h18c0.8,0,1.5,0.7,1.5,1.5S41.3,51,40.5,51z"
		/>
	<path id="path-6" class="st1" d="M37.5,46h-12c-0.8,0-1.5-0.7-1.5-1.5s0.7-1.5,1.5-1.5h12c0.8,0,1.5,0.7,1.5,1.5S38.3,46,37.5,46z"
		/>
</g>
</svg>
