<?xml version="1.0" encoding="utf-8"?>
<!-- Generator: Adobe Illustrator 23.0.3, SVG Export Plug-In . SVG Version: 6.00 Build 0)  -->
<svg version="1.1" id="Layer_1" xmlns="http://www.w3.org/2000/svg" xmlns:xlink="http://www.w3.org/1999/xlink" x="0px" y="0px"
	 viewBox="0 0 45.1 42.9" style="enable-background:new 0 0 45.1 42.9;" xml:space="preserve">
<style type="text/css">
	.st0{fill-rule:evenodd;clip-rule:evenodd;fill:#A999F6;}
	.st1{fill-rule:evenodd;clip-rule:evenodd;}
</style>
<g id="group-13svg">
	<path id="path-1" class="st0" d="M45.1,18.8l-10.7,9.8l2,14.4l-12.6-7.2l-13,6.3l2.9-14.2l-10-10.4l14.4-1.6L24.9,3l6,13.2
		L45.1,18.8z"/>
	<path id="path-2" class="st1" d="M7.9,41.1c-0.1,0-0.1-0.1-0.2-0.1c-0.5-0.3-0.7-0.9-0.5-1.5l2.8-13.4l-9.5-9.9
		c-0.4-0.4-0.5-1-0.3-1.5c0.2-0.5,0.7-0.9,1.2-1L15,12.1L21.4,0c0.3-0.5,0.8-0.8,1.4-0.8c0.6,0,1.1,0.4,1.3,0.9l5.7,12.5L43.3,15
		c0.6,0.1,1,0.5,1.2,1.1c0.2,0.5,0,1.1-0.4,1.5l-10.1,9.3l1.9,13.6c0.1,0.6-0.2,1.1-0.6,1.4c-0.5,0.3-1.1,0.3-1.6,0.1l-11.9-6.8
		l-12.3,6C8.8,41.4,8.3,41.3,7.9,41.1z M4.7,16.3l7.9,8.3c0.3,0.4,0.5,0.9,0.4,1.3l-2.3,11.2l10.3-5c0.4-0.2,0.9-0.2,1.4,0l10,5.7
		l-1.6-11.4c-0.1-0.5,0.1-1,0.5-1.3l8.5-7.7l-11.3-2c-0.5-0.1-0.9-0.4-1.1-0.9L22.6,4.1l-5.4,10.1c-0.2,0.4-0.7,0.7-1.2,0.8
		L4.7,16.3z"/>
</g>
</svg>
