<?xml version="1.0" encoding="utf-8"?>
<!-- Generator: Adobe Illustrator 23.0.3, SVG Export Plug-In . SVG Version: 6.00 Build 0)  -->
<svg version="1.1" id="Layer_1" xmlns="http://www.w3.org/2000/svg" xmlns:xlink="http://www.w3.org/1999/xlink" x="0px" y="0px"
	 viewBox="0 0 895.1 217.3" style="enable-background:new 0 0 895.1 217.3;" xml:space="preserve">
<style type="text/css">
	.st0{fill:#9BA2B1;}
</style>
<title>colorlib</title>
<path class="st0" d="M735.1,0.2v79.3c10-17.6,25.9-22.7,43.3-24.1c20.2-1.7,38.8,2.9,54,17.1c12.2,11.4,19,25.9,22.1,42.1
	c4.4,22.8,3,45.1-7.2,66.2c-9.6,19.8-25.6,31.4-47.2,35.3c-0.8,0.1-1.7-0.1-2,1h-24c-2.1-1.8-4.9-1.6-7.3-2.3
	c-12.5-3.5-23.4-9.4-31.7-21.6c0,6.7-0.1,12.1,0,17.5c0.1,2.3-0.6,3.3-3.1,3.2c-6.7-0.1-13.3-0.1-20,0c-2.2,0-3-0.9-2.8-3
	c0.1-1.2,0-2.3,0-3.5V6c0-2-0.1-4-0.2-6C717.8,0.2,726.4,0.2,735.1,0.2z M829.5,131.8c-0.2-9-2.1-17.9-5.8-26.2
	c-7.8-17.3-20.9-27-40.3-27.7c-20.7-0.7-35.5,8.4-43.3,27.3c-8.8,21-8.6,42.6,0.6,63.5c8,18.2,24.7,27.1,46.4,25.8
	c18-1,31.7-12,37.9-30.4C828.1,155.2,829.3,145.8,829.5,131.8z"/>
<path class="st0" d="M209.1,217.2c-7.9-2.4-16-3.7-23.5-7.5c-16.7-8.5-28.2-21.7-34.1-39.2c-8.1-24-8.1-48.2,1.5-71.7
	c11.4-27.7,33.2-41.5,62.6-43.5c14.8-1,29.2,0.9,42.6,8.1c20.6,11,31.9,28.6,36.5,50.9c3.7,17.7,3.3,35.5-2.2,52.8
	c-8.5,26.9-26.7,43.4-54.5,49c-1,0.2-2.4-0.4-3,1.1L209.1,217.2z M269.6,136.8c0-12.3-1.7-21.3-5.5-30.2
	c-14.5-33.1-56.9-39.1-78.7-11.1c-16,20.5-16.3,60-0.7,80.9c17.7,23.6,52.6,24.8,71.6,2.3C266.5,166.7,269.6,152.2,269.6,136.8z"/>
<path class="st0" d="M416.1,217.2c-0.8-1.8-2.6-1.2-3.9-1.5c-31.1-7.2-51.3-28.9-56-60.7c-3.2-21.8-2-43.3,8.7-63.1
	c12.3-22.8,32.2-34.4,57.6-36.4c20.2-1.6,39.1,2.1,55.4,15.2c16.6,13.3,24.4,31.3,26.8,51.8c2.3,19.1,0.8,37.9-7.8,55.5
	c-10.5,21.7-27.9,34.2-51.5,38.3c-0.9,0.2-2.1-0.3-2.5,1C434.1,217.2,425.1,217.2,416.1,217.2z M478.3,134.9
	c0.3-10.3-1.8-20.6-6.3-29.9c-7.8-16.1-20.3-25.8-38.4-26.9c-19.5-1.3-34.7,6.7-43.6,24c-11.4,22-11.6,45.1-0.7,67.3
	c14.7,30.1,55.2,34.4,76.3,8.7C475.5,166.1,478.5,151.7,478.3,134.9z"/>
<path class="st0" d="M0.1,121.2c2.2-2.9,1.9-6.5,2.7-9.8c8.9-39,39.2-60.8,82.4-55.7c17.3,2,32.5,8.2,43.6,22.4
	c6.3,8.1,9.5,17.5,11.2,27.4c0.4,2.5-0.5,3.2-2.9,3.2c-6.8-0.1-13.7-0.1-20.5,0c-2.1,0-3.1-0.6-3.8-2.9c-4.4-16-14.4-26.1-31.4-27.7
	c-19.8-1.9-37.1,3.4-46.2,22.4c-11.4,23.7-11.8,48.4-0.1,72.3c8.6,17.4,25.6,24.5,46.9,21.2c16.8-2.6,28.3-14.3,31.8-32.7
	c0.6-3.3,1.6-4.4,5-4.3c7.3,0.3,14.6,0.1,22,0.1c-2.8,24.7-16.4,53.2-52.8,59c-0.8,0.1-1.7-0.1-2,1H58c-0.7-1.8-2.6-1.3-3.9-1.6
	c-27.3-5.8-43.5-23-51-49.3C2,162.5,2.3,158.4,0,155C0.1,143.9,0.1,132.5,0.1,121.2z"/>
<path class="st0" d="M339.1,0.2c-0.1,11-0.1,22-0.2,33c0,58.4-0.1,116.9,0.1,175.3c0,4.8-1.4,5.9-5.8,5.6c-5.7-0.3-11.3-0.3-17,0
	c-2.3,0.1-3.5-0.6-3.2-3.1c0.1-0.8,0.1-1.7,0-2.5V0.2H339.1z"/>
<path class="st0" d="M633.1,0.2c-0.8,1.9-0.4,3.9-0.4,5.9c0,67.4-0.1,134.9,0.1,202.3c0,4.5-1.1,6.1-5.7,5.7
	c-5.6-0.4-11.3-0.2-17-0.1c-2.4,0.1-3.4-0.7-3.1-3.1c0-0.5,0-1,0-1.5V3.1c0-1,0.1-2,0.2-3C615.8,0.2,624.4,0.2,633.1,0.2z"/>
<path class="st0" d="M895.1,214.2c-9.5,0-19-0.2-28.5-0.1c-3.3,0.1-4.7-0.7-4.6-4.4c0.3-8.3,0.3-16.7,0-25c-0.1-3.7,1.3-4.4,4.6-4.4
	c9.5,0.1,19-0.1,28.5-0.2V214.2z"/>
<path class="st0" d="M684.1,0.2c0,9-0.1,17.9,0.1,26.9c0,2.8-0.4,4.2-3.7,4c-6.1-0.3-12.3-0.3-18.4,0c-3.2,0.1-3.8-1.1-3.8-4
	c0.1-9,0-17.9-0.1-26.9H684.1z"/>
<path class="st0" d="M543.6,89.5c5.2-7.2,9.9-14.4,16.2-20.4c10.9-10.4,24.2-14,38.9-14c1.9,0,2.6,0.6,2.6,2.6
	c-0.1,7.3-0.1,14.7,0,22c0.1,2.7-1.3,2.8-3.4,2.8c-7.7,0.2-15.3,1.2-22.5,4c-16.7,6.4-24.9,19.6-28.3,36.5
	c-1.4,7.5-2.1,15.1-2.1,22.8c0,21.3-0.1,42.6,0.1,64c0,3.4-0.8,4.7-4.4,4.5c-6-0.3-12-0.2-18,0c-2.9,0.1-3.6-1-3.6-3.7
	c0.1-49.3,0.1-98.6,0-147.9c0-3.2,1.1-4,4-3.9c5.5,0.2,11,0.2,16.5,0c3-0.1,4.1,0.8,4,3.9C543.5,71.5,543.6,80.5,543.6,89.5z"/>
<path class="st0" d="M658.3,136.2c0-24.3,0.1-48.6-0.1-72.9c0-3.8,1.1-4.9,4.8-4.7c5.8,0.3,11.7,0.2,17.5,0c2.7-0.1,3.8,0.5,3.8,3.5
	c-0.1,49.4-0.1,98.8,0,148.3c0,2.8-0.8,3.7-3.6,3.6c-6-0.2-12-0.3-18,0c-3.6,0.2-4.4-1.2-4.4-4.5V136.2z"/>
</svg>
