<?xml version="1.0" encoding="utf-8"?>
<!-- Generator: Adobe Illustrator 23.0.3, SVG Export Plug-In . SVG Version: 6.00 Build 0)  -->
<svg version="1.1" id="Layer_1" xmlns="http://www.w3.org/2000/svg" xmlns:xlink="http://www.w3.org/1999/xlink" x="0px" y="0px"
	 viewBox="0 0 1219 239.1" style="enable-background:new 0 0 1219 239.1;" xml:space="preserve">
<style type="text/css">
	.st0{fill:#9BA2B1;}
</style>
<title>kinsta</title>
<path class="st0" d="M655.8,238h55c40.3-0.1,70.9-29.8,72-70c0.6-20.8-7.4-37.9-23.2-51.2c-12.9-10.9-28.3-16-45.1-16.3
	c-20.5-0.3-41-0.1-61.5-0.1c-6.1,0-10.5-2.9-13.1-8.3s-2.4-10.8,1.4-15.9s9.2-6.1,15-6.1h99c10.5,0,12.7-2.2,12.7-12.5v-31
	c0-10.3-2.2-12.5-12.6-12.5h-102c-31.7,0-57.3,18.5-67.5,48.7c-13.2,39.4,10.5,82.4,51,91.9c5.5,1.3,11.1,1.9,16.8,2
	c19.8,0.2,39.7,0,59.5,0.1c7.4,0,11.8,3.6,13.7,10.6c1.1,5-1.3,10.2-5.9,12.6c-3.3,1.4-6.9,2.1-10.6,2c-37.8,0.1-75.7,0.1-113.5,0.1
	c-1.8,0-3.7-0.1-5.5,0.1c-6.1,0.5-9,3.7-9,9.7v34c0,9.9,2.3,12.2,12.4,12.2C615.1,238.1,635.4,238,655.8,238z M349,125.3v100.5
	c0,10,2.3,12.2,12.4,12.3s20.3,0,30.5,0c10.4,0,12.7-2.4,12.8-12.6c0-37.8,0-75.6,0-113.5c0-19.6,8.7-34.4,26.7-42.5
	c23.5-10.5,51.4,2.4,58.2,27.2c2.5,8.9,2.3,18.7,2.4,28.1c0.3,33.6,0.1,67.3,0.1,101c0,9.8,2.4,12.2,12,12.2h32.5
	c8.6,0,11.1-2.5,11.1-10.9V104.2c0-1.5,0-3-0.1-4.5c-3.2-26.7-14.5-49.2-34.9-66.9c-14.8-13.1-33.3-21.3-53-23.3
	c-28.1-2.9-53.3,4.8-75.2,22.8c-3.3,2.7-4.8,2.1-7.1-0.8c-3.9-4.9-8.1-9.7-12.3-14.4s-10.1-5.3-13.5-1c-1.7,2.2-2.3,5.8-2.4,8.8
	C348.9,58.3,349,91.8,349,125.3z M884,14h-74.5c-7.2,0-10.4,2.7-10.5,9.1c-0.2,12.7-0.2,25.3,0,38c0.1,5.2,3.2,8.1,8.4,8.7
	c1.8,0.2,3.7,0.2,5.5,0.2c10.7,0.1,14,3.2,14,14c0.1,17.5,0.2,35,0,52.5c-0.3,23.3,6.6,44.3,20.9,62.6
	c16.1,20.6,36.9,34.3,63.1,37.4c16.4,1.9,33.2,1.3,49.8,1.4c6.1,0,8.8-3.8,8.9-10.9c0.1-11.2,0.1-22.3,0-33.5
	c0-7.7-3.4-11.2-11.2-11.4c-8.5-0.2-17,0.1-25.5-0.1c-5.5-0.1-11.1,0-16.4-1.3c-20.3-4.8-33.8-22.1-33.9-43.2
	c-0.1-17.8,0-35.7,0-53.5c0-10.9,3-13.9,14-13.9h60.5c9.5,0,12.5-3,12.5-12.6c0.1-10.2,0-20.3,0-30.5s-2.7-13-13.1-13L884,14z
	 M303.6,125.6c0-33.8,0-67.6,0-101.4c0-4.9-1.6-8.5-6.3-10.2c-4.4-1.6-7.5,0.6-10.3,3.9c-9.7,11.4-19.3,22.9-29.5,33.8
	c-7,7.5-10.3,15.3-9.9,25.8c0.8,22.6,0.3,45.3,0.3,68v81c0,9.3,2.4,11.6,11.4,11.6h32.5c9.2,0,11.7-2.6,11.7-11.9
	C303.6,192.6,303.7,159.1,303.6,125.6z"/>
<path class="st0" d="M1219,226c-0.3,0.4-0.6,0.8-0.9,1.2c-3.8,8.4-11,9.2-16.4,1.8c-3.7-5.1-7.3-10.3-10.9-15.5
	c-4.9-7-10.3-7.9-17.2-2.6c-16.2,12.3-33.5,22.3-53.8,25.8c-20.8,3.6-42.2,1.1-61.6-7.3c-42.6-18.2-62.9-52.2-67.2-97
	c-2.4-24.7,1.2-48.6,12.9-70.6c19.9-37.5,51.4-57.7,93.8-60.8c1.5-0.2,2.9-0.5,4.3-0.9h4c2.4,0.4,4.8,0.9,7.3,1.4
	c4.7,0.9,9.5,1.5,14.2,2.6c17.8,4.4,32.9,14,47.1,25.1c6.5,5.1,11.5,4.3,16.7-2c3.6-4.4,7.1-8.8,10.9-13c1.3-1.5,2.9-2.7,4.7-3.5
	c5.2-2.1,8.4-0.1,12.2,7.5V226z M1046.3,119.7c1.9,8.9,3,18,5.8,26.6c10.5,32.1,53.6,45.9,81.3,26.4c34.9-24.6,38.4-70.6,7.7-100.1
	c-20.8-19.9-54.7-20.1-75.6-0.2C1052,85.2,1047.7,101.5,1046.3,119.7z"/>
<path class="st0" d="M158,239c-8.9-3.9-13.3-12.3-19.2-19.1c-19.7-22.5-39-45.3-58.4-68.1c-5.4-6.3-10.8-12.6-16.1-19
	c-4.2-5-4.1-8.7,0.2-13.8c18.4-21.6,36.9-43.2,55.4-64.8c9.7-11.3,19.6-22.6,29.2-34.1c3.7-4.4,7.8-6.5,13.7-6.4
	c12.5,0.4,25,0.2,37.5,0.1c4.3,0,8.1,0.8,10,5.1s0.1,7.7-2.6,11l-70,81.1c-2.2,2.5-4.4,5-6.5,7.6c-4.1,5.1-4.2,10,0,14.8l75.1,87.3
	c1.9,2.1,3.4,4.5,4.3,7.1c1.8,6.3-2.8,8.8-7.5,11.1L158,239z"/>
<path class="st0" d="M0,22c2.2-7.5,7.6-9,14.6-8.7c10,0.4,20,0.1,30,0.1c9.6,0,12.3,2.7,12.3,12.5v197.4c0,2.2-0.1,4.3-0.3,6.5
	c-0.5,5.3-3.1,8-8.3,8.1c-13.2,0.2-26.3,0.1-39.5,0.1c-5.5,0-7-4.2-9-8L0,22z"/>
<path class="st0" d="M655.8,238h-61c-10.1,0-12.4-2.3-12.4-12.2v-34c0-6,2.9-9.2,9-9.7c1.8-0.2,3.7-0.1,5.5-0.1
	c37.8,0,75.7,0,113.5-0.1c3.6,0.1,7.2-0.6,10.6-2c4.5-2.4,6.9-7.6,5.9-12.6c-1.9-7-6.3-10.6-13.7-10.6c-19.8-0.1-39.7,0.1-59.5-0.1
	c-5.6-0.1-11.3-0.7-16.8-2c-40.4-9.4-64.2-52.4-51-91.9C596,32.5,621.6,14,653.4,14h102c10.5,0,12.7,2.2,12.7,12.5s0,20.7,0,31
	S765.8,70,755.3,70h-99c-5.8,0-11.2,0.9-15.1,6.1s-4,10.4-1.4,15.9s7,8.3,13.1,8.3c20.5,0,41-0.2,61.5,0.1
	c16.8,0.3,32.1,5.4,45.1,16.3c15.8,13.3,23.8,30.4,23.2,51.2c-1.1,40.2-31.7,69.9-72,70C692.4,238.1,674.1,238.1,655.8,238z"/>
<path class="st0" d="M349,125.3c0-33.5,0-67,0.1-100.5c0-3,0.6-6.5,2.4-8.8c3.3-4.3,9.3-3.6,13.5,1s8.4,9.4,12.3,14.4
	c2.3,2.9,3.9,3.5,7.1,0.8c21.9-18,47.1-25.7,75.2-22.8c19.7,2,38.2,10.1,53,23.3c20.4,17.7,31.7,40.2,34.9,66.9
	c0.1,1.5,0.2,3,0.1,4.5v123c0,8.4-2.5,10.9-11.1,10.9c-10.8,0-21.7,0-32.5,0c-9.6,0-12-2.4-12-12.2c0-33.6,0.1-67.3-0.1-101
	c-0.1-9.4,0.1-19.2-2.4-28.1c-6.9-24.8-34.8-37.7-58.2-27.2c-18,8.1-26.6,22.9-26.7,42.5c-0.1,37.8,0,75.6,0,113.5
	c0,10.2-2.4,12.5-12.8,12.6h-30.5c-10.1,0-12.4-2.2-12.4-12.3C349,192.3,349,158.8,349,125.3z"/>
<path class="st0" d="M884,14h72.5c10.4,0,13.1,2.6,13.1,12.9s0,20.3,0,30.5c0,9.6-3,12.6-12.5,12.6c-20.2,0.1-40.3,0-60.5,0
	c-10.9,0-14,3.1-14,13.9c0,17.8-0.1,35.7,0,53.5c0.1,21,13.6,38.4,33.9,43.2c5.3,1.2,10.9,1.1,16.4,1.3c8.5,0.2,17-0.1,25.5,0.1
	c7.8,0.2,11.2,3.7,11.2,11.4c0.1,11.2,0.1,22.3,0,33.5c-0.1,7.1-2.8,10.9-8.9,10.9c-16.6-0.1-33.4,0.6-49.8-1.4
	c-26.2-3.1-47-16.8-63.1-37.4c-14.3-18.3-21.2-39.2-20.9-62.6c0.2-17.5,0.1-35,0-52.5c0-10.7-3.3-13.9-14-14c-1.8,0-3.7,0-5.5-0.2
	c-5.2-0.5-8.3-3.5-8.4-8.7c-0.2-12.7-0.2-25.3,0-38c0.1-6.4,3.3-9.1,10.5-9.1c18.8-0.1,37.7,0,56.5,0L884,14z"/>
<path class="st0" d="M303.6,125.6v100.4c0,9.3-2.5,11.9-11.7,11.9h-32.5c-9,0-11.4-2.4-11.4-11.6c0-27,0-54,0-81
	c0-22.7,0.6-45.3-0.3-67.9c-0.4-10.6,2.9-18.3,9.9-25.8c10.2-10.9,19.8-22.5,29.5-33.8c2.8-3.3,5.9-5.5,10.3-3.9
	c4.6,1.7,6.3,5.3,6.3,10.2C303.6,58,303.6,91.8,303.6,125.6z"/>
</svg>
