<?xml version="1.0" encoding="utf-8"?>
<!-- Generator: Adobe Illustrator 23.0.3, SVG Export Plug-In . SVG Version: 6.00 Build 0)  -->
<svg version="1.1" id="Layer_1" xmlns="http://www.w3.org/2000/svg" xmlns:xlink="http://www.w3.org/1999/xlink" x="0px" y="0px"
	 viewBox="0 0 569.4 72.9" style="enable-background:new 0 0 569.4 72.9;" xml:space="preserve">
<style type="text/css">
	.st0{fill:#9BA2B1;}
</style>
<title>shortpixel</title>
<path class="st0" d="M569.4,70.1c-1.7,1.3-3.8,2-5.9,2.1c-10-0.1-20-0.2-29.9,0c-3.9,0.1-5.3-1.5-5.3-5.3c0.1-20,0.2-39.9,0-59.9
	c0-5,2.6-5.2,6.3-5.2c3.9,0,6.8,0.2,6.8,5.4c-0.2,15.8-0.1,31.6-0.1,47.4c0,6.4,0,6.4,6.6,6.4c5.2,0,10.3,0.2,15.5-0.1
	c2.4-0.3,4.8,1,6,3.1L569.4,70.1z"/>
<path class="st0" d="M162.7,72.9c-20-0.2-36.4-17.2-36.1-37.5C126.8,16.3,144-0.4,163.2,0c21.2,0.5,36.4,16.2,36.7,36.9
	C200.1,56.4,182.5,73.1,162.7,72.9z M139.4,36.7c0.1,12.9,10.7,23.4,23.6,23.4c13.3,0,24.1-10.6,24.2-23.9c0-12.7-11.3-23.9-24-23.8
	C150.1,12.4,139.4,23.4,139.4,36.7z"/>
<path class="st0" d="M56.6,36.1c0-9.8,0.2-19.7-0.1-29.5c-0.2-5.1,2.3-5.7,6.4-5.7s6.8,0.3,6.6,5.5c-0.3,6.5,0,13-0.1,19.5
	c-0.1,2.9,0.7,4.2,3.9,4.1c8.7-0.2,17.3-0.2,26,0c3.3,0.1,4.3-1.1,4.2-4.3c-0.2-6.7,0.1-13.3-0.1-20c-0.1-3.9,1.8-5,5.3-4.7
	c3.2,0.3,7.6-1.3,7.6,4.5V67c0,4.9-3.2,5-6.8,5s-6.2-0.6-6.1-5.1c0.2-6.7-0.1-13.3,0.1-20c0.1-3.6-0.8-5.1-4.6-5
	c-8.3,0.2-16.7,0.2-25,0c-3.4-0.1-4.7,1-4.6,4.5c0.3,6.3,0.1,12.7,0.1,19c0,6.1-0.4,6.6-6.5,6.5c-5.7,0-6.3-0.7-6.4-6.8
	C56.5,55.4,56.6,45.8,56.6,36.1z"/>
<path class="st0" d="M210.5,36c0-10,0.1-20-0.1-30c0-3.6,1.1-5.1,4.9-5.1c8.8,0.2,17.6-0.1,26.5,0.1c9.2,0.1,17.9,6.9,20.6,15.5
	c2.6,8.9-1.1,18.5-9,23.3c-4.4,2.7-5,4.9-2.2,9.3c3.5,5.4,6.2,11.3,9.3,17.1c2.2,4.2,1.3,5.3-3.5,5.8c-5.6,0.6-9-1.3-11.2-6.6
	c-2.6-6.3-6-12.2-8.9-18.4c-2.7-5.5-7.6-3-11.5-2.9s-2.5,4-2.6,6.4c-0.2,5.7-0.2,11.3,0,17c0.1,4.5-2.8,4.5-6,4.5s-6.1-0.1-6.1-4.5
	C210.5,57,210.5,46.5,210.5,36z M233.1,33.7c2.3,0,4.7,0.2,7,0c6.2-0.6,10.6-5.4,10.4-11.3c-0.2-5.6-4.7-9.8-10.9-10.1
	c-2.2-0.1-4.3,0-6.5,0c-10.5,0-10.5,0-10.5,10.5C222.5,33.7,222.5,33.7,233.1,33.7z"/>
<path class="st0" d="M434.4,47.7c-4.6,7.4-8.5,13.8-12.5,20.1c-2.4,3.8-10.2,6-14.2,4c-2.6-1.3-1.3-3-0.3-4.6c5-8,9.8-16.3,15.3-24
	c3.6-5.1,3.9-8.9,0.1-14c-5.2-6.9-9.6-14.4-14.2-21.7c-2.7-4.3-2-5.1,3-5.7C418,1,422.4,3,425.1,9c1.8,3.9,4.5,7.4,6.6,11.2
	c1.8,3.1,3.1,3.8,5.2,0.2c3-5.2,6.3-10.2,9.4-15.3c1.8-2.8,12-4.8,14.5-2.7c2.2,1.9,0.4,3.6-0.6,5.2c-5.2,8.1-10.3,16.3-15.8,24.3
	c-2.1,3.1-2.1,5.4,0,8.4c5.6,8.4,11,17.1,16.4,25.7c0.9,1.5,2.6,3,1.5,4.9s-3,0.9-4.6,1.2c-5.6,0.9-9.3-1.2-12.1-6.4
	C442.5,59.8,438.5,54.3,434.4,47.7z"/>
<path class="st0" d="M513.4,2.1c4.4,1.5,2.5,5.2,2.4,7.9s-2.7,2.5-4.6,2.6c-7.2,0.1-14.3,0.1-21.5,0c-4.1-0.1-6,1.3-6,5.7
	c0.2,14.4-1.1,12.4,12.1,12.6c3.3,0,6.7,0.2,10,0c4-0.2,5.7,1.2,5.6,5.4c-0.1,3.9-0.8,6.4-5.5,6.3c-5.8-0.2-11.7,0.1-17.5-0.1
	c-3.3-0.1-4.2,1.3-4.5,4.3c-1.4,13.9-1.1,14.3,12.6,14.3c4.8,0,9.7,0.2,14.5-0.1c4.1-0.2,5.2,1.9,5.1,5.5c0,3.4-0.6,5.8-4.9,5.7
	c-11.5-0.2-23-0.1-34.5,0c-3.4,0-4.9-1.2-4.9-4.6c0-20.5,0-41,0.1-61.4c0-1.6-0.4-4,2.5-4c0.4,0.6,0.7,0.5,1-0.1h37
	C512.7,2.6,513,2.7,513.4,2.1z"/>
<path class="st0" d="M332.4,2c8.3-0.4,16.7-0.4,25,0c0.3,0.5,0.6,0.6,1,0.1c11.9,2.8,18.8,11.3,18.3,22.6s-8.4,19.7-20,21.3
	c-3.8,0.5-7.6,0.6-11.4,0.5c-3.1-0.1-4,1-3.9,4.1c0.2,5.7-0.1,11.3,0.1,17c0.1,4.1-2.3,4.7-5.5,4.5s-7.3,1.2-7.3-4.2V6
	c0-1.7,0-3.9,2.7-3.9C331.8,2.8,332.1,2.7,332.4,2z M341.4,23.9c0,11.7,0,11.7,11.5,11c6.6-0.4,11.7-5.4,11.6-11.3
	c-0.1-5.6-4.7-9.8-11.4-10.3C341.4,12.3,341.4,12.3,341.4,23.9z"/>
<path class="st0" d="M23,0c5.8,0.5,11.7,1.4,16.9,4.9c2.3,1.5,4.7,3.2,2.5,6.3c-1.9,2.7-3.4,6.7-8.1,3.9c-3-1.8-6.3-3-9.7-3.8
	c-4.9-1.2-9.8,1-11.4,4.9c-1.4,3.5,0.5,7.8,4.8,10.4c2.9,1.6,5.9,3.1,8.9,4.4c3.5,1.4,6.9,3.2,10.1,5.4c6.6,5,10.6,11.3,8.9,19.8
	s-7.6,13.5-15.8,15.5c-9.5,2.4-18.4,0.4-26.6-4.9c-4-2.6-2.7-5.2-0.8-8.4S6.6,55,9.6,57c3.2,2,6.8,3.6,10.5,4.5
	c4.3,1.1,9.4-0.9,11.2-4.4c2.2-4.3,0.5-7.7-2.8-10.6c-2.1-1.9-4.6-3.3-7.2-4.4c-3.8-1.6-7.7-3.2-11.1-5.7C1.5,29.7-1.9,21.5,1,13.6
	C4,5.2,12.6-0.1,23,0z"/>
<path class="st0" d="M284.6,41.2c0-7.8-0.2-15.7,0.1-23.5c0.2-4.3-1.4-5.7-5.5-5.2c-1.8,0.1-3.7,0.1-5.5,0c-5.9-0.1-6.4-0.8-6.5-6.6
	c0-3.8,1.5-4.9,5.1-4.9c12.7,0.1,25.3,0.1,38,0c3.6,0,5.2,1.1,5,4.9c-0.2,3.4,0.4,7-4.9,6.6c-2.7-0.2-5.4,0.2-8,0
	c-4.1-0.4-5.1,1.4-5.1,5.2c0.1,16,0,32,0.1,48c0,4.3-1,6.5-5.8,6.3c-6-0.2-7.1-0.8-7.1-6.3C284.6,57.5,284.6,49.4,284.6,41.2z"/>
<path class="st0" d="M385.4,68.1v-63c0.1-0.1,0.3-0.2,0.4-0.2c0-0.3-0.1-0.5-0.3-0.7c2.5-4.3,6.5-2.1,9.7-1.9
	c2.9,0.2,2.2,3.2,2.2,5.3v59.2c0,2.4,0.2,5.4-3,5.2s-7.6,2.8-9.1-2.8C386.1,68.7,386,68.4,385.4,68.1z"/>
<path class="st0" d="M332.4,2c-0.3,0.7-0.6,0.8-1,0.1C331.7,2.1,332.1,2.1,332.4,2z"/>
<path class="st0" d="M385.4,68.1c0.7,0.3,0.7,0.6,0,1V68.1z"/>
<path class="st0" d="M513.4,2.1c-0.4,0.6-0.7,0.5-1-0.1C512.7,2.1,513.1,2.1,513.4,2.1z"/>
<path class="st0" d="M385.5,4.1c0.1,0.2,0.2,0.5,0.3,0.7S385.6,5,385.4,5C385.4,4.7,385.4,4.4,385.5,4.1z"/>
<path class="st0" d="M475.4,2c-0.3,0.6-0.6,0.6-1,0.1C474.7,2.1,475.1,2.1,475.4,2z"/>
<path class="st0" d="M358.4,2.2c-0.4,0.5-0.7,0.4-1-0.1C357.7,2.1,358.1,2.1,358.4,2.2z"/>
</svg>
