<?xml version="1.0" encoding="utf-8"?>
<!-- Generator: Adobe Illustrator 23.0.3, SVG Export Plug-In . SVG Version: 6.00 Build 0)  -->
<svg version="1.1" id="Layer_1" xmlns="http://www.w3.org/2000/svg" xmlns:xlink="http://www.w3.org/1999/xlink" x="0px" y="0px"
	 viewBox="0 0 413 68.9" style="enable-background:new 0 0 413 68.9;" xml:space="preserve">
<style type="text/css">
	.st0{fill:#9BA2B1;}
</style>
<title>themeisle</title>
<path class="st0" d="M50.7,27.1c5.9-7.4,12.6-10.3,21-8.7c7.8,1.4,12.1,6.7,12.4,15.6c0.2,6.9,0.2,13.9,0,20.8
	c-0.1,2.9,0.7,4.2,3.7,3.7c4.7-0.8,3.2,2.8,3.5,5.1c0.4,2.8-0.4,4.1-3.6,3.9c-4-0.3-8-0.3-12,0c-3.2,0.2-3.7-1-3.7-3.8
	c0.2-8.1,0.1-16.3,0-24.4c0-3.9,0-7.9-4.5-9.8c-3.7-1.5-9.2,0-12.4,3.4c-2.9,3.2-4.5,7.4-4.5,11.7c-0.1,3.5,0.1,6.9-0.1,10.4
	c-0.1,2.7,0.6,4,3.6,3.5c5-0.8,3.3,2.9,3.7,5.3c0.5,3.2-1,3.7-3.8,3.7c-9.5-0.2-18.9,0.1-28.4-0.2C13.8,67,7.7,60.5,7.6,48.9
	c-0.1-5.9-0.1-11.7,0-17.6c0.1-2.7-0.8-3.7-3.4-3.3c-5.1,1-3.8-2.6-4.1-5.4c-0.4-3.3,1.1-4.3,4-3.8c3.2,0.5,4.4-0.9,3.9-4V14
	c0-8.7,0-8.6,8.6-8.4c2.2,0,3.1,0.6,3,2.9s0.1,4.8-0.1,7.2s0.9,3.4,3.3,3.1c0.7-0.1,1.3-0.1,2,0c5.9,0,7.1,1.7,5.8,7.6
	c-0.3,1.1-0.7,1.6-1.8,1.6h-1.2c-8,0.3-8,0.3-8,8.2c0,3.9-0.1,7.7,0,11.6c0.3,7.3,3.7,10.5,11.1,10.7c7.8,0.2,7.8,0.2,7.8-7.9
	c0-12.5-0.1-25,0.1-37.6c0-2.9-0.4-4.6-3.8-4c-4.5,0.8-3.5-2.4-3.7-4.9c-0.3-3,0.5-4.3,3.8-4.1c4.3,0.2,8.5,0.2,12.8,0
	c2.3-0.1,3,0.6,2.9,2.9C50.6,10.7,50.7,18.4,50.7,27.1z"/>
<path class="st0" d="M158.1,27.4c12.1-13,24-12.9,29.8,0.8c2.4-3.7,5.1-6.6,8.9-8.4c11.9-5.7,22.9,0.8,23.4,13.9
	c0.3,7.2,0.2,14.4,0.1,21.6c-0.1,2.7,0.8,3.7,3.4,3.3c4.8-0.9,3.5,2.6,3.8,5.1c0.4,3.3-1,4-4,3.9c-4-0.2-8-0.2-12,0
	c-2.7,0.2-3.3-0.9-3.3-3.4c0.1-8.7,0.1-17.3,0-26c0-3.5-0.1-7.1-4.1-8.7c-3.5-1.4-8.2,0.3-11,3.8c-1.9,2.4-3.1,5.3-3.3,8.4
	c-0.3,3.7-0.3,7.4-0.6,11.2s-0.1,6.7,5,5.7c1.5-0.3,2.2,0.4,2.1,2c-0.1,1.3-0.1,2.7,0,4c0.2,2.2-0.6,3-2.9,3
	c-4.4-0.2-8.8-0.2-13.2,0c-2.6,0.1-3.1-1-3.1-3.3c0.1-8.8,0.1-17.6,0-26.4c0-3.5-0.1-7.1-4.3-8.6c-3.4-1.2-8,0.6-10.6,4
	c-2.2,3-3.5,6.6-3.7,10.4c-0.2,3.1,0,6.1-0.2,9.2c-0.2,3.6-0.2,6.8,4.9,5.8c1.3-0.3,2,0.5,1.9,1.8c-0.1,1.3-0.1,2.7,0,4
	c0.3,2.5-0.7,3.2-3.1,3.1c-6.5-0.2-13.1-0.1-19.6,0c-2.3,0-3.3-0.4-3.3-3c0-3.7-0.4-7.2,5.1-6c1.7,0.3,1.9-1,1.9-2.3V31.1
	c0-3-2-3.1-4.1-2.8c-4.8,0.6-3.1-2.9-3.4-5.2c-0.4-2.9,0.5-4.2,3.6-3.8c2.1,0.1,4.3,0.1,6.4,0C156.7,19.2,157.2,19.6,158.1,27.4z"/>
<path class="st0" d="M302.1,59.2c-0.9,8.2-0.9,8.2-8.6,8.2c-4.8,0-9.6-0.1-14.4,0.1c-2.8,0.1-3.6-0.7-3.7-3.6
	c-0.1-3.7,0.2-6.4,4.9-5.4c1.7,0.3,2.3-0.5,2.3-2.3c-0.1-8.5-0.1-17.1,0-25.6c0-2.8-1.6-2.8-3.3-2.5c-4.5,0.8-4-2-4.2-5
	c-0.2-3.6,1.3-4.2,4.4-4c4,0.2,8,0.2,12,0c2.5-0.1,3.2,0.7,3.2,3.2c-0.1,10.8,0,21.6-0.1,32.4c0,2.8,0.5,4,3.7,3.9
	c3,0,4.2-0.8,3.7-3.8c-0.5-2.8,0.8-3.9,3.5-3.5c1.6,0.1,3.2,0.1,4.8,0c1,0,2,0,1.9,1.4c-0.1,5,3.6,5.7,7.2,6.3
	c1.5,0.3,2.9,0.3,4.4,0c2.6-0.5,5.6-0.9,6-4.2c0.5-3.6-2.3-4.7-4.9-5.9c-5.1-2.2-10.7-3.3-15.4-6.6c-5-3.5-6.9-8.6-5.3-14.3
	c1-3.4,3.4-6.2,6.7-7.6c7.7-3.7,16.7-3.7,24.3,0.2c4.5,2.3,6.6,7.5,5,12.3c-0.4,1.2-1.2,1.2-2.2,1.3c-1.9,0-3.7-0.1-5.6,0
	s-2.6-0.5-2.6-2.5c0-3.7-3.1-4-5.7-4.3c-2.9-0.4-6.1-0.3-7.8,2.7c-1.1,1.9-0.2,3.9,1.6,5.3c2,1.4,4.2,2.4,6.5,3
	c4,1.3,8.2,2.5,11.8,4.9c5.9,3.7,7.7,11.5,4,17.5c-1,1.6-2.3,2.9-3.9,3.9c-7.7,5.2-22,5-29.7-0.2C304.8,63.4,303.5,61.7,302.1,59.2z
	"/>
<path class="st0" d="M119.9,45c-4.7,0-9.3,0.1-14,0c-2.3-0.1-2.7,0.7-2.1,2.8c1.8,7.3,8.7,11.8,16.5,10.6c2.8-0.5,5.4-1.3,7.9-2.6
	c1.3-0.6,2.7-2.9,4-1.4c1.8,2.1,2.7,4.8,3.9,7.3c0.1,0.3-0.6,1.1-1.1,1.4c-14.7,10.1-37.7,6.7-43.1-12.9c-5.2-19,9.6-35.4,28.6-31.8
	c11.8,2.2,17.5,13.2,16.6,24.7c-0.2,2.1-1.4,1.9-2.8,1.9L119.9,45z M113.9,37.8L113.9,37.8c2.5,0,5.1-0.2,7.6,0
	c2.8,0.2,3.1-1.1,2.6-3.3c-1-4.5-5.1-7.6-9.7-7.2c-4.9,0.2-9.6,4.2-10.4,8.5c-0.3,1.8,0.5,2,1.9,2H113.9z"/>
<path class="st0" d="M395.8,45c-4.5,0-9.1,0.2-13.6,0c-3.2-0.1-3.2,1.3-2.5,3.7c2.2,6.9,9.2,11.1,16.3,9.7c3.2-0.4,6.2-1.5,8.9-3.2
	c2-1.3,3-1.3,4.2,1c3.5,6.2,3.4,6.8-3.1,9.7c-13.7,6.1-28.7,2.6-35.5-8.6c-5.8-9.6-5.6-19.7,0.6-29c6-8.9,14.9-11.5,25.2-9.6
	c10.6,2,18.3,13.6,16.5,24.4c-0.3,1.8-1.2,2.1-2.7,2.1C405.4,44.9,400.6,45,395.8,45z M379.8,37.8c6.1,0,12.2-0.1,18.3,0
	c2.6,0,2.3-1.4,1.9-3.1c-1.2-4.9-4.9-7.6-9.9-7.4C384.6,27.6,380.6,31.6,379.8,37.8z"/>
<path class="st0" d="M239.8,45c0.9,9.4,8,14.9,17,13.3c3.1-0.4,6-1.4,8.6-3.1c2.5-1.9,3.4-0.9,4.6,1.4c3.2,6.1,3.3,6-2.9,9
	c-12,5.7-25.6,3.6-33.5-5.1c-7.3-8-8.5-21.2-2.8-31c5.2-8.9,16.1-13.3,27-10.7c10.1,2.4,17.2,13.8,15.4,24.4
	c-0.4,2.3-1.7,1.9-3.1,1.9h-26.4C242.4,45,241.1,45,239.8,45z M250,37.8c2.8,0,5.6-0.1,8.4,0c2.1,0.1,2.8-0.5,2.2-2.7
	c-1.1-4.3-4-7.3-8-7.8c-4.9-0.5-9.6,2.3-11.5,6.8c-1.1,2.4-1.4,4,2.2,3.7C245.4,37.7,247.7,37.8,250,37.8z"/>
<path class="st0" d="M359.1,28.2v23.6c0,3.6,0.7,6.5,5.3,6.1c1.7-0.1,1.8,0.9,2,2.3c0.7,7.7-0.4,8.8-8.3,7.4
	c-6.7-1.2-9.8-4.3-10.7-11c-1.2-8.9-0.3-17.8-0.5-26.7c-0.1-5.7-0.1-11.4,0-17.2c0.1-2.6-0.5-4.2-3.5-3.7c-5,0.9-3.7-2.7-4-5.4
	c-0.4-3.4,1.4-3.6,4-3.5c4.1,0.2,8.3,0.2,12.4,0c2.6-0.1,3.5,0.7,3.4,3.4C359,11.7,359.1,19.9,359.1,28.2L359.1,28.2z"/>
<path class="st0" d="M288.7,0.1c6,0,8,2.4,5.7,8.9c-1.4,3.9-6,0.9-9.1,1.7c-1.6,0.4-2.9-0.1-2.7-2.2c0.1-0.7,0.1-1.3,0-2
	C282.5,0.1,282.5,0.1,288.7,0.1z"/>
</svg>
