<?xml version="1.0" encoding="utf-8"?>
<!-- Generator: Adobe Illustrator 23.0.3, SVG Export Plug-In . SVG Version: 6.00 Build 0)  -->
<svg version="1.1" id="Layer_1" xmlns="http://www.w3.org/2000/svg" xmlns:xlink="http://www.w3.org/1999/xlink" x="0px" y="0px"
	 viewBox="0 0 392.5 233.7" style="enable-background:new 0 0 392.5 233.7;" xml:space="preserve">
<style type="text/css">
	.st0{fill:#9BA2B1;}
</style>
<title>website-planet</title>
<path class="st0" d="M78.6,125.7c-13.7,9.4-26.7,17.7-39,27.1c-8.2,6.2-15.8,13.3-22.6,21.1c-9.7,11.3-6.8,19.1,8,21
	c10.9,1.5,21.9,1.5,32.8,0.1c99.4-13.5,190.8-49.3,276.2-101.1c11.2-6.8,21.4-15.3,31.6-23.6c4.6-3.8,8.7-8.3,12.1-13.2
	c6.4-9.1,3.9-15.4-6.9-17.8c-4.5-1.1-9.1-1.7-13.8-1.9c-21.5-0.1-42.9,2.2-63.9,7.1c-1,0.4-2,0.8-3,1.3c1,1.6,1.8,3.1,2.8,4.4
	c8,11,12.7,23.3,15.8,36.4c0.2,1,0.7,2.1,0.5,2.9c-0.8,2.3-1.4,5.5-3.1,6.4c-3,1.7-5.2-0.8-6.4-3.7c-0.8-2.2-1.6-4.4-2.3-6.6
	c-8.5-27-25.2-47.4-49.7-61.4c-3.4-2-5.7-4.5-3.5-8.5s5.7-3.8,9-1.5c8.2,5.9,16.5,11.8,24.4,18.2c2.8,2.2,4.9,3,8.4,2.2
	c21.3-5.4,43.2-8.3,65.2-8.6c9.6,0,19.2,1.6,28.3,4.7c12.4,4.2,16.5,15.2,9.9,26.6c-4.8,8.2-10.8,15.6-17.6,22.1
	c-16,15.4-34.9,26.8-54,37.8c-3.2,1.9-4.7,3.9-4.9,7.8c-2.8,55.7-49.8,103.8-105.4,108.3c-35.8,2.9-66.7-7.9-92.7-32.5
	c-2-2.2-5.1-3-8-2.2c-23.6,5.2-47.4,9.7-71.7,8.3c-6.8-0.4-13.5-1.6-20-3.8c-14.7-5-19.1-16.2-11-29.5c4.6-7.5,10.3-14.3,16.9-20.1
	c16.3-14.8,34.6-27.1,54-37.6c3.2-1.8,4.4-3.8,4.6-7.4C82.2,53.4,127.6,5.8,182.7,0.5c10.4-1,20.9-0.1,31.4,0.5
	c6.1,0.3,8.4,2.9,8,6.7s-3.1,5.4-9.4,4.4c-23-3.2-44.8,0-65.4,10.8C97.5,49.1,77,108.3,99.8,160l3,6.9c1.7,3.7,1.3,7.1-2.8,8.8
	s-6.4-0.9-7.8-4.3c-2.8-6.9-5.8-13.8-8-21C82.1,142.9,80.8,135.2,78.6,125.7z M300.7,128.1c-28.8,12.4-57.1,25.7-86.2,36.9
	s-58.8,20.3-88.2,30.3c22.5,23.1,68,36.6,110.1,19.4C279.5,197,300,155.2,300.7,128.1z"/>
<path class="st0" d="M183.6,141.4c-0.4-8.2-0.8-15.9-1.1-23.7c-0.7-20.3-1.4-40.6-2.1-60.8c-0.3-7.4,1.3-9.3,9.6-11.6
	c0.3,3.5,0.7,6.8,0.8,10.2c1,25.1,1.9,50.2,2.8,75.3C193.8,136.8,191.3,139.7,183.6,141.4z"/>
<path class="st0" d="M141.4,86.6c1.3,2.8,2.1,5,3.2,7c1.6,2.8,0.8,4.9-1.1,7.2c-5.2,6-10.2,12.2-15.9,19.2c4.5,0.3,8.3,0.5,12.1,0.7
	c2.5,0.2,5,0.5,7.5,0.6c10.3,0.6,10.3,0.6,13.8,11.4c-2.4-0.1-4.6-0.2-6.8-0.4c-12.9-1-25.9-2-38.8-3.1c-4.3-0.4-5.9-3.9-3.1-7.3
	C121.7,110.5,131.3,98.9,141.4,86.6z"/>
<path class="st0" d="M233.5,102.2c-5.6-10-5.6-10,0.8-17.7c4.1-5,8.3-9.9,12.7-15.2c-7.9-0.7-15.3-1.2-22.6-1.9s-8.9-2.6-10.2-11.1
	c6.7,0.5,13.3,0.9,19.9,1.3c8.3,0.6,16.6,1.2,24.9,1.9c4.1,0.3,6.3,3.8,3.9,6.8C253.4,78.3,243.6,90,233.5,102.2z"/>
</svg>
