<?xml version="1.0" encoding="utf-8"?>
<!-- Generator: Adobe Illustrator 23.0.3, SVG Export Plug-In . SVG Version: 6.00 Build 0)  -->
<svg version="1.1" id="Layer_1" xmlns="http://www.w3.org/2000/svg" xmlns:xlink="http://www.w3.org/1999/xlink" x="0px" y="0px"
	 viewBox="0 0 314.6 62.3" style="enable-background:new 0 0 314.6 62.3;" xml:space="preserve">
<style type="text/css">
	.st0{fill:#9BA2B1;}
</style>
<title>winning-wp</title>
<path class="st0" d="M216.9,17c-2,12.5-4.7,24.8-7.8,37.1c-1.2,4.7-4.3,7.8-9.5,8.2c-3.6,0.2-6.6-0.8-8-4.5
	c-1.3-3.5,0.2-6.1,2.8-8.3c0.7-0.6,1.9-0.7,2.2-2.2c-3.1,0-6.1-0.3-7.9-3.1c-1.2-1.9-1.9-1.5-3.2-0.2c-3.1,3.2-6.8,4.4-10.9,2.3
	c-4.4-2.4-3.8-6.5-2.8-10.5c0.7-3.1,1.4-6.2,2-9.3c0.3-1.9,0.9-4.4-1.8-5c-2.4-0.6-3.5,1.5-4.3,3.4c-2,5.5-2.7,11.3-4,17
	c-1.1,5.1-4,7.5-8.1,4.9c-3.3-2.2-5.1-0.5-7.5,0.1c-1.8,0.5-4.2,1.1-5.3-0.2c-3.4-4.3-6.2-1.6-9.6-0.1c-5.8,2.6-11-1.4-10.2-7.8
	c0.5-4.3,1.7-8.5,2.5-12.7c0.4-1.9,0.5-4-1.7-4.7s-3.4,1.2-4.1,2.8c-2.4,5.4-2.8,11.3-4.1,16.9c-1.3,5.9-3.4,7.5-9.2,5.6
	c-1.6-0.6-3.4-0.6-5,0c-6.6,1.8-10.8-2-9.7-8.8c0.6-3.9,1.6-7.8,2.2-11.8c0.3-1.7,0.8-4.1-1.5-4.7s-3.6,1.3-4.3,3.2
	c-1.3,3.6-2.1,7.3-3,11.1c-0.5,1.9-0.8,3.9-1.2,5.9c-1.3,6.2-4.6,7.5-10,3.7c-1.5-1.1-2,0.3-2.8,0.7c-3.2,1.3-6.4,2.2-9.4-0.2
	c-3-2.4-3-5.7-2.2-9.1c1.3-5.7,2.3-11.4,3.5-17.1c0.7-3.4,5.9-5.6,8.8-3.8c1.4,0.9,0.6,2,0.4,3.1c-1.2,5.7-2.4,11.4-3.6,17.1
	c-0.4,1.9-1.4,4.3,1.3,5c2.4,0.6,4.3-0.9,5.1-3.1c1-3.1,1.9-6.3,2.6-9.6c0.6-2.6,1-5.2,1.6-7.8c1.2-5.2,5.2-7,9.5-3.7
	c1.8,1.4,2.2-0.1,3.1-0.5c6.7-2.7,11.6,0.6,10.8,7.8c-0.4,4.1-1.7,8.1-2.6,12.2c-0.4,1.8-0.9,3.9,1.4,4.7c2,0.7,3.5-0.6,4.5-2.3
	c3.1-5.5,3.6-11.8,4.6-17.8c0.8-4.5,2.7-6.3,6.8-5.2c3.3,0.9,6.2,0.5,9.5-0.1c4.7-0.9,8,3.1,7.3,8.3c-0.6,4.1-1.7,8.1-2.4,12.2
	c-0.3,1.9-1.2,4.3,1.6,5c2.3,0.6,3.7-1.2,4.6-3.1c2.7-5.8,2.9-12.3,4.5-18.4c0.6-2.2,0.8-4,3.9-4.1c5.7-0.1,6,0,4.8,5.7
	c-1.1,5-2.2,10.1-3.2,15.1c-0.3,1.7-1.1,3.9,1.3,4.7c2,0.7,3.5-0.7,4.7-2.1c1.6-1.9,2-4.2,2.5-6.5c0.9-3.9,1.6-7.8,2.4-11.7
	c1.1-5.4,5.1-7.3,9.7-3.9c1.6,1.2,1.9,0,2.7-0.4c3.1-1.4,6.1-1.8,8.9,0.5c2.6,2.2,2.8,5.2,2.1,8.3c-0.8,3.7-1.8,7.4-2.5,11.2
	c-0.3,1.7-0.8,3.9,1.7,4.5c2.1,0.5,3.4-1,4.4-2.6c0.8-1.4,0.7-2.9,0.9-4.4c0.8-5.9,2.8-11.4,7.4-15.4c3.4-3,7.3-4.4,12-2.4
	c2.6,1,5.1-1.5,7.9-0.7c0.9,0.3,2,0,2.7,1C217,16.6,217,16.8,216.9,17z M195.9,34.8c0.3,2.5-0.6,5.7,2.9,6.1
	c2.9,0.3,4.5-1.9,5.1-4.5c1-4.2,1.9-8.4,2.8-12.6c0.3-1.6,1-3.5-1.1-4.4s-3.5,0.3-4.7,1.8C197.6,25.2,196.7,30.1,195.9,34.8
	L195.9,34.8z M200.9,51c0.1-1.6-0.3-2.4-1.6-1.9c-2.4,0.9-4.5,2.3-4.7,5.1c-0.2,1.2,0.6,2.3,1.8,2.5c0,0,0,0,0,0c0.2,0,0.4,0,0.6,0
	C200.2,56.1,200.3,53.1,200.9,51L200.9,51z"/>
<path class="st0" d="M216.9,17c0-0.2,0-0.4,0-0.5c3.4-9.3,10.2-14.4,19.8-16.2c3.7-0.7,5.8-0.1,5.6,4.6c-0.4,10.1-0.1,20.3-0.1,30.4
	l1.5,0.2l4.6-13.3c2.2-6.3,4.5-12.5,6.5-18.9c0.7-2.3,1.9-3,4.2-3.2c3.8-0.3,5.2,0.8,5,4.9c-0.3,10.2-0.1,20.4,0.7,30.6
	c2.7-7.5,5.4-15.1,8.1-22.7c1.2-3.4,2.5-6.9,3.6-10.4c0.6-1.9,1.9-2.9,3.7-2.3c2.5,0.9,0.4,2.4,0.2,3.6c-0.3,2.1-2,3.8-1.5,6.2
	l0.1-0.1c-1.3,0.2-1.1,1.2-1,2.1l0.1-0.1c-5,10.1-8.1,20.9-12.2,31.4c-0.8,2.1-1.6,3.6-4.5,3.6c-6.2,0-6.2,0.2-6.2-6.2
	c0.2-7.5-0.2-15-1-22.5c-3.2,8.1-6.3,16.2-9.5,24.2c-1.4,3.7-5.6,5.6-9.4,4.2l0,0c-2-0.8-1.3-2.5-1.3-3.8c-0.1-11.3,0-22.6-0.1-33.9
	c0-1.4,0.9-3.3-1-3.9c-1.5-0.5-2.8,0.8-4,1.7c-3.7,2.9-5,6.9-5,11.4c0,1.2,1.3,3.2-1,3.7c-1.8,0.4-3.1-0.8-4.1-2.2
	C218.1,18.9,218.4,17.4,216.9,17z"/>
<path class="st0" d="M36.1,18.4c-3.4,8.5-6.9,16.8-9.8,25.4c-1.7,4.9-5.3,3.1-8.2,3.1c-3.6,0-2.1-3.2-2.1-5
	c-0.1-11.2-0.1-22.3,0-33.5c0-3.7-1.2-4.1-4-2.3c-4.7,3-6.2,7.6-6,12.9c0,1,0.8,2.5-0.8,3c-1.3,0.3-2.7-0.2-3.6-1.3
	c-2.1-2.3-1.8-4.9-0.9-7.5C3.1,6.1,14.4-0.8,22,0.1c3.1,0.3,2.2,2.3,2.3,4c0.2,5.3,0.4,10.6,0.5,16c0.1,5.1,0,10.2,1.1,15.5
	c3.7-10.6,7.4-21.2,11-31.8c0.7-2.1,1.4-3.3,4-3.5c4-0.3,5.5,0.7,5.4,5.1c-0.4,10.1-0.1,20.3,0.8,30.4c3.6-10.3,7.2-20.6,10.9-30.9
	c0.4-1.1,0.7-2.2,1.2-3.3C59.7,0,61.2,0,62.5,0.4c2,0.6,0.6,2,0.3,2.8C57.7,17,52.5,30.6,47.4,44.3c-1.7,4.6-5.3,2.3-8,2.5
	c-3.3,0.2-2.2-2.7-2.2-4.4c-0.1-6.8,0-13.7-0.1-20.5C37.1,20.8,37.7,19.4,36.1,18.4z"/>
<path class="st0" d="M279,10.1c4.9-4.2,9.7-8.3,16.3-9.7c10.4-2.1,19.2,3.1,19.4,11.7c0.1,7.7-6.1,15.2-14.6,16.6
	c-3.5,0.5-4.3,2.1-4.8,4.9c-0.6,3.4-1.6,6.8-2.1,10.3c-0.3,2.7-1.6,3.1-4,3.2c-5.9,0.1-5.9,0.2-4.6-5.6c2.2-10.2,4.4-20.5,6.5-30.7
	c0.7-3.1,6.2-5.9,8.9-4.5c1.6,0.8,0.6,2,0.4,3c-1.1,5.6-2.3,11.3-3.4,17.2c7.9-2,13-13.3,9.4-19.8c-1-1.9-3-3.3-5.2-3.5
	c-9.6-1.4-17,5-17.4,14.7c0,1.4,1.8,4.1-1.4,4.3c-2.7,0.2-4.1-1.9-4.4-4.5c-0.2-1.8,0-3.6,0-5.4l-0.1,0.1
	C279.3,11.9,279.5,11.2,279,10.1L279,10.1z"/>
<path class="st0" d="M75.2,7.8c-0.5,2.8-2.2,4.6-5.3,4.4c-2.5,0-4.6-2-4.6-4.5c0,0,0,0,0,0c0-0.1,0-0.2,0-0.3
	c-0.2-2.6,1.8-4.8,4.4-4.9c0,0,0,0,0,0c0.2,0,0.4,0,0.6,0C73.2,2.5,75.1,4.4,75.2,7.8z"/>
<path class="st0" d="M154.9,7.3c-0.6,2.8-1.9,4.9-5.2,4.8c-2.5,0.2-4.6-1.7-4.8-4.1c0-0.1,0-0.3,0-0.4c-0.3-2.5,1.4-4.8,4-5.2
	c0,0,0,0,0,0c0.2,0,0.5,0,0.8,0C152.6,2.3,154.3,4.4,154.9,7.3z"/>
<path class="st0" d="M279,10.1c0.5,1.1,0.2,1.9-1,2.1C278,11.3,277.7,10.3,279,10.1z"/>
</svg>
