<?xml version="1.0" encoding="utf-8"?>
<!-- Generator: Adobe Illustrator 23.0.3, SVG Export Plug-In . SVG Version: 6.00 Build 0)  -->
<svg version="1.1" id="Layer_1" xmlns="http://www.w3.org/2000/svg" xmlns:xlink="http://www.w3.org/1999/xlink" x="0px" y="0px"
	 viewBox="0 0 2497.9 475" style="enable-background:new 0 0 2497.9 475;" xml:space="preserve">
<style type="text/css">
	.st0{fill:#9BA2B1;}
</style>
<title>wp-engine</title>
<path class="st0" d="M161.1,475h152.7V359.5l-37.3-37.3h-79.2L161,359.5V475H161.1z M358.6,161.1l-36.3,36.3v80.1l36.3,36.3H475
	V161.1H358.6z M313.9,0H161.2v116.4l36.3,36.3h79.2l37.3-36.3V0H313.9z M475,475V359.5l-36.3-37.3H322.3v152.7H475V475z M36.3,0
	L0,36.3v116.4h152.7V0H36.3z M322.3,0v116.4l36.3,36.3H475V0H322.3z M237.5,259.8c-11.8,0-21.4-9.6-21.4-21.4s9.6-21.4,21.4-21.4
	s21.4,9.6,21.4,21.4v0C258.8,250.2,249.3,259.7,237.5,259.8z M152.7,161.1H0v152.7h115.5l37.3-36.3V161.1L152.7,161.1z M152.7,359.5
	l-37.3-37.3H0v152.7h115.5l37.3-36.3v-79.1H152.7z"/>
<path class="st0" d="M801.9,359.5c-2.8,0-3.7-0.9-4.7-3.7l-38.2-135h-0.9l-38.2,135c-0.9,2.8-1.9,3.7-4.7,3.7h-44.7
	c-2.8,0-3.7-0.9-4.7-3.7l-65.1-234.7c0-1.9,0-3.7,2.8-3.7h58.7c2.8,0,4.7,1.9,4.7,3.7l30.7,140.6h0.9l37.3-140.6
	c0.9-2.8,1.9-3.7,4.7-3.7h36.3c2.8,0,3.7,0.9,4.7,3.7l39.1,140.6h0.9l29.8-140.6c0-1.9,1.9-3.7,4.7-3.7h58.7c1.9,0,2.8,1.9,2.8,3.7
	l-65.2,234.7c-0.9,2.8-1.9,3.7-4.7,3.7H801.9z M964,359.5c-2-0.1-3.6-1.7-3.7-3.7V121.1c0.1-2,1.7-3.6,3.7-3.7h96.9
	c58.7,0,89.4,33.5,89.4,80.1s-30.7,81-89.4,81h-35.4c-1.9,0-1.9,0.9-1.9,1.9v74.5c-0.1,2-1.7,3.6-3.7,3.7H964V359.5z M1087.8,198.4
	c0-16.8-11.2-27-30.7-27h-31.7c-1.9,0-1.9,0.9-1.9,1.9v50.3c0,1.9,0.9,1.9,1.9,1.9h31.7C1076.7,225.4,1087.8,214.2,1087.8,198.4
	L1087.8,198.4z M1233.1,299.9c-4.7-13-6.5-28.9-6.5-60.5c0-30.7,2.8-47.5,6.5-60.5c12.1-38.2,41.9-57.7,80.1-57.7
	c39.1,0,68,19.6,80.1,57.7c4.7,13,6.5,27.9,6.5,56.8c0,2.8-1.9,4.7-5.6,4.7h-151.8c-1.9,0-2.8,1.9-2.8,3.7c0,25.1,1.9,39.1,5.6,51.2
	c11.2,34.5,36.3,49.4,69.9,49.4c31.7,0,55-14,68.9-32.6c1.9-2.8,4.7-2.8,6.5-0.9l2.8,2.8c2.8,1.9,2.8,4.7,0.9,6.5
	c-15.8,22.4-42.8,38.2-78.2,38.2C1274.1,358.6,1246.2,339,1233.1,299.9z M1384,227.2c1.9,0,2.8-0.9,2.8-2.8c0-15.8-1.9-28.9-5.6-40
	c-10.2-32.6-34.5-49.4-67.1-49.4s-56.8,15.8-67.1,49.4c-3.7,11.2-5.6,23.3-5.6,40c0,1.9,0.9,2.8,2.8,2.8H1384z M1615.9,353.9
	c-2.5,0.1-4.6-1.7-4.7-4.2c0-0.2,0-0.3,0-0.5v-136c0-54-22.4-77.3-66.1-77.3c-38.2,0-69.9,26.1-69.9,70.8v143.4
	c0.1,2.5-1.7,4.6-4.2,4.7c-0.2,0-0.3,0-0.5,0h-4.7c-2.5,0.1-4.6-1.7-4.7-4.2c0-0.2,0-0.3,0-0.5V132.2c-0.1-2.5,1.7-4.6,4.2-4.7
	c0.2,0,0.3,0,0.5,0h4.7c2.5-0.1,4.6,1.7,4.7,4.2c0,0.2,0,0.3,0,0.5v31.7h0.9c11.2-26.1,37.3-41.9,69.9-41.9
	c51.2,0,80.1,28.9,80.1,87.5v139.7c0.1,2.5-1.7,4.6-4.2,4.7c-0.2,0-0.3,0-0.5,0L1615.9,353.9z M1694.2,412.6
	c-1.9-2.8-1.9-5.6,0.9-6.5l3.7-2.8c2.8-1.9,4.7-0.9,6.5,1.9c13,16.8,32.6,27,60.5,27c42.8,0,70.8-21.4,70.8-77.3v-38.2h-0.9
	c-11.2,25.1-30.7,42.8-70.8,42.8c-38.2,0-64.3-20.5-75.4-54c-5.6-15.8-7.5-36.3-7.5-64.3s2.8-48.4,7.5-64.3
	c11.2-33.5,37.3-54,75.4-54c40,0,59.6,17.7,70.8,42.8h0.9v-32.6c-0.1-2.5,1.7-4.6,4.2-4.7c0.2,0,0.3,0,0.5,0h4.7
	c2.5-0.1,4.6,1.7,4.7,4.2c0,0.2,0,0.3,0,0.5v222.6c0,62.4-33.5,90.3-85.7,90.3C1732.3,445.2,1705.3,430.3,1694.2,412.6L1694.2,412.6
	z M1830.1,299.9c4.7-14,6.5-30.7,6.5-59.6c0-27.9-1.9-45.6-6.5-59.6c-11.2-33.5-35.4-45.6-63.3-45.6c-30.7,0-53.1,14.9-62.4,44.7
	c-4.7,14-7.5,33.5-7.5,59.6s2.8,45.6,7.5,59.6c10.2,29.8,31.7,44.7,62.4,44.7C1794.8,345.5,1819.9,333.4,1830.1,299.9L1830.1,299.9z
	 M1928.9,56.8c-2.5,0.1-4.6-1.7-4.7-4.2c0-0.2,0-0.3,0-0.5V33.5c-0.1-2.5,1.7-4.6,4.2-4.7c0.2,0,0.3,0,0.5,0h11.2
	c2.5-0.1,4.6,1.7,4.7,4.2c0,0.2,0,0.3,0,0.5v19.6c0.1,2.5-1.7,4.6-4.2,4.7c-0.2,0-0.3,0-0.5,0h-11.2V56.8z M1932.6,353.9
	c-2.5,0.1-4.6-1.7-4.7-4.2c0-0.2,0-0.3,0-0.5v-217c-0.1-2.5,1.7-4.6,4.2-4.7c0.2,0,0.3,0,0.5,0h4.7c2.5-0.1,4.6,1.7,4.7,4.2
	c0,0.2,0,0.3,0,0.5v217c0.1,2.5-1.7,4.6-4.2,4.7c-0.2,0-0.3,0-0.5,0H1932.6z M2173.8,353.9c-2.5,0.1-4.6-1.7-4.7-4.2
	c0-0.2,0-0.3,0-0.5v-136c0-54-22.4-77.3-66.1-77.3c-38.2,0-69.9,26.1-69.9,70.8v143.4c0.1,2.5-1.7,4.6-4.2,4.7c-0.2,0-0.3,0-0.5,0
	h-4.7c-2.5,0.1-4.6-1.7-4.7-4.2c0-0.2,0-0.3,0-0.5V132.2c-0.1-2.5,1.7-4.6,4.2-4.7c0.2,0,0.3,0,0.5,0h4.7c2.5-0.1,4.6,1.7,4.7,4.2
	c0,0.2,0,0.3,0,0.5v31.7h0.9c11.2-26.1,37.3-41.9,69.9-41.9c51.2,0,80.1,28.9,80.1,87.5v139.7c0.1,2.5-1.7,4.6-4.2,4.7
	c-0.2,0-0.3,0-0.5,0H2173.8z M2247.4,299.9c-4.7-13-6.5-28.9-6.5-60.5c0-30.7,2.8-47.5,6.5-60.5c12.1-38.2,41.9-57.7,80.1-57.7
	c39.1,0,68,19.6,80.1,57.7c4.7,13,6.5,27.9,6.5,56.8c0,2.8-1.9,4.7-5.6,4.7h-151.8c-1.9,0-2.8,1.9-2.8,3.7c0,25.1,1.9,39.1,5.6,51.2
	c11.2,34.5,36.3,49.4,69.9,49.4c31.7,0,55-14,68.9-32.6c1.9-2.8,4.7-2.8,6.5-0.9l2.8,2.8c2.8,1.9,2.8,4.7,0.9,6.5
	c-15.8,22.4-42.8,38.2-78.2,38.2C2288.4,358.6,2259.5,339,2247.4,299.9L2247.4,299.9z M2397.3,227.2c1.9,0,2.8-0.9,2.8-2.8
	c0-15.8-1.9-28.9-5.6-40c-10.2-32.6-34.5-49.4-67.1-49.4s-56.8,15.8-67.1,49.4c-3.7,11.2-5.6,23.3-5.6,40c0,1.9,0.9,2.8,2.8,2.8
	H2397.3z M2442.1,149.9c0-15.4,12.5-27.9,27.9-27.9c15.4,0,27.9,12.5,27.9,27.9s-12.5,27.9-27.9,27.9l0,0
	C2454.2,177.8,2442.1,165.8,2442.1,149.9L2442.1,149.9z M2493.3,149.9c0-14-10.2-23.3-23.3-23.3c-14,0-23.3,10.2-23.3,23.3
	c0,14,10.2,23.3,23.3,23.3S2493.3,163.9,2493.3,149.9L2493.3,149.9z M2460.7,165.8c-0.9,0-0.9,0-0.9-0.9V136c0-0.9,0-0.9,0.9-0.9
	h11.2c6.5,0,10.2,3.7,10.2,9.3c0,3.7-1.9,7.5-6.5,8.4l6.5,12.1c0.9,0.9,0,1.9-0.9,1.9h-2.8c-0.9,0-0.9-0.9-1.9-0.9l-6.5-12.1h-6.5
	V165c0,0.5-0.4,0.9-0.9,0.9c0,0,0,0,0,0L2460.7,165.8L2460.7,165.8z M2477.4,143.4c0-2.8-1.9-4.7-5.6-4.7h-7.5v9.3h7.5
	C2475.6,148.1,2477.4,146.2,2477.4,143.4L2477.4,143.4z"/>
</svg>
