<?xml version="1.0" encoding="utf-8"?>
<!-- Generator: Adobe Illustrator 23.0.3, SVG Export Plug-In . SVG Version: 6.00 Build 0)  -->
<svg version="1.1" id="Layer_1" xmlns="http://www.w3.org/2000/svg" xmlns:xlink="http://www.w3.org/1999/xlink" x="0px" y="0px"
	 viewBox="0 0 345.5 184" style="enable-background:new 0 0 345.5 184;" xml:space="preserve">
<style type="text/css">
	.st0{fill:#9BA2B1;}
</style>
<title>wplift</title>
<path class="st0" d="M55.3,127.9c-2.8,9.9-5.9,19.7-8.4,29.7c-1,4.4-3,5.6-7.2,5.3c-4.3-0.3-8.7-0.3-13,0c-4.5,0.4-6.6-1-8-5.6
	c-5.8-19.6-12-39.1-18.1-58.6c-0.3-1.2-0.5-2.3-0.6-3.5h24.4l8.6,32.2l0.9,0.2c1.4-4.6,2.9-9.2,4.2-13.7c1.7-5.6,3-11.3,5-16.7
	c0.8-1.7,2.2-2.9,4-3.3c5.9-0.8,12-0.8,17.9-1.4c3.4-0.4,4.7,1,5.4,4.1c2.5,10.3,5.6,20.4,9.3,30.4c0.8-3.1,1.6-6.1,2.4-9.2
	c2-8.1,3.9-16.2,6.2-24.2c0.4-1.4,2-3.3,3.3-3.5c6.4-1,12.8-1.6,20.3-2.4c-1.3,4.9-2.4,9.1-3.6,13.3c-5.3,18.5-10.8,37-16,55.6
	c-0.8,3-2.2,4.4-5.5,4.4c-5.5,0-11,0.4-16.5,1c-3.2,0.4-4.4-1-5.2-3.8c-2.8-10.1-5.8-20.1-8.8-30.1L55.3,127.9z"/>
<path class="st0" d="M139.4,152.7c0,6.2,0,11.9,0,17.5c-0.1,5.9-2.1,9.3-7.7,10.8c-5.2,1.4-10.6,2-16.4,3c-0.1-2.8-0.3-4.6-0.3-6.3
	c0-28.3,0.1-56.6-0.1-85c0-4.6,1.1-6.5,6-6.6s9.9-1.4,14.9-1.8c1.5-0.1,3.1,1,5.6,1.8c2.3-1.7,4.7-3.2,7.2-4.6
	c11.8-5.8,23.8-2,28.8,10c7,17,6.6,34.2-2.3,50.5C169.2,152.6,154.7,160.5,139.4,152.7z M139.5,120.4v11c0,3.5,1.1,6.3,4.8,7.2
	s6.8-0.7,8.2-4c4.3-10,4.4-21.4,0.3-31.5c-1.1-3-4.4-4.5-7.3-3.4c-1,0.4-1.9,1-2.5,1.8c-1.8,2.3-3,5.1-3.3,8
	C139.1,113.1,139.5,116.8,139.5,120.4z"/>
<path class="st0" d="M281.8,141.6l-24.2,1.5V84.9h-8.1V68.7c1.2-0.3,2.4-0.5,3.6-0.7c3.4-0.1,4.4-1.7,4.4-5.1
	c0-3.7,0.4-7.3,1.3-10.9c2.9-11.5,11-18,24.3-19.6c14.9-1.8,15.3-1.5,15.2,13.4c0,1.8-0.2,3.6-0.3,5.3c-14.9,2.2-16.4,3.5-15.6,13.5
	h11c0,4.8,0.3,9.6-0.2,14.4c-0.1,1-2.7,2.4-4.2,2.6c-7.1,0.8-7.1,0.6-7.2,7.9L281.8,141.6L281.8,141.6z"/>
<path class="st0" d="M305.3,62.3V43.7c7.6-0.3,14.8-0.8,22.1-0.8c0.8,0,2.3,2.5,2.3,3.8c0.3,5.1,0.1,10.2,0.1,15.9
	c4.5,0,8.3-0.3,12.1,0.1c1.3,0.1,3.3,1.8,3.4,2.9c0.4,4.8,0.2,9.6,0.2,14.8h-15.6v30.1c0,9.5,3.1,12.3,12.5,11.2
	c0.8-0.1,1.6,0,3.1,0c0,6.1,0.1,12-0.1,17.9c0,0.9-2,2.5-3,2.4c-7.3-0.1-14.7,0.4-21.7-1.2c-9.8-2.3-14.8-11.3-15.1-24.3
	c-0.2-9.5,0-19,0-28.5v-6.2l-8.3-0.5c0-5.2-0.5-10.5,0.3-15.6C297.7,64.4,301.9,63.7,305.3,62.3z"/>
<path class="st0" d="M171.3,22.7c2.4-2.9,4.8-5.4,6.6-8.2c2.8-4.4,1.3-7.2-4-7.7c-1.6-0.2-3.3,0-5.5,0c4.5-3.2,12.5-4.2,16.9-2.5
	c4,1.6,4.3,5.1,2.5,7.8c-3.7,5.7-7.8,11.1-12.3,16.1c-2.5,2.9-4.9,5.3-6.1,9.2c-4.5,13.7-18.1,21-32.6,18.4c-2.9-0.5-6.1,0.1-9,0.7
	c-7.6,1.7-15,4-22.7,5.3c-2.3,0.4-6.3-1.2-7.1-2.9c-1-2.2-0.1-6,1.4-8.1c2.8-3.9,6.5-7.1,9.9-10.6l0.9,0.9c-1.6,2.6-3,5.3-4.2,8.1
	c-1.6,4,0,6,4.2,5c4.7-1,9.2-2.7,14.5-4.3c-8.2-8.4-11.4-17.5-8.9-28.2c1.7-7.6,6.6-14,13.5-17.7C145.1-5.1,160.7,1.7,171.3,22.7z"
	/>
<path class="st0" d="M188.6,150c-0.1-2.4-0.3-4-0.3-5.6c0-30.7,0-61.3-0.1-92c0-3.9,0.9-5.7,5.1-6c6.3-0.6,12.5-1.8,19.3-2.8
	c0.2,2.1,0.5,3.8,0.5,5.5c0,31.2-0.1,62.3,0.1,93.5c0,3.9-1.2,5.2-5,5.4C201.8,148.3,195.4,149.2,188.6,150z"/>
<path class="st0" d="M221.7,146.4c-0.1-1.9-0.3-3.4-0.3-4.8c0-21.5,0.1-43-0.1-64.5c0-3.9,1-5.6,5.1-5.9c6.4-0.4,12.8-1.5,19.8-2.4
	c0.1,2.1,0.3,3.7,0.3,5.3c0,21.7-0.1,43.3,0.1,65c0,4-1,5.6-5.2,5.7C235,144.9,228.7,145.7,221.7,146.4z"/>
<path class="st0" d="M233.4,63.7c-6.3,0.2-11.6-4.7-11.8-11c0-0.2,0-0.4,0-0.6c0-6.8,5.4-11.7,12.9-11.7c6.5-0.1,11.8,5,11.9,11.5
	c0,0,0,0,0,0V52C246.4,58.6,240.8,63.7,233.4,63.7z"/>
</svg>
