<svg id="Layer_1" data-name="Layer 1" xmlns="http://www.w3.org/2000/svg" viewBox="0 0 62 63"><title>service-4</title><g id="group-11svg"><path id="path-1" d="M62,53.48A9.5,9.5,0,0,1,52.52,63H9.5A9.5,9.5,0,0,1,0,53.5v-44A9.49,9.49,0,0,1,9.5,0h43A9.49,9.49,0,0,1,62,9.48h0Zm-3-44A6.5,6.5,0,0,0,52.5,3H9.5A6.5,6.5,0,0,0,3,9.49v44A6.5,6.5,0,0,0,9.49,60h43A6.5,6.5,0,0,0,59,53.5Z" transform="translate(0 0)" style="fill:#fff;fill-rule:evenodd"/><path id="path-2" d="M32.35,25.33c-3.79,0-7-5.16-7-8.4,0-3.41,3.26-6.39,7-6.39s7,3,7,6.39S36.13,25.33,32.35,25.33Zm0-11.79c-2,0-4,1.68-4,3.39,0,2.17,2.39,5.4,4,5.4s4-3.23,4-5.4c0-1.71-2-3.39-4-3.39Z" transform="translate(0 0)" style="fill:#fff;fill-rule:evenodd"/><path id="path-3" d="M40.81,36a1.34,1.34,0,0,1-1.39-.75,7.48,7.48,0,0,0-7.08-4.71,7.64,7.64,0,0,0-7.05,4.77,1.51,1.51,0,0,1-1.33,1l-2.26.09A1.5,1.5,0,0,1,20.15,35v-.06a12.19,12.19,0,0,1,24.37,0,1.34,1.34,0,0,1-1.42,1.26H43L40.83,36ZM32.33,25.67a9.21,9.21,0,0,0-8.84,6.7,10.63,10.63,0,0,1,17.68,0A9.21,9.21,0,0,0,32.33,25.67Z" transform="translate(0 0)" style="fill:#fff;fill-rule:evenodd"/><path id="path-4" d="M42.57,46h-21a1.5,1.5,0,1,1,0-3h21a1.5,1.5,0,0,1,0,3Z" transform="translate(0 0)" style="fill:#fff;fill-rule:evenodd"/><path id="path-5" d="M42.57,53h-21a1.5,1.5,0,1,1,0-3h21a1.5,1.5,0,0,1,0,3Z" transform="translate(0 0)" style="fill:#fff;fill-rule:evenodd"/></g></svg>