<svg id="Layer_1" data-name="Layer 1" xmlns="http://www.w3.org/2000/svg" viewBox="0 0 63 58.48"><title>icon-10</title><g id="group-3svg"><path id="path-1" d="M27.34,57.94h0a8,8,0,0,1-1.56-.19,6.24,6.24,0,0,0-.93-.12c-7.88,0-14.08-2.44-18.43-7.23A25.46,25.46,0,0,1,.12,30.82a2.78,2.78,0,0,1,2.76-2.51H3c9.38.48,17.17,3.79,21.93,9.31,4.14,4.81,6,11,5.3,18a2.55,2.55,0,0,1-2.52,2.29ZM3.09,31.33A22.38,22.38,0,0,0,8.64,48.38c3.76,4.14,9.21,6.25,16.2,6.25a7.43,7.43,0,0,1,1.5.18,5.42,5.42,0,0,0,1,.13c.5-6-1.06-11.21-4.62-15.35C18.5,34.74,11.55,31.8,3.09,31.33Z" transform="translate(0.01 0)" style="fill:#0a182d;fill-rule:evenodd"/><path id="path-2" d="M38.14,58.48c-.92,0-1.89,0-2.88-.13a2.78,2.78,0,0,1-2.54-2.49c-.68-7,1.16-13.31,5.31-18.12C42.85,32.15,50.64,28.8,60,28.32h.14a2.77,2.77,0,0,1,2.76,2.51,26.25,26.25,0,0,1-6.29,20C52,55.83,45.65,58.48,38.14,58.48Zm-2.45-3.1c.85.07,1.67.1,2.45.1,6.64,0,12.25-2.31,16.21-6.67A23.23,23.23,0,0,0,59.9,31.33c-8.39.47-15.35,3.44-19.6,8.37C36.73,43.83,35.14,49.25,35.69,55.38Z" transform="translate(0.01 0)" style="fill:#0a182d;fill-rule:evenodd"/><path id="path-3" d="M30.86,33.32A16.66,16.66,0,1,1,47.52,16.66,16.68,16.68,0,0,1,30.86,33.32ZM30.86,3A13.66,13.66,0,1,0,44.52,16.66,13.68,13.68,0,0,0,30.86,3Z" transform="translate(0.01 0)" style="fill:#0a182d;fill-rule:evenodd"/></g></svg>