<svg id="e7d62c2c-c7a6-4c77-8f5c-a3fe0c7ac473" xmlns="http://www.w3.org/2000/svg" xmlns:xlink="http://www.w3.org/1999/xlink" viewBox="0 0 1052.06 660.36"><defs><linearGradient id="linear-gradient" x1="616.8" y1="-46.91" x2="616.8" y2="-64.88" gradientTransform="translate(-1.71 22) rotate(45)" gradientUnits="userSpaceOnUse"><stop offset="0" stop-color="gray" stop-opacity="0.25"/><stop offset="0.54" stop-color="gray" stop-opacity="0.12"/><stop offset="1" stop-color="gray" stop-opacity="0.1"/></linearGradient></defs><title>hero</title><path d="M744.06,273.49c-44.19-29.33-73-65.54-98.42-101.36s-48.8-72.51-84.93-105.52c-23.19-21.22-55.29-42.09-93.83-46.87-37.12-4.6-69.93,6.8-97.51,19.08C348.58,48.11,328.14,58.67,319.31,74c-6.09,10.6-6,22.75-10.26,33.88-15,38.67-79.48,57.87-142.83,65.41-29.77,3.56-60.67,5.35-88.82,11.32s-54.09,16.7-65.19,33.66S6.06,255.83,16.73,275c21.71,38.89,65.62,73.31,110.81,105.44,100,71.11,211.14,136.08,321.94,200.84,41,23.93,82.17,48,127.57,68.47,25.17,11.4,53.1,22,82,23.59,36.7,2.15,69.86-12.27,77.29-33.54C748.8,604.1,695.2,560.08,717,527c11.95-18.19,43.91-27,75.73-31,68.17-8.77,149.56-3,199-30.69,33.94-19,44.48-52.56,26.1-82.9C998.55,350.61,947.5,321.5,895,321.81,840.73,322.11,783,299.4,744.06,273.49Z" transform="translate(-5.96 -13.17)" style="fill:#fff;opacity:0.5;isolation:isolate"/><g id="form-1"><polygon points="301.11 0 484.61 113.77 301.11 227.53 117.62 113.77 301.11 0" style="fill:#dfe1e5"/><polygon points="211.29 77.89 334.75 154.44 327.19 159.13 203.73 82.59 211.29 77.89" style="opacity:0.10000000149011612;isolation:isolate"/><polygon points="238.66 60.93 321.95 112.57 314.39 117.26 231.09 65.62 238.66 60.93" style="opacity:0.10000000149011612;isolation:isolate"/><polygon points="263.62 44.58 387.08 121.12 379.51 125.81 256.05 49.27 263.62 44.58" style="opacity:0.10000000149011612;isolation:isolate"/><polygon points="289.57 29.8 357.81 72.11 350.24 76.8 282 34.49 289.57 29.8" style="opacity:0.10000000149011612;isolation:isolate"/><path d="M244.2,151.87l-56.5-35c-3.33-2.06-3.33-5.39,0-7.45h0a12.46,12.46,0,0,1,12,0l56.5,35c3.32,2.06,3.32,5.39,0,7.45h0A12.46,12.46,0,0,1,244.2,151.87Z" transform="translate(-5.96 -13.17)" style="opacity:0.15"/></g><g id="form-5"><polygon points="868.57 351.82 1052.06 465.59 868.57 579.35 685.07 465.59 868.57 351.82" style="fill:#dfe1e5"/><polygon points="750.5 445.83 873.96 522.37 866.39 527.06 742.93 450.52 750.5 445.83" style="opacity:0.10000000149011612;isolation:isolate"/><polygon points="777.86 428.86 861.16 480.5 853.59 485.2 770.3 433.55 777.86 428.86" style="opacity:0.10000000149011612;isolation:isolate"/><polygon points="802.82 412.51 926.28 489.05 918.72 493.75 795.26 417.2 802.82 412.51" style="opacity:0.10000000149011612;isolation:isolate"/><polygon points="828.7 397.43 860.74 417.29 853.17 421.98 821.14 402.12 828.7 397.43" style="opacity:0.10000000149011612;isolation:isolate"/><path d="M874.19,437.82h0a1.08,1.08,0,0,1,0,2h0a3.3,3.3,0,0,1-3.25,0h0a1.08,1.08,0,0,1,0-2h0A3.3,3.3,0,0,1,874.19,437.82Z" transform="translate(-5.96 -13.17)" style="opacity:0.10999999940395355;isolation:isolate"/><polygon points="877.28 427.55 909.31 447.41 901.75 452.1 869.72 432.24 877.28 427.55" style="opacity:0.10000000149011612;isolation:isolate"/><path d="M929.49,472.1h0a1.08,1.08,0,0,1,0,2h0a3.32,3.32,0,0,1-3.26,0h0a1.09,1.09,0,0,1,0-2h0A3.6,3.6,0,0,1,929.49,472.1Z" transform="translate(-5.96 -13.17)" style="opacity:0.10999999940395355;isolation:isolate"/><polygon points="932.65 461.87 964.68 481.73 957.11 486.42 925.08 466.56 932.65 461.87" style="opacity:0.10000000149011612;isolation:isolate"/><polygon points="851.4 383.7 919.64 426.01 912.07 430.7 843.84 388.4 851.4 383.7" style="opacity:0.10000000149011612;isolation:isolate"/></g><g id="form-4"><polygon points="670.15 288.43 874.65 415.21 670.15 542 465.65 415.21 670.15 288.43" style="fill:#e9ebf2"/><polygon points="592.57 370.36 716.03 446.9 708.46 451.59 585 375.05 592.57 370.36" style="opacity:0.10000000149011612;isolation:isolate"/><polygon points="569.02 384.95 719.66 478.36 687.84 498.08 537.2 404.68 569.02 384.95" style="opacity:0.10000000149011612;isolation:isolate"/><polygon points="619.93 353.39 703.23 405.03 695.66 409.73 612.36 358.08 619.93 353.39" style="opacity:0.10000000149011612;isolation:isolate"/><polygon points="644.89 337.04 768.35 413.58 760.79 418.27 637.33 341.73 644.89 337.04" style="opacity:0.10000000149011612;isolation:isolate"/><polygon points="670.84 322.26 739.08 364.57 731.51 369.26 663.28 326.95 670.84 322.26" style="opacity:0.10000000149011612;isolation:isolate"/></g><g id="form-2"><polygon points="381.37 109.38 585.86 236.17 381.37 362.96 176.87 236.17 381.37 109.38" style="fill:#e9ebf2"/><polygon points="280.25 204.43 403.71 280.98 396.15 285.67 272.69 209.12 280.25 204.43" style="opacity:0.10000000149011612;isolation:isolate"/><polygon points="307.62 187.46 390.91 239.11 383.35 243.8 300.05 192.15 307.62 187.46" style="opacity:0.10000000149011612;isolation:isolate"/><polygon points="332.58 171.11 456.04 247.66 448.47 252.35 325.01 175.8 332.58 171.11" style="opacity:0.10000000149011612;isolation:isolate"/><polygon points="358.46 156.03 390.49 175.89 382.92 180.58 350.89 160.72 358.46 156.03" style="opacity:0.10000000149011612;isolation:isolate"/><path d="M404,196.42h0a1.08,1.08,0,0,1,0,2h0a3.32,3.32,0,0,1-3.26,0h0a1.08,1.08,0,0,1,0-2h0A3.32,3.32,0,0,1,404,196.42Z" transform="translate(-5.96 -13.17)" style="opacity:0.10999999940395355;isolation:isolate"/><polygon points="407.04 186.15 439.07 206.01 431.5 210.7 399.47 190.84 407.04 186.15" style="opacity:0.10000000149011612;isolation:isolate"/><path d="M459.24,230.71h0a1.08,1.08,0,0,1,0,2h0a3.3,3.3,0,0,1-3.25,0h0a1.08,1.08,0,0,1,0-2h0A3.52,3.52,0,0,1,459.24,230.71Z" transform="translate(-5.96 -13.17)" style="opacity:0.10999999940395355;isolation:isolate"/><polygon points="462.4 220.47 494.43 240.33 486.87 245.03 454.84 225.16 462.4 220.47" style="opacity:0.10000000149011612;isolation:isolate"/><polygon points="381.16 142.31 449.39 184.61 441.83 189.3 373.59 147 381.16 142.31" style="opacity:0.10000000149011612;isolation:isolate"/></g><g id="form-3"><polygon points="423.16 272.07 463.89 297.33 456.32 302.02 415.59 276.77 423.16 272.07" style="opacity:0.10000000149011612;isolation:isolate"/><polygon points="372.32 303.6 432.63 340.99 425.07 345.68 364.75 308.29 372.32 303.6" style="opacity:0.10000000149011612;isolation:isolate"/><polygon points="433.62 222.27 686.41 379 433.62 535.73 180.83 379 433.62 222.27" style="fill:#3b88f7;opacity:0.10000000149011612;isolation:isolate"/><polygon points="454.13 220.08 706.92 376.81 454.13 533.54 201.34 376.81 454.13 220.08" style="fill:#fff"/><polygon points="452.57 253.84 652.4 377.73 644.84 382.42 445.01 258.53 452.57 253.84" style="fill:#3b88f7;opacity:0.5;isolation:isolate"/><polygon points="346.86 319.38 470.32 395.93 462.76 400.62 339.3 324.07 346.86 319.38" style="opacity:0.10000000149011612;isolation:isolate"/><polygon points="321.9 334.86 490.19 439.19 458.37 458.92 290.08 354.58 321.9 334.86" style="opacity:0.10000000149011612;isolation:isolate"/><path d="M515.46,434.17l.07-1.1c0-.08,0-.08-.07-.13s-.07,0-.22,0l-12.09,0v-2.72c-.07,0,0-.08-.07-.13s-.07,0-.21,0H501c-.14,0-.28.09-.28.17h0v3.42a.61.61,0,0,0,.28.53,1.8,1.8,0,0,0,.85.18h0l13.22-.05c.22.05.29,0,.36-.13Z" transform="translate(-5.96 -13.17)" style="fill:#3b88f7"/><path d="M516,427.29c4.95,3.07,4.95,8,0,11s-12.87,3.07-17.82,0-4.95-8,0-11A16.91,16.91,0,0,1,507,425a17.73,17.73,0,0,1,8.91,2.28m1.35-.84c-5.66-3.5-14.92-3.55-20.58,0s-5.73,9.25-.07,12.76,14.92,3.55,20.57,0h0c5.73-3.55,5.73-9.25.08-12.76Z" transform="translate(-5.96 -13.17)" style="fill:#3b88f7"/><g style="opacity:0.10000000149011612"><path d="M481.66,420.93c-9.27,2.5-15.35,2-15.35,2l-1.91-1.18c3.61-1,11.18-3.07,13.23-3.38s-2.12-6.4-4.6-9.95a5.57,5.57,0,0,0,2.26.18S490.92,418.43,481.66,420.93Z" transform="translate(-5.96 -13.17)" style="fill:url(#linear-gradient)"/></g><path d="M329.56,424.48l-56.5-35c-3.32-2.06-3.32-5.39,0-7.45h0a12.46,12.46,0,0,1,12,0l56.5,35c3.32,2.06,3.32,5.39,0,7.45h0A12.46,12.46,0,0,1,329.56,424.48Z" transform="translate(-5.96 -13.17)" style="fill:#3b88f7"/><polygon points="373.02 303.16 456.32 354.8 448.75 359.49 365.46 307.85 373.02 303.16" style="opacity:0.10000000149011612;isolation:isolate"/><polygon points="402.02 284.31 525.48 360.85 517.91 365.54 394.45 289 402.02 284.31" style="opacity:0.10000000149011612;isolation:isolate"/><path d="M472.89,374.55l24.25,15c2.12,1.32,2.12,3.42,0,4.74h0a7.9,7.9,0,0,1-7.63,0l-24.26-15c-2.12-1.31-2.12-3.42,0-4.73h0A8.14,8.14,0,0,1,472.89,374.55Z" transform="translate(-5.96 -13.17)" style="fill:#3b88f7"/><path d="M433.29,284.76h0a1.08,1.08,0,0,1,0,2h0a3.3,3.3,0,0,1-3.25,0h0a1.08,1.08,0,0,1,0-2h0A3.3,3.3,0,0,1,433.29,284.76Z" transform="translate(-5.96 -13.17)" style="opacity:0.10999999940395355;isolation:isolate"/><polygon points="436.38 274.49 468.41 294.35 460.85 299.04 428.81 279.18 436.38 274.49" style="opacity:0.10000000149011612;isolation:isolate"/><path d="M481.87,314.88h0a1.08,1.08,0,0,1,0,2h0a3.3,3.3,0,0,1-3.25,0h0a1.08,1.08,0,0,1,0-2h0A3.3,3.3,0,0,1,481.87,314.88Z" transform="translate(-5.96 -13.17)" style="opacity:0.10999999940395355;isolation:isolate"/><polygon points="484.96 304.61 516.99 324.46 509.43 329.15 477.39 309.3 484.96 304.61" style="opacity:0.10000000149011612;isolation:isolate"/><path d="M537.17,349.16h0a1.09,1.09,0,0,1,0,2h0a3.32,3.32,0,0,1-3.26,0h0a1.08,1.08,0,0,1,0-2h0A3.6,3.6,0,0,1,537.17,349.16Z" transform="translate(-5.96 -13.17)" style="opacity:0.10999999940395355;isolation:isolate"/><polygon points="540.33 338.93 572.36 358.79 564.79 363.48 532.76 343.62 540.33 338.93" style="opacity:0.10000000149011612;isolation:isolate"/></g></svg>