<svg id="Layer_1" data-name="Layer 1" xmlns="http://www.w3.org/2000/svg" xmlns:xlink="http://www.w3.org/1999/xlink" viewBox="0 0 949.82 661.5"><defs><style>.cls-1,.cls-2{fill:#3B88F7;}.cls-2,.cls-5,.cls-7{opacity:0.1;}.cls-2,.cls-21,.cls-26,.cls-29,.cls-5{isolation:isolate;}.cls-3{fill:url(#linear-gradient);}.cls-4{fill:#444176;}.cls-6{fill:#565387;}.cls-8{fill:#ced2df;}.cls-9{fill:#88455e;}.cls-10{fill:#ec8c9c;}.cls-11{fill:#ebf1f6;}.cls-12{fill:url(#linear-gradient-2);}.cls-13{fill:url(#linear-gradient-3);}.cls-14{fill:#ffbdc6;}.cls-15{fill:#7679b4;}.cls-16{fill:#a66477;}.cls-17{fill:#f2f1f2;}.cls-18{fill:#565388;}.cls-19{fill:url(#linear-gradient-4);}.cls-20{fill:#493545;}.cls-21{opacity:0.05;}.cls-22{fill:#3e3d77;}.cls-23{fill:#c77485;}.cls-24{fill:#ffaac4;}.cls-25,.cls-27{fill:none;stroke-miterlimit:10;}.cls-25{stroke:#535461;stroke-width:2px;}.cls-26{fill:#dee3f3;opacity:0.5;}.cls-27{stroke:#3B88F7;}.cls-28{fill:#a8a8a8;}.cls-29{opacity:0.2;}.cls-30{fill:#ffd037;}</style><linearGradient id="linear-gradient" x1="585.65" y1="1.06" x2="585.65" y2="415.02" gradientTransform="matrix(1, 0, 0, -1, -125.1, 544.76)" gradientUnits="userSpaceOnUse"><stop offset="0" stop-color="gray" stop-opacity="0.25"/><stop offset="0.54" stop-color="gray" stop-opacity="0.12"/><stop offset="1" stop-color="gray" stop-opacity="0.1"/></linearGradient><linearGradient id="linear-gradient-2" x1="266.19" y1="176.89" x2="266.19" y2="177.11" xlink:href="#linear-gradient"/><linearGradient id="linear-gradient-3" x1="252.57" y1="59.06" x2="252.57" y2="393.02" xlink:href="#linear-gradient"/><linearGradient id="linear-gradient-4" x1="852.66" y1="61.98" x2="852.66" y2="469" xlink:href="#linear-gradient"/></defs><title>illustration-9</title><circle class="cls-1" cx="95.15" cy="66.01" r="46.49"/><path class="cls-2" d="M89.45,160.67c19.52,44.09-5.38,94.86-34.69,133.09C45,306.58,34.12,320,32.76,336.1c-1.64,19.67,11.68,37.75,27.48,49.57,28.82,21.54,68.18,28.2,102.48,17.33,29.64-9.39,54.56-30.6,84.46-39.15,50-14.32,103,9.42,145.82,39,30.31,20.91,62.77,46.39,99.31,41.91,25.71-3.15,47.53-21.2,62.34-42.45,7.15-10.26,13.37-21.76,23.78-28.68,6.19-4.12,13.46-6.3,20.73-7.86,66.39-14.19,136.85,20.44,202.36,2.63,44.25-12,79.53-47,101.47-87.27s32.18-85.74,40.71-130.79c6.06-32,11.09-66.57-2.84-96C926.12,23.18,892,4.29,857.71.75S789,7,757.44,20.76C718,38,679.28,62.18,636.2,62.26c-29.34.06-57.32-11.2-85.37-19.79C503.93,28.12,455.16,21,406.56,14.41,360,8.11,313,2.25,266.23,6c-33.12,2.63-62.37,15.29-94.51,21.15-20.95,3.82-42,1-62.56,7.4C83.84,42.44,57.8,60.79,56.4,89.69,55.08,117.2,79.1,137.28,89.45,160.67Z" transform="translate(0.02 -0.02)"/><path class="cls-3" d="M601.9,199.93c-4.27-11.13-15.28-37.29-22.53-32.1-9.16,6.56,9.16,35.54,9.16,35.54.52,5.32-9.78,16.39-15.3,21.91v-.69a2.22,2.22,0,0,1-.24.6l-.46-.25a3,3,0,0,1-.65,1.19,11.68,11.68,0,0,0,0-1.19c-1.06,4.49-19.56,10.18-19.56,10.18h-1.36c-5.14,0-18.52-1.16-24.72-11.08a55,55,0,0,0-12.13-14.15,10.39,10.39,0,0,0-5.75-2.18c-17.13-1.1-31-9.77-33.77-11.62l-.51-.35-.11.32c-.65-.93-1.28-1.92-1.87-2.94h0l-.3-.55a25.1,25.1,0,0,0,13.85-22.34v-.52a17.07,17.07,0,0,0,2.3-8.57v-3l3.91-3.48c1.79-1.59,3.64-3.27,4.55-5.46a6.4,6.4,0,0,0,.48-2.8,4.85,4.85,0,0,0-1.84-4.34c-3-2.07-8,0-10.17-2.88-1-1.3-.82-3.07-1.31-4.6-1-3.11-4.6-4.79-7.93-4.84s-6.52,1.16-9.72,2.07a57,57,0,0,1-20.7,1.94,13.39,13.39,0,0,0-5.67.2,7.8,7.8,0,0,0-4.6,5.35,12.63,12.63,0,0,0-.44,2.74,17.25,17.25,0,0,0-4.34,11.41v7.69a17.26,17.26,0,0,0,4.15,11.19,25,25,0,0,0,10.47,18.24v.61l.13.08a41.26,41.26,0,0,1-1.1,7.07v-.51s-14,7.45-29,7.63h-1.65a11.16,11.16,0,0,0-8,3c-4.44,4.18-12.22,10.79-17,10.79-1,0-26.24,4.93-30.42,5.75l-7.81-7.65-.24.45-.46-.45a19.93,19.93,0,0,0-2.54.37c-4-4.74-12-15.76-13.85-30.55,0,0,17.27-19.67,10.92-38-5.42-15.62-20.35,17.86-24.59,28a8.09,8.09,0,0,0-.26,5.55l14,45.22a21.15,21.15,0,0,0-1.11,11h-.16L341.85,252s7.69,3.28,19.72,3.22a69,69,0,0,0,25.74-4.94h2.37l-.45.17H401.4l7.74,23.41c-.26,2.13-4,31.86-7,38.51a16.75,16.75,0,0,0-1.18,7,53.7,53.7,0,0,0,2.23,13.55l6.78-.25-.26.53c-5.74,11.77-15.33,32.74-21,52.34l-9.87,20,7.4,89.7h.3l.57.09h0c.8.12,2,.3,3.58.5l-.58,1-16.31,27s-11.63,23.81,14.1,19.32c0,0,9.51-2.76,13.39-19l16.92-15.87s.79-10.54-4-14.75c-.3-4.87-1.06-19.09.11-22.51,1.41-4.14-6-51.75-6-51.75s26.78-55.55,43-56.93a8.91,8.91,0,0,1,3.51.46c13.33,4.34,29.48,36.57,34.23,46.6h0l.22.46v.09l.18.39v.11l.16.34v.09l.14.31v.07l.12.25v.1l.09.19v.08l.06.14v.17h0l.05.12,2.11,62.45h0l.21.11h.1l-.18,1.29-.92,6.45s11.63,24.5,10.92,27.6,7.75,15.53,19.73,12.08,4.85-22.9,4.85-22.9L515.36,475.6l-.51-1.06a23.07,23.07,0,0,0,3.24-2.41s-3.52-25.53,0-31.05,4.58-30.71,4.58-30.71-2.47-17.25-6.7-24.84l-17.72-63.25c5.31,4.94,9.44,6.87,12.89,6.74h.57a8.56,8.56,0,0,0,4.34-1.08,12,12,0,0,0,2-1.41,2.57,2.57,0,0,0,.33-.33h0c4.93-4.14-5.64-20.36-11.63-30-5.77-9.3,2.18-34.57,2.78-36.45a9.44,9.44,0,0,1,1.71-1,10.57,10.57,0,0,1,3.92-.85c5.74.2,12.8,3.5,21.54,5.16a102,102,0,0,0,18.39,1.43h.36c2.45,0,4.67-.05,6.47-.12a10.89,10.89,0,0,0,4.7-1.27h0a14.5,14.5,0,0,0,3.34-2.7l15.34-17.33-.4.19a8.66,8.66,0,0,0,0-6.1l16.21-28A10.64,10.64,0,0,0,601.9,199.93Z" transform="translate(0.02 -0.02)"/><path class="cls-4" d="M419.78,505.9l-16.33,15.65c-3.74,16-12.93,18.71-12.93,18.71-24.83,4.42-13.61-19-13.61-19l15.75-26.65,1.94-3.29s11.23-3.4,18.71-1.36a6.41,6.41,0,0,1,2.55,1.38C420.55,495.41,419.78,505.9,419.78,505.9Z" transform="translate(0.02 -0.02)"/><path class="cls-4" d="M520.47,519.85c-11.57,3.4-19.73-8.84-19-11.91s-10.57-27.18-10.57-27.18l.88-6.36.82-5.89,19,1.36,1.79,3.76,11.14,23.45S532,516.45,520.47,519.85Z" transform="translate(0.02 -0.02)"/><path class="cls-5" d="M416,494c-1.79,3.07-16.3,1.52-23.37.56l1.94-3.29s11.23-3.4,18.71-1.36a6.41,6.41,0,0,1,2.55,1.38C416,493,416,494,416,494Z" transform="translate(0.02 -0.02)"/><path class="cls-5" d="M513.41,473.61c-9.73,6.48-20.09,1.58-21.65.77l.82-5.89,19,1.36Z" transform="translate(0.02 -0.02)"/><path class="cls-6" d="M516.05,439.57c-3.4,5.44,0,30.62,0,30.62-11.23,10.21-24.49,2.72-24.49,2.72l-2-61.57S467.45,360.65,451.8,362s-41.5,56.13-41.5,56.13,7.14,46.94,5.78,51,0,23.81,0,23.81c-2.38,4.08-27.21,0-27.21,0l-7.14-88.45,9.48-19.74c5.45-19.32,14.71-40,20.25-51.6,2.75-5.77,4.59-9.29,4.59-9.29l18.1-3.77,58.75-12.18L514,384.76c4.08,7.48,6.46,24.49,6.46,24.49S519.45,434.13,516.05,439.57Z" transform="translate(0.02 -0.02)"/><g class="cls-7"><path d="M497,472.91l-2-61.57S472.89,360.65,457.24,362a8.46,8.46,0,0,0-2.05.46c15.26,5.07,34.37,48.87,34.37,48.87l2,61.57a24,24,0,0,0,13.53,2.47A24.2,24.2,0,0,1,497,472.91Z" transform="translate(0.02 -0.02)"/><path d="M394.27,493l-7.14-88.45,9.52-19.77c5.45-19.32,14.71-40,20.25-51.6,2.75-5.77,4.59-9.29,4.59-9.29l18.1-3.77L493.22,309l-.29-1.07L434.15,320.1l-18.1,3.77s-1.84,3.52-4.59,9.29c-5.56,11.6-14.8,32.32-20.25,51.6l-9.52,19.73,7.14,88.45s13.56,2.23,21.6,1.74A159.18,159.18,0,0,1,394.27,493Z" transform="translate(0.02 -0.02)"/></g><path class="cls-8" d="M352.9,219s-19.39,1-16.67,21.43l5.44.68,8.16-8.84,4.08-7.48v-1.7Z" transform="translate(0.02 -0.02)"/><path class="cls-5" d="M352.9,219s-19.39,1-16.67,21.43l5.44.68,8.16-8.84,4.08-7.48v-1.7Z" transform="translate(0.02 -0.02)"/><path class="cls-8" d="M568.61,226.45s16,8.5,11.91,18.37l-5.1,2-6.8-3.74-1-8.84.68-6.12Z" transform="translate(0.02 -0.02)"/><path class="cls-5" d="M568.61,226.45s16,8.5,11.91,18.37l-5.1,2-6.8-3.74-1-8.84.68-6.12Z" transform="translate(0.02 -0.02)"/><path class="cls-9" d="M452.27,138.68h13.61A21.09,21.09,0,0,1,487,159.77h0a21.09,21.09,0,0,1-21.09,21.09H452.27a21.09,21.09,0,0,1-21.09-21.09h0A21.09,21.09,0,0,1,452.27,138.68Z" transform="translate(0.02 -0.02)"/><path class="cls-10" d="M352.77,221.86l-11.91,19-1-3.38-16.18-52.72a8.16,8.16,0,0,1,.25-5.47c4.09-9.94,18.51-43,23.74-27.55,6.12,18-10.55,37.42-10.55,37.42,1.9,15.76,10.75,27.18,14.23,31.14C352.23,221.33,352.77,221.86,352.77,221.86Z" transform="translate(0.02 -0.02)"/><path class="cls-10" d="M566.06,230s18.71-17.69,18-24.83c0,0-17.69-28.57-8.84-35,7-5.12,17.63,20.68,21.75,31.65a10.72,10.72,0,0,1-.71,9L573.9,250.43Z" transform="translate(0.02 -0.02)"/><path class="cls-10" d="M445,180.7s3.4,21.77-6.46,29.94,28.24,8.12,28.24,8.12l13.61-12.59s-15.65-14.63-10.89-25.51Z" transform="translate(0.02 -0.02)"/><path class="cls-5" d="M444.27,205.53s14.63,10.89,29.25-1.36l23.81,49.33L496,313.71s-49.33,25.51-69.74,9.87-3.4-23.81-3.4-23.81l-4.76-46.26,5.1-29.94s9.18-14.29,9.87-14.29S444.27,205.53,444.27,205.53Z" transform="translate(0.02 -0.02)"/><path class="cls-11" d="M444.27,204.85s14.63,10.91,29.26-1.36l23.81,49.33L496,313s-49.33,25.51-69.74,9.87-3.4-23.81-3.4-23.81l-4.76-46.26,5.1-29.94s9.18-14.29,9.87-14.29S444.27,204.85,444.27,204.85Z" transform="translate(0.02 -0.02)"/><path class="cls-5" d="M444.27,199.76s-13.87,7.9-28.93,7.51a10.67,10.67,0,0,0-7.69,2.94c-4.29,4.12-11.8,10.64-16.45,10.64-1,0-29.94,5.78-29.94,5.78L353.61,219s-11.4,22.28-16.84,21.26l9.87,12.93s18.71,8.16,43.2-1.7h14.29l7.48,23.13s-3.74,31.3-6.8,38.1,1,20.07,1,20.07l26.87-1s1.36-13.27,3.4-15-7.14-60.21-7.14-60.21-6.12-33,16.33-44.9Z" transform="translate(0.02 -0.02)"/><path class="cls-5" d="M434.14,320.14A89.65,89.65,0,0,0,432,332.41l-20.57.78c2.75-5.77,4.59-9.29,4.59-9.29Z" transform="translate(0.02 -0.02)"/><path class="cls-5" d="M352.77,221.86l-11.91,19-1-3.38c4.37-4.34,9.49-13.41,11.53-17.19A20.16,20.16,0,0,0,352.77,221.86Z" transform="translate(0.02 -0.02)"/><path class="cls-8" d="M444.27,199.76s-14.56,7.9-29.61,7.51a10.67,10.67,0,0,0-7.69,2.94c-4.29,4.12-11.8,10.64-16.45,10.64-1,0-29.94,5.78-29.94,5.78L352.9,219s-11.4,22.28-16.84,21.26l9.87,12.93s18.71,8.16,43.2-1.7h14.29l7.48,23.12s-3.74,31.3-6.8,38.1,1,20.07,1,20.07l26.87-1s1.36-13.27,3.4-15-7.14-60.21-7.14-60.21-6.12-33,16.33-44.9Z" transform="translate(0.02 -0.02)"/><path class="cls-5" d="M473.53,197.7s13.88,10.58,32.41,11.8a9.86,9.86,0,0,1,5.55,2.15,53.79,53.79,0,0,1,11.71,14c7.48,12.25,25.85,10.89,25.85,10.89s17.86-5.61,18.88-10c0,0,.51,24,11.74,18.2l-14.77,17a10.44,10.44,0,0,1-7.45,3.59c-5.55.22-15.19.29-23.33-1.29-12.25-2.38-21.09-8.16-27.55-3.06,0,0-8.5,26.53-2.72,36.06s16,25.51,11.23,29.6-10.55,3.74-20.07-6.12S484.46,294,484.46,294l2.38-42.86s-9.18-32.32-18-38.78Z" transform="translate(0.02 -0.02)"/><path class="cls-5" d="M581,244.31,566.21,261.4a10.41,10.41,0,0,1-3.57,2.66h0a10.34,10.34,0,0,1-3.86.91c-5.55.23-15.19.3-23.33-1.29-11.46-2.23-19.94-7.43-26.28-3.92a9.17,9.17,0,0,0-1.28.85s-8.5,26.53-2.72,36.06,16,25.51,11.23,29.6a11.16,11.16,0,0,1-2.66,1.73c-4.28,1.93-9.59.26-17.41-7.85-9.52-9.87-10.55-26.53-10.55-26.53l2.38-42.86s-9.18-32.32-18-38.78L474.05,198c2.68,1.82,16.06,10.37,32.6,11.46a9.86,9.86,0,0,1,5.55,2.15,54,54,0,0,1,11.71,14c7.48,12.25,25.85,10.89,25.85,10.89a99.65,99.65,0,0,0,12.87-5.12h0c2.61-1.28,4.91-2.68,6-4a2.93,2.93,0,0,0,.65-1.2S569.8,250.09,581,244.31Z" transform="translate(0.02 -0.02)"/><path class="cls-8" d="M580.34,244.65l-14.8,17.11a10.43,10.43,0,0,1-2.88,2.32h0a10.33,10.33,0,0,1-4.54,1.25c-5.55.23-15.19.3-23.33-1.29-11-2.15-19.34-7.07-25.59-4.26a9.19,9.19,0,0,0-2,1.19s-8.5,26.53-2.72,36.06,16,25.51,11.23,29.6a11.92,11.92,0,0,1-2,1.39c-4.4,2.43-9.84,1-18.09-7.51C486.1,310.64,485.07,294,485.07,294l2.38-42.86s-9.18-32.32-18-38.78l4.08-14.63.49.34c2.68,1.82,16.06,10.37,32.6,11.46a9.86,9.86,0,0,1,5.55,2.15,54,54,0,0,1,11.71,14c7.48,12.25,25.85,10.89,25.85,10.89a99.65,99.65,0,0,0,12.87-5.12h0c3.09-1.58,5.61-3.31,6-4.89v.86C568.9,231.53,570.4,249.76,580.34,244.65Z" transform="translate(0.02 -0.02)"/><path class="cls-5" d="M469.75,181.21h-25a60.93,60.93,0,0,1,.47,12,25.71,25.71,0,0,0,26.42,1.9C469.24,190.67,467.78,185.63,469.75,181.21Z" transform="translate(0.02 -0.02)"/><circle class="cls-10" cx="459.94" cy="172.51" r="24.83"/><path class="cls-5" d="M454.76,168.11c2.77-.33,5.54-1.31,8.27-.76,2.48.5,4.59,2.21,7.07,2.73,4.78,1,9.22-2.52,12.83-5.8l7.8-7.1c1.73-1.57,3.51-3.22,4.4-5.38s.58-5-1.32-6.36c-2.85-2-7.76,0-9.82-2.84-.93-1.28-.79-3-1.27-4.53-1-3.06-4.44-4.73-7.66-4.77s-6.3,1.14-9.38,2a54,54,0,0,1-20,1.91,12.78,12.78,0,0,0-5.47.19,7.65,7.65,0,0,0-4.44,5.27c-1.54,5.44,1.09,14.21,3.73,19.08S449.49,168.76,454.76,168.11Z" transform="translate(0.02 -0.02)"/><path class="cls-9" d="M454.76,167.43c2.77-.33,5.54-1.31,8.27-.76,2.48.5,4.59,2.21,7.07,2.73,4.78,1,9.22-2.52,12.83-5.8l7.8-7.1c1.73-1.57,3.51-3.22,4.4-5.38s.58-5-1.32-6.36c-2.85-2-7.76,0-9.82-2.84-.93-1.28-.79-3-1.27-4.53-1-3.06-4.44-4.73-7.66-4.77s-6.3,1.14-9.38,2a54,54,0,0,1-20,1.91,12.78,12.78,0,0,0-5.47.19,7.65,7.65,0,0,0-4.44,5.27c-1.54,5.44,1.09,14.21,3.73,19.08S449.49,168,454.76,167.43Z" transform="translate(0.02 -0.02)"/><path class="cls-5" d="M411.45,274.76s5.44.68,8.16,4.08,7.48,4.42,7.48,4.42" transform="translate(0.02 -0.02)"/><path class="cls-5" d="M362.46,229.85s4.44,9.91,1.7,10.91-1.7,8.16-1.7,8.16" transform="translate(0.02 -0.02)"/><g class="cls-7"><path d="M364,226.45s28.91-5.78,29.91-5.78c4.66,0,12.16-6.52,16.45-10.64a10.49,10.49,0,0,1,4.66-2.59h-.37a10.67,10.67,0,0,0-7.69,2.94C402.66,214.5,395.15,221,390.5,221c-.81,0-19.31,3.67-26.82,5.16Z" transform="translate(0.02 -0.02)"/><path d="M444.31,201.19v-1.27A72.06,72.06,0,0,1,422.15,207,68.48,68.48,0,0,0,444.31,201.19Z" transform="translate(0.02 -0.02)"/><path d="M408.56,332.58s-4.08-13.27-1-20.07,6.8-38.1,6.8-38.1l-7.46-23.13H392.57l-.87.34h11.75l7.45,23.14s-3.74,31.3-6.8,38.1,1,20.07,1,20.07l26.87-1v-.21Z" transform="translate(0.02 -0.02)"/></g><g class="cls-7"><path d="M516.05,321.19a11.92,11.92,0,0,1-2,1.39c-4.4,2.43-9.84,1-18.09-7.51-7.56-7.83-9.76-20-10.35-24.61l-.2,3.52s1,16.67,10.55,26.53c8.25,8.54,13.69,9.94,18.09,7.51a11.92,11.92,0,0,0,2-1.39c1.43-1.23,1.51-3.54.76-6.42A3.16,3.16,0,0,1,516.05,321.19Z" transform="translate(0.02 -0.02)"/><path d="M575.53,245.16l-9.63,11.13a10.43,10.43,0,0,1-2.88,2.32h0a10.33,10.33,0,0,1-4.54,1.25c-5.55.23-15.19.3-23.33-1.29-11-2.15-19.34-7.07-25.59-4.26a9.19,9.19,0,0,0-2,1.19s-5.49,17.14-4.65,28.81c.65-10.91,4.65-23.37,4.65-23.37a9.19,9.19,0,0,1,2-1.19c6.26-2.81,14.54,2.11,25.59,4.26,8.14,1.58,17.77,1.51,23.33,1.29a10.33,10.33,0,0,0,4.54-1.25h0a10.48,10.48,0,0,0,2.88-2.29l14.81-17.09A5.82,5.82,0,0,1,575.53,245.16Z" transform="translate(0.02 -0.02)"/></g><path class="cls-12" d="M140.64,367.65a.77.77,0,0,0,.91.12A3.12,3.12,0,0,1,140.64,367.65Z" transform="translate(0.02 -0.02)"/><path class="cls-13" d="M242.55,202c-1.8-.52-4.37-1.37-7.46-2.45A39.1,39.1,0,0,0,242,185.63l-.26.1c.09-.31.18-.61.26-.93-5.93,2.41-12.49-1.67-16.67-6.91s-7-11.74-11.58-16.56a52.37,52.37,0,0,0-6.14-5.29c-1.35-1-2.8-2.13-4.45-2.18-2.67-.08-4.76,2.54-7.33,3.31a10,10,0,0,1-5.11-.19c-6.63-1.52-13-4.33-19.77-5.07a23.17,23.17,0,0,0-10.73,1.21c-3.4,1.29-4.95,3.86-7.7,5.92-3,2.21-8.86,2.16-12.35,2.55a89.19,89.19,0,0,1-12.76.53,30.07,30.07,0,0,0-7.34.27c-5.07,1.11-9.14,5.14-12.94,9a6.66,6.66,0,0,0-2.14,3.35,4.13,4.13,0,0,0,0,1.11,7.26,7.26,0,0,0,.51,3,38.94,38.94,0,0,0,4.91,9.77c1.55,2.22,3.36,4.31,4.24,6.94a13.24,13.24,0,0,1,.65,4,28.25,28.25,0,0,1-.45,4.3,53.56,53.56,0,0,1-3.29,11.45,20.73,20.73,0,0,0-1.92,6,9.11,9.11,0,0,0,0,1.28c-.25,6.6,6.41,11.35,7.7,17.91a10.17,10.17,0,0,1,.19,1.65c-.14,4.09-2.47,8.09-5.91,9.68.3.12.61.22.92.32a8.19,8.19,0,0,1-.92.5,18.66,18.66,0,0,0,1.92.62,44.64,44.64,0,0,0-9.71,12C92.26,286.76,13.9,329,13.9,329l1.16.66-.94.61c-6.78,4.51-22.69,17.66-8.31,34.29,0,0,11.23-17.72,19.1-25.27.35-.34.7-.65,1-.94a2.29,2.29,0,0,1,.3,1.82l51.52-28.95S96,298.35,101.15,295.46a42.1,42.1,0,0,1,11.61-5l-.6.25a23.62,23.62,0,0,1,5.91-.84c9.12.14,19,6.82,22.25,33.27,4.36,35.42,2.34,41.81.94,42.68a2.28,2.28,0,0,1-.51-.09.71.71,0,0,0,.14.1,2.63,2.63,0,0,1-.56-.1.78.78,0,0,0,.76.18.71.71,0,0,0,.57-.07h0q.34,0,.69,0a6.82,6.82,0,0,1-.07,1c-.07,0-.41.19,0,.21h0c-.11,2-.1,4.17,0,6.44-4.53.25-9.06.52-13,.76l.35-1.87.16-.84c3.48-.28,6.78-1.3,7.17-4.12.85-6.2-7.66-9.51-14.9-9.92S71.4,360,71.4,360s-6.51,8.43,14.14,11l1.91,1c8.09,4.61,19.06,13.1,24.32,17.28l.73.58-2.36,1.92c12.77,2.89,25.12,51.69,31.93,74s21.71,21.5,34.06,18.19c11.57-3.1,13-36.7,13.19-40.92v-.43L209.9,468l1.56,1.93c.6.31,1.19.61,1.78.88,15.58,7.41,32.79-6.8,27.9-23s-12.63-40.48-17.75-50.69c-4.29-8.55-9.83-22.75-13.19-31.64a11.41,11.41,0,0,0,1.27-.61s-.08-.4-.21-1.13l.21-.11s-5-25.72-5.22-44v-1.59c3.72-.85,6.08-1.18,6.08-1.18l.07-.8-.43.09L214,292.48s7.6-16.17,1.78-22.9a14.13,14.13,0,0,1-3.41-7c-1-6.19,0-16.52,13.55-25.1,20.86-13.23,29-24,29-24S255.32,205.76,242.55,202Zm-41.43,16.44V207.49c3.87-.19,7.82.26,11.71,0a29.26,29.26,0,0,0,5.65-1l.94.65A102.54,102.54,0,0,1,201.12,218.44ZM142,390.08c1.53,1.06,3.07,2.16,4.58,3.27.94,5.4,1.77,9.21,1.83,9.48A75.32,75.32,0,0,0,142,390.08Z" transform="translate(0.02 -0.02)"/><path class="cls-14" d="M175,381.08l-.9,4.89-.69,3.74-1.26,6.84L160,405.1s-1.1-.94-2.92-2.43c-5-4.12-15.53-12.48-23.26-17a26.1,26.1,0,0,0-6.39-2.95Z" transform="translate(0.02 -0.02)"/><path class="cls-5" d="M175,381.08l-.9,4.89a38.14,38.14,0,0,1-8.06-.41l-28.51.41c-1.35-.08-2.61-.19-3.79-.31a26.1,26.1,0,0,0-6.39-3Z" transform="translate(0.02 -0.02)"/><path class="cls-15" d="M166.07,384.76s14.26,2.44,15.07-3.67-7.33-9.33-14.24-9.79-48.48,2.46-48.48,2.46-7.33,9.77,19.14,11.4Z" transform="translate(0.02 -0.02)"/><path class="cls-5" d="M175,381.08l-.9,4.89-.69,3.74-1.26,6.84L160,405.1s-1.1-.94-2.92-2.43c-5-4.12-15.53-12.48-23.26-17a26.1,26.1,0,0,0-6.39-2.95Z" transform="translate(0.02 -0.02)"/><path class="cls-5" d="M175,381.08l-.9,4.89a38.14,38.14,0,0,1-8.06-.41l-28.51.41c-1.35-.08-2.61-.19-3.79-.31a26.1,26.1,0,0,0-6.39-3Z" transform="translate(0.02 -0.02)"/><path class="cls-5" d="M166.07,384.76s14.26,2.44,15.07-3.67-7.33-9.33-14.24-9.79-48.48,2.46-48.48,2.46-7.33,9.77,19.14,11.4Z" transform="translate(0.02 -0.02)"/><rect class="cls-16" x="122.71" y="183.93" width="74.53" height="88.38"/><rect class="cls-5" x="122.71" y="183.93" width="74.53" height="88.38"/><path class="cls-14" d="M35.33,335.26c-1.23.31-2.79,1.49-4.54,3.21-7.53,7.44-18.27,24.89-18.27,24.89C-1.24,347,14,334,20.52,329.58c1.58-1.08,2.64-1.66,2.64-1.66Z" transform="translate(0.02 -0.02)"/><path class="cls-14" d="M174.22,211.85s3.67,25.66,16.29,31.77-16.29,17.51-16.29,17.51l-39.51-14.66s22.4-7.33,17.92-28.92Z" transform="translate(0.02 -0.02)"/><path class="cls-14" d="M131.9,366.21l-.9,4.89-.69,3.74-1.26,6.84-12.22,8.55s-1.1-.94-2.92-2.43c-5-4.12-15.53-12.48-23.26-17a26.1,26.1,0,0,0-6.39-2.95Z" transform="translate(0.02 -0.02)"/><path class="cls-5" d="M131.9,366.21l-.9,4.89a38.14,38.14,0,0,1-8.06-.41l-28.51.41c-1.35-.08-2.61-.19-3.79-.31a26.1,26.1,0,0,0-6.39-3Z" transform="translate(0.02 -0.02)"/><path class="cls-15" d="M122.9,369.88s14.26,2.44,15.07-3.67-7.33-9.37-14.26-9.77-48.47,2.44-48.47,2.44-7.33,9.77,19.14,11.4Z" transform="translate(0.02 -0.02)"/><path class="cls-5" d="M130.27,374.85,129,381.69l-12.22,8.55s-1.1-.94-2.92-2.43L130,374.56Z" transform="translate(0.02 -0.02)"/><path class="cls-15" d="M210.9,468.09c-.56-.27-1.13-.56-1.7-.87l-1.49-1.9-19.68-25v.44c-.13,4.15-1.55,37.25-12.61,40.3-11.81,3.26-26.07,4.07-32.58-17.92s-18.33-70.05-30.55-72.9l18.12-14.87s12,14,16.9,27.48c-.18-.86-8.47-39.57-1.63-46.41h59.46s9.16,26.14,15.48,39.1c4.9,10.06,12.25,33.84,17,49.93C242.32,461.39,225.9,475.39,210.9,468.09Z" transform="translate(0.02 -0.02)"/><path class="cls-5" d="M209.24,363.76c-9.17,5.43-49.49,3.22-62.63,2.34l-3.57-.26c-.39,0,.06-.22.06-.22l.37-3.7,9.77-24.84,52.34-30.32c-1.06,3.19-1.42,8.08-1.33,13.69C204.51,338.43,209.24,363.76,209.24,363.76Z" transform="translate(0.02 -0.02)"/><path class="cls-17" d="M209.24,362.55c-9.17,5.43-49.49,3.22-62.63,2.34l-3.57-.26h-.59l.65-.17,3.22-.85,6.92-27.7,52.34-30.34c-1.06,3.19-1.42,8.08-1.33,13.69C204.51,337.21,209.24,362.55,209.24,362.55Z" transform="translate(0.02 -0.02)"/><path class="cls-5" d="M204.25,319.22c-10.64,2.45-34.06,9.66-43.06,27-6,11.58-11,16.55-14.57,18.63l-3.57-.26.06-.22,3.22-.85,6.92-27.7,52.34-30.34C204.51,308.76,204.16,313.61,204.25,319.22Z" transform="translate(0.02 -0.02)"/><path class="cls-5" d="M23.11,327.93l12.22,7.33c-1.23.31-2.79,1.49-4.54,3.21-1-3-7.42-7.12-10.32-8.88C22.05,328.51,23.11,327.93,23.11,327.93Z" transform="translate(0.02 -0.02)"/><path class="cls-5" d="M140.9,365.1A.73.73,0,0,1,140,365,2.78,2.78,0,0,0,140.9,365.1Z" transform="translate(0.02 -0.02)"/><path class="cls-18" d="M168.51,242s-11,1.22-18.74-6.92c0,0-32.58,9.37-43.58,30.55s-85.94,62.72-85.94,62.72,13,7.33,11.81,11l49.28-28.51s17.51-12.63,22.4-15.48,31.77-20.36,37.47,27.29,0,42,0,42,8.15,2.85,20-20,48.47-28.1,48.47-28.1l2-24s7.27-15.92,1.7-22.56a14.05,14.05,0,0,1-3.26-6.89c-.93-6.1,0-16.27,13-24.72,20-13,27.7-23.62,27.7-23.62s.41-7.74-11.81-11.4-61.91-23.62-61.91-23.62l-1.63,6.92,39.1,27.7s-19.55,15.88-35,15.48C179.51,229.76,182.36,241.58,168.51,242Z" transform="translate(0.02 -0.02)"/><path class="cls-5" d="M176.06,223a81.2,81.2,0,0,1-2.25-10l-21.59,5.74a23.71,23.71,0,0,1-.49,12.45,23.21,23.21,0,0,0,24.33-8.2Z" transform="translate(0.02 -0.02)"/><circle class="cls-14" cx="158.15" cy="207.55" r="23.22"/><path class="cls-5" d="M170.47,154.76c6.44.73,12.57,3.5,18.91,5a9.33,9.33,0,0,0,4.89.19c2.46-.76,4.46-3.34,7-3.26,1.57,0,3,1.12,4.26,2.15a51,51,0,0,1,5.87,5.21c4.37,4.75,7.09,11.15,11.08,16.31s10.28,9.18,16,6.81c-3.85,15-16.49,26.47-30.15,27.4-5.45.37-11-.76-16.31.84a14.28,14.28,0,0,1-4.12,1c-3,0-5.48-2.79-7.38-5.5-4.44-6.38-8-13.62-13-19.43-1.65-1.92-3.6-3.75-5.93-4.1s-4.48.76-6.56,1.84c-3.43,1.78-6.94,3.62-9.6,6.66s-4.34,7.59-3.24,11.71c.59,2.22,2,4.22,2,6.55,0,3.7-3.22,6.41-3.87,10a38.61,38.61,0,0,0-.16,4.56c-.29,4.94-3.51,9-6.89,12.09-1.31,1.21-2.77,2.5-3.15,4.37-.26,1.27,0,2.62-.17,3.91-.49,3.21-3.69,4.83-6.52,5.25a19,19,0,0,1-9.78-1.16c4-1.87,6.39-7.2,5.47-12-1.26-6.61-7.9-11.35-7.34-18.09a20.76,20.76,0,0,1,1.84-5.95,54.6,54.6,0,0,0,3.14-11.28,19.15,19.15,0,0,0-.19-9c-.85-2.59-2.58-4.65-4.06-6.84a38.91,38.91,0,0,1-4.7-9.63,6.78,6.78,0,0,1-.45-3.18,6.62,6.62,0,0,1,2-3.3c3.64-3.81,7.54-7.78,12.38-8.88a27.34,27.34,0,0,1,7-.27,81.63,81.63,0,0,0,12.21-.52c3.34-.39,9-.34,11.82-2.52,2.63-2,4.12-4.55,7.37-5.83A21.57,21.57,0,0,1,170.47,154.76Z" transform="translate(0.02 -0.02)"/><path class="cls-5" d="M183.38,394.52s13.44,26.47,9.37,34.62" transform="translate(0.02 -0.02)"/><path class="cls-5" d="M207.75,465.32l-19.68-25v.44s-1.14-8.08,2.61-5.36c8.21,5.94,21.35,15.68,21.63,17.36S209.65,461.18,207.75,465.32Z" transform="translate(0.02 -0.02)"/><g class="cls-7"><path d="M179.9,229.76s1.66,6.88-3.71,10.32c8.27-1.42,8.63-7.85,8.38-10.65A26.08,26.08,0,0,1,179.9,229.76Z" transform="translate(0.02 -0.02)"/><path d="M25.15,326.71s74.94-41.54,85.94-62.72c7.89-15.2,26.9-24.31,37-28.25-7.37,2.47-32.17,11.94-41.49,29.88-11,21.18-85.94,62.72-85.94,62.72Z" transform="translate(0.02 -0.02)"/><path d="M194.48,226.53c12.75-4,24.94-13.87,24.94-13.87L180.32,185l.89-3.8-3.74-1.5-1.63,6.92,39.1,27.7A94.29,94.29,0,0,1,194.48,226.53Z" transform="translate(0.02 -0.02)"/><path d="M194.73,320.39a96.4,96.4,0,0,1,15.33-3.87l.07-.79A103.12,103.12,0,0,0,194.73,320.39Z" transform="translate(0.02 -0.02)"/><path d="M147.34,363.06H147a.73.73,0,0,1-.86-.11,2.78,2.78,0,0,0,.86.11c1.34-.78,3.35-6.86-.86-42.06-4.5-37.58-22.16-34.63-31.83-30.31,9.88-2.72,23.48-.37,27.35,31.94,4.21,35.2,2.2,41.29.86,42.06A8.94,8.94,0,0,0,147.34,363.06Z" transform="translate(0.02 -0.02)"/><path d="M142.5,364.7a2.78,2.78,0,0,1-.86-.11A.73.73,0,0,0,142.5,364.7Z" transform="translate(0.02 -0.02)"/></g><path class="cls-16" d="M170.47,154c6.44.73,12.57,3.5,18.91,5a9.33,9.33,0,0,0,4.89.19c2.46-.76,4.46-3.34,7-3.26,1.57,0,3,1.12,4.26,2.15a51,51,0,0,1,5.87,5.21c4.37,4.75,7.09,11.15,11.08,16.31s10.28,9.18,16,6.81c-3.85,15-16.49,26.47-30.15,27.4-5.45.37-11-.76-16.31.84a14.28,14.28,0,0,1-4.12,1c-3,0-5.48-2.79-7.38-5.5-4.44-6.38-8-13.62-13-19.43-1.65-1.92-3.6-3.75-5.93-4.1s-4.48.76-6.56,1.84c-3.43,1.78-6.94,3.62-9.6,6.66s-4.34,7.59-3.24,11.71c.59,2.22,2,4.22,2,6.55,0,3.7-3.22,6.41-3.87,10a38.61,38.61,0,0,0-.16,4.56c-.29,4.94-3.51,9-6.89,12.09-1.31,1.21-2.77,2.5-3.15,4.37-.26,1.27,0,2.62-.17,3.91-.49,3.21-3.69,4.83-6.52,5.25a19,19,0,0,1-9.78-1.16c4-1.87,6.39-7.2,5.47-12-1.26-6.61-7.9-11.35-7.34-18.09a20.76,20.76,0,0,1,1.84-5.95,54.6,54.6,0,0,0,3.14-11.28,19.15,19.15,0,0,0-.19-9c-.85-2.59-2.58-4.65-4.06-6.84a38.91,38.91,0,0,1-4.7-9.63,6.78,6.78,0,0,1-.45-3.18,6.62,6.62,0,0,1,2-3.3c3.64-3.81,7.54-7.78,12.38-8.88a27.34,27.34,0,0,1,7-.27,81.63,81.63,0,0,0,12.21-.52c3.34-.39,9-.34,11.82-2.52,2.63-2,4.12-4.55,7.37-5.83A21.57,21.57,0,0,1,170.47,154Z" transform="translate(0.02 -0.02)"/><path class="cls-19" d="M833.5,101.85h0v-.37a.84.84,0,0,0-.06-.38h-.16v-.83c-.4-9.27-13.22-29-18.36-23.24-4.5,5.06,2.29,17.86,5.75,23.62l.31.52-.17-.11s-14.31,42.68-16,44.34-13.47,35.22-29,39c-3.07.73-5.62,1.39-7.76,2l.17-.57c1-3.27,2.23-6.36,2.73-10s0-8.05-1.84-9.82c-.9-.88-2-1-2.74-2.4a11,11,0,0,1-.76-3.85l-1.32-16.18.92-.28c5.56-1.78,10.95-6,11.58-11.68a5.8,5.8,0,0,1-.59.19c.07-.33.13-.66.17-1-4.67,1.84-9-3-13.5-5.17-7.41-3.63-15.88-.21-23.53.62-8.67.95-16.9-2.65-25.76-2-4.82.37-10.18,3.64-9.92,8.39.15,2.61,2,4.82,2.76,7.32,1.92,6.05-2.35,12.12-6.09,17.28-2.46,3.39-4.82,7.52-5.24,11.5-8.61-9-17.92-19.4-19-23.31l-24.91-42.68s-.59.63-1.54,1.56c-.15-.46-.33-1-.53-1.54-3.18-8.91-12.18-30.5-23.59-26.54s4.73,26.09,11.75,34.91l1,1.22a3.17,3.17,0,0,1-1.78-.08l27.78,47.65s5.05,9.12,9.68,11.6c0,0,34.51,43.51,34.93,52.21s15.52,31.91,15.52,31.91,5.05,37.71-3.79,44.34h1.46q-.63.62-1.29,1.35c-6.55,7.26-14.92,22.82-3.48,49.28,16.83,39,19.36,54.28,19.36,54.28s-32,1.66-38.3,2.9c-5.58,1.1-27.27,1.87-32.23,2-1.77-2.06-7-6.62-14.06,0-8.84,8.29-15.15,36-15.15,36s-3.37,22.38,8,16.57c0,0,13.47-18.65,17.25-19.48,1.88-.41,3.87-3.18,5.39-5.85l.08.05h0c.09,0,.46-.2,1.06-.44h0c2.8-1.11,10.51-3.78,16.59-2.45,3.33.73,17.61.9,32.58.86-3.38,8.1-9.44,29-9.44,29s-2.53,19.49,5.87,18.69c6-.59,15.2-15.92,20-24.67,3.48-2.55,13.45-11.69,20.82-11L804.78,428s11.78-6.63,5.47-28.59c-5-17.46-19.23-53.2-24.85-67.13h0l-.17-.36c-1.36-3.37-2.18-5.37-2.18-5.37h0a82.32,82.32,0,0,1-4.51-19.71c0-.53-.09-1.07-.13-1.6a8.62,8.62,0,0,0,2-1.13s-4.63-46.82,0-51.8h0l.08-.09h0v-.06h0l.08-.1h0l.18-.23h0l.22-.28h0c.25-.33.55-.74.89-1.24h0c2.65-3.88,7.59-12.74,6.17-23.2h0c-.06-.45-.13-.91-.22-1.37h0a28.61,28.61,0,0,0-2.88-8.12,23,23,0,0,1-.37-3.21V211.6a9.62,9.62,0,0,1,.15-1.44V210a1.81,1.81,0,0,1,.09-.55v-.23a2.62,2.62,0,0,1,.12-.54v-.19c.06-.24.12-.48.2-.72v-.12c.06-.2.13-.4.2-.59l.09-.23.2-.48.1-.24c.08-.18.17-.36.26-.54l.07-.15c.12-.22.25-.44.38-.65l.11-.17.33-.47.16-.21.35-.42.16-.18c.18-.19.36-.38.56-.56,5.47-5,29.88-41.85,29.88-41.85s5.89-8.29,5.89-13.67C824.14,147.1,834.55,112.4,833.5,101.85ZM768,411.6c-.6-5.68-1.2-12.72-1.75-20l9.52,14.84S774.84,411,768,411.6Z" transform="translate(0.02 -0.02)"/><path class="cls-20" d="M668.71,408.46s-5.7-9-14.26-.81-14.66,35.43-14.66,35.43-3.26,22,7.74,16.29c0,0,13-18.33,16.7-19.14s7.74-11,7.74-11Z" transform="translate(0.02 -0.02)"/><path class="cls-20" d="M729.8,430.45s-7.74-3.67-10.18-.81S709,461,709,461s-2.44,18.74,5.7,17.92,22.4-30.16,22.4-30.16Z" transform="translate(0.02 -0.02)"/><path class="cls-21" d="M729.8,430.45s-7.74-3.67-10.18-.81S709,461,709,461s-2.44,18.74,5.7,17.92,22.4-30.16,22.4-30.16Z" transform="translate(0.02 -0.02)"/><path class="cls-22" d="M756.68,375.06l17.51,27.29s-1.22,6.11-11.81,4.89l-36.25,22.81s-3.15,27.77,6.92,25.25c1.63-.41,13-12.22,21.18-11.4l48.07-18.74s11.4-6.52,5.29-28.1-26.31-71.62-26.31-71.62L749.35,343.3Z" transform="translate(0.02 -0.02)"/><path class="cls-21" d="M756.68,375.06l17.51,27.29s-1.22,6.11-11.81,4.89l-36.25,22.81s-3.15,27.77,6.92,25.25c1.63-.41,13-12.22,21.18-11.4l48.07-18.74s11.4-6.52,5.29-28.1-26.31-71.62-26.31-71.62L749.35,343.3Z" transform="translate(0.02 -0.02)"/><path class="cls-22" d="M767.68,415.38c2.44,15.48-11.4,16.7-11.4,16.7s-62.32,1.22-69.65-.41-17.11,2.85-17.11,2.85c-12.63-7.74-2.44-26.88-2.44-26.88s26.07-.81,32.18-2,37.06-2.88,37.06-2.88-2.44-15.07-18.74-53.35c-11.07-26-3-41.3,3.37-48.43a27,27,0,0,1,5.59-4.92l50.1,2.44a66,66,0,0,0,.28,7.57,80.63,80.63,0,0,0,6.65,25c-2.85,0-21.18,17.11-21.18,17.11S765.23,399.91,767.68,415.38Z" transform="translate(0.02 -0.02)"/><path class="cls-5" d="M670.74,409.27s26.07-.81,32.18-2S740,404.42,740,404.42s-2.44-15.07-18.74-53.35c-11.07-26-3-41.3,3.37-48.43a27,27,0,0,1,5.59-4.92L776.62,300v-1.45l-50.1-2.44a27,27,0,0,0-5.59,4.92c-6.34,7.14-14.44,22.43-3.37,48.43,16.34,38.25,18.76,53.32,18.76,53.32s-31,1.63-37.06,2.85-32.18,2-32.18,2-10.18,19.15,2.44,26.92c0,0,.38-.18,1-.44C662.13,425.46,670.74,409.27,670.74,409.27Z" transform="translate(0.02 -0.02)"/><rect class="cls-20" x="720.04" y="146.55" width="25.25" height="63.94"/><rect class="cls-5" x="720.04" y="146.55" width="25.25" height="63.94"/><path class="cls-20" d="M759.71,137.19c.87.24,1.85.27,2.44,1.47a8.8,8.8,0,0,1,.59,3l1.59,19.76a10.91,10.91,0,0,0,.74,3.78c.67,1.34,1.78,1.5,2.65,2.36,1.75,1.74,2.26,6.1,1.78,9.65s-1.69,6.59-2.64,9.8c-1.36,4.6-2.26,9.77-4.17,13.65s-5.38,6-7.62,2.74-1.94-9.84-2.36-15.23c-.7-9-4.21-16.76-4.45-25.82-.2-7.33,1.77-14.17,3-21.12.88-4.77.93-10.56,2.21-14.85C754.54,131.48,756.58,136.33,759.71,137.19Z" transform="translate(0.02 -0.02)"/><path class="cls-5" d="M759.71,137.19c.87.24,1.85.27,2.44,1.47a8.8,8.8,0,0,1,.59,3l1.59,19.76a10.91,10.91,0,0,0,.74,3.78c.67,1.34,1.78,1.5,2.65,2.36,1.75,1.74,2.26,6.1,1.78,9.65s-1.69,6.59-2.64,9.8c-1.36,4.6-2.26,9.77-4.17,13.65s-5.38,6-7.62,2.74-1.94-9.84-2.36-15.23c-.7-9-4.21-16.76-4.45-25.82-.2-7.33,1.77-14.17,3-21.12.88-4.77.93-10.56,2.21-14.85C754.54,131.48,756.58,136.33,759.71,137.19Z" transform="translate(0.02 -0.02)"/><path class="cls-23" d="M652.82,109.1l-9.77,8.15s-1.16-1.36-2.89-3.56c-6.79-8.67-22.4-30.42-11.37-34.31s19.75,17.32,22.83,26.08C652.4,107.68,652.82,109.1,652.82,109.1Z" transform="translate(0.02 -0.02)"/><path class="cls-23" d="M829.18,106.25c-4.07,6.11-9.77,0-9.77,0s-.73-1.09-1.76-2.85c-3.35-5.67-9.92-18.24-5.57-23.22,5-5.69,17.39,13.73,17.77,22.84A5.43,5.43,0,0,1,829.18,106.25Z" transform="translate(0.02 -0.02)"/><path class="cls-23" d="M729,172.23s8.15,26.07,5.7,33.8,17.52,16.73,17.52,16.73H775s8.15-16.7,6.11-21.59-19.55-8.55-19.55-8.55-10.18,0-9.77-27.29Z" transform="translate(0.02 -0.02)"/><path class="cls-5" d="M652.82,109.1l-9.77,8.15s-1.16-1.36-2.89-3.56c3.55-.63,9.06-5.81,11.47-8.23C652.4,107.68,652.82,109.1,652.82,109.1Z" transform="translate(0.02 -0.02)"/><path class="cls-5" d="M829.18,106.25c-4.07,6.11-9.77,0-9.77,0s-.73-1.09-1.76-2.85l.13-.41c2.64,1.89,10.85.28,12.07,0A5.45,5.45,0,0,1,829.18,106.25Z" transform="translate(0.02 -0.02)"/><path class="cls-5" d="M776.9,306.06c-12.6,5.75-53.54-4.49-56-5.1a27,27,0,0,1,5.59-4.92l50.1,2.44A66.17,66.17,0,0,0,776.9,306.06Z" transform="translate(0.02 -0.02)"/><path class="cls-24" d="M734.28,194.63s-9.77,3.26-23.62-9.37c0,0-31-30.55-33-37.88l-24-42s-10.18,11-14.26,9.37l26.88,46.84s4.89,9,9.37,11.4c0,0,33.4,42.77,33.8,51.32s15,31.45,15,31.45,4.89,37.06-3.67,43.58c0,0,47.65,12.22,57.83,4.07,0,0-4.48-46,0-50.91,0,0,13.85-16.29,4.48-34.21,0,0-2-9.77,3.26-14.66s28.92-41.14,28.92-41.14,5.7-8.15,5.7-13.44c0,0,10.59-35.84,9-45.21,0,0-9.37,2-12.22,0,0,0-13.85,42-15.48,43.58s-13,34.62-28.1,38.29S756.71,191,756.71,191s29.32,18.33,15.07,26.47S734.28,194.63,734.28,194.63Z" transform="translate(0.02 -0.02)"/><path class="cls-5" d="M752.79,178.5a78.49,78.49,0,0,1-.59-11.57l-22.81,6.92a30.46,30.46,0,0,1,1.43,4.68c2.61,1.15,6.13,3.87,9.16,3.87A20.76,20.76,0,0,0,752.79,178.5Z" transform="translate(0.02 -0.02)"/><circle class="cls-23" cx="739.59" cy="159.99" r="21.18"/><path class="cls-5" d="M714.37,127.38c-4.66.36-9.86,3.58-9.6,8.25.14,2.57,1.9,4.74,2.67,7.2,1.85,5.95-2.27,11.92-5.89,17s-7,11.81-3.9,17.19a41.4,41.4,0,0,0,2.86,3.73c3.83,5.17,3.78,12.15,5.48,18.36a32.21,32.21,0,0,0,37.84,23,20.16,20.16,0,0,1-4.25-13.62c.23-3.56,1.38-7.28,0-10.57-1.78-4.23-7-5.9-9.69-9.6s-2.51-8.83-1.21-13.24,3.55-8.5,4.63-13c.27-1.31.6-2.61,1-3.89,1.88-5.34,7.5-8.44,13-9.77S758.59,147,764,145.26s10.59-5.85,11.21-11.48c-4.52,1.81-8.71-2.91-13.07-5.08-7.18-3.56-15.37-.21-22.77.61C730.9,130.25,722.9,126.76,714.37,127.38Z" transform="translate(0.02 -0.02)"/><path class="cls-20" d="M714,126.57c-4.66.36-9.86,3.58-9.6,8.25.14,2.57,1.9,4.74,2.67,7.2,1.85,5.95-2.27,11.92-5.89,17s-7,11.81-3.9,17.19a41.4,41.4,0,0,0,2.86,3.73c3.83,5.17,3.78,12.15,5.48,18.36a32.21,32.21,0,0,0,37.84,23,20.16,20.16,0,0,1-4.25-13.62c.23-3.56,1.38-7.28,0-10.57-1.78-4.23-7-5.9-9.69-9.6s-2.51-8.83-1.21-13.24,3.55-8.5,4.63-13c.27-1.31.6-2.61,1-3.89,1.88-5.34,7.5-8.44,13-9.77s11.28-1.41,16.65-3.16,10.59-5.85,11.21-11.48c-4.52,1.81-8.71-2.91-13.07-5.08-7.18-3.56-15.37-.21-22.77.61C730.51,129.43,722.54,125.9,714,126.57Z" transform="translate(0.02 -0.02)"/><path class="cls-5" d="M760.55,207.06S769,214.63,770.7,218" transform="translate(0.02 -0.02)"/><path class="cls-5" d="M778.9,252.27s-10.59,0-15.48,1.22-16.7,0-16.7,0" transform="translate(0.02 -0.02)"/><g class="cls-7"><path d="M771.75,217.44a10.21,10.21,0,0,1-2.93,1.12,11.19,11.19,0,0,0,7.82-1.12C790.9,209.29,761.57,191,761.57,191h-4.89S786,209.3,771.75,217.44Z" transform="translate(0.02 -0.02)"/><path d="M830.09,104.55a4.26,4.26,0,0,0-.1-.74,48.47,48.47,0,0,1-5.07.77A22.35,22.35,0,0,0,830.09,104.55Z" transform="translate(0.02 -0.02)"/><path d="M725.73,299.31c8.55-6.52,3.67-43.58,3.67-43.58s-14.66-22.81-15.07-31.36-33.8-51.32-33.8-51.32c-4.48-2.44-9.37-11.4-9.37-11.4s-27.7-45.21-31.77-46.84l26.88,46.84s4.89,9,9.37,11.4c0,0,33.4,42.77,33.8,51.32s15.06,31.39,15.06,31.39,4.89,37.06-3.67,43.58c0,0,29.29,7.51,46.85,6.83C750.08,305.55,725.73,299.31,725.73,299.31Z" transform="translate(0.02 -0.02)"/><path d="M734.52,195l-.24-.31a6.14,6.14,0,0,1-.85.19Z" transform="translate(0.02 -0.02)"/></g><g class="cls-7"><path d="M830,103.76l-.25,0c-.43,12.51-9.11,41.9-9.11,41.9,0,5.29-5.7,13.44-5.7,13.44S791.31,195.4,786,200.29,782.75,215,782.75,215l0,.1c-.16-3.29.24-8.39,3.61-11.51,5.29-4.89,28.92-41.14,28.92-41.14S821,154.25,821,149C821,149,831.62,113.18,830,103.76Z" transform="translate(0.02 -0.02)"/><path d="M778.27,249.21c.61,3.46.2-.2.41,3.26,0,0,10-11.73,7.27-26.23C786.77,239.2,778.27,249.21,778.27,249.21Z" transform="translate(0.02 -0.02)"/></g><ellipse class="cls-2" cx="469.81" cy="620.42" rx="427.67" ry="41.08"/><path class="cls-25" d="M304,578.76s-14.56-49.45,2.73-85.84a78.13,78.13,0,0,0,6.32-49,131.9,131.9,0,0,0-6.94-23" transform="translate(0.02 -0.02)"/><path class="cls-1" d="M316.9,397.94c0,6.06-11,23.63-11,23.63s-11-17.57-11-23.63a11,11,0,1,1,21.94,0Z" transform="translate(0.02 -0.02)"/><path class="cls-1" d="M335,431.5c-3.29,5.09-22.05,13.87-22.05,13.87s.34-20.71,3.63-25.8A11,11,0,1,1,335,431.5Z" transform="translate(0.02 -0.02)"/><path class="cls-1" d="M334.22,488.87c-5.41,2.73-26,.84-26,.84S319,472,324.38,469.27a11,11,0,0,1,11.32,18.86,10.81,10.81,0,0,1-1.44.73Z" transform="translate(0.02 -0.02)"/><path class="cls-1" d="M323.85,532.13c-4.87,3.6-25.53,5.23-25.53,5.23s7.6-19.27,12.48-22.88a11,11,0,0,1,13,17.64Z" transform="translate(0.02 -0.02)"/><path class="cls-1" d="M289.9,446.55c4.35,4.22,24.6,8.6,24.6,8.6s-5-20.11-9.31-24.34a11,11,0,1,0-16.42,14.65A11.64,11.64,0,0,0,289.9,446.55Z" transform="translate(0.02 -0.02)"/><path class="cls-1" d="M278.43,497.31c5.41,2.73,26,.84,26,.84s-10.71-17.71-16.12-20.39a11,11,0,0,0-9.88,19.59Z" transform="translate(0.02 -0.02)"/><path class="cls-1" d="M274,548.17c4.87,3.6,25.53,5.23,25.53,5.23s-7.6-19.27-12.48-22.88A11,11,0,1,0,272.5,547a11.26,11.26,0,0,0,1.58,1.16Z" transform="translate(0.02 -0.02)"/><path class="cls-2" d="M316.9,397.94c0,6.06-11,23.63-11,23.63s-11-17.57-11-23.63a11,11,0,1,1,21.94,0Z" transform="translate(0.02 -0.02)"/><path class="cls-2" d="M335,431.5c-3.29,5.09-22.05,13.87-22.05,13.87s.34-20.71,3.63-25.8A11,11,0,1,1,335,431.5Z" transform="translate(0.02 -0.02)"/><path class="cls-2" d="M334.22,488.87c-5.41,2.73-26,.84-26,.84S319,472,324.38,469.27a11,11,0,0,1,11.32,18.86,10.81,10.81,0,0,1-1.44.73Z" transform="translate(0.02 -0.02)"/><path class="cls-2" d="M323.85,532.13c-4.87,3.6-25.53,5.23-25.53,5.23s7.6-19.27,12.48-22.88a11,11,0,0,1,13,17.64Z" transform="translate(0.02 -0.02)"/><path class="cls-2" d="M289.9,446.55c4.35,4.22,24.6,8.6,24.6,8.6s-5-20.11-9.31-24.34a11,11,0,1,0-16.42,14.65A11.64,11.64,0,0,0,289.9,446.55Z" transform="translate(0.02 -0.02)"/><path class="cls-2" d="M278.43,497.31c5.41,2.73,26,.84,26,.84s-10.71-17.71-16.12-20.39a11,11,0,0,0-9.88,19.59Z" transform="translate(0.02 -0.02)"/><path class="cls-2" d="M274,548.17c4.87,3.6,25.53,5.23,25.53,5.23s-7.6-19.27-12.48-22.88A11,11,0,1,0,272.5,547a11.26,11.26,0,0,0,1.58,1.16Z" transform="translate(0.02 -0.02)"/><path class="cls-25" d="M598.65,579.47s-14.56-49.45,2.73-85.84a78.13,78.13,0,0,0,6.32-49,131.9,131.9,0,0,0-6.94-23" transform="translate(0.02 -0.02)"/><path class="cls-1" d="M611.52,398.64c0,6.06-11,23.63-11,23.63s-11-17.57-11-23.63a11,11,0,0,1,21.94,0Z" transform="translate(0.02 -0.02)"/><path class="cls-1" d="M629.66,432.2c-3.29,5.09-22,13.87-22,13.87s.34-20.71,3.63-25.8a11,11,0,1,1,18.42,11.93Z" transform="translate(0.02 -0.02)"/><path class="cls-1" d="M628.9,489.57c-5.41,2.73-26,.84-26,.84S613.65,472.7,619.06,470a11,11,0,1,1,11.39,18.82A10.7,10.7,0,0,1,628.9,489.57Z" transform="translate(0.02 -0.02)"/><path class="cls-1" d="M618.49,532.83c-4.87,3.6-25.53,5.23-25.53,5.23s7.6-19.27,12.48-22.88a11,11,0,0,1,13,17.64Z" transform="translate(0.02 -0.02)"/><path class="cls-1" d="M584.56,447.25c4.35,4.22,24.6,8.6,24.6,8.6s-5-20.11-9.31-24.34a11,11,0,1,0-16.42,14.65,11.64,11.64,0,0,0,1.13,1.09Z" transform="translate(0.02 -0.02)"/><path class="cls-1" d="M573.07,498c5.41,2.73,26,.84,26,.84s-10.75-17.71-16.16-20.44A11,11,0,0,0,573,498Z" transform="translate(0.02 -0.02)"/><path class="cls-1" d="M568.68,548.87c4.87,3.6,25.53,5.23,25.53,5.23s-7.6-19.27-12.48-22.88a11,11,0,0,0-13,17.64Z" transform="translate(0.02 -0.02)"/><path class="cls-2" d="M611.52,398.64c0,6.06-11,23.63-11,23.63s-11-17.57-11-23.63a11,11,0,0,1,21.94,0Z" transform="translate(0.02 -0.02)"/><path class="cls-2" d="M629.66,432.2c-3.29,5.09-22,13.87-22,13.87s.34-20.71,3.63-25.8a11,11,0,1,1,18.42,11.93Z" transform="translate(0.02 -0.02)"/><path class="cls-2" d="M628.9,489.57c-5.41,2.73-26,.84-26,.84S613.65,472.7,619.06,470a11,11,0,1,1,11.39,18.82A10.7,10.7,0,0,1,628.9,489.57Z" transform="translate(0.02 -0.02)"/><path class="cls-2" d="M618.49,532.83c-4.87,3.6-25.53,5.23-25.53,5.23s7.6-19.27,12.48-22.88a11,11,0,0,1,13,17.64Z" transform="translate(0.02 -0.02)"/><path class="cls-2" d="M584.56,447.25c4.35,4.22,24.6,8.6,24.6,8.6s-5-20.11-9.31-24.34a11,11,0,1,0-16.42,14.65,11.64,11.64,0,0,0,1.13,1.09Z" transform="translate(0.02 -0.02)"/><path class="cls-2" d="M573.07,498c5.41,2.73,26,.84,26,.84s-10.75-17.71-16.16-20.44A11,11,0,0,0,573,498Z" transform="translate(0.02 -0.02)"/><path class="cls-2" d="M568.68,548.87c4.87,3.6,25.53,5.23,25.53,5.23s-7.6-19.27-12.48-22.88a11,11,0,0,0-13,17.64Z" transform="translate(0.02 -0.02)"/><path class="cls-26" d="M669.9,15.31h-6.28A4.4,4.4,0,0,0,664,6.52H612.7a4.4,4.4,0,0,0,0,8.79H619a4.4,4.4,0,0,0,0,8.79h-8.79a4.4,4.4,0,0,0-.42,8.79h51.3a4.4,4.4,0,0,0,.42-8.79,2.94,2.94,0,0,0-.42,0h8.83a4.4,4.4,0,0,0,0-8.79Z" transform="translate(0.02 -0.02)"/><path class="cls-26" d="M375.68,41H370.9a3.35,3.35,0,1,0,.37-6.69H332.18a3.35,3.35,0,0,0,0,6.69H337a3.35,3.35,0,1,0-.37,6.69h-6.32a3.35,3.35,0,1,0-.37,6.69,2.28,2.28,0,0,0,.37,0H369a3.35,3.35,0,0,0,.37-6.69h6.32a3.35,3.35,0,0,0,0-6.69Z" transform="translate(0.02 -0.02)"/><path class="cls-27" d="M50.68,514.76s17.5,34.35,3.24,53.14,1.3,70,1.3,70" transform="translate(0.02 -0.02)"/><path class="cls-1" d="M55.9,504c0,6.62-4.86,12-4.86,12s-4.86-5.37-4.86-12S51,492,51,492,55.9,497.4,55.9,504Z" transform="translate(0.02 -0.02)"/><path class="cls-27" d="M59.75,514.76s-17.5,34.35-3.24,53.14-1.3,70-1.3,70" transform="translate(0.02 -0.02)"/><path class="cls-1" d="M54.57,504c0,6.62,4.86,12,4.86,12s4.86-5.37,4.86-12-4.86-12-4.86-12S54.57,497.4,54.57,504Z" transform="translate(0.02 -0.02)"/><path class="cls-5" d="M54.57,504c0,6.62,4.86,12,4.86,12s4.86-5.37,4.86-12-4.86-12-4.86-12S54.57,497.4,54.57,504Z" transform="translate(0.02 -0.02)"/><path class="cls-27" d="M66.9,514.76s17.5,34.35,3.24,53.14,1.3,70,1.3,70" transform="translate(0.02 -0.02)"/><path class="cls-1" d="M72.07,504c0,6.62-4.86,12-4.86,12s-4.86-5.37-4.86-12,4.86-12,4.86-12S72.07,497.4,72.07,504Z" transform="translate(0.02 -0.02)"/><path class="cls-1" d="M69.34,531.54c-4.59,4.77-11.82,5.27-11.82,5.27s.22-7.24,4.81-12,11.82-5.27,11.82-5.27S73.9,526.76,69.34,531.54Z" transform="translate(0.02 -0.02)"/><path class="cls-1" d="M69.8,555.24C65.21,560,58,560.51,58,560.51s.22-7.24,4.81-12,11.82-5.27,11.82-5.27S74.39,550.46,69.8,555.24Z" transform="translate(0.02 -0.02)"/><path class="cls-1" d="M44.9,568.27c4.34,5,4.19,12.24,4.19,12.24s-7.19-.87-11.53-5.87-4.19-12.24-4.19-12.24S40.56,563.27,44.9,568.27Z" transform="translate(0.02 -0.02)"/><path class="cls-1" d="M48.9,517.76c5.52,3.66,7.31,10.68,7.31,10.68s-7.16,1.09-12.68-2.57-7.31-10.68-7.31-10.68S43.41,514.08,48.9,517.76Z" transform="translate(0.02 -0.02)"/><path class="cls-5" d="M48.9,517.76c5.52,3.66,7.31,10.68,7.31,10.68s-7.16,1.09-12.68-2.57-7.31-10.68-7.31-10.68S43.41,514.08,48.9,517.76Z" transform="translate(0.02 -0.02)"/><path class="cls-27" d="M76,514.76s-17.5,34.35-3.24,53.14-1.3,70-1.3,70" transform="translate(0.02 -0.02)"/><path class="cls-1" d="M70.77,504c0,6.62,4.86,12,4.86,12s4.86-5.37,4.86-12-4.86-12-4.86-12S70.77,497.4,70.77,504Z" transform="translate(0.02 -0.02)"/><path class="cls-5" d="M70.77,504c0,6.62,4.86,12,4.86,12s4.86-5.37,4.86-12-4.86-12-4.86-12S70.77,497.4,70.77,504Z" transform="translate(0.02 -0.02)"/><path class="cls-1" d="M72.17,532.05c-4.65,4.72-5,12-5,12s7.23-.41,11.88-5.13,5-12,5-12S76.82,527.33,72.17,532.05Z" transform="translate(0.02 -0.02)"/><path class="cls-5" d="M72.17,532.05c-4.65,4.72-5,12-5,12s7.23-.41,11.88-5.13,5-12,5-12S76.82,527.33,72.17,532.05Z" transform="translate(0.02 -0.02)"/><path class="cls-1" d="M81.28,564.86c-4.65,4.72-5,12-5,12s7.23-.41,11.88-5.13,5-12,5-12S85.9,560.14,81.28,564.86Z" transform="translate(0.02 -0.02)"/><path class="cls-27" d="M67.9,557.65s10.53-16.6,25.32-17" transform="translate(0.02 -0.02)"/><path class="cls-27" d="M59.67,547.62s-10.53-16.6-25.32-17" transform="translate(0.02 -0.02)"/><path class="cls-27" d="M58.3,571.32s10.53-16.6,25.32-17" transform="translate(0.02 -0.02)"/><circle class="cls-1" cx="92.73" cy="540.54" r="2.73"/><circle class="cls-1" cx="34.63" cy="530.74" r="2.73"/><path class="cls-27" d="M66.05,576.76s-10.53-16.6-25.32-17" transform="translate(0.02 -0.02)"/><circle class="cls-1" cx="41.01" cy="559.9" r="2.73"/><circle class="cls-1" cx="83.84" cy="554.44" r="2.73"/><path class="cls-28" d="M124.28,617.91s-25.38-5.08-32.16-11.85S54.9,587.45,51.51,595.91,5.82,633.14,34.59,638.22s67.69,6.77,76.15,3.38S124.28,617.91,124.28,617.91Z" transform="translate(0.02 -0.02)"/><path class="cls-29" d="M34.59,635.07c28.77,5.08,67.69,6.77,76.15,3.38,6.44-2.58,10.92-15,12.69-20.72l.85.18s-5.08,20.31-13.54,23.69-47.38,1.69-76.15-3.38c-8.3-1.47-10.68-4.91-9.78-9.26C25.51,631.76,28.41,634,34.59,635.07Z" transform="translate(0.02 -0.02)"/><path class="cls-1" d="M894.83,522.54s8.38,11-3.87,27.5-22.35,30.51-18.26,40.83c0,0,18.48-30.73,33.52-31.16S911.38,541,894.83,522.54Z" transform="translate(0.02 -0.02)"/><path class="cls-5" d="M894.83,522.54a13.48,13.48,0,0,1,1.71,3.44c14.68,17.24,22.49,33.33,8.39,33.74-13.14.38-28.9,23.87-32.68,29.81a12.57,12.57,0,0,0,.45,1.35s18.48-30.73,33.52-31.16S911.38,541,894.83,522.54Z" transform="translate(0.02 -0.02)"/><path class="cls-30" d="M910.41,536.5c0,3.86-.43,7-1,7s-1-3.13-1-7,.54-2,1.07-2S910.41,532.65,910.41,536.5Z" transform="translate(0.02 -0.02)"/><path class="cls-30" d="M915.76,541.11c-3.39,1.85-6.34,3-6.59,2.49s2.28-2.35,5.67-4.19,2-.5,2.31,0S919.14,539.26,915.76,541.11Z" transform="translate(0.02 -0.02)"/><path class="cls-1" d="M850.57,522.54s-8.38,11,3.87,27.5,22.35,30.51,18.26,40.83c0,0-18.48-30.73-33.52-31.16S834,541,850.57,522.54Z" transform="translate(0.02 -0.02)"/><path class="cls-5" d="M850.57,522.54a13.48,13.48,0,0,0-1.71,3.44c-14.68,17.24-22.49,33.33-8.39,33.74,13.14.38,28.9,23.87,32.68,29.81a12.57,12.57,0,0,1-.45,1.35s-18.48-30.73-33.52-31.16S834,541,850.57,522.54Z" transform="translate(0.02 -0.02)"/><path class="cls-30" d="M835,536.5c0,3.86.43,7,1,7s1-3.13,1-7-.54-2-1.07-2S835,532.65,835,536.5Z" transform="translate(0.02 -0.02)"/><path class="cls-30" d="M829.64,541.11c3.39,1.85,6.34,3,6.59,2.49s-2.28-2.35-5.67-4.19-2-.5-2.31,0S826.25,539.26,829.64,541.11Z" transform="translate(0.02 -0.02)"/><path class="cls-28" d="M837.66,589.43s23.43-.72,30.49-5.75,36-11,37.79-3,35.21,40.11,8.76,40.32-61.46-4.12-68.51-8.41S837.66,589.43,837.66,589.43Z" transform="translate(0.02 -0.02)"/><path class="cls-29" d="M915.17,618.23c-26.45.21-61.46-4.12-68.51-8.41-5.37-3.27-7.51-15-8.22-20.41h-.78s1.48,18.9,8.53,23.19,42.06,8.63,68.51,8.41c7.64-.06,10.27-2.78,10.13-6.8C923.77,616.66,920.9,618.18,915.17,618.23Z" transform="translate(0.02 -0.02)"/><path class="cls-26" d="M177.84,74.64h-6.28a4.4,4.4,0,0,0,.42-8.79h-51.3a4.4,4.4,0,0,0,0,8.79H127a4.4,4.4,0,0,0,0,8.79h-8.79a4.4,4.4,0,0,0,0,8.79h50.88a4.4,4.4,0,0,0,.42-8.79,2.94,2.94,0,0,0-.42,0h8.79a4.4,4.4,0,0,0,0-8.79Z" transform="translate(0.02 -0.02)"/></svg>