<svg id="ff6c2c6f-bb99-48ca-bf0f-ae1c98c215e0" xmlns="http://www.w3.org/2000/svg" xmlns:xlink="http://www.w3.org/1999/xlink" viewBox="0 0 989 781.43"><defs><linearGradient id="linear-gradient" x1="960.21" y1="-39.49" x2="960.21" y2="288.98" gradientTransform="matrix(1, -0.04, -0.04, -1, -104.85, 756.34)" gradientUnits="userSpaceOnUse"><stop offset="0" stop-color="gray" stop-opacity="0.25"/><stop offset="0.54" stop-color="gray" stop-opacity="0.12"/><stop offset="1" stop-color="gray" stop-opacity="0.1"/></linearGradient></defs><title>illustration--docs</title><path d="M245.82,197.94H90.12c12.12,62.82,11.59,127.2,0,192.93,57.13-6.61,110.11-8,155.7,0A543.76,543.76,0,0,0,245.82,197.94Z" style="opacity:0.10000000149011612;isolation:isolate"/><path d="M499.63,212.43c45.59-8,98.57-6.61,155.7,0-11.59-65.73-12.12-130.11,0-192.93H499.63A543.3,543.3,0,0,0,499.63,212.43Z" style="opacity:0.10000000149011612;isolation:isolate"/><path d="M490.5,203.94c45.59-8,98.57-6.61,155.7,0-11.59-65.73-12.12-130.11,0-192.93H490.5A543.76,543.76,0,0,0,490.5,203.94Z" style="fill:#fff"/><rect x="536.98" width="54.16" height="17.77" style="fill:#3f3d56"/><path d="M369.3,584.87c45.59-8,98.57-6.61,155.7,0-11.59-65.73-12.12-130.11,0-192.93H369.3A543.76,543.76,0,0,0,369.3,584.87Z" style="opacity:0.10000000149011612;isolation:isolate"/><path d="M362.3,575.87c45.59-8,98.57-6.61,155.7,0-11.59-65.73-12.12-130.11,0-192.93H362.3A543.76,543.76,0,0,0,362.3,575.87Z" style="fill:#fff"/><rect x="408.76" y="371.93" width="54.16" height="17.77" style="fill:#3f3d56"/><path d="M228.5,260.94S288.89,90.13,423.43,88.62" style="fill:none;stroke:#3f3d56;stroke-miterlimit:10;stroke-width:2px"/><path d="M435.5,88.94c-5.73,2-12.85,5.41-17.31,9.12l3.66-9.43L418.63,79C422.91,83,429.87,86.72,435.5,88.94Z" style="fill:#3f3d56"/><path d="M233.5,325.94S228,463.38,306.56,482.09" style="fill:none;stroke:#3f3d56;stroke-miterlimit:10;stroke-width:2px"/><path d="M318.5,483.94c-5.95,1.16-13.48,3.57-18.41,6.62l4.93-8.83-1.86-9.94C306.86,476.25,313.23,480.94,318.5,483.94Z" style="fill:#3f3d56"/><path d="M249.5,280.94S674.12,210.16,747,297.72" style="fill:none;stroke:#3f3d56;stroke-miterlimit:10;stroke-width:2px"/><path d="M753.5,307.94c-4.9-3.57-11.79-7.46-17.37-9l9.82-2.39,6-8.13C751.22,294.18,752.12,302,753.5,307.94Z" style="fill:#3f3d56"/><g style="opacity:0.10000000149011612"><ellipse cx="494.5" cy="748.43" rx="494.5" ry="33" style="fill:#3b88f7"/></g><path d="M928.76,502.46c-40.39,22.6-80.61,57.11-120.74,98.3-32.52-58.28-72.74-108.54-121.81-149.61L807,352.85A543.88,543.88,0,0,1,928.76,502.46Z" style="opacity:0.10000000149011612;isolation:isolate"/><path d="M930.76,494.46c-40.39,22.6-80.61,57.11-120.74,98.3-32.52-58.28-72.74-108.54-121.81-149.61L809,344.85A543.88,543.88,0,0,1,930.76,494.46Z" style="fill:#fff"/><rect x="723.52" y="380.77" width="54.16" height="17.77" transform="translate(-77.5 561.37) rotate(-39.15)" style="fill:#3f3d56"/><rect x="744.12" y="434.71" width="96" height="13" transform="translate(-100.73 599.16) rotate(-39.15)" style="fill:#3b88f7"/><path d="M938.65,735.72a9.82,9.82,0,0,0-2.17-2.42c-4.37-4.12-6.4-10.19-7.48-16.12s-1.39-12-3.12-17.82a58.74,58.74,0,0,0-3.52-8.67c-1-2.13-2.26-6.33-4.09-7.82a2.82,2.82,0,0,0-1.26-.62,14.61,14.61,0,0,0-3.62-4.81c-2.86-2.59-6.35-4.65-8.26-8a17.59,17.59,0,0,0-1.93-3.3c-1.29-1.42-3.33-2-4.52-3.5-1.55-1.94-1.2-4.71-1-7.19s0-5.43-2.14-6.72c-1.28-.79-2.93-.72-4.26-1.41-2-1-2.79-3.53-2.75-5.78s.74-4.44.92-6.68c.56-7.16-4.16-14.28-2.34-21.22.69-2.63,2.27-4.92,3.44-7.36a16.74,16.74,0,0,0,1-2.54,35.18,35.18,0,0,0,9.74,2.34c-5.51-12.35-4.11-26.72-6.68-40l.33-.46a20.77,20.77,0,0,0,4.22-11.85c0-5-2.31-9.57-3.35-14.4-.89-4.12-.85-8.41-2-12.46a38,38,0,0,0-3.16-7.22q-1.87-3.47-3.93-6.82-1.92-6.36-3.85-12.72c-1.8-6-3.65-12-7.15-17.14-1.28-1.89-1.67-5.7-3.64-6.85a8.84,8.84,0,0,0-5.2-.9c-2.78-1.56-5.22-3.81-5.57-6.89a6.42,6.42,0,0,1,.2-2h.34c4.4-.41,6.63-4.29,8.92-7.68,3.7-5.51,2.29-12.95,0-19.21a13.1,13.1,0,0,0-3-5.29c-3.21-3-8.29-2.33-12.43-3.78a39.85,39.85,0,0,0-4.11-1.55c-2.75-.65-5.63.25-8.15,1.52s-4.87,2.91-7.51,3.92-5.9,1.79-6.55,4.5a5,5,0,0,0,.22,2.73,10.26,10.26,0,0,0,3.09,4.45,17.82,17.82,0,0,0,8.26,23.81,17.22,17.22,0,0,0,2.61,1c.76,1.21,1.47,2.45,2.12,3.73,1.16,2.24,2.14,4.88,1.74,7.28a23.37,23.37,0,0,0-2,2.44c-2.87,4-4.5,8.7-6,13.37a140.94,140.94,0,0,0-4.83,18.28c-2.44,5.18-5.42,10.14-7.19,15.59a35,35,0,0,1-9.38-1.25l-8.44-1.92c-2.94-.66-6-1.39-8.3-3.32-1.22-1-2.17-2.33-3.41-3.33s-3.73-2.15-5.09-1.33a4,4,0,0,0-.69.53c-1.24-2.51-4.28,3.89-5.72,1.52-2.06-3.41-9.29.54-13.19-.1a9.25,9.25,0,0,0-6.79,1.57c-2.28,1.63-3.71,5-2,7.28a12.51,12.51,0,0,0,1.39,1.43,28.91,28.91,0,0,1,3.09,4.28c3.08,4.43,10.17.52,15.55,1.54-.12.34,3.77-8.09,3.65-7.74-.71,2.07-2.22,4.59-1.84,6.75l37.54,12.85a22.84,22.84,0,0,0,7.56,1.66,12.66,12.66,0,0,0,3-.39v2c.1,13.19-2,26.3-2.39,39.48-.07,2.4,0,5,1.52,6.88,1.7,2.06,4.72,2.46,7.35,2a16.65,16.65,0,0,0,1.86-.41,69.19,69.19,0,0,1,1.92,10.1l2.49,17.76a27.09,27.09,0,0,1,.39,5.54c-.29,4.18-2.5,7.94-4.1,11.81s-2.55,8.49-.45,12.11c.66,1.12,1.57,2.08,2.16,3.24a13.11,13.11,0,0,1,1,5.67q.22,8.1.44,16.18a1.92,1.92,0,0,0-1.26.26c-2.08,1.61-1.85,9.33-2,11.72-.16,4,0,8.08-.22,12.12A72.32,72.32,0,0,1,840,724.11a10.29,10.29,0,0,1-2.29,4.61,9.86,9.86,0,0,1-4.07,2.11,46.48,46.48,0,0,1-15.41,2.09c-2.11-.06-4.31-.27-6.27.54s-3.54,3-2.83,5c.61,1.68,2.46,2.48,4.13,3.11a66.43,66.43,0,0,1,11,5,30.23,30.23,0,0,0,4.25,2.42,22.08,22.08,0,0,0,4.38,1.08l17.73,3c3.63.63,8,1,10.31-2,1.25-1.62,1.43-3.82,1.37-5.87-.1-4-.9-8.08-.38-12.07a37,37,0,0,1,1.86-6.94l5.3-15.47c1.78-5.27,3.58-10.58,4.27-16.1.25-2,.23-4.27-1.3-5.53a3.69,3.69,0,0,0-1.32-.68c-.06-4.82-.69-9.64-.42-14.46.07-1.21.19-2.41.29-3.61a17.21,17.21,0,0,1,2.47,2.92c1.71,2.67,2.34,6.21,4.95,8,2.22,1.51,5.51,1.44,7.07,3.64a10.14,10.14,0,0,1,1.12,2.7,19.4,19.4,0,0,0,4,6.36,32.8,32.8,0,0,0,2.47,6.34l4.4,9.3a108.23,108.23,0,0,0,5,9.77,27.72,27.72,0,0,1,3.35,6.46c1.41,4.95-.89,10.37-4.53,14s-8.44,5.73-13.17,7.68a3.52,3.52,0,0,0-1.34.8,2.57,2.57,0,0,0-.61,1.74c0,2.31,1.9,4.28,4.08,5a15.59,15.59,0,0,0,6.83.25c12.78-1.55,25.52-4.68,36.82-10.88A13.23,13.23,0,0,0,937.9,741,5.13,5.13,0,0,0,938.65,735.72Z" style="fill:url(#linear-gradient)"/><path d="M884.64,511.5q3.2,4.9,6,10.06a37.48,37.48,0,0,1,3.16,7.16c1.16,4,1.13,8.27,2,12.36,1,4.8,3.34,9.38,3.34,14.29a20.57,20.57,0,0,1-4.22,11.76,56.32,56.32,0,0,1-8.82,9.11A187.62,187.62,0,0,1,873.62,515c-.1-2.91-.12-5.9.94-8.61.65-1.69,3.77-6.35,5.78-4.52.73.67.92,3.68,1.37,4.69A37.43,37.43,0,0,0,884.64,511.5Z" style="fill:#2f2e41"/><path d="M884.64,511.5q3.2,4.9,6,10.06a37.48,37.48,0,0,1,3.16,7.16c1.16,4,1.13,8.27,2,12.36,1,4.8,3.34,9.38,3.34,14.29a20.57,20.57,0,0,1-4.22,11.76,56.32,56.32,0,0,1-8.82,9.11A187.62,187.62,0,0,1,873.62,515c-.1-2.91-.12-5.9.94-8.61.65-1.69,3.77-6.35,5.78-4.52.73.67.92,3.68,1.37,4.69A37.43,37.43,0,0,0,884.64,511.5Z" style="opacity:0.10000000149011612;isolation:isolate"/><path d="M777.29,522.42c-3.91-.64-8.25-.33-11.29,2.21a9.34,9.34,0,0,0-3.24,6.16c-.26,2.78,1.35,6.06,4.13,6.28a13.35,13.35,0,0,0,2-.13,29.65,29.65,0,0,1,5.24.43A21.38,21.38,0,0,0,792.36,530c2.39-3-.76-4.29-3.58-4.89C784.92,524.3,781.15,523.06,777.29,522.42Z" style="fill:#fbbebe"/><path d="M844.17,612.72l2.48,17.62a26.7,26.7,0,0,1,.38,5.5c-.29,4.15-2.5,7.88-4.09,11.72s-2.56,8.43-.45,12c.65,1.11,1.56,2.06,2.15,3.21a13,13,0,0,1,1,5.64l.68,25a157.32,157.32,0,0,0,23.18-.12,1.28,1.28,0,0,0,.84-.27,1.32,1.32,0,0,0,.29-.9c.34-5.85-.68-11.71-.35-17.56.12-2.14.42-4.28.46-6.42.12-8.71-4.18-17.24-2.88-25.86a57,57,0,0,1,1.6-6.43c4.11-15,3.24-30.76,2.33-46.24a1.07,1.07,0,0,0-.2-.71,1.24,1.24,0,0,0-.54-.29,28.48,28.48,0,0,0-25.78,4.91c-1.09.88-3.84,1.72-4.56,2.77-1,1.47.31,2.92.89,4.48A56.85,56.85,0,0,1,844.17,612.72Z" style="fill:#3f3d56"/><path d="M844.17,612.72l2.48,17.62a26.7,26.7,0,0,1,.38,5.5c-.29,4.15-2.5,7.88-4.09,11.72s-2.56,8.43-.45,12c.65,1.11,1.56,2.06,2.15,3.21a13,13,0,0,1,1,5.64l.68,25a157.32,157.32,0,0,0,23.18-.12,1.28,1.28,0,0,0,.84-.27,1.32,1.32,0,0,0,.29-.9c.34-5.85-.68-11.71-.35-17.56.12-2.14.42-4.28.46-6.42.12-8.71-4.18-17.24-2.88-25.86a57,57,0,0,1,1.6-6.43c4.11-15,3.24-30.76,2.33-46.24a1.07,1.07,0,0,0-.2-.71,1.24,1.24,0,0,0-.54-.29,28.48,28.48,0,0,0-25.78,4.91c-1.09.88-3.84,1.72-4.56,2.77-1,1.47.31,2.92.89,4.48A56.85,56.85,0,0,1,844.17,612.72Z" style="opacity:0.10000000149011612;isolation:isolate"/><path d="M890.5,607.43c-1.17,2.43-2.74,4.7-3.44,7.31-1.82,6.89,2.89,14,2.33,21.06-.18,2.22-.87,4.4-.92,6.63s.77,4.7,2.75,5.73c1.33.69,3,.62,4.25,1.4,2.11,1.28,2.35,4.22,2.14,6.67s-.56,5.21,1,7.14c1.19,1.49,3.23,2.06,4.51,3.47a17.35,17.35,0,0,1,1.93,3.27c1.91,3.33,5.4,5.38,8.26,7.94s5.28,6.47,4,10.09c-.94,2.67-3.58,4.3-6.12,5.56a64.9,64.9,0,0,1-14.57,5.14,3.37,3.37,0,0,1-1.67.09,3.67,3.67,0,0,1-1.46-1c-3-2.88-6-5.91-7.36-9.81a10.15,10.15,0,0,0-1.12-2.68c-1.56-2.18-4.85-2.11-7.07-3.61-2.6-1.77-3.23-5.29-4.93-7.94s-4.19-4.22-6-6.56c-3.06-3.88-3.81-9.06-6-13.49a62.76,62.76,0,0,1-2.86-5.6,30.27,30.27,0,0,1-1.37-7.24c-1.41-11.67-5-23.44-2.74-35,.5-2.55,1.27-5,1.59-7.62.55-4.54-.32-9.17.35-13.7a3.73,3.73,0,0,1,1.51-2.9,3.94,3.94,0,0,1,1.72-.36,118.6,118.6,0,0,1,17.78.4c3,.3,6.36.91,8.16,3.35,1.53,2.1,1.45,4.92,1.94,7.47.61,3.13,2.2,4.85,3.87,7.31S891.77,604.89,890.5,607.43Z" style="fill:#3f3d56"/><path d="M867.5,688.72c1.58,0,3.33-.1,4.55.91,1.52,1.24,1.54,3.53,1.3,5.48-.7,5.48-2.49,10.75-4.28,16l-5.32,15.6a37.31,37.31,0,0,0-1.86,6.89c-.52,4,.28,8,.38,12,0,2-.13,4.22-1.38,5.82-2.26,2.91-6.67,2.57-10.3,2l-17.71-3a20.78,20.78,0,0,1-4.38-1.08,28.19,28.19,0,0,1-4.25-2.39,65.26,65.26,0,0,0-11-5c-1.66-.63-3.52-1.42-4.12-3.09-.71-2,.87-4.19,2.83-5s4.15-.6,6.27-.53a46.72,46.72,0,0,0,15.4-2.09,9.79,9.79,0,0,0,4.06-2.09,10.15,10.15,0,0,0,2.29-4.57,70,70,0,0,0,2.68-16c.21-4,.07-8,.23-12,.1-2.38-.13-10,2-11.63,1.59-1.22,8.13,2.14,10.28,2.64A50,50,0,0,0,867.5,688.72Z" style="fill:#2f2e41"/><path d="M925.81,699.81c1.73,5.74,2,11.79,3.12,17.68s3.1,11.91,7.47,16a9.55,9.55,0,0,1,2.17,2.4,5.07,5.07,0,0,1-.75,5.23,13.24,13.24,0,0,1-4.39,3.36c-11.29,6.17-24,9.27-36.81,10.81a15.4,15.4,0,0,1-6.82-.24c-2.18-.74-4.11-2.7-4.07-5a2.51,2.51,0,0,1,.6-1.72,3.64,3.64,0,0,1,1.35-.8c4.72-1.93,9.51-4,13.16-7.62s5.94-9,4.53-13.86a26.83,26.83,0,0,0-3.35-6.41,107,107,0,0,1-5-9.7l-4.4-9.23c-1.29-2.7-2.59-5.48-2.81-8.46a40.42,40.42,0,0,0,16.22-2.6,25.11,25.11,0,0,0,6.67-4c1.7-1.42,3.25-4.07,5.54-2.21,1.84,1.48,3,5.64,4.08,7.76A57.9,57.9,0,0,1,925.81,699.81Z" style="fill:#2f2e41"/><path d="M861.33,470.63c.44,3.83,4.16,6.37,7.71,7.88l-22.47,7.21c1.45-2.78.28-6.17-1.16-9a50.39,50.39,0,0,0-4-6.4c-.22-.32-.47-.71-.31-1.06a1.1,1.1,0,0,1,.63-.49c4.62-2.06,9.38-4.19,14.43-4.94,1.46-.22,4.22-.8,5.31.68S861.12,468.86,861.33,470.63Z" style="fill:#fbbebe"/><path d="M861.33,470.63c.44,3.83,4.16,6.37,7.71,7.88l-22.47,7.21c1.45-2.78.28-6.17-1.16-9a50.39,50.39,0,0,0-4-6.4c-.22-.32-.47-.71-.31-1.06a1.1,1.1,0,0,1,.63-.49c4.62-2.06,9.38-4.19,14.43-4.94,1.46-.22,4.22-.8,5.31.68S861.12,468.86,861.33,470.63Z" style="opacity:0.10000000149011612;isolation:isolate"/><circle cx="848.27" cy="456.12" r="17.62" style="fill:#fbbebe"/><path d="M833,601.12c1.71,2,4.72,2.44,7.35,2,6.15-1,11.18-5.53,17.2-7.17,7.38-2,15.19.58,22.16,3.72s13.9,7,21.52,7.55c-6.89-15.36-2.95-33.85-9.54-49.34-1.61-3.79-3.86-7.44-4.22-11.54-.45-5.09,2.09-10,2.48-15.06.36-4.51-1-9-2.3-13.29q-2.41-7.92-4.82-15.85c-1.8-5.91-3.65-11.91-7.14-17-1.29-1.87-1.68-5.65-3.64-6.79-4.28-2.47-10.77.65-15.41.82s-8.87,3.47-11.58,7.19c-2.87,4-4.5,8.64-6,13.28a126.14,126.14,0,0,0-5.33,21.23c-.15,1.08-.28,2.16-.38,3.25-1,10.27.46,20.6.54,30.91v.07c.1,13.09-2,26.1-2.39,39.18C831.5,596.72,831.5,599.29,833,601.12Z" style="fill:#2f2e41"/><path d="M833.92,555c3.45-.87,6.57-3.1,9.25-5.53a38.67,38.67,0,0,0,6.14-7,50.12,50.12,0,0,0,5.29-11.17,129.21,129.21,0,0,0,7-32.27c.26-3,.34-6.21-1.45-8.59a7.24,7.24,0,0,0-8.75-2.13c-2.36,1.16-3.89,3.49-5.31,5.71-2.81,4.43-5.64,8.9-7.45,13.82-.8,2.18-1.39,4.43-2.17,6.62a63.28,63.28,0,0,1-2.74,6.33c-.15,1.08-.28,2.16-.38,3.25C832.42,534.4,833.84,544.72,833.92,555Z" style="opacity:0.10000000149011612;isolation:isolate"/><path d="M860.1,488.63c1.79,2.38,1.71,5.63,1.46,8.59a129.38,129.38,0,0,1-7,32.28,49.41,49.41,0,0,1-5.29,11.16,38.67,38.67,0,0,1-6.14,7c-3.4,3.11-7.54,5.87-12.15,5.92a23.39,23.39,0,0,1-7.56-1.65l-37.51-12.75c-.38-2.14,1.13-4.63,1.84-6.69l2-5.94c.57-1.64,1.23-3.4,2.72-4.29s3.85.33,5.09,1.31,2.18,2.3,3.4,3.31c2.31,1.92,5.36,2.63,8.3,3.29l8.43,1.9a35.38,35.38,0,0,0,9.38,1.24c2.35-7.17,6.82-13.5,9.35-20.61.78-2.19,1.37-4.44,2.18-6.61,1.8-4.93,4.64-9.4,7.45-13.82,1.41-2.23,2.94-4.56,5.31-5.71A7.21,7.21,0,0,1,860.1,488.63Z" style="fill:#2f2e41"/><path d="M853.89,460.09a9.13,9.13,0,0,0-1.06-3.3,2.79,2.79,0,0,0-3-1.32c-1.76.55-2.35,3.28-4.19,3.37-1.24.06-2.13-1.2-2.52-2.39s-.6-2.52-1.53-3.36a5.7,5.7,0,0,0-2.18-1c-4.27-1.35-8.68-3.85-10.1-8.1a4.91,4.91,0,0,1-.23-2.71c.65-2.69,4-3.49,6.55-4.47s5-2.63,7.5-3.88,5.4-2.16,8.15-1.52a42.23,42.23,0,0,1,4.11,1.54c4.14,1.43,9.21.76,12.42,3.75a13,13,0,0,1,3,5.25c2.24,6.21,3.66,13.59,0,19.06-2.29,3.37-4.51,7.22-8.91,7.62C856.73,469.08,854.7,464.41,853.89,460.09Z" style="fill:#2f2e41"/><g style="opacity:0.10000000149011612"><path d="M846.07,454.33c-.39-1.18-.6-2.52-1.52-3.36a5.7,5.7,0,0,0-2.18-1c-4.28-1.35-8.68-3.85-10.11-8.1a4.91,4.91,0,0,1-.22-2.71,3.45,3.45,0,0,1,.53-1.19c-1.63.71-3.05,1.65-3.45,3.31a4.91,4.91,0,0,0,.23,2.71c1.42,4.25,5.83,6.75,10.1,8.1a5.7,5.7,0,0,1,2.18,1c.93.84,1.13,2.18,1.53,3.36s1.28,2.45,2.52,2.39,1.84-1.19,2.63-2.15C847.22,456.56,846.43,455.42,846.07,454.33Z"/><path d="M864.79,466.49c-5.14.47-7.17-4.2-8-8.52a8.68,8.68,0,0,0-1-3.29,2.81,2.81,0,0,0-3-1.33c-.95.3-1.56,1.24-2.21,2a3,3,0,0,1,2.26,1.39,9.13,9.13,0,0,1,1.06,3.3c.81,4.32,2.84,9,8,8.52a8.21,8.21,0,0,0,5.28-2.73A7.33,7.33,0,0,1,864.79,466.49Z"/></g><path d="M253.89,382.78c-45.58-8-98.57-6.6-155.7,0,11.59-65.72,12.13-130.1,0-192.93h155.7A543.76,543.76,0,0,1,253.89,382.78Z" style="fill:#fff"/><rect x="153.28" y="178.85" width="54.16" height="17.77" style="fill:#3f3d56"/><rect x="388" y="433.43" width="96" height="13" style="fill:#3b88f7"/><rect x="388" y="460.43" width="96" height="13" style="fill:#3b88f7"/><rect x="516" y="43.43" width="96" height="13" style="fill:#3b88f7"/><rect x="516" y="70.43" width="96" height="13" style="fill:#3b88f7"/><rect x="132" y="225.43" width="96" height="13" style="fill:#3b88f7"/><path d="M127.56,721.31l19.14-11.25a46.09,46.09,0,0,0-9.79-11.71L100.8,709.58l28.3-16.64A46,46,0,0,0,61,733.29c0,25.41,20.59,26.29,46,26.29s46-.88,46-26.29a45.76,45.76,0,0,0-3.95-18.66Z" style="fill:#3b88f7"/><path d="M132.43,746a36,36,0,0,0-6.78-5.33c-3.48-2.31-7.07-4.66-11.17-5.45-3.6-.68-7.31-.1-11-.31a25.71,25.71,0,0,1-16.81-7.7c-2.61-2.71-4.67-6-7.81-8.09-3.39-2.23-7.69-2.71-11.71-2.15a29.07,29.07,0,0,0-3.46.71A45.58,45.58,0,0,0,61,733.29c0,25.41,20.59,26.29,46,26.29,12.33,0,23.52-.21,31.78-3.33l-1.35-2.53A36,36,0,0,0,132.43,746Z" style="opacity:0.10000000149011612;isolation:isolate"/><path d="M597.74,684.62l-25.39-14.9a61.17,61.17,0,0,1,13-15.53l47.89,14.89L595.71,647A61,61,0,0,1,686,700.53c0,33.69-27.31,34.85-61,34.85s-61-1.16-61-34.85a60.75,60.75,0,0,1,5.21-24.81Z" style="fill:#3b88f7"/><path d="M591.27,717.37a48.45,48.45,0,0,1,9-7.07c4.61-3,9.38-6.18,14.81-7.22,4.77-.91,9.69-.14,14.54-.42a34,34,0,0,0,22.3-10.21c3.46-3.59,6.19-8,10.36-10.73,4.49-3,10.19-3.58,15.52-2.85a42.12,42.12,0,0,1,4.6.94,60.85,60.85,0,0,1,3.6,20.7c0,33.69-27.31,34.85-61,34.85-16.35,0-31.19-.27-42.15-4.4l1.83-3.42A48.15,48.15,0,0,1,591.27,717.37Z" style="opacity:0.10000000149011612;isolation:isolate"/></svg>