<?xml version="1.0" encoding="utf-8"?>
<!-- Generator: Adobe Illustrator 23.0.3, SVG Export Plug-In . SVG Version: 6.00 Build 0)  -->
<svg version="1.1" id="Layer_1" xmlns="http://www.w3.org/2000/svg" xmlns:xlink="http://www.w3.org/1999/xlink" x="0px" y="0px"
	 viewBox="0 0 678.3 733" style="enable-background:new 0 0 678.3 733;" xml:space="preserve">
<style type="text/css">
	.st0{fill:url(#SVGID_1_);}
	.st1{fill:#F5F5F5;}
	.st2{fill:url(#SVGID_2_);}
	.st3{fill:url(#SVGID_3_);}
	.st4{fill:#FAFAFA;}
	.st5{fill:url(#SVGID_4_);}
	.st6{fill:url(#SVGID_5_);}
	.st7{fill:#FFFFFF;}
	.st8{fill:#69F0AE;}
	.st9{fill:url(#SVGID_6_);}
	.st10{fill:url(#SVGID_7_);}
	.st11{fill:url(#SVGID_8_);}
	.st12{fill:url(#SVGID_9_);}
	.st13{fill:url(#SVGID_10_);}
	.st14{fill:url(#SVGID_11_);}
	.st15{fill:url(#SVGID_12_);}
	.st16{fill:#3B88F7;}
	.st17{opacity:0.2;fill:#3B88F7;enable-background:new    ;}
	.st18{fill:url(#SVGID_13_);}
	.st19{fill:#3B88F7;}
	.st20{opacity:0.2;fill:#FFFFFF;enable-background:new    ;}
	.st21{fill:url(#SVGID_14_);}
	.st22{fill:url(#SVGID_15_);}
</style>
<title>illustration-8</title>
<linearGradient id="SVGID_1_" gradientUnits="userSpaceOnUse" x1="585.48" y1="249" x2="585.48" y2="189.63" gradientTransform="matrix(1 0 0 1 0 484)">
	<stop  offset="0" style="stop-color:#808080;stop-opacity:0.25"/>
	<stop  offset="0.54" style="stop-color:#808080;stop-opacity:0.12"/>
	<stop  offset="1" style="stop-color:#808080;stop-opacity:0.1"/>
</linearGradient>
<rect x="560.4" y="673.6" class="st0" width="50.2" height="59.4"/>
<rect x="561.5" y="673.6" class="st1" width="47.9" height="57.2"/>
<linearGradient id="SVGID_2_" gradientUnits="userSpaceOnUse" x1="93.98" y1="249" x2="93.98" y2="189.63" gradientTransform="matrix(1 0 0 1 0 484)">
	<stop  offset="0" style="stop-color:#808080;stop-opacity:0.25"/>
	<stop  offset="0.54" style="stop-color:#808080;stop-opacity:0.12"/>
	<stop  offset="1" style="stop-color:#808080;stop-opacity:0.1"/>
</linearGradient>
<rect x="68.9" y="673.6" class="st2" width="50.2" height="59.4"/>
<rect x="70.1" y="673.6" class="st1" width="47.9" height="57.2"/>
<linearGradient id="SVGID_3_" gradientUnits="userSpaceOnUse" x1="339.15" y1="197.8" x2="339.15" y2="-484" gradientTransform="matrix(1 0 0 1 0 484)">
	<stop  offset="0" style="stop-color:#808080;stop-opacity:0.25"/>
	<stop  offset="0.54" style="stop-color:#808080;stop-opacity:0.12"/>
	<stop  offset="1" style="stop-color:#808080;stop-opacity:0.1"/>
</linearGradient>
<path class="st3" d="M14.9,0h648.6c8.2,0,14.9,6.7,14.9,14.9v652.1c0,8.2-6.7,14.9-14.9,14.9H14.9c-8.2,0-14.9-6.7-14.9-14.9V14.9
	C0,6.7,6.7,0,14.9,0z"/>
<path class="st4" d="M19.5,3.5h640.4c8.2,0,14.9,6.7,14.9,14.9v640.4c0,8.2-6.7,14.9-14.9,14.9H19.5c-8.2,0-14.9-6.7-14.9-14.9V18.4
	C4.7,10.2,11.3,3.5,19.5,3.5z"/>
<linearGradient id="SVGID_4_" gradientUnits="userSpaceOnUse" x1="339.15" y1="85.14" x2="339.15" y2="-372.51" gradientTransform="matrix(1 0 0 1 0 484)">
	<stop  offset="0" style="stop-color:#808080;stop-opacity:0.25"/>
	<stop  offset="0.54" style="stop-color:#808080;stop-opacity:0.12"/>
	<stop  offset="1" style="stop-color:#808080;stop-opacity:0.1"/>
</linearGradient>
<rect x="112.7" y="111.5" class="st5" width="453" height="457.7"/>
<linearGradient id="SVGID_5_" gradientUnits="userSpaceOnUse" x1="861.1444" y1="-45.7593" x2="861.1444" y2="-119.3093" gradientTransform="matrix(0.9666 -0.2565 0.2565 0.9666 -265.5286 583.0349)">
	<stop  offset="0" style="stop-color:#808080;stop-opacity:0.25"/>
	<stop  offset="0.54" style="stop-color:#808080;stop-opacity:0.12"/>
	<stop  offset="1" style="stop-color:#808080;stop-opacity:0.1"/>
</linearGradient>
<polygon class="st6" points="463.4,266.2 609,227.6 627.9,298.6 482.3,337.3 "/>
<rect x="471.5" y="246.8" transform="matrix(0.9666 -0.2565 0.2565 0.9666 -54.1799 149.3805)" class="st7" width="148.3" height="71.2"/>
<rect x="476.4" y="249.1" transform="matrix(0.9666 -0.2565 0.2565 0.9666 -54.1787 149.38)" class="st8" width="138.5" height="66.6"/>
<ellipse transform="matrix(0.9666 -0.2565 0.2565 0.9666 -54.0989 149.1806)" class="st7" cx="544.9" cy="282" rx="25.7" ry="14"/>
<linearGradient id="SVGID_6_" gradientUnits="userSpaceOnUse" x1="710.9866" y1="26.5438" x2="710.9866" y2="-47.0062" gradientTransform="matrix(0.9457 0.3249 -0.3249 0.9457 -133.0984 169.0141)">
	<stop  offset="0" style="stop-color:#808080;stop-opacity:0.25"/>
	<stop  offset="0.54" style="stop-color:#808080;stop-opacity:0.12"/>
	<stop  offset="1" style="stop-color:#808080;stop-opacity:0.1"/>
</linearGradient>
<polygon class="st9" points="459.5,400.7 483.4,331.1 625.8,380 601.9,449.6 "/>
<rect x="507" y="316.2" transform="matrix(0.3249 -0.9457 0.9457 0.3249 -2.8418 776.7114)" class="st7" width="71.2" height="148.3"/>
<rect x="509.4" y="321.1" transform="matrix(0.3249 -0.9457 0.9457 0.3249 -2.8312 776.7243)" class="st8" width="66.5" height="138.6"/>
<ellipse transform="matrix(0.3249 -0.9457 0.9457 0.3249 -2.3733 775.8655)" class="st7" cx="542.3" cy="389.6" rx="14" ry="25.7"/>
<linearGradient id="SVGID_7_" gradientUnits="userSpaceOnUse" x1="565.48" y1="-107.74" x2="565.48" y2="-181.29" gradientTransform="matrix(1 0 0 1 0 484)">
	<stop  offset="0" style="stop-color:#808080;stop-opacity:0.25"/>
	<stop  offset="0.54" style="stop-color:#808080;stop-opacity:0.12"/>
	<stop  offset="1" style="stop-color:#808080;stop-opacity:0.1"/>
</linearGradient>
<rect x="490.2" y="302.7" class="st10" width="150.6" height="73.6"/>
<rect x="491.4" y="303.9" class="st7" width="148.3" height="71.2"/>
<rect x="496.2" y="306.2" class="st8" width="138.6" height="66.6"/>
<ellipse class="st7" cx="564.9" cy="338.9" rx="25.7" ry="14"/>
<rect x="116.2" y="116.2" class="st7" width="446" height="446"/>
<linearGradient id="SVGID_8_" gradientUnits="userSpaceOnUse" x1="339.15" y1="-60.79" x2="339.15" y2="-228.91" gradientTransform="matrix(1 0 0 1 0 484)">
	<stop  offset="0" style="stop-color:#808080;stop-opacity:0.25"/>
	<stop  offset="0.54" style="stop-color:#808080;stop-opacity:0.12"/>
	<stop  offset="1" style="stop-color:#808080;stop-opacity:0.1"/>
</linearGradient>
<circle class="st11" cx="339.1" cy="339.1" r="84.1"/>
<circle class="st4" cx="339.1" cy="339.1" r="80.6"/>
<linearGradient id="SVGID_9_" gradientUnits="userSpaceOnUse" x1="290.12" y1="41.35" x2="290.12" y2="15.67" gradientTransform="matrix(1 0 0 1 0 484)">
	<stop  offset="0" style="stop-color:#808080;stop-opacity:0.25"/>
	<stop  offset="0.54" style="stop-color:#808080;stop-opacity:0.12"/>
	<stop  offset="1" style="stop-color:#808080;stop-opacity:0.1"/>
</linearGradient>
<rect x="277.9" y="499.7" class="st12" width="24.5" height="25.7"/>
<linearGradient id="SVGID_10_" gradientUnits="userSpaceOnUse" x1="322.81" y1="41.35" x2="322.81" y2="15.67" gradientTransform="matrix(1 0 0 1 0 484)">
	<stop  offset="0" style="stop-color:#808080;stop-opacity:0.25"/>
	<stop  offset="0.54" style="stop-color:#808080;stop-opacity:0.12"/>
	<stop  offset="1" style="stop-color:#808080;stop-opacity:0.1"/>
</linearGradient>
<rect x="310.5" y="499.7" class="st13" width="24.5" height="25.7"/>
<linearGradient id="SVGID_11_" gradientUnits="userSpaceOnUse" x1="355.49" y1="41.35" x2="355.49" y2="15.67" gradientTransform="matrix(1 0 0 1 0 484)">
	<stop  offset="0" style="stop-color:#808080;stop-opacity:0.25"/>
	<stop  offset="0.54" style="stop-color:#808080;stop-opacity:0.12"/>
	<stop  offset="1" style="stop-color:#808080;stop-opacity:0.1"/>
</linearGradient>
<rect x="343.2" y="499.7" class="st14" width="24.5" height="25.7"/>
<linearGradient id="SVGID_12_" gradientUnits="userSpaceOnUse" x1="388.18" y1="41.35" x2="388.18" y2="15.67" gradientTransform="matrix(1 0 0 1 0 484)">
	<stop  offset="0" style="stop-color:#808080;stop-opacity:0.25"/>
	<stop  offset="0.54" style="stop-color:#808080;stop-opacity:0.12"/>
	<stop  offset="1" style="stop-color:#808080;stop-opacity:0.1"/>
</linearGradient>
<rect x="375.9" y="499.7" class="st15" width="24.5" height="25.7"/>
<rect x="361.9" y="293.6" transform="matrix(0.5736 -0.8192 0.8192 0.5736 -84.6168 429.3735)" class="st16" width="16.3" height="4.7"/>
<rect x="380" y="361.9" transform="matrix(0.5736 -0.8192 0.8192 0.5736 -140.1216 470.9977)" class="st16" width="4.7" height="16.3"/>
<rect x="300" y="380" transform="matrix(0.5736 -0.8192 0.8192 0.5736 -181.755 415.4917)" class="st16" width="16.3" height="4.7"/>
<rect x="293.6" y="300" transform="matrix(0.5736 -0.8192 0.8192 0.5736 -126.2492 373.8729)" class="st16" width="4.7" height="16.3"/>
<rect x="361.9" y="293.5" transform="matrix(0.5736 -0.8192 0.8192 0.5736 -84.5256 429.285)" class="st17" width="16.3" height="4.7"/>
<rect x="380" y="361.8" transform="matrix(0.5736 -0.8192 0.8192 0.5736 -140.0344 470.9217)" class="st17" width="4.7" height="16.3"/>
<rect x="300" y="379.8" transform="matrix(0.5736 -0.8192 0.8192 0.5736 -181.6575 415.4077)" class="st17" width="16.3" height="4.7"/>
<rect x="293.6" y="299.9" transform="matrix(0.5736 -0.8192 0.8192 0.5736 -126.1569 373.7752)" class="st17" width="4.7" height="16.3"/>
<linearGradient id="SVGID_13_" gradientUnits="userSpaceOnUse" x1="339.15" y1="-94.07" x2="339.15" y2="-195.63" gradientTransform="matrix(1 0 0 1 0 484)">
	<stop  offset="0" style="stop-color:#808080;stop-opacity:0.25"/>
	<stop  offset="0.54" style="stop-color:#808080;stop-opacity:0.12"/>
	<stop  offset="1" style="stop-color:#808080;stop-opacity:0.1"/>
</linearGradient>
<circle class="st18" cx="339.1" cy="339.1" r="50.8"/>
<circle class="st19" cx="339.1" cy="339.1" r="47.9"/>
<path class="st20" d="M300,345.6c0-26.4,21.4-47.9,47.8-47.9c8.4,0,16.6,2.2,23.9,6.4c-19-18.3-49.3-17.7-67.7,1.3
	c-18.3,19-17.7,49.3,1.3,67.7c2.8,2.7,6,5.1,9.4,7C305.3,371,300,358.6,300,345.6z"/>
<linearGradient id="SVGID_14_" gradientUnits="userSpaceOnUse" x1="377.605" y1="-103.46" x2="377.605" y2="-200.36" gradientTransform="matrix(1 0 0 1 -260.85 400)">
	<stop  offset="0" style="stop-color:#808080;stop-opacity:0.25"/>
	<stop  offset="0.54" style="stop-color:#808080;stop-opacity:0.12"/>
	<stop  offset="1" style="stop-color:#808080;stop-opacity:0.1"/>
</linearGradient>
<path class="st21" d="M135.4,296.5H98.1v-93.3c0-2,1.6-3.6,3.6-3.6h30.1c2,0,3.6,1.6,3.6,3.6l0,0L135.4,296.5z"/>
<linearGradient id="SVGID_15_" gradientUnits="userSpaceOnUse" x1="377.6" y1="79.83" x2="377.6" y2="-17.07" gradientTransform="matrix(1 0 0 1 -260.85 400)">
	<stop  offset="0" style="stop-color:#808080;stop-opacity:0.25"/>
	<stop  offset="0.54" style="stop-color:#808080;stop-opacity:0.12"/>
	<stop  offset="1" style="stop-color:#808080;stop-opacity:0.1"/>
</linearGradient>
<path class="st22" d="M131.6,479.8h-29.7c-2.1,0-3.8-1.7-3.8-3.8l0,0v-93.1h37.4V476C135.4,478.1,133.7,479.8,131.6,479.8
	L131.6,479.8z"/>
<path class="st4" d="M102.4,200.8h28.7c1.8,0,3.2,1.4,3.2,3.2v90.2h-35V204C99.2,202.2,100.6,200.8,102.4,200.8
	C102.4,200.8,102.4,200.8,102.4,200.8z"/>
<path class="st4" d="M99.2,384.1h35v92.3c0,0.6-0.5,1.1-1,1.1c0,0,0,0,0,0h-32.9c-0.6,0-1.1-0.5-1.1-1c0,0,0,0,0,0L99.2,384.1
	L99.2,384.1z"/>
</svg>
