<svg id="b73a925f-84d4-42fb-b5d6-6e87d8bd3a11" xmlns="http://www.w3.org/2000/svg" xmlns:xlink="http://www.w3.org/1999/xlink" viewBox="0 0 877.57 792.02"><defs><linearGradient id="linear-gradient" x1="375.22" y1="5.24" x2="375.22" y2="532.73" gradientTransform="matrix(1, 0, 0, -1, -161.21, 738)" gradientUnits="userSpaceOnUse"><stop offset="0" stop-color="gray" stop-opacity="0.25"/><stop offset="0.54" stop-color="gray" stop-opacity="0.12"/><stop offset="1" stop-color="gray" stop-opacity="0.1"/></linearGradient><linearGradient id="linear-gradient-2" x1="418.66" y1="306.32" x2="535.11" y2="306.32" gradientTransform="matrix(1, 0, 0, -1, 0, 792.02)" xlink:href="#linear-gradient"/><linearGradient id="linear-gradient-3" x1="579.88" y1="280.8" x2="696.34" y2="280.8" xlink:href="#linear-gradient"/><linearGradient id="linear-gradient-4" x1="579.87" y1="342.83" x2="696.33" y2="342.83" xlink:href="#linear-gradient"/><linearGradient id="linear-gradient-5" x1="624.18" y1="423.21" x2="652.03" y2="423.21" xlink:href="#linear-gradient"/><linearGradient id="linear-gradient-6" x1="418.66" y1="151.89" x2="460.43" y2="151.89" gradientTransform="matrix(1, 0, 0, -1, 0, 792.02)" xlink:href="#linear-gradient"/><linearGradient id="linear-gradient-7" x1="493.35" y1="151.89" x2="535.12" y2="151.89" gradientTransform="matrix(1, 0, 0, -1, 0, 792.02)" xlink:href="#linear-gradient"/><linearGradient id="linear-gradient-8" x1="624.18" y1="433.96" x2="652.03" y2="433.96" xlink:href="#linear-gradient"/><linearGradient id="linear-gradient-9" x1="416.13" y1="550.62" x2="537.65" y2="550.62" gradientTransform="matrix(1, 0, 0, -1, 0, 792.02)" xlink:href="#linear-gradient"/><linearGradient id="linear-gradient-10" x1="418.66" y1="536.7" x2="535.12" y2="536.7" gradientTransform="matrix(0.71, 0.71, 0.71, -0.71, -239.83, 297.59)" xlink:href="#linear-gradient"/><linearGradient id="linear-gradient-11" x1="593.75" y1="522.84" x2="695.53" y2="522.84" xlink:href="#linear-gradient"/><linearGradient id="linear-gradient-12" x1="593.75" y1="524.11" x2="695.53" y2="524.11" xlink:href="#linear-gradient"/><linearGradient id="linear-gradient-13" x1="529.42" y1="536.7" x2="539.54" y2="536.7" gradientTransform="matrix(1, 0, 0, -1, 0, 792.02)" xlink:href="#linear-gradient"/><linearGradient id="linear-gradient-14" x1="414.24" y1="536.7" x2="424.36" y2="536.7" gradientTransform="matrix(1, 0, 0, -1, 0, 792.02)" xlink:href="#linear-gradient"/><linearGradient id="linear-gradient-15" x1="618.66" y1="611.38" x2="646.5" y2="611.38" gradientTransform="matrix(1, 0, 0, -1, 0, 792.02)" xlink:href="#linear-gradient"/><linearGradient id="linear-gradient-16" x1="581.14" y1="449.14" x2="695.59" y2="449.14" xlink:href="#linear-gradient"/><linearGradient id="linear-gradient-17" x1="669.05" y1="463.71" x2="798.85" y2="463.71" xlink:href="#linear-gradient"/><linearGradient id="linear-gradient-18" x1="307.28" y1="611.38" x2="335.12" y2="611.38" gradientTransform="matrix(1, 0, 0, -1, 0, 792.02)" xlink:href="#linear-gradient"/><linearGradient id="linear-gradient-19" x1="477.35" y1="463.69" x2="607.15" y2="463.69" xlink:href="#linear-gradient"/><linearGradient id="linear-gradient-20" x1="582.41" y1="-43.88" x2="619.12" y2="-43.88" xlink:href="#linear-gradient"/><linearGradient id="linear-gradient-21" x1="657.09" y1="-43.87" x2="693.8" y2="-43.87" xlink:href="#linear-gradient"/><linearGradient id="linear-gradient-22" x1="349.23" y1="313.45" x2="349.23" y2="321.46" gradientTransform="matrix(1, 0, 0, -1, 0, 792.02)" xlink:href="#linear-gradient"/><linearGradient id="linear-gradient-23" x1="360.8" y1="313.45" x2="360.8" y2="321.46" gradientTransform="matrix(1, 0, 0, -1, 0, 792.02)" xlink:href="#linear-gradient"/><linearGradient id="linear-gradient-24" x1="327.88" y1="313.45" x2="327.88" y2="321.46" gradientTransform="matrix(1, 0, 0, -1, 0, 792.02)" xlink:href="#linear-gradient"/><linearGradient id="linear-gradient-25" x1="343" y1="323.54" x2="343" y2="331.54" gradientTransform="matrix(1, 0, 0, -1, 0, 792.02)" xlink:href="#linear-gradient"/><linearGradient id="linear-gradient-26" x1="366.58" y1="321.91" x2="366.58" y2="329.91" gradientTransform="matrix(1, 0, 0, -1, 0, 792.02)" xlink:href="#linear-gradient"/><linearGradient id="linear-gradient-27" x1="360.8" y1="325.46" x2="360.8" y2="333.47" gradientTransform="matrix(1, 0, 0, -1, 0, 792.02)" xlink:href="#linear-gradient"/><linearGradient id="linear-gradient-28" x1="363.61" y1="317.01" x2="363.61" y2="325.02" gradientTransform="matrix(1, 0, 0, -1, 0, 792.02)" xlink:href="#linear-gradient"/><linearGradient id="linear-gradient-29" x1="353.23" y1="323.54" x2="353.23" y2="331.54" gradientTransform="matrix(1, 0, 0, -1, 0, 792.02)" xlink:href="#linear-gradient"/><linearGradient id="linear-gradient-30" x1="352.79" y1="334.8" x2="352.79" y2="342.81" gradientTransform="matrix(1, 0, 0, -1, 0, 792.02)" xlink:href="#linear-gradient"/><linearGradient id="linear-gradient-31" x1="372.51" y1="329.02" x2="372.51" y2="337.03" gradientTransform="matrix(1, 0, 0, -1, 0, 792.02)" xlink:href="#linear-gradient"/><linearGradient id="linear-gradient-32" x1="370.58" y1="321.46" x2="370.58" y2="329.47" gradientTransform="matrix(1, 0, 0, -1, 0, 792.02)" xlink:href="#linear-gradient"/><linearGradient id="linear-gradient-33" x1="379.48" y1="322.94" x2="379.48" y2="330.95" gradientTransform="matrix(1, 0, 0, -1, 0, 792.02)" xlink:href="#linear-gradient"/><linearGradient id="linear-gradient-34" x1="375.47" y1="319.24" x2="375.47" y2="327.24" gradientTransform="matrix(1, 0, 0, -1, 0, 792.02)" xlink:href="#linear-gradient"/><linearGradient id="linear-gradient-35" x1="348.79" y1="329.02" x2="348.79" y2="337.03" gradientTransform="matrix(1, 0, 0, -1, 0, 792.02)" xlink:href="#linear-gradient"/><linearGradient id="linear-gradient-36" x1="343" y1="313.9" x2="343" y2="321.91" gradientTransform="matrix(1, 0, 0, -1, 0, 792.02)" xlink:href="#linear-gradient"/><linearGradient id="linear-gradient-37" x1="333.96" y1="313.45" x2="333.96" y2="321.46" gradientTransform="matrix(1, 0, 0, -1, 0, 792.02)" xlink:href="#linear-gradient"/><linearGradient id="linear-gradient-38" x1="338.56" y1="315.97" x2="338.56" y2="323.98" gradientTransform="matrix(1, 0, 0, -1, 0, 792.02)" xlink:href="#linear-gradient"/><linearGradient id="linear-gradient-39" x1="358.13" y1="320.42" x2="358.13" y2="328.43" gradientTransform="matrix(1, 0, 0, -1, 0, 792.02)" xlink:href="#linear-gradient"/><linearGradient id="linear-gradient-40" x1="358.13" y1="329.91" x2="358.13" y2="337.92" gradientTransform="matrix(1, 0, 0, -1, 0, 792.02)" xlink:href="#linear-gradient"/><linearGradient id="linear-gradient-41" x1="362.57" y1="322.35" x2="362.57" y2="330.36" gradientTransform="matrix(1, 0, 0, -1, 0, 792.02)" xlink:href="#linear-gradient"/><linearGradient id="linear-gradient-42" x1="358.57" y1="337.47" x2="358.57" y2="345.48" gradientTransform="matrix(1, 0, 0, -1, 0, 792.02)" xlink:href="#linear-gradient"/><linearGradient id="linear-gradient-43" x1="359.46" y1="333.47" x2="359.46" y2="341.48" gradientTransform="matrix(1, 0, 0, -1, 0, 792.02)" xlink:href="#linear-gradient"/><linearGradient id="linear-gradient-44" x1="364.21" y1="330.8" x2="364.21" y2="338.81" gradientTransform="matrix(1, 0, 0, -1, 0, 792.02)" xlink:href="#linear-gradient"/><linearGradient id="linear-gradient-45" x1="369.1" y1="331.54" x2="369.1" y2="339.55" gradientTransform="matrix(1, 0, 0, -1, 0, 792.02)" xlink:href="#linear-gradient"/><linearGradient id="linear-gradient-46" x1="367.76" y1="327.54" x2="367.76" y2="335.55" gradientTransform="matrix(1, 0, 0, -1, 0, 792.02)" xlink:href="#linear-gradient"/><linearGradient id="linear-gradient-47" x1="351.01" y1="332.73" x2="351.01" y2="340.73" gradientTransform="matrix(1, 0, 0, -1, 0, 792.02)" xlink:href="#linear-gradient"/><linearGradient id="linear-gradient-48" x1="339.45" y1="320.57" x2="339.45" y2="328.58" gradientTransform="matrix(1, 0, 0, -1, 0, 792.02)" xlink:href="#linear-gradient"/><linearGradient id="linear-gradient-49" x1="346.41" y1="327.24" x2="346.41" y2="335.25" gradientTransform="matrix(1, 0, 0, -1, 0, 792.02)" xlink:href="#linear-gradient"/><linearGradient id="linear-gradient-50" x1="332.18" y1="315.83" x2="332.18" y2="323.83" gradientTransform="matrix(1, 0, 0, -1, 0, 792.02)" xlink:href="#linear-gradient"/><linearGradient id="linear-gradient-51" x1="370.58" y1="318.94" x2="370.58" y2="326.95" gradientTransform="matrix(1, 0, 0, -1, 0, 792.02)" xlink:href="#linear-gradient"/><linearGradient id="linear-gradient-52" x1="352.64" y1="341.48" x2="352.64" y2="349.48" gradientTransform="matrix(1, 0, 0, -1, 0, 792.02)" xlink:href="#linear-gradient"/><linearGradient id="linear-gradient-53" x1="345.38" y1="332.28" x2="345.38" y2="340.29" gradientTransform="matrix(1, 0, 0, -1, 0, 792.02)" xlink:href="#linear-gradient"/><linearGradient id="linear-gradient-54" x1="339.59" y1="325.46" x2="339.59" y2="333.47" gradientTransform="matrix(1, 0, 0, -1, 0, 792.02)" xlink:href="#linear-gradient"/><linearGradient id="linear-gradient-55" x1="343.75" y1="317.9" x2="343.75" y2="325.91" gradientTransform="matrix(1, 0, 0, -1, 0, 792.02)" xlink:href="#linear-gradient"/><linearGradient id="linear-gradient-56" x1="349.38" y1="322.94" x2="349.38" y2="330.95" gradientTransform="matrix(1, 0, 0, -1, 0, 792.02)" xlink:href="#linear-gradient"/><linearGradient id="linear-gradient-57" x1="352.34" y1="317.9" x2="352.34" y2="325.91" gradientTransform="matrix(1, 0, 0, -1, 0, 792.02)" xlink:href="#linear-gradient"/><linearGradient id="linear-gradient-58" x1="383.03" y1="313.45" x2="383.03" y2="321.46" gradientTransform="matrix(1, 0, 0, -1, 0, 792.02)" xlink:href="#linear-gradient"/><linearGradient id="linear-gradient-59" x1="377.4" y1="314.34" x2="377.4" y2="322.35" gradientTransform="matrix(1, 0, 0, -1, 0, 792.02)" xlink:href="#linear-gradient"/><linearGradient id="linear-gradient-60" x1="366.58" y1="313.9" x2="366.58" y2="321.91" gradientTransform="matrix(1, 0, 0, -1, 0, 792.02)" xlink:href="#linear-gradient"/><linearGradient id="linear-gradient-61" x1="354.57" y1="313.45" x2="354.57" y2="321.46" gradientTransform="matrix(1, 0, 0, -1, 0, 792.02)" xlink:href="#linear-gradient"/><linearGradient id="linear-gradient-62" x1="353.38" y1="329.47" x2="353.38" y2="337.47" gradientTransform="matrix(1, 0, 0, -1, 0, 792.02)" xlink:href="#linear-gradient"/><linearGradient id="linear-gradient-63" x1="357.39" y1="324.43" x2="357.39" y2="332.43" gradientTransform="matrix(1, 0, 0, -1, 0, 792.02)" xlink:href="#linear-gradient"/><linearGradient id="linear-gradient-64" x1="350.71" y1="336.73" x2="350.71" y2="344.74" gradientTransform="matrix(1, 0, 0, -1, 0, 792.02)" xlink:href="#linear-gradient"/><linearGradient id="linear-gradient-65" x1="355.16" y1="336.29" x2="355.16" y2="344.29" gradientTransform="matrix(1, 0, 0, -1, 0, 792.02)" xlink:href="#linear-gradient"/><linearGradient id="linear-gradient-66" x1="362.57" y1="334.21" x2="362.57" y2="342.22" gradientTransform="matrix(1, 0, 0, -1, 0, 792.02)" xlink:href="#linear-gradient"/><linearGradient id="linear-gradient-67" x1="342.56" y1="327.69" x2="342.56" y2="335.69" gradientTransform="matrix(1, 0, 0, -1, 0, 792.02)" xlink:href="#linear-gradient"/><linearGradient id="linear-gradient-68" x1="345.38" y1="322.5" x2="345.38" y2="330.5" gradientTransform="matrix(1, 0, 0, -1, 0, 792.02)" xlink:href="#linear-gradient"/><linearGradient id="linear-gradient-69" x1="347.3" y1="316.42" x2="347.3" y2="324.43" gradientTransform="matrix(1, 0, 0, -1, 0, 792.02)" xlink:href="#linear-gradient"/><linearGradient id="linear-gradient-70" x1="358.57" y1="318.35" x2="358.57" y2="326.35" gradientTransform="matrix(1, 0, 0, -1, 0, 792.02)" xlink:href="#linear-gradient"/><linearGradient id="linear-gradient-71" x1="370.14" y1="321.91" x2="370.14" y2="329.91" gradientTransform="matrix(1, 0, 0, -1, 0, 792.02)" xlink:href="#linear-gradient"/><linearGradient id="linear-gradient-72" x1="373.84" y1="325.02" x2="373.84" y2="333.02" gradientTransform="matrix(1, 0, 0, -1, 0, 792.02)" xlink:href="#linear-gradient"/><linearGradient id="linear-gradient-73" x1="379.62" y1="317.9" x2="379.62" y2="325.91" gradientTransform="matrix(1, 0, 0, -1, 0, 792.02)" xlink:href="#linear-gradient"/><linearGradient id="linear-gradient-74" x1="360.94" y1="313.01" x2="360.94" y2="321.02" gradientTransform="matrix(1, 0, 0, -1, 0, 792.02)" xlink:href="#linear-gradient"/><linearGradient id="linear-gradient-75" x1="340.34" y1="314.79" x2="340.34" y2="322.79" gradientTransform="matrix(1, 0, 0, -1, 0, 792.02)" xlink:href="#linear-gradient"/><linearGradient id="linear-gradient-76" x1="334.55" y1="319.98" x2="334.55" y2="327.98" gradientTransform="matrix(1, 0, 0, -1, 0, 792.02)" xlink:href="#linear-gradient"/><linearGradient id="linear-gradient-77" x1="342.11" y1="322.5" x2="342.11" y2="330.5" gradientTransform="matrix(1, 0, 0, -1, 0, 792.02)" xlink:href="#linear-gradient"/><linearGradient id="linear-gradient-78" x1="337.96" y1="328.58" x2="337.96" y2="336.58" gradientTransform="matrix(1, 0, 0, -1, 0, 792.02)" xlink:href="#linear-gradient"/><linearGradient id="linear-gradient-79" x1="341.52" y1="334.21" x2="341.52" y2="342.22" gradientTransform="matrix(1, 0, 0, -1, 0, 792.02)" xlink:href="#linear-gradient"/><linearGradient id="linear-gradient-80" x1="372.51" y1="313.45" x2="372.51" y2="321.46" gradientTransform="matrix(1, 0, 0, -1, 0, 792.02)" xlink:href="#linear-gradient"/><linearGradient id="linear-gradient-81" x1="355.98" y1="251.33" x2="355.98" y2="317.46" gradientTransform="matrix(1, 0, 0, -1, 0, 792.02)" xlink:href="#linear-gradient"/><linearGradient id="linear-gradient-82" x1="335.89" y1="324.43" x2="335.89" y2="332.43" gradientTransform="matrix(1, 0, 0, -1, 0, 792.02)" xlink:href="#linear-gradient"/><linearGradient id="linear-gradient-83" x1="345.97" y1="335.69" x2="345.97" y2="343.7" gradientTransform="matrix(1, 0, 0, -1, 0, 792.02)" xlink:href="#linear-gradient"/><linearGradient id="linear-gradient-84" x1="331.88" y1="318.35" x2="331.88" y2="326.35" gradientTransform="matrix(1, 0, 0, -1, 0, 792.02)" xlink:href="#linear-gradient"/><linearGradient id="linear-gradient-85" x1="327.09" y1="345.54" x2="327.09" y2="353.55" gradientTransform="matrix(1, 0, 0, -1, 0, 792.02)" xlink:href="#linear-gradient"/><linearGradient id="linear-gradient-86" x1="343.93" y1="368.48" x2="343.93" y2="376.49" gradientTransform="matrix(1, 0, 0, -1, 0, 792.02)" xlink:href="#linear-gradient"/><linearGradient id="linear-gradient-87" x1="358.45" y1="385.9" x2="358.45" y2="393.91" gradientTransform="matrix(1, 0, 0, -1, 0, 792.02)" xlink:href="#linear-gradient"/><linearGradient id="linear-gradient-88" x1="386.62" y1="348.44" x2="386.62" y2="356.45" gradientTransform="matrix(1, 0, 0, -1, 0, 792.02)" xlink:href="#linear-gradient"/><linearGradient id="linear-gradient-89" x1="408.98" y1="319.99" x2="408.98" y2="327.99" gradientTransform="matrix(1, 0, 0, -1, 0, 792.02)" xlink:href="#linear-gradient"/><linearGradient id="linear-gradient-90" x1="325.93" y1="250.59" x2="325.93" y2="258.59" gradientTransform="matrix(1, 0, 0, -1, 0, 792.02)" xlink:href="#linear-gradient"/><linearGradient id="linear-gradient-91" x1="320.41" y1="257.85" x2="320.41" y2="265.85" gradientTransform="matrix(1, 0, 0, -1, 0, 792.02)" xlink:href="#linear-gradient"/><linearGradient id="linear-gradient-92" x1="316.92" y1="297.05" x2="316.92" y2="305.05" gradientTransform="matrix(1, 0, 0, -1, 0, 792.02)" xlink:href="#linear-gradient"/><linearGradient id="linear-gradient-93" x1="392.42" y1="253.78" x2="392.42" y2="261.79" gradientTransform="matrix(1, 0, 0, -1, 0, 792.02)" xlink:href="#linear-gradient"/><linearGradient id="linear-gradient-94" x1="399.68" y1="258.43" x2="399.68" y2="266.43" gradientTransform="matrix(1, 0, 0, -1, 0, 792.02)" xlink:href="#linear-gradient"/><linearGradient id="linear-gradient-95" x1="400.55" y1="252.91" x2="400.55" y2="260.92" gradientTransform="matrix(1, 0, 0, -1, 0, 792.02)" xlink:href="#linear-gradient"/><linearGradient id="linear-gradient-96" x1="385.45" y1="252.91" x2="385.45" y2="260.92" gradientTransform="matrix(1, 0, 0, -1, 0, 792.02)" xlink:href="#linear-gradient"/><linearGradient id="linear-gradient-97" x1="836.45" y1="-18.55" x2="836.45" y2="517.93" xlink:href="#linear-gradient"/><linearGradient id="linear-gradient-98" x1="755.62" y1="276.71" x2="755.62" y2="320.28" xlink:href="#linear-gradient"/><clipPath id="clip-path" transform="translate(0 0.02)"><path d="M608.7,423.6l-1.91-4.54-24.9,10.23a3.07,3.07,0,0,0-1.91,2.84V459h4.92V433.36Z" style="fill:none"/></clipPath><linearGradient id="linear-gradient-99" x1="583.49" y1="252.06" x2="583.49" y2="337.66" gradientTransform="matrix(1, 0, 0, -1, 0, 792.02)" xlink:href="#linear-gradient"/><linearGradient id="linear-gradient-100" x1="583.37" y1="284.69" x2="583.37" y2="311.95" gradientTransform="matrix(1, 0, 0, -1, 0, 792.02)" gradientUnits="userSpaceOnUse"><stop offset="0" stop-opacity="0.12"/><stop offset="0.55" stop-opacity="0.09"/><stop offset="1" stop-opacity="0.02"/></linearGradient><linearGradient id="linear-gradient-101" x1="816.06" y1="533.99" x2="816.06" y2="738.02" xlink:href="#linear-gradient"/></defs><title>illustration-12</title><path d="M77.72,350.29H799.86a26.11,26.11,0,0,1,26.1,26.1V635.45H51.62V376.39a26.11,26.11,0,0,1,26.1-26.1Z" transform="translate(0 0.02)" style="fill:#535461"/><path d="M19.71,492.87H83.54A12.33,12.33,0,0,1,95.87,505.2h0V635.45H15.37a8,8,0,0,1-8-8V505.2A12.33,12.33,0,0,1,19.7,492.87Z" transform="translate(0 0.02)" style="opacity:0.10000000149011612;isolation:isolate"/><path d="M12.33,492.87H76.16A12.33,12.33,0,0,1,88.5,505.19h0V635.45H8a8,8,0,0,1-8-8V505.2a12.33,12.33,0,0,1,12.33-12.33Z" transform="translate(0 0.02)" style="fill:#535461"/><path d="M862.2,635.45H781.7V505.21A12.33,12.33,0,0,1,794,492.88h63.84a12.33,12.33,0,0,1,12.33,12.33h0V627.45A8,8,0,0,1,862.2,635.45Z" transform="translate(0 0.02)" style="opacity:0.10000000149011612;isolation:isolate"/><path d="M869.58,635.45h-80.5V505.21a12.33,12.33,0,0,1,12.33-12.33h63.83a12.33,12.33,0,0,1,12.33,12.33h0V627.45a8,8,0,0,1-8,8Z" transform="translate(0 0.02)" style="fill:#535461"/><path d="M107.34,538.35h662.9a18.83,18.83,0,0,1,18.84,18.84h0v78.26H88.5V557.19a18.83,18.83,0,0,1,18.84-18.84Z" transform="translate(0 0.02)" style="fill:#535461"/><path d="M107.34,538.35h662.9a18.83,18.83,0,0,1,18.84,18.84h0v78.26H88.5V557.19a18.83,18.83,0,0,1,18.84-18.84Z" transform="translate(0 0.02)" style="opacity:0.15000000596046448;isolation:isolate"/><rect x="38.1" y="635.47" width="27.04" height="28.27" style="fill:#535461"/><rect x="38.1" y="635.47" width="27.04" height="28.27" style="opacity:0.15000000596046448;isolation:isolate"/><rect x="38.1" y="635.47" width="27.04" height="1.23" style="opacity:0.10000000149011612;isolation:isolate"/><rect x="812.43" y="635.46" width="27.04" height="28.27" style="fill:#535461"/><rect x="812.43" y="635.46" width="27.04" height="28.27" style="opacity:0.15000000596046448;isolation:isolate"/><rect x="812.43" y="635.46" width="27.04" height="1.23" style="opacity:0.10000000149011612;isolation:isolate"/><g style="opacity:0.699999988079071;isolation:isolate"><path d="M223.38,453.43v1.42h-14v-1.42h6.22v-22q0-.66.06-1.38l-6,5.3a.62.62,0,0,1-.53.18.85.85,0,0,1-.43-.23l-.55-.77,7.83-6.92h1.44v25.81Z" transform="translate(0 0.02)"/></g><g style="opacity:0.699999988079071"><path d="M282.79,513.65l-4-.75,7.95-29.31C299.26,389.66,252,380.2,234.21,379.88A56.56,56.56,0,0,0,228,378V366.91a58.81,58.81,0,0,0,43.81-47.49h.15c2.82,0,5.11-4.29,5.11-9.58a13.33,13.33,0,0,0-2.22-7.9q.3-3,.31-6.15a61.1,61.1,0,0,0-18.9-44.25,39.32,39.32,0,0,0-4.34-11.67c-4.35-7.67-11.6-15.67-8.65-24l-19.13,2-.18-12.6c-6,1.07-8.47,8-12,12.92-8.52,11.85-25.61,13.5-36.92,22.73-3.84,3.14-12.49,12.68-10.85,18.94a61,61,0,0,0-11.67,36,59.73,59.73,0,0,0,.31,6.15,13.33,13.33,0,0,0-2.22,7.9c0,5.29,2.29,9.58,5.11,9.58h.15a58.82,58.82,0,0,0,43.94,47.42V378a56.56,56.56,0,0,0-6.23,1.89c-17.74.32-65.05,9.78-52.53,103.71L149,512.91l-1.89.35a21.79,21.79,0,0,0-17.43,25.43h0l31.36,168a6.6,6.6,0,0,0,7.7,5.28h0l5.53-1v3.27A18.33,18.33,0,0,0,164,730.68v2.08h37v-2.08a18.35,18.35,0,0,0-8.94-15.74v-7.31l5-.94a6.6,6.6,0,0,0,5.28-7.7h0L173,541.08h81.71L225.25,698.93a6.6,6.6,0,0,0,5.28,7.7h0l5.05.94v7.31a18.35,18.35,0,0,0-8.94,15.74v2.08h37v-2.08a18.33,18.33,0,0,0-10.22-16.44v-3.27l5.53,1a6.6,6.6,0,0,0,7.7-5.28h0L298.41,536.5A19.62,19.62,0,0,0,282.79,513.65Z" transform="translate(0 0.02)" style="fill:url(#linear-gradient)"/></g><rect x="175.76" y="689.55" width="17.21" height="23.35" style="fill:#fdb797"/><rect x="234.76" y="689.55" width="17.21" height="23.35" style="fill:#fdb797"/><rect x="157.32" y="497.81" width="113.08" height="40.56" style="fill:#4d8af0"/><g style="opacity:0.05000000074505806"><rect x="157.32" y="497.81" width="113.08" height="40.56"/></g><path d="M157.33,505.16S199.52,515,213.86,515s56.54-9.83,56.54-9.83V499H157.33Z" transform="translate(0 0.02)" style="opacity:0.10000000149011612;isolation:isolate"/><path d="M270.4,503.93s-42.19,9.83-56.54,9.83-56.54-9.83-56.54-9.83v-67.6a56.54,56.54,0,0,1,56.54-56.54h0a56.54,56.54,0,0,1,56.54,56.54h0Z" transform="translate(0 0.02)" style="fill:#3B88F7"/><path d="M200.34,351.52h27v33.25a11,11,0,0,1-11,11h-5a11,11,0,0,1-11-11V351.52Z" transform="translate(0 0.02)" style="fill:#fdb797"/><path d="M199,697.42,169.28,703a5.17,5.17,0,0,1-6-4.13L132.15,532.2a17.07,17.07,0,0,1,13.63-19.91h0l18-3.36a5.17,5.17,0,0,1,6,4.13l33.29,178.33A5.16,5.16,0,0,1,199,697.42Z" transform="translate(0 0.02)" style="fill:#4d8af0"/><path d="M228.74,697.42,258.45,703a5.17,5.17,0,0,0,6-4.13l31.44-168.35a15.36,15.36,0,0,0-12.28-17.91l-19.7-3.68a5.17,5.17,0,0,0-6,4.13l-33.3,178.33A5.18,5.18,0,0,0,228.74,697.42Z" transform="translate(0 0.02)" style="fill:#4d8af0"/><path d="M200.34,372a56.55,56.55,0,0,0,27,0V352.75h-27Z" transform="translate(0 0.02)" style="opacity:0.10000000149011612;isolation:isolate"/><circle cx="213.86" cy="302.38" r="59" style="fill:#333"/><circle cx="213.86" cy="315.9" r="56.54" style="fill:#fdb797"/><path d="M176.53,249.54c10.88-8.88,27.33-10.46,35.52-21.86,3.41-4.74,5.81-11.39,11.56-12.43l.17,12.13,18.41-1.89c-2.84,8,4.13,15.69,8.32,23.08a38.07,38.07,0,0,1,4.91,17.86c-6.39,3.84-14.31-.35-21.43-2.58-6.91-2.17-14.27-2.39-21.51-2.6a44.88,44.88,0,0,0-11.1.61,55.25,55.25,0,0,0-9.16,3.37c-4.9,2-20.35,9.79-24.9,4.8C162.15,264.36,172.34,253,176.53,249.54Z" transform="translate(0 0.02)" style="fill:#333"/><path d="M179.61,287.53a25.9,25.9,0,0,0,10,3,88.09,88.09,0,0,0,42.91-4.82c2.24,5.68,7.71,9.58,13.52,11.43s12,1.95,18.12,2a6.67,6.67,0,0,0,3.9-.75c2.72-1.84,1.4-6-.18-8.91L260,275.2c-2.33-4.22-4.72-8.52-8.33-11.72-4.52-4-10.52-5.87-16.44-7.06A92.69,92.69,0,0,0,193,257.83C178.33,261.85,159.42,275.31,179.61,287.53Z" transform="translate(0 0.02)" style="opacity:0.10000000149011612;isolation:isolate"/><path d="M179.61,286.3a25.9,25.9,0,0,0,10,3,88.09,88.09,0,0,0,42.91-4.82c2.24,5.68,7.71,9.58,13.52,11.43s12,1.95,18.12,2a6.67,6.67,0,0,0,3.9-.75c2.72-1.84,1.4-6-.18-8.91L260,274c-2.33-4.22-4.72-8.52-8.33-11.72-4.52-4-10.52-5.87-16.44-7.06a92.69,92.69,0,0,0-42.19,1.41C178.33,260.62,159.42,274.08,179.61,286.3Z" transform="translate(0 0.02)" style="fill:#333"/><ellipse cx="269.79" cy="315.9" rx="4.92" ry="9.22" style="fill:#fdb797"/><ellipse cx="157.94" cy="315.9" rx="4.92" ry="9.22" style="fill:#fdb797"/><path d="M200.57,383.56S129.06,372.42,143.79,483l8.6,31.71,24.59-1s-16-36.87-6.15-61.46S200.57,383.56,200.57,383.56Z" transform="translate(0 0.02)" style="fill:#3B88F7"/><path d="M227.16,383.56s71.52-11.14,56.77,99.48l-8.6,31.71-24.59-1s16-36.87,6.15-61.46S227.16,383.56,227.16,383.56Z" transform="translate(0 0.02)" style="fill:#3B88F7"/><circle cx="165.93" cy="518.7" r="13.52" style="fill:#fdb797"/><circle cx="264.26" cy="518.68" r="13.52" transform="translate(-277.94 730.56) rotate(-84.35)" style="fill:#fdb797"/><path d="M180.3,703h6.89a14.37,14.37,0,0,1,14.37,14.37v5.29H165.93v-5.29A14.37,14.37,0,0,1,180.3,703Z" transform="translate(0 0.02)" style="fill:#333"/><path d="M240.53,703h6.89a14.37,14.37,0,0,1,14.37,14.37h0v5.29H226.15v-5.29A14.37,14.37,0,0,1,240.52,703Z" transform="translate(0 0.02)" style="fill:#333"/><g style="isolation:isolate"><path d="M223,454v1.36H209.57V454h6V432.85q0-.63.06-1.32l-5.75,5.1a.62.62,0,0,1-.52.17.71.71,0,0,1-.4-.22l-.54-.74,7.54-6.66h1.38V454Z" transform="translate(0 0.02)" style="fill:#fff"/></g><path d="M169.62,442.48s-4.92,25.81,3.69,36.87" transform="translate(0 0.02)" style="opacity:0.10000000149011612;isolation:isolate"/><path d="M258.11,442.48s4.92,25.81-3.69,36.87" transform="translate(0 0.02)" style="opacity:0.10000000149011612;isolation:isolate"/><g style="opacity:0.699999988079071"><rect x="418.66" y="442.66" width="116.45" height="86.07" style="fill:url(#linear-gradient-2)"/><g style="opacity:0.10000000149011612"><path d="M418.67,465.43s43.45,5.06,58.23,5.06,58.23-5.06,58.23-5.06V443.91H418.67Z" transform="translate(0 0.02)" style="fill:url(#linear-gradient-3)"/></g><path d="M535.12,464.16s-43.45,5.06-58.23,5.06-58.23-5.06-58.23-5.06V379.35a58.23,58.23,0,0,1,58.23-58.23h0a58.23,58.23,0,0,1,58.23,58.23Z" transform="translate(0 0.02)" style="fill:url(#linear-gradient-4)"/><path d="M479.79,337.58h-5.85a11,11,0,0,1-11-11V292h27.85v34.57a11,11,0,0,1-11,11Z" transform="translate(0 0.02)" style="fill:url(#linear-gradient-5)"/><rect x="418.66" y="498.36" width="41.77" height="283.54" style="fill:url(#linear-gradient-6)"/><rect x="493.35" y="498.36" width="41.77" height="283.54" style="fill:url(#linear-gradient-7)"/><g style="opacity:0.10000000149011612"><path d="M463,313.11a58.3,58.3,0,0,0,27.85,0V293.28H463Z" transform="translate(0 0.02)" style="fill:url(#linear-gradient-8)"/></g><circle cx="476.89" cy="241.4" r="60.76" style="fill:url(#linear-gradient-9)"/><circle cx="476.89" cy="255.3" r="58.23" transform="translate(-40.85 412) rotate(-45)" style="fill:url(#linear-gradient-10)"/><g style="opacity:0.10000000149011612"><path d="M441.61,226.11c3.09,1.87,6.72,2.61,10.3,3.1a90.63,90.63,0,0,0,44.19-5c2.31,5.85,7.94,9.87,13.93,11.77s12.38,2,18.67,2.08a7,7,0,0,0,4-.77c2.8-1.89,1.45-6.22-.19-9.18L524.4,213.4c-2.4-4.34-4.86-8.78-8.58-12.07-4.65-4.12-10.83-6-16.93-7.27a95.37,95.37,0,0,0-43.45,1.45C440.3,199.66,420.79,213.53,441.61,226.11Z" transform="translate(0 0.02)" style="fill:url(#linear-gradient-11)"/></g><path d="M441.61,224.84c3.09,1.87,6.72,2.61,10.3,3.1a90.63,90.63,0,0,0,44.19-5c2.31,5.85,7.94,9.87,13.93,11.77s12.38,2,18.67,2.08a7,7,0,0,0,4-.77c2.8-1.89,1.45-6.22-.19-9.18l-8.11-14.71c-2.4-4.34-4.86-8.78-8.58-12.07-4.65-4.12-10.83-6-16.93-7.27a95.51,95.51,0,0,0-43.45,1.45C440.3,198.39,420.79,212.26,441.61,224.84Z" transform="translate(0 0.02)" style="fill:url(#linear-gradient-12)"/><ellipse cx="534.48" cy="255.32" rx="5.06" ry="9.49" style="fill:url(#linear-gradient-13)"/><ellipse cx="419.3" cy="255.32" rx="5.06" ry="9.49" style="fill:url(#linear-gradient-14)"/><circle cx="632.58" cy="180.64" r="13.92" style="fill:url(#linear-gradient-15)"/><g style="isolation:isolate"><path d="M475.51,381.73a22,22,0,0,1-.76,6.11,12.88,12.88,0,0,1-2.07,4.27,8.43,8.43,0,0,1-3.07,2.52,8.86,8.86,0,0,1-7.49,0,8.37,8.37,0,0,1-3.05-2.52,12.5,12.5,0,0,1-2.06-4.27,25.26,25.26,0,0,1,0-12.22,12.55,12.55,0,0,1,2.06-4.28,8.44,8.44,0,0,1,3.05-2.51,8.86,8.86,0,0,1,7.49,0,8.5,8.5,0,0,1,3.07,2.51,12.94,12.94,0,0,1,2.07,4.28A22,22,0,0,1,475.51,381.73Zm-1.9,0a21.45,21.45,0,0,0-.63-5.58,11.79,11.79,0,0,0-1.68-3.79,6.44,6.44,0,0,0-2.47-2.15,6.72,6.72,0,0,0-5.93,0,6.58,6.58,0,0,0-2.47,2.15,11.58,11.58,0,0,0-1.69,3.79,25.47,25.47,0,0,0,0,11.17,11.62,11.62,0,0,0,1.69,3.78,6.55,6.55,0,0,0,2.47,2.14,6.8,6.8,0,0,0,5.93,0,6.41,6.41,0,0,0,2.47-2.14,11.83,11.83,0,0,0,1.68-3.78A21.48,21.48,0,0,0,473.61,381.73Z" transform="translate(0 0.02)"/><path d="M497.53,381.73a21.65,21.65,0,0,1-.76,6.11,12.88,12.88,0,0,1-2.07,4.27,8.35,8.35,0,0,1-3.07,2.52,8.86,8.86,0,0,1-7.49,0,8.37,8.37,0,0,1-3.05-2.52,12.5,12.5,0,0,1-2.06-4.27,25.26,25.26,0,0,1,0-12.22,12.55,12.55,0,0,1,2.06-4.28,8.44,8.44,0,0,1,3.05-2.51,8.86,8.86,0,0,1,7.49,0,8.42,8.42,0,0,1,3.07,2.51,12.94,12.94,0,0,1,2.07,4.28A21.6,21.6,0,0,1,497.53,381.73Zm-1.9,0a21.45,21.45,0,0,0-.63-5.58,11.38,11.38,0,0,0-1.68-3.79,6.48,6.48,0,0,0-2.46-2.15,6.75,6.75,0,0,0-3-.69,6.54,6.54,0,0,0-5.43,2.84,11.79,11.79,0,0,0-1.69,3.79,25.47,25.47,0,0,0,0,11.17,11.83,11.83,0,0,0,1.69,3.78,6.63,6.63,0,0,0,2.47,2.14,6.79,6.79,0,0,0,3,.68,6.87,6.87,0,0,0,3-.68,6.45,6.45,0,0,0,2.46-2.14,11.41,11.41,0,0,0,1.68-3.78A21.48,21.48,0,0,0,495.63,381.73Z" transform="translate(0 0.02)"/></g><path d="M478.16,278.09s-32.91,11.39-58.23-13.92c0,0,2,8.39,5.57,18.51a58.23,58.23,0,0,0,108.88-18.1C528.45,267.86,485.2,288.65,478.16,278.09Zm-1.27,15.19c-6.29,0-11.39-4.8-11.39-7.59s5.1-2.53,11.39-2.53,11.39-.26,11.39,2.53S483.18,293.28,476.89,293.28Z" transform="translate(0 0.02)" style="fill:url(#linear-gradient-16)"/><path d="M507.84,330s67.78-38,109.55-149.42l20.25,12.66S604.1,335.22,519.93,368Z" transform="translate(0 0.02)" style="fill:url(#linear-gradient-17)"/><circle cx="321.2" cy="180.64" r="13.92" style="fill:url(#linear-gradient-18)"/><path d="M445.94,330s-67.78-38-109.55-149.38l-20.25,12.66S349.68,335.22,433.86,368Z" transform="translate(0 0.02)" style="fill:url(#linear-gradient-19)"/><path d="M457.91,792H421.2v-5.88a14.38,14.38,0,0,1,14.38-14.37h8A14.38,14.38,0,0,1,458,786.13h0Z" transform="translate(0 0.02)" style="fill:url(#linear-gradient-20)"/><path d="M532.59,792H495.88v-5.88a14.37,14.37,0,0,1,14.37-14.37h8a14.37,14.37,0,0,1,14.38,14.36v0Z" transform="translate(0 0.02)" style="fill:url(#linear-gradient-21)"/></g><rect x="420.35" y="443.73" width="113.08" height="83.58" style="fill:#4d8af0"/><path d="M420.35,465.83s42.19,4.92,56.54,4.92,56.54-4.92,56.54-4.92v-20.9H420.35Z" transform="translate(0 0.02)" style="opacity:0.10000000149011612;isolation:isolate"/><path d="M533.43,464.6s-42.19,4.92-56.54,4.92-56.54-4.92-56.54-4.92V382.25a56.54,56.54,0,0,1,56.54-56.54h0a56.54,56.54,0,0,1,56.54,56.54Z" transform="translate(0 0.02)" style="fill:#3B88F7"/><path d="M463.37,297.44h27v33.25a11,11,0,0,1-11,11h-5a11,11,0,0,1-11-11h0V297.44Z" transform="translate(0 0.02)" style="fill:#fdb797"/><rect x="420.35" y="497.81" width="40.56" height="275.32" style="fill:#4d8af0"/><rect x="492.87" y="497.81" width="40.56" height="275.32" style="fill:#4d8af0"/><path d="M463.37,317.93a56.55,56.55,0,0,0,27,0V298.67h-27Z" transform="translate(0 0.02)" style="opacity:0.10000000149011612;isolation:isolate"/><circle cx="476.89" cy="248.3" r="59" style="fill:#814e4d"/><circle cx="476.89" cy="261.8" r="56.54" transform="matrix(0.16, -0.99, 0.99, 0.16, 142.08, 690.61)" style="fill:#fdb797"/><path d="M442.63,233.45a25.9,25.9,0,0,0,10,3,88.09,88.09,0,0,0,42.91-4.82c2.24,5.68,7.71,9.58,13.52,11.43s12,1.95,18.12,2a6.67,6.67,0,0,0,3.9-.75c2.72-1.84,1.4-6-.18-8.91L523,221.12c-2.33-4.22-4.72-8.52-8.33-11.72-4.52-4-10.52-5.87-16.44-7.06a92.69,92.69,0,0,0-42.19,1.41C441.36,207.76,422.45,221.23,442.63,233.45Z" transform="translate(0 0.02)" style="opacity:0.10000000149011612;isolation:isolate"/><path d="M442.63,232.22a25.9,25.9,0,0,0,10,3,88.09,88.09,0,0,0,42.91-4.82c2.24,5.68,7.71,9.58,13.52,11.43s12,1.95,18.12,2a6.67,6.67,0,0,0,3.9-.75c2.72-1.84,1.4-6-.18-8.91L523,219.89c-2.33-4.22-4.72-8.52-8.33-11.72-4.52-4-10.52-5.87-16.44-7.06a92.69,92.69,0,0,0-42.19,1.41C441.36,206.54,422.45,220,442.63,232.22Z" transform="translate(0 0.02)" style="fill:#814e4d"/><ellipse cx="532.82" cy="261.82" rx="4.92" ry="9.22" style="fill:#fdb797"/><ellipse cx="420.97" cy="261.82" rx="4.92" ry="9.22" style="fill:#fdb797"/><circle cx="628.07" cy="189.3" r="13.52" style="fill:#fdb797"/><g style="isolation:isolate"><path d="M475.55,384.57a21.2,21.2,0,0,1-.74,5.93,12.26,12.26,0,0,1-2,4.15,8.08,8.08,0,0,1-3,2.44,8.43,8.43,0,0,1-3.65.81,8.31,8.31,0,0,1-3.63-.81,8.08,8.08,0,0,1-3-2.44,12.44,12.44,0,0,1-2-4.15,24.82,24.82,0,0,1,0-11.87,12.63,12.63,0,0,1,2-4.15,8.28,8.28,0,0,1,3-2.44,8.45,8.45,0,0,1,3.63-.8,8.57,8.57,0,0,1,3.65.8,8.28,8.28,0,0,1,3,2.44,12.45,12.45,0,0,1,2,4.15A21.22,21.22,0,0,1,475.55,384.57Zm-1.84,0a21.2,21.2,0,0,0-.61-5.42,11.53,11.53,0,0,0-1.63-3.68,6.47,6.47,0,0,0-2.4-2.09,6.62,6.62,0,0,0-2.89-.67,6.35,6.35,0,0,0-5.27,2.76,11.31,11.31,0,0,0-1.64,3.68,24.43,24.43,0,0,0,0,10.85,11.45,11.45,0,0,0,1.64,3.67,6.44,6.44,0,0,0,2.4,2.08,6.51,6.51,0,0,0,2.87.65,6.6,6.6,0,0,0,2.89-.65,6.44,6.44,0,0,0,2.4-2.08A11.67,11.67,0,0,0,473.1,390,21.28,21.28,0,0,0,473.71,384.57Z" transform="translate(0 0.02)" style="fill:#fff"/><path d="M496.93,384.57a21.22,21.22,0,0,1-.73,5.93,12.64,12.64,0,0,1-2,4.15,8,8,0,0,1-3,2.44,8.56,8.56,0,0,1-7.27,0,8.08,8.08,0,0,1-3-2.44,12.07,12.07,0,0,1-2-4.15,24.49,24.49,0,0,1,0-11.87,12.25,12.25,0,0,1,2-4.15,8.28,8.28,0,0,1,3-2.44,8.66,8.66,0,0,1,7.27,0,8.23,8.23,0,0,1,3,2.44,12.84,12.84,0,0,1,2,4.15A21.25,21.25,0,0,1,496.93,384.57Zm-1.84,0a20.76,20.76,0,0,0-.61-5.42,11.31,11.31,0,0,0-1.63-3.68,6.32,6.32,0,0,0-2.4-2.09,6.52,6.52,0,0,0-5.76,0,6.37,6.37,0,0,0-2.39,2.09,11.11,11.11,0,0,0-1.64,3.68,24.43,24.43,0,0,0,0,10.85,11.24,11.24,0,0,0,1.64,3.67,6.34,6.34,0,0,0,2.39,2.08,6.71,6.71,0,0,0,5.76,0,6.29,6.29,0,0,0,2.4-2.08,11.45,11.45,0,0,0,1.63-3.67A20.84,20.84,0,0,0,495.09,384.57Z" transform="translate(0 0.02)" style="fill:#fff"/></g><path d="M478.12,283.92s-32,11.06-56.54-13.52c0,0,2,8.15,5.4,18A56.54,56.54,0,0,0,532.7,270.83C527,274,485,294.18,478.12,283.92Zm-1.23,14.75c-6.1,0-11.1-4.67-11.1-7.37s5-2.46,11.06-2.46,11.06-.26,11.06,2.46-4.91,7.37-11,7.37Z" transform="translate(0 0.02)" style="fill:#814e4d"/><path d="M506.94,334.37s65.85-36.93,106.38-145.09L633,201.57S600.42,339.4,518.68,371.19Z" transform="translate(0 0.02)" style="fill:#3B88F7"/><circle cx="325.71" cy="189.3" r="13.52" style="fill:#fdb797"/><path d="M446.79,334.37S381,297.44,340.41,189.28l-19.62,12.29S353.37,339.4,435.1,371.19Z" transform="translate(0 0.02)" style="fill:#3B88F7"/><path d="M437.19,763.27h6.89a14.37,14.37,0,0,1,14.37,14.37v5.29H422.81v-5.29a14.37,14.37,0,0,1,14.37-14.37Z" transform="translate(0 0.02)" style="fill:#333"/><path d="M509.7,763.27h6.89A14.37,14.37,0,0,1,531,777.6v5.34H495.33v-5.29a14.37,14.37,0,0,1,14.36-14.38Z" transform="translate(0 0.02)" style="fill:#333"/><circle cx="349.23" cy="474.56" r="4" style="fill:url(#linear-gradient-22)"/><circle cx="349.23" cy="474.56" r="3.56" style="fill:#fdd835"/><path d="M346.56,475.58a3.56,3.56,0,0,1,6-2.55,3.56,3.56,0,0,0-6.46,3,3.48,3.48,0,0,0,.76,1.07A3.58,3.58,0,0,1,346.56,475.58Z" transform="translate(0 0.02)" style="fill:#fff;opacity:0.20000000298023224;isolation:isolate"/><circle cx="360.8" cy="474.56" r="4" style="fill:url(#linear-gradient-23)"/><circle cx="360.8" cy="474.56" r="3.56" style="fill:#fdd835"/><path d="M358.13,475.58a3.56,3.56,0,0,1,6-2.55,3.56,3.56,0,0,0-6.46,3,3.48,3.48,0,0,0,.76,1.07A3.58,3.58,0,0,1,358.13,475.58Z" transform="translate(0 0.02)" style="fill:#fff;opacity:0.20000000298023224;isolation:isolate"/><circle cx="327.88" cy="474.56" r="4" style="fill:url(#linear-gradient-24)"/><circle cx="327.88" cy="474.56" r="3.56" style="fill:#fdd835"/><path d="M325.21,475.58a3.56,3.56,0,0,1,6-2.55,3.56,3.56,0,0,0-6.46,3,3.48,3.48,0,0,0,.76,1.07A3.58,3.58,0,0,1,325.21,475.58Z" transform="translate(0 0.02)" style="fill:#fff;opacity:0.20000000298023224;isolation:isolate"/><circle cx="343" cy="464.48" r="4" style="fill:url(#linear-gradient-25)"/><circle cx="343" cy="464.48" r="3.56" style="fill:#fdd835"/><path d="M340.34,465.5a3.56,3.56,0,0,1,6-2.55,3.56,3.56,0,0,0-6.46,3,3.48,3.48,0,0,0,.76,1.07A3.58,3.58,0,0,1,340.34,465.5Z" transform="translate(0 0.02)" style="fill:#fff;opacity:0.20000000298023224;isolation:isolate"/><circle cx="366.58" cy="466.11" r="4" style="fill:url(#linear-gradient-26)"/><circle cx="366.58" cy="466.11" r="3.56" style="fill:#fdd835"/><path d="M363.91,467.13a3.56,3.56,0,0,1,6-2.55,3.56,3.56,0,0,0-6.46,3,3.48,3.48,0,0,0,.76,1.07A3.58,3.58,0,0,1,363.91,467.13Z" transform="translate(0 0.02)" style="fill:#fff;opacity:0.20000000298023224;isolation:isolate"/><circle cx="360.8" cy="462.55" r="4" style="fill:url(#linear-gradient-27)"/><circle cx="360.8" cy="462.55" r="3.56" style="fill:#fdd835"/><path d="M358.13,463.57a3.56,3.56,0,0,1,6-2.55,3.56,3.56,0,0,0-6.46,3,3.48,3.48,0,0,0,.76,1.07A3.58,3.58,0,0,1,358.13,463.57Z" transform="translate(0 0.02)" style="fill:#fff;opacity:0.20000000298023224;isolation:isolate"/><circle cx="363.61" cy="471" r="4" style="fill:url(#linear-gradient-28)"/><circle cx="363.61" cy="471" r="3.56" style="fill:#fdd835"/><path d="M360.94,472a3.56,3.56,0,0,1,6-2.55,3.56,3.56,0,0,0-6.46,3,3.48,3.48,0,0,0,.76,1.07A3.58,3.58,0,0,1,360.94,472Z" transform="translate(0 0.02)" style="fill:#fff;opacity:0.20000000298023224;isolation:isolate"/><circle cx="353.23" cy="464.48" r="4" style="fill:url(#linear-gradient-29)"/><circle cx="353.23" cy="464.48" r="3.56" style="fill:#fdd835"/><path d="M350.57,465.5a3.56,3.56,0,0,1,6-2.55,3.56,3.56,0,0,0-6.46,3,3.48,3.48,0,0,0,.76,1.07A3.58,3.58,0,0,1,350.57,465.5Z" transform="translate(0 0.02)" style="fill:#fff;opacity:0.20000000298023224;isolation:isolate"/><circle cx="352.79" cy="453.21" r="4" style="fill:url(#linear-gradient-30)"/><circle cx="352.79" cy="453.21" r="3.56" style="fill:#fdd835"/><path d="M350.12,454.23a3.56,3.56,0,0,1,6-2.55,3.56,3.56,0,0,0-6.46,3,3.48,3.48,0,0,0,.76,1.07A3.58,3.58,0,0,1,350.12,454.23Z" transform="translate(0 0.02)" style="fill:#fff;opacity:0.20000000298023224;isolation:isolate"/><circle cx="372.51" cy="459" r="4" style="fill:url(#linear-gradient-31)"/><circle cx="372.51" cy="459" r="3.56" style="fill:#fdd835"/><path d="M369.84,460a3.56,3.56,0,0,1,6-2.55,3.56,3.56,0,0,0-6.46,3,3.48,3.48,0,0,0,.76,1.07A3.58,3.58,0,0,1,369.84,460Z" transform="translate(0 0.02)" style="fill:#fff;opacity:0.20000000298023224;isolation:isolate"/><circle cx="370.58" cy="466.56" r="4" style="fill:url(#linear-gradient-32)"/><circle cx="370.58" cy="466.56" r="3.56" style="fill:#fdd835"/><path d="M367.91,467.57a3.56,3.56,0,0,1,6-2.55,3.56,3.56,0,0,0-6.46,3,3.48,3.48,0,0,0,.76,1.07A3.58,3.58,0,0,1,367.91,467.57Z" transform="translate(0 0.02)" style="fill:#fff;opacity:0.20000000298023224;isolation:isolate"/><circle cx="379.48" cy="465.07" r="4" style="fill:url(#linear-gradient-33)"/><circle cx="379.48" cy="465.07" r="3.56" style="fill:#fdd835"/><path d="M376.79,466.09a3.56,3.56,0,0,1,6-2.55,3.56,3.56,0,0,0-6.46,3,3.48,3.48,0,0,0,.76,1.07A3.58,3.58,0,0,1,376.79,466.09Z" transform="translate(0 0.02)" style="fill:#fff;opacity:0.20000000298023224;isolation:isolate"/><circle cx="375.47" cy="468.78" r="4" style="fill:url(#linear-gradient-34)"/><circle cx="375.47" cy="468.78" r="3.56" style="fill:#fdd835"/><path d="M372.79,469.8a3.56,3.56,0,0,1,6-2.55,3.56,3.56,0,0,0-6.46,3,3.48,3.48,0,0,0,.76,1.07A3.58,3.58,0,0,1,372.79,469.8Z" transform="translate(0 0.02)" style="fill:#fff;opacity:0.20000000298023224;isolation:isolate"/><circle cx="348.79" cy="459" r="4" style="fill:url(#linear-gradient-35)"/><circle cx="348.79" cy="459" r="3.56" style="fill:#fdd835"/><path d="M346.12,460a3.56,3.56,0,0,1,6-2.55,3.56,3.56,0,0,0-6.46,3,3.48,3.48,0,0,0,.76,1.07A3.58,3.58,0,0,1,346.12,460Z" transform="translate(0 0.02)" style="fill:#fff;opacity:0.20000000298023224;isolation:isolate"/><circle cx="343" cy="474.12" r="4" style="fill:url(#linear-gradient-36)"/><circle cx="343" cy="474.12" r="3.56" style="fill:#fbc02d"/><path d="M340.34,475.14a3.56,3.56,0,0,1,6-2.55,3.56,3.56,0,0,0-6.46,3,3.48,3.48,0,0,0,.76,1.07A3.58,3.58,0,0,1,340.34,475.14Z" transform="translate(0 0.02)" style="fill:#fff;opacity:0.20000000298023224;isolation:isolate"/><circle cx="333.96" cy="474.56" r="4" style="fill:url(#linear-gradient-37)"/><circle cx="333.96" cy="474.56" r="3.56" style="fill:#fbc02d"/><path d="M331.29,475.58a3.56,3.56,0,0,1,6-2.55,3.56,3.56,0,0,0-6.46,3,3.48,3.48,0,0,0,.76,1.07A3.58,3.58,0,0,1,331.29,475.58Z" transform="translate(0 0.02)" style="fill:#fff;opacity:0.20000000298023224;isolation:isolate"/><circle cx="338.56" cy="472.04" r="4" style="fill:url(#linear-gradient-38)"/><circle cx="338.56" cy="472.04" r="3.56" style="fill:#fbc02d"/><path d="M335.89,473.06a3.56,3.56,0,0,1,6-2.55,3.56,3.56,0,0,0-6.46,3,3.48,3.48,0,0,0,.76,1.07A3.58,3.58,0,0,1,335.89,473.06Z" transform="translate(0 0.02)" style="fill:#fff;opacity:0.20000000298023224;isolation:isolate"/><circle cx="358.13" cy="467.59" r="4" style="fill:url(#linear-gradient-39)"/><circle cx="358.13" cy="467.59" r="3.56" style="fill:#fbc02d"/><path d="M355.46,468.61a3.56,3.56,0,0,1,6-2.55,3.56,3.56,0,0,0-6.46,3,3.48,3.48,0,0,0,.76,1.07A3.58,3.58,0,0,1,355.46,468.61Z" transform="translate(0 0.02)" style="fill:#fff;opacity:0.20000000298023224;isolation:isolate"/><circle cx="358.13" cy="458.11" r="4" style="fill:url(#linear-gradient-40)"/><circle cx="358.13" cy="458.11" r="3.56" style="fill:#fbc02d"/><path d="M355.46,459.12a3.56,3.56,0,0,1,6-2.55,3.56,3.56,0,0,0-6.46,3,3.48,3.48,0,0,0,.76,1.07A3.58,3.58,0,0,1,355.46,459.12Z" transform="translate(0 0.02)" style="fill:#fff;opacity:0.20000000298023224;isolation:isolate"/><circle cx="362.57" cy="465.67" r="4" style="fill:url(#linear-gradient-41)"/><circle cx="362.57" cy="465.67" r="3.56" style="fill:#fbc02d"/><path d="M359.91,466.68a3.56,3.56,0,0,1,6-2.55,3.56,3.56,0,0,0-6.46,3,3.48,3.48,0,0,0,.76,1.07A3.58,3.58,0,0,1,359.91,466.68Z" transform="translate(0 0.02)" style="fill:#fff;opacity:0.20000000298023224;isolation:isolate"/><circle cx="358.57" cy="450.54" r="4" style="fill:url(#linear-gradient-42)"/><circle cx="358.57" cy="450.54" r="3.56" style="fill:#fbc02d"/><path d="M355.9,451.56a3.56,3.56,0,0,1,6-2.55,3.56,3.56,0,0,0-6.46,3,3.48,3.48,0,0,0,.76,1.07A3.58,3.58,0,0,1,355.9,451.56Z" transform="translate(0 0.02)" style="fill:#fff;opacity:0.20000000298023224;isolation:isolate"/><circle cx="359.46" cy="454.55" r="4" style="fill:url(#linear-gradient-43)"/><circle cx="359.46" cy="454.55" r="3.56" style="fill:#fbc02d"/><path d="M356.79,455.57a3.56,3.56,0,0,1,6-2.55,3.56,3.56,0,0,0-6.46,3,3.48,3.48,0,0,0,.76,1.07A3.58,3.58,0,0,1,356.79,455.57Z" transform="translate(0 0.02)" style="fill:#fff;opacity:0.20000000298023224;isolation:isolate"/><circle cx="364.21" cy="457.22" r="4" style="fill:url(#linear-gradient-44)"/><circle cx="364.21" cy="457.22" r="3.56" style="fill:#fbc02d"/><path d="M361.54,458.23a3.56,3.56,0,0,1,6-2.55,3.56,3.56,0,0,0-6.46,3,3.48,3.48,0,0,0,.76,1.07A3.58,3.58,0,0,1,361.54,458.23Z" transform="translate(0 0.02)" style="fill:#fff;opacity:0.20000000298023224;isolation:isolate"/><circle cx="369.1" cy="456.47" r="4" style="fill:url(#linear-gradient-45)"/><circle cx="369.1" cy="456.47" r="3.56" style="fill:#fbc02d"/><path d="M366.43,457.49a3.56,3.56,0,0,1,6-2.55,3.56,3.56,0,0,0-6.55,2.8,3.67,3.67,0,0,0,.91,1.26A3.6,3.6,0,0,1,366.43,457.49Z" transform="translate(0 0.02)" style="fill:#fff;opacity:0.20000000298023224;isolation:isolate"/><circle cx="367.76" cy="460.48" r="4" style="fill:url(#linear-gradient-46)"/><circle cx="367.76" cy="460.48" r="3.56" style="fill:#fbc02d"/><path d="M365.1,461.5a3.56,3.56,0,0,1,6-2.55,3.56,3.56,0,0,0-6.46,3,3.48,3.48,0,0,0,.76,1.07A3.58,3.58,0,0,1,365.1,461.5Z" transform="translate(0 0.02)" style="fill:#fff;opacity:0.20000000298023224;isolation:isolate"/><circle cx="351.01" cy="455.29" r="4" style="fill:url(#linear-gradient-47)"/><circle cx="351.01" cy="455.29" r="3.56" style="fill:#fbc02d"/><path d="M348.34,456.31a3.56,3.56,0,0,1,6-2.55,3.56,3.56,0,0,0-6.46,3,3.48,3.48,0,0,0,.76,1.07A3.58,3.58,0,0,1,348.34,456.31Z" transform="translate(0 0.02)" style="fill:#fff;opacity:0.20000000298023224;isolation:isolate"/><circle cx="339.45" cy="467.45" r="4" style="fill:url(#linear-gradient-48)"/><circle cx="339.45" cy="467.45" r="3.56" style="fill:#fbc02d"/><path d="M336.79,468.46a3.56,3.56,0,0,1,6-2.55,3.56,3.56,0,0,0-6.46,3,3.48,3.48,0,0,0,.76,1.07A3.58,3.58,0,0,1,336.79,468.46Z" transform="translate(0 0.02)" style="fill:#fff;opacity:0.20000000298023224;isolation:isolate"/><circle cx="346.41" cy="460.77" r="4" style="fill:url(#linear-gradient-49)"/><circle cx="346.41" cy="460.77" r="3.56" style="fill:#fbc02d"/><path d="M343.79,461.79a3.56,3.56,0,0,1,6-2.55,3.56,3.56,0,0,0-6.46,3,3.48,3.48,0,0,0,.76,1.07A3.58,3.58,0,0,1,343.79,461.79Z" transform="translate(0 0.02)" style="fill:#fff;opacity:0.20000000298023224;isolation:isolate"/><circle cx="332.18" cy="472.19" r="4" style="fill:url(#linear-gradient-50)"/><circle cx="332.18" cy="472.19" r="3.56" style="fill:#fbc02d"/><path d="M329.51,473.21a3.56,3.56,0,0,1,6-2.55,3.56,3.56,0,0,0-6.46,3,3.48,3.48,0,0,0,.76,1.07A3.58,3.58,0,0,1,329.51,473.21Z" transform="translate(0 0.02)" style="fill:#fff;opacity:0.20000000298023224;isolation:isolate"/><circle cx="370.58" cy="469.08" r="4" style="fill:url(#linear-gradient-51)"/><circle cx="370.58" cy="469.08" r="3.56" style="fill:#fbc02d"/><path d="M367.91,470.09a3.56,3.56,0,0,1,6-2.55,3.56,3.56,0,0,0-6.46,3,3.48,3.48,0,0,0,.76,1.07A3.58,3.58,0,0,1,367.91,470.09Z" transform="translate(0 0.02)" style="fill:#fff;opacity:0.20000000298023224;isolation:isolate"/><circle cx="352.64" cy="446.54" r="4" style="fill:url(#linear-gradient-52)"/><circle cx="352.64" cy="446.54" r="3.56" style="fill:#fbc02d"/><path d="M350,447.56a3.56,3.56,0,0,1,6-2.55,3.56,3.56,0,0,0-6.46,3,3.48,3.48,0,0,0,.76,1.07A3.58,3.58,0,0,1,350,447.56Z" transform="translate(0 0.02)" style="fill:#fff;opacity:0.20000000298023224;isolation:isolate"/><circle cx="345.38" cy="455.73" r="4" style="fill:url(#linear-gradient-53)"/><circle cx="345.38" cy="455.73" r="3.56" style="fill:#fbc02d"/><path d="M342.71,456.75a3.56,3.56,0,0,1,6-2.55,3.56,3.56,0,0,0-6.46,3,3.48,3.48,0,0,0,.76,1.07A3.58,3.58,0,0,1,342.71,456.75Z" transform="translate(0 0.02)" style="fill:#fff;opacity:0.20000000298023224;isolation:isolate"/><circle cx="339.59" cy="462.55" r="4" style="fill:url(#linear-gradient-54)"/><circle cx="339.59" cy="462.55" r="3.56" style="fill:#fbc02d"/><path d="M336.93,463.57a3.56,3.56,0,0,1,6-2.55,3.56,3.56,0,0,0-6.46,3,3.48,3.48,0,0,0,.76,1.07A3.58,3.58,0,0,1,336.93,463.57Z" transform="translate(0 0.02)" style="fill:#fff;opacity:0.20000000298023224;isolation:isolate"/><circle cx="343.75" cy="470.11" r="4" style="fill:url(#linear-gradient-55)"/><circle cx="343.75" cy="470.11" r="3.56" style="fill:#fbc02d"/><path d="M341.08,471.13a3.56,3.56,0,0,1,6-2.55,3.56,3.56,0,0,0-6.46,3,3.48,3.48,0,0,0,.76,1.07A3.58,3.58,0,0,1,341.08,471.13Z" transform="translate(0 0.02)" style="fill:#fff;opacity:0.20000000298023224;isolation:isolate"/><circle cx="349.38" cy="465.07" r="4" style="fill:url(#linear-gradient-56)"/><circle cx="349.38" cy="465.07" r="3.56" style="fill:#fbc02d"/><path d="M346.71,466.09a3.56,3.56,0,0,1,6-2.55,3.56,3.56,0,0,0-6.46,3,3.48,3.48,0,0,0,.76,1.07A3.58,3.58,0,0,1,346.71,466.09Z" transform="translate(0 0.02)" style="fill:#fff;opacity:0.20000000298023224;isolation:isolate"/><circle cx="352.34" cy="470.11" r="4" style="fill:url(#linear-gradient-57)"/><circle cx="352.34" cy="470.11" r="3.56" style="fill:#fbc02d"/><path d="M349.68,471.13a3.56,3.56,0,0,1,6-2.55,3.56,3.56,0,0,0-6.46,3,3.48,3.48,0,0,0,.76,1.07A3.58,3.58,0,0,1,349.68,471.13Z" transform="translate(0 0.02)" style="fill:#fff;opacity:0.20000000298023224;isolation:isolate"/><circle cx="383.03" cy="474.56" r="4" style="fill:url(#linear-gradient-58)"/><circle cx="383.03" cy="474.56" r="3.56" style="fill:#fbc02d"/><path d="M380.37,475.58a3.56,3.56,0,0,1,6-2.55,3.56,3.56,0,0,0-6.46,3,3.48,3.48,0,0,0,.76,1.07A3.58,3.58,0,0,1,380.37,475.58Z" transform="translate(0 0.02)" style="fill:#fff;opacity:0.20000000298023224;isolation:isolate"/><circle cx="377.4" cy="473.67" r="4" style="fill:url(#linear-gradient-59)"/><circle cx="377.4" cy="473.67" r="3.56" style="fill:#fbc02d"/><path d="M374.73,474.69a3.56,3.56,0,0,1,6-2.55,3.56,3.56,0,0,0-6.46,3,3.48,3.48,0,0,0,.76,1.07A3.58,3.58,0,0,1,374.73,474.69Z" transform="translate(0 0.02)" style="fill:#fff;opacity:0.20000000298023224;isolation:isolate"/><circle cx="366.58" cy="474.12" r="4" style="fill:url(#linear-gradient-60)"/><circle cx="366.58" cy="474.12" r="3.56" style="fill:#fbc02d"/><circle cx="367.32" cy="469.97" r="3.56" style="fill:#fbc02d"/><path d="M363.91,475.14a3.56,3.56,0,0,1,6-2.55,3.56,3.56,0,0,0-6.46,3,3.48,3.48,0,0,0,.76,1.07A3.58,3.58,0,0,1,363.91,475.14Z" transform="translate(0 0.02)" style="fill:#fff;opacity:0.20000000298023224;isolation:isolate"/><circle cx="354.57" cy="474.56" r="4" style="fill:url(#linear-gradient-61)"/><circle cx="354.57" cy="474.56" r="3.56" style="fill:#fbc02d"/><path d="M351.9,475.58a3.56,3.56,0,0,1,6-2.55,3.56,3.56,0,0,0-6.46,3,3.48,3.48,0,0,0,.76,1.07A3.58,3.58,0,0,1,351.9,475.58Z" transform="translate(0 0.02)" style="fill:#fff;opacity:0.20000000298023224;isolation:isolate"/><circle cx="353.38" cy="458.55" r="4" style="fill:url(#linear-gradient-62)"/><circle cx="353.38" cy="458.55" r="3.56" style="fill:#fdd835"/><path d="M350.71,459.57a3.56,3.56,0,0,1,6-2.55,3.56,3.56,0,0,0-6.46,3,3.48,3.48,0,0,0,.76,1.07A3.58,3.58,0,0,1,350.71,459.57Z" transform="translate(0 0.02)" style="fill:#fff;opacity:0.20000000298023224;isolation:isolate"/><circle cx="357.39" cy="463.59" r="4" style="fill:url(#linear-gradient-63)"/><circle cx="357.39" cy="463.59" r="3.56" style="fill:#fdd835"/><path d="M354.72,464.61a3.56,3.56,0,0,1,6-2.55,3.56,3.56,0,0,0-6.46,3,3.48,3.48,0,0,0,.76,1.07A3.58,3.58,0,0,1,354.72,464.61Z" transform="translate(0 0.02)" style="fill:#fff;opacity:0.20000000298023224;isolation:isolate"/><circle cx="350.71" cy="451.29" r="4" style="fill:url(#linear-gradient-64)"/><circle cx="350.71" cy="451.29" r="3.56" style="fill:#fdd835"/><path d="M348.05,452.3a3.56,3.56,0,0,1,6-2.55,3.56,3.56,0,0,0-6.46,3,3.48,3.48,0,0,0,.76,1.07A3.58,3.58,0,0,1,348.05,452.3Z" transform="translate(0 0.02)" style="fill:#fff;opacity:0.20000000298023224;isolation:isolate"/><circle cx="355.16" cy="451.73" r="4" style="fill:url(#linear-gradient-65)"/><circle cx="355.16" cy="451.73" r="3.56" style="fill:#fdd835"/><path d="M352.49,452.75a3.56,3.56,0,0,1,6-2.55,3.56,3.56,0,0,0-6.46,3,3.48,3.48,0,0,0,.76,1.07A3.58,3.58,0,0,1,352.49,452.75Z" transform="translate(0 0.02)" style="fill:#fff;opacity:0.20000000298023224;isolation:isolate"/><circle cx="362.57" cy="453.81" r="4" style="fill:url(#linear-gradient-66)"/><circle cx="362.57" cy="453.81" r="3.56" style="fill:#fdd835"/><path d="M359.91,454.82a3.56,3.56,0,0,1,6-2.55,3.56,3.56,0,0,0-6.46,3,3.48,3.48,0,0,0,.76,1.07A3.58,3.58,0,0,1,359.91,454.82Z" transform="translate(0 0.02)" style="fill:#fff;opacity:0.20000000298023224;isolation:isolate"/><circle cx="342.56" cy="460.33" r="4" style="fill:url(#linear-gradient-67)"/><circle cx="342.56" cy="460.33" r="3.56" style="fill:#fdd835"/><path d="M339.89,461.35a3.56,3.56,0,0,1,6-2.55,3.56,3.56,0,0,0-6.46,3,3.48,3.48,0,0,0,.76,1.07A3.58,3.58,0,0,1,339.89,461.35Z" transform="translate(0 0.02)" style="fill:#fff;opacity:0.20000000298023224;isolation:isolate"/><circle cx="345.38" cy="465.52" r="4" style="fill:url(#linear-gradient-68)"/><circle cx="345.38" cy="465.52" r="3.56" style="fill:#fdd835"/><path d="M342.71,466.54a3.56,3.56,0,0,1,6-2.55,3.56,3.56,0,0,0-6.46,3,3.48,3.48,0,0,0,.76,1.07A3.58,3.58,0,0,1,342.71,466.54Z" transform="translate(0 0.02)" style="fill:#fff;opacity:0.20000000298023224;isolation:isolate"/><circle cx="347.3" cy="471.6" r="4" style="fill:url(#linear-gradient-69)"/><circle cx="347.3" cy="471.6" r="3.56" style="fill:#fdd835"/><path d="M344.64,472.62a3.56,3.56,0,0,1,6-2.55,3.56,3.56,0,0,0-6.46,3,3.48,3.48,0,0,0,.76,1.07A3.58,3.58,0,0,1,344.64,472.62Z" transform="translate(0 0.02)" style="fill:#fff;opacity:0.20000000298023224;isolation:isolate"/><circle cx="358.57" cy="469.67" r="4" style="fill:url(#linear-gradient-70)"/><circle cx="358.57" cy="469.67" r="3.56" style="fill:#fdd835"/><path d="M355.9,470.69a3.56,3.56,0,0,1,6-2.55,3.56,3.56,0,0,0-6.46,3,3.48,3.48,0,0,0,.76,1.07A3.58,3.58,0,0,1,355.9,470.69Z" transform="translate(0 0.02)" style="fill:#fff;opacity:0.20000000298023224;isolation:isolate"/><circle cx="370.14" cy="466.11" r="4" style="fill:url(#linear-gradient-71)"/><circle cx="370.14" cy="466.11" r="3.56" style="fill:#fdd835"/><path d="M367.47,467.13a3.56,3.56,0,0,1,6-2.55,3.56,3.56,0,0,0-6.46,3,3.48,3.48,0,0,0,.76,1.07A3.58,3.58,0,0,1,367.47,467.13Z" transform="translate(0 0.02)" style="fill:#fff;opacity:0.20000000298023224;isolation:isolate"/><circle cx="373.84" cy="463" r="4" style="fill:url(#linear-gradient-72)"/><circle cx="373.84" cy="463" r="3.56" style="fill:#fdd835"/><circle cx="364.8" cy="462.7" r="3.56" style="fill:#fdd835"/><path d="M371.17,464a3.56,3.56,0,0,1,6-2.55,3.56,3.56,0,0,0-6.46,3,3.48,3.48,0,0,0,.76,1.07A3.58,3.58,0,0,1,371.17,464Z" transform="translate(0 0.02)" style="fill:#fff;opacity:0.20000000298023224;isolation:isolate"/><circle cx="379.62" cy="470.11" r="4" style="fill:url(#linear-gradient-73)"/><circle cx="379.62" cy="470.11" r="3.56" style="fill:#fdd835"/><path d="M377,471.13a3.56,3.56,0,0,1,6-2.55,3.56,3.56,0,0,0-6.46,3,3.48,3.48,0,0,0,.76,1.07A3.58,3.58,0,0,1,377,471.13Z" transform="translate(0 0.02)" style="fill:#fff;opacity:0.20000000298023224;isolation:isolate"/><circle cx="360.94" cy="475.01" r="4" style="fill:url(#linear-gradient-74)"/><circle cx="360.94" cy="475.01" r="3.56" style="fill:#fdd835"/><path d="M358.28,476a3.56,3.56,0,0,1,6-2.55,3.56,3.56,0,0,0-6.46,3,3.48,3.48,0,0,0,.76,1.07A3.58,3.58,0,0,1,358.28,476Z" transform="translate(0 0.02)" style="fill:#fff;opacity:0.20000000298023224;isolation:isolate"/><circle cx="340.34" cy="473.23" r="4" style="fill:url(#linear-gradient-75)"/><circle cx="340.34" cy="473.23" r="3.56" style="fill:#fdd835"/><path d="M337.67,474.25a3.56,3.56,0,0,1,6-2.55,3.56,3.56,0,0,0-6.46,3,3.48,3.48,0,0,0,.76,1.07A3.58,3.58,0,0,1,337.67,474.25Z" transform="translate(0 0.02)" style="fill:#fff;opacity:0.20000000298023224;isolation:isolate"/><circle cx="334.55" cy="468.04" r="4" style="fill:url(#linear-gradient-76)"/><circle cx="334.55" cy="468.04" r="3.56" style="fill:#fdd835"/><path d="M331.89,469.06a3.56,3.56,0,0,1,6-2.55,3.56,3.56,0,0,0-6.46,3,3.48,3.48,0,0,0,.76,1.07A3.58,3.58,0,0,1,331.89,469.06Z" transform="translate(0 0.02)" style="fill:#fff;opacity:0.20000000298023224;isolation:isolate"/><circle cx="342.11" cy="465.52" r="4" style="fill:url(#linear-gradient-77)"/><circle cx="342.11" cy="465.52" r="3.56" style="fill:#fdd835"/><path d="M339.45,466.54a3.56,3.56,0,0,1,6-2.55,3.56,3.56,0,1,0-5.66,4A3.51,3.51,0,0,1,339.45,466.54Z" transform="translate(0 0.02)" style="fill:#fff;opacity:0.20000000298023224;isolation:isolate"/><circle cx="337.96" cy="459.44" r="4" style="fill:url(#linear-gradient-78)"/><circle cx="337.96" cy="459.44" r="3.56" style="fill:#fdd835"/><path d="M335.3,460.46a3.56,3.56,0,0,1,6-2.55,3.56,3.56,0,0,0-6.46,3,3.48,3.48,0,0,0,.76,1.07A3.58,3.58,0,0,1,335.3,460.46Z" transform="translate(0 0.02)" style="fill:#fff;opacity:0.20000000298023224;isolation:isolate"/><circle cx="341.52" cy="453.81" r="4" style="fill:url(#linear-gradient-79)"/><circle cx="341.52" cy="453.81" r="3.56" style="fill:#fdd835"/><path d="M338.85,454.82a3.56,3.56,0,0,1,6-2.55,3.56,3.56,0,0,0-6.46,3,3.48,3.48,0,0,0,.76,1.07A3.58,3.58,0,0,1,338.85,454.82Z" transform="translate(0 0.02)" style="fill:#fff;opacity:0.20000000298023224;isolation:isolate"/><circle cx="372.51" cy="474.56" r="4" style="fill:url(#linear-gradient-80)"/><circle cx="372.51" cy="474.56" r="3.56" style="fill:#fdd835"/><path d="M369.84,475.58a3.56,3.56,0,0,1,6-2.55,3.56,3.56,0,0,0-6.46,3,3.48,3.48,0,0,0,.76,1.07A3.58,3.58,0,0,1,369.84,475.58Z" transform="translate(0 0.02)" style="fill:#fff;opacity:0.20000000298023224;isolation:isolate"/><polygon points="378.04 540.69 333.76 540.69 322.54 474.56 389.41 474.56 378.04 540.69" style="fill:url(#linear-gradient-81)"/><polygon points="377.4 539.8 334.7 539.8 323.88 475.6 388.37 475.6 377.4 539.8" style="fill:#fff"/><polygon points="323.88 475.6 334.85 475.6 345.23 539.8 334.55 539.8 323.88 475.6" style="fill:#3B88F7"/><polygon points="388.37 475.6 377.25 475.6 366.58 539.8 377.4 539.8 388.37 475.6" style="fill:#3B88F7"/><rect x="350.57" y="475.6" width="10.67" height="64.2" style="fill:#3B88F7"/><circle cx="335.89" cy="463.59" r="4" style="fill:url(#linear-gradient-82)"/><circle cx="335.89" cy="463.59" r="3.56" style="fill:#fbc02d"/><path d="M333.22,464.61a3.56,3.56,0,0,1,6-2.55,3.56,3.56,0,0,0-6.46,3,3.48,3.48,0,0,0,.76,1.07A3.58,3.58,0,0,1,333.22,464.61Z" transform="translate(0 0.02)" style="fill:#fff;opacity:0.20000000298023224;isolation:isolate"/><circle cx="345.97" cy="452.32" r="4" style="fill:url(#linear-gradient-83)"/><circle cx="345.97" cy="452.32" r="3.56" style="fill:#fbc02d"/><path d="M343.3,453.34a3.56,3.56,0,0,1,6-2.55,3.56,3.56,0,0,0-6.46,3,3.48,3.48,0,0,0,.76,1.07A3.58,3.58,0,0,1,343.3,453.34Z" transform="translate(0 0.02)" style="fill:#fff;opacity:0.20000000298023224;isolation:isolate"/><circle cx="331.88" cy="469.67" r="4" style="fill:url(#linear-gradient-84)"/><circle cx="331.88" cy="469.67" r="3.56" style="fill:#fbc02d"/><path d="M329.22,470.69a3.56,3.56,0,0,1,6-2.55,3.56,3.56,0,0,0-6.46,3,3.48,3.48,0,0,0,.76,1.07A3.58,3.58,0,0,1,329.22,470.69Z" transform="translate(0 0.02)" style="fill:#fff;opacity:0.20000000298023224;isolation:isolate"/><circle cx="327.09" cy="442.48" r="4" style="fill:url(#linear-gradient-85)"/><circle cx="327.09" cy="442.48" r="3.56" style="fill:#fbc02d"/><path d="M324.42,443.49a3.56,3.56,0,0,1,6-2.55,3.56,3.56,0,1,0-5.63,4.06A3.61,3.61,0,0,1,324.42,443.49Z" transform="translate(0 0.02)" style="fill:#fff;opacity:0.20000000298023224;isolation:isolate"/><circle cx="343.93" cy="419.54" r="4" style="fill:url(#linear-gradient-86)"/><circle cx="343.93" cy="419.54" r="3.56" style="fill:#fbc02d"/><path d="M341.26,420.55a3.56,3.56,0,0,1,6-2.55,3.56,3.56,0,0,0-6.46,3,3.48,3.48,0,0,0,.76,1.07A3.58,3.58,0,0,1,341.26,420.55Z" transform="translate(0 0.02)" style="fill:#fff;opacity:0.20000000298023224;isolation:isolate"/><circle cx="358.45" cy="402.11" r="4" style="fill:url(#linear-gradient-87)"/><circle cx="358.45" cy="402.11" r="3.56" style="fill:#fdd835"/><path d="M355.79,403.13a3.56,3.56,0,0,1,6-2.55,3.56,3.56,0,0,0-6.46,3,3.48,3.48,0,0,0,.76,1.07A3.58,3.58,0,0,1,355.79,403.13Z" transform="translate(0 0.02)" style="fill:#fff;opacity:0.20000000298023224;isolation:isolate"/><circle cx="386.62" cy="439.57" r="4" style="fill:url(#linear-gradient-88)"/><circle cx="386.62" cy="439.57" r="3.56" style="fill:#fdd835"/><path d="M384,440.59a3.56,3.56,0,0,1,6-2.55,3.56,3.56,0,0,0-6.46,3,3.48,3.48,0,0,0,.76,1.07A3.58,3.58,0,0,1,384,440.59Z" transform="translate(0 0.02)" style="fill:#fff;opacity:0.20000000298023224;isolation:isolate"/><circle cx="408.98" cy="468.03" r="4" style="fill:url(#linear-gradient-89)"/><circle cx="408.98" cy="468.03" r="3.56" style="fill:#fdd835"/><path d="M406.31,469a3.56,3.56,0,0,1,6-2.55,3.56,3.56,0,0,0-6.46,3,3.48,3.48,0,0,0,.76,1.07A3.58,3.58,0,0,1,406.31,469Z" transform="translate(0 0.02)" style="fill:#fff;opacity:0.20000000298023224;isolation:isolate"/><circle cx="325.93" cy="537.43" r="4" style="fill:url(#linear-gradient-90)"/><circle cx="325.93" cy="537.43" r="3.56" style="fill:#fbc02d"/><path d="M323.26,538.45a3.56,3.56,0,0,1,6-2.55,3.56,3.56,0,0,0-6.46,3,3.48,3.48,0,0,0,.76,1.07A3.58,3.58,0,0,1,323.26,538.45Z" transform="translate(0 0.02)" style="fill:#fff;opacity:0.20000000298023224;isolation:isolate"/><circle cx="320.41" cy="530.17" r="4" style="fill:url(#linear-gradient-91)"/><circle cx="320.41" cy="530.17" r="3.56" style="fill:#fdd835"/><path d="M317.79,531.19a3.56,3.56,0,0,1,6-2.55,3.56,3.56,0,0,0-6.46,3,3.48,3.48,0,0,0,.76,1.07A3.58,3.58,0,0,1,317.79,531.19Z" transform="translate(0 0.02)" style="fill:#fff;opacity:0.20000000298023224;isolation:isolate"/><circle cx="316.92" cy="490.97" r="4" style="fill:url(#linear-gradient-92)"/><circle cx="316.92" cy="490.97" r="3.56" style="fill:#fbc02d"/><path d="M314.26,492a3.56,3.56,0,0,1,6-2.55,3.56,3.56,0,0,0-6.46,3,3.48,3.48,0,0,0,.76,1.07A3.58,3.58,0,0,1,314.26,492Z" transform="translate(0 0.02)" style="fill:#fff;opacity:0.20000000298023224;isolation:isolate"/><circle cx="392.42" cy="534.24" r="4" style="fill:url(#linear-gradient-93)"/><circle cx="392.42" cy="534.24" r="3.56" style="fill:#fbc02d"/><path d="M389.79,535.25a3.56,3.56,0,0,1,6-2.55,3.56,3.56,0,0,0-6.46,3,3.48,3.48,0,0,0,.76,1.07A3.58,3.58,0,0,1,389.79,535.25Z" transform="translate(0 0.02)" style="fill:#fff;opacity:0.20000000298023224;isolation:isolate"/><circle cx="399.68" cy="529.59" r="4" style="fill:url(#linear-gradient-94)"/><circle cx="399.68" cy="529.59" r="3.56" style="fill:#fbc02d"/><path d="M397,530.61a3.56,3.56,0,0,1,6-2.55,3.56,3.56,0,0,0-6.46,3,3.48,3.48,0,0,0,.76,1.07A3.58,3.58,0,0,1,397,530.61Z" transform="translate(0 0.02)" style="fill:#fff;opacity:0.20000000298023224;isolation:isolate"/><circle cx="400.55" cy="535.11" r="4" style="fill:url(#linear-gradient-95)"/><circle cx="400.55" cy="535.11" r="3.56" style="fill:#fdd835"/><path d="M397.89,536.13a3.56,3.56,0,0,1,6-2.55,3.56,3.56,0,0,0-6.46,3,3.48,3.48,0,0,0,.76,1.07A3.58,3.58,0,0,1,397.89,536.13Z" transform="translate(0 0.02)" style="fill:#fff;opacity:0.20000000298023224;isolation:isolate"/><circle cx="385.45" cy="535.11" r="4" style="fill:url(#linear-gradient-96)"/><circle cx="385.45" cy="535.11" r="3.56" style="fill:#fdd835"/><path d="M382.79,536.13a3.56,3.56,0,0,1,6-2.55,3.56,3.56,0,0,0-6.46,3,3.48,3.48,0,0,0,.76,1.07A3.58,3.58,0,0,1,382.79,536.13Z" transform="translate(0 0.02)" style="fill:#fff;opacity:0.20000000298023224;isolation:isolate"/><g style="opacity:0.699999988079071;isolation:isolate"><path d="M679.75,461.2c.4-.57.77-1.11,1.11-1.61s.66-1,.94-1.46a7.88,7.88,0,0,1-2.81,2,9.17,9.17,0,0,1-6.72.14,7.31,7.31,0,0,1-4.21-4.16,9,9,0,0,1-.59-3.31,8.13,8.13,0,0,1,2.55-6,8.73,8.73,0,0,1,2.83-1.78,9.75,9.75,0,0,1,3.59-.64,9.12,9.12,0,0,1,3.44.63,8,8,0,0,1,2.69,1.8,8.32,8.32,0,0,1,1.75,2.79,9.91,9.91,0,0,1,.62,3.61,9.43,9.43,0,0,1-.22,2.09,10.89,10.89,0,0,1-.68,2,17,17,0,0,1-1.09,2c-.42.7-.91,1.45-1.45,2.24l-7.38,10.83a1.08,1.08,0,0,1-1,.46h-1.73ZM676,459.36a7.6,7.6,0,0,0,3-.57,6.82,6.82,0,0,0,2.24-1.52,6.47,6.47,0,0,0,1.39-2.1,6.27,6.27,0,0,0,.47-2.35,7.68,7.68,0,0,0-.49-2.81,6.39,6.39,0,0,0-1.4-2.18,6.2,6.2,0,0,0-2.12-1.41,6.88,6.88,0,0,0-2.68-.51,8,8,0,0,0-2.86.5,6.48,6.48,0,0,0-2.22,1.39,6.22,6.22,0,0,0-1.44,2.14,7,7,0,0,0-.52,2.74,7.7,7.7,0,0,0,.47,2.79,5.72,5.72,0,0,0,1.33,2.11,5.8,5.8,0,0,0,2.09,1.33A7.84,7.84,0,0,0,676,459.36Z" transform="translate(0 0.02)"/></g><g style="opacity:0.699999988079071"><path d="M796.43,387.23C774.72,368.57,751.14,352.3,733,340.7a61.12,61.12,0,0,0,2-8.56h.15c2.93,0,5.31-4.46,5.31-10a13.83,13.83,0,0,0-2.27-8.14c.21-2.1.31-4.23.32-6.39a63.79,63.79,0,0,0-2-15.92,22.16,22.16,0,0,0,1.11-5.87,17.92,17.92,0,0,1,.56-4.78,19,19,0,0,1,2.38-4.09,25.84,25.84,0,0,0,2.31-23.43c-1.07-2.65-2.8-5.3-5.51-6.23a5.83,5.83,0,0,1-2-.82,3.58,3.58,0,0,1-1-2.64c-.15-3.31.79-6.57.9-9.89s-.9-7-3.77-8.66a10.85,10.85,0,0,0-5.64-1,53.52,53.52,0,0,0-12.27,1.7c-6.3,1.64-13.35,4.35-18.91,1a47.13,47.13,0,0,1-4.28-3.45c-7.27-5.71-19.12-4.17-24.69,3.21-2.78,3.69-4.22,8.6-8.13,11.06-7.15,4.5-17.94-2-24.52,3.36-4.94,4-4,12-8,17s-9.25,7.19-9.75,14.52a10.87,10.87,0,0,0,2,7.59,63.44,63.44,0,0,0-6.19,27.42q0,3.22.32,6.39a13.82,13.82,0,0,0-2.31,8.21c0,5.5,2.38,10,5.31,10h.15a60.56,60.56,0,0,0,2.19,9c-18,11.57-41.29,27.66-62.73,46.08,6.64,39.81,59.72,65,59.72,65V532l-9,1.62a22,22,0,0,0-17.58,25.65l32.73,175.35a6.66,6.66,0,0,0,7.77,5.32l5.94-1.11V742c-6.27,3-10.62,4.42-10.62,11.82v2.71h38.49v-2.71c0-6.86-3.74-7.93-9.29-11.13v-7.35l5.44-1a6.66,6.66,0,0,0,5.32-7.77L632.37,562.41h84.89L686.61,726.59a6.66,6.66,0,0,0,5.32,7.77l5.44,1v7.35c-5.55,3.2-9.29,4.26-9.29,11.13v2.71h38.49v-2.71c0-7.4-4.35-8.85-10.62-11.82v-3.19l5.94,1.17a6.66,6.66,0,0,0,7.77-5.32l33.13-177.57A19.79,19.79,0,0,0,747,534h0l-11.11-2V450.37l.9,1.93S789.79,427,796.43,387.23Zm-193.28,8L638.08,371a60.89,60.89,0,0,0,22.14,10.52V393a60.8,60.8,0,0,0-24.84,12.7ZM689.41,393V381.5a60.82,60.82,0,0,0,22.53-10.83l35.38,24.55L715.1,405.71l.57,1.23A60.91,60.91,0,0,0,689.41,393Z" transform="translate(0 0.02)" style="fill:url(#linear-gradient-97)"/></g><rect x="635.59" y="714.81" width="17.72" height="24.05" style="fill:#fdb797"/><rect x="696.35" y="714.81" width="17.72" height="24.05" style="fill:#fdb797"/><rect x="616.61" y="517.34" width="116.45" height="41.77" style="fill:#4d8af0"/><g style="opacity:0.05000000074505806"><rect x="616.61" y="517.34" width="116.45" height="41.77"/></g><path d="M616.61,524.92S660.06,535,674.79,535,733,524.87,733,524.87v-6.33H616.61Z" transform="translate(0 0.02)" style="opacity:0.10000000149011612;isolation:isolate"/><path d="M733.06,523.65s-43.45,10.13-58.27,10.13-58.23-10.13-58.23-10.13V454a58.23,58.23,0,0,1,58.23-58.19h0A58.23,58.23,0,0,1,733.06,454h0Z" transform="translate(0 0.02)" style="fill:#3B88F7"/><path d="M660.91,366.69h27.85v34.57a11,11,0,0,1-11,11h-5.85a11,11,0,0,1-11-11V366.69Z" transform="translate(0 0.02)" style="fill:#fdb797"/><path d="M659.67,722.88l-30.88,5.77a5.17,5.17,0,0,1-6-4.13L590.58,552.26a17.07,17.07,0,0,1,13.63-19.91h0l19.21-3.59a5.17,5.17,0,0,1,6,4.13l34.34,184A5.17,5.17,0,0,1,659.67,722.88Z" transform="translate(0 0.02)" style="fill:#4d8af0"/><path d="M690,722.88l30.9,5.77a5.17,5.17,0,0,0,6-4.13l32.47-173.93a15.36,15.36,0,0,0-12.28-17.91l-20.89-3.9a5.17,5.17,0,0,0-6,4.13l-34.34,184A5.17,5.17,0,0,0,690,722.88Z" transform="translate(0 0.02)" style="fill:#4d8af0"/><path d="M660.91,387.79a58.3,58.3,0,0,0,27.85,0V368H660.91Z" transform="translate(0 0.02)" style="opacity:0.10000000149011612;isolation:isolate"/><circle cx="674.83" cy="316.08" r="60.76" style="fill:#ffcf51"/><circle cx="674.83" cy="330.01" r="58.23" style="fill:#fdb797"/><ellipse cx="732.43" cy="330.01" rx="5.06" ry="9.49" style="fill:#fdb797"/><ellipse cx="617.24" cy="330.01" rx="5.06" ry="9.49" style="fill:#fdb797"/><path d="M639.84,728.71h8a14.38,14.38,0,0,1,14.38,14.38h0V749H625.47v-5.88a14.37,14.37,0,0,1,14.33-14.41Z" transform="translate(0 0.02)" style="fill:#333"/><path d="M701.86,728.71h8a14.38,14.38,0,0,1,14.38,14.38h0V749H687.49v-5.88a14.37,14.37,0,0,1,14.33-14.41Z" transform="translate(0 0.02)" style="fill:#333"/><g style="isolation:isolate"><path d="M679.54,462.56,680.6,461c.33-.48.63-1,.9-1.4a7.59,7.59,0,0,1-2.68,1.91,8.82,8.82,0,0,1-6.41.13,6.92,6.92,0,0,1-4-4,8.35,8.35,0,0,1-.57-3.16,7.88,7.88,0,0,1,.64-3.2,7.79,7.79,0,0,1,1.79-2.55,8.32,8.32,0,0,1,2.7-1.7,9.34,9.34,0,0,1,3.43-.62,8.65,8.65,0,0,1,3.27.61,7.49,7.49,0,0,1,2.57,1.72,7.87,7.87,0,0,1,1.67,2.66,9.45,9.45,0,0,1,.6,3.44,9.29,9.29,0,0,1-.22,2,10.08,10.08,0,0,1-.65,1.89,16.76,16.76,0,0,1-1,1.95c-.41.67-.87,1.38-1.39,2.14l-7,10.32a1,1,0,0,1-.93.44h-1.65ZM676,460.82a7.34,7.34,0,0,0,2.89-.55,6.42,6.42,0,0,0,2.13-1.45,6.11,6.11,0,0,0,1.32-2,5.77,5.77,0,0,0,.46-2.25,7.26,7.26,0,0,0-.48-2.68,6,6,0,0,0-1.32-2.08,6.14,6.14,0,0,0-2-1.34,6.44,6.44,0,0,0-2.55-.49,7.45,7.45,0,0,0-2.73.48,6,6,0,0,0-3.5,3.37,6.7,6.7,0,0,0-.49,2.61,7.46,7.46,0,0,0,.45,2.66,5.37,5.37,0,0,0,3.26,3.28A7.37,7.37,0,0,0,676,460.82Z" transform="translate(0 0.02)" style="fill:#fff"/></g><path d="M621.67,298.34s-2.53,16.46,11.39,7.59,62-5.06,77.21,7.59,20.25,2.53,22.78,0-27.4-44.81-44.3-48.1C643.19,256.57,621.67,298.34,621.67,298.34Z" transform="translate(0 0.02)" style="opacity:0.10000000149011612;isolation:isolate"/><path d="M621.67,297.08s-2.53,16.46,11.39,7.59,62-5.06,77.21,7.59,20.25,2.53,22.78,0-27.4-44.81-44.3-48.1C643.19,255.3,621.67,297.08,621.67,297.08Z" transform="translate(0 0.02)" style="fill:#ffcf51"/><path d="M627.39,268.83c3.81-4.71,3-12.39,7.67-16.19,6.27-5.06,16.56,1.09,23.38-3.2,3.73-2.35,5.1-7,7.75-10.55,5.31-7,16.61-8.51,23.55-3.07a42.84,42.84,0,0,0,4.08,3.29c5.3,3.23,12,.64,18-.92a50.76,50.76,0,0,1,11.7-1.62,10.3,10.3,0,0,1,5.38,1c2.74,1.57,3.7,5.11,3.6,8.26s-1,6.27-.86,9.43a3.41,3.41,0,0,0,.92,2.52,5.5,5.5,0,0,0,1.87.78c2.58.88,4.24,3.41,5.26,5.94a24.65,24.65,0,0,1-2.2,22.35,17.9,17.9,0,0,0-2.27,3.9,16.7,16.7,0,0,0-.54,4.56c-.29,5.39-2.58,11.21-7.48,13.47-6.31,2.92-13.42-1.12-19.65-4.22-14.14-7-30.08-9.46-45.79-11.11a183.33,183.33,0,0,0-21.21-1.26c-5.27.06-12.4,2.32-17.42.18-4-1.71-5.38-5.53-5.09-9.67C618.57,275.69,623.5,273.65,627.39,268.83Z" transform="translate(0 0.02)" style="fill:#ffcf51"/><path d="M637.21,409.61l-30.73-10,62-43-19-26.58S601,356.48,559.61,392c6.33,38,57,62,57,62Z" transform="translate(0 0.02)" style="fill:#3B88F7"/><path d="M713.26,409.61l30.73-10-62-43L701,330s48.49,26.45,89.87,62c-6.33,38-57,62-57,62Z" transform="translate(0 0.02)" style="fill:#3B88F7"/><path d="M650.79,331.25s31.64-22.78,39.24-8.86-20.24,35.44-20.24,35.44Z" transform="translate(0 0.02)" style="opacity:0.10000000149011612;isolation:isolate"/><path d="M649.52,330s31.64-22.78,39.24-8.86-20.25,35.44-20.25,35.44Z" transform="translate(0 0.02)" style="fill:#fdb797"/><path d="M649.52,330s31.64-22.78,39.24-8.86-20.25,35.44-20.25,35.44Z" transform="translate(0 0.02)" style="opacity:0.019999999552965164;isolation:isolate"/><path d="M698.88,331.25s-31.64-22.78-39.24-8.86,20.25,35.44,20.25,35.44Z" transform="translate(0 0.02)" style="opacity:0.10000000149011612;isolation:isolate"/><path d="M700.15,330s-31.64-22.78-39.24-8.86,20.25,35.44,20.25,35.44Z" transform="translate(0 0.02)" style="fill:#fdb797"/><path d="M700.15,330s-31.64-22.78-39.24-8.86,20.25,35.44,20.25,35.44Z" transform="translate(0 0.02)" style="opacity:0.019999999552965164;isolation:isolate"/><g id="f6e51fcf-3a26-4c81-b90c-a65f1d2dd7ad"><path d="M610,423.72l-2.51-6-26.61,10.93a3.29,3.29,0,0,0-2,3V460.4l7.69.89V433.87Z" transform="translate(0 0.02)" style="fill:url(#linear-gradient-98)"/></g><path d="M608.7,423.6l-1.91-4.54-24.9,10.23a3.07,3.07,0,0,0-1.91,2.84V459h4.92V433.36Z" transform="translate(0 0.02)" style="fill:#f2f2f2"/><g style="clip-path:url(#clip-path)"><rect x="600.13" y="414.13" width="5.36" height="16.99" style="fill:#3B88F7"/><rect x="591.64" y="417.71" width="5.36" height="16.99" style="fill:#3B88F7"/><polygon points="588.74 432.23 584.94 433.35 583.37 415.25 588.74 415.25 588.74 432.23" style="fill:#3B88F7"/><rect x="574.87" y="434.25" width="16.99" height="5.36" style="fill:#3B88F7"/><rect x="574.88" y="441.63" width="16.99" height="5.36" style="fill:#3B88F7"/><rect x="574.88" y="449" width="16.99" height="5.36" style="fill:#3B88F7"/></g><polygon points="613.32 454.36 553.65 454.36 553.65 463.77 557.72 463.77 566.02 539.96 601.68 539.96 609.05 463.33 613.32 463.33 613.32 454.36" style="fill:url(#linear-gradient-99)"/><polygon points="600.13 538.4 567.28 538.4 559.23 457.94 607.29 457.94 600.13 538.4" style="fill:#3B88F7"/><rect x="555.88" y="456.6" width="54.98" height="5.36" style="fill:#3B88F7"/><circle cx="583.37" cy="493.7" r="13.63" style="fill:url(#linear-gradient-100)"/><circle cx="583.37" cy="493.7" r="12.52" style="fill:#fff"/><g style="opacity:0.699999988079071"><path d="M725,105.32a13.4,13.4,0,0,0-12.2-.32l.52-1a13.41,13.41,0,0,0-5.38-18.19h0a13.41,13.41,0,0,0-18.13,5.46l-4.57,8.42h0l9.44-17.4a12.14,12.14,0,0,0-4.87-16.45h0l-2.25-1.22a12.14,12.14,0,0,0-16.45,4.87h0l22.14-40.79a19.38,19.38,0,0,0-7.78-26.27h0l-1.5-.81A13.41,13.41,0,0,0,665.73,7l0,0L631.28,70.43h0l-53.62,98.79,52.2,28.33a53,53,0,0,0,71.89-21.21l0-.08L721,140.9h0l9.44-17.4A13.4,13.4,0,0,0,725,105.33Z" transform="translate(0 0.02)" style="fill:url(#linear-gradient-101)"/></g><path d="M639.16,198.51l-58.59-31.8h0l51.57-95h0l95.1,51.61h0l-31.78,58.55a41.5,41.5,0,0,1-56.27,16.68Z" transform="translate(0 0.02)" style="fill:#3B88F7"/><path d="M718.46,139.45l-22.68-12.31h0L706,108.28a10.5,10.5,0,0,1,14.24-4.22l4.23,2.29a10.5,10.5,0,0,1,4.22,14.24l-10.24,18.86Z" transform="translate(0 0.02)" style="fill:#3B88F7"/><path d="M702,120.75l-22.68-12.32h0l10.23-18.85a10.51,10.51,0,0,1,14.24-4.22l4.22,2.3a10.49,10.49,0,0,1,4.22,14.23L702,120.75Z" transform="translate(0 0.02)" style="fill:#3B88F7"/><path d="M683.45,100.88,660.77,88.57h0l10.71-19.74A9.5,9.5,0,0,1,684.36,65h0l6,3.25a9.5,9.5,0,0,1,3.82,12.88h0l-10.72,19.74Z" transform="translate(0 0.02)" style="fill:#3B88F7"/><path d="M660.75,88.56,631.58,72.73h0L666.44,8.5a10.5,10.5,0,0,1,14.24-4.22l6.61,3.58a15.17,15.17,0,0,1,6.09,20.57L660.75,88.56Z" transform="translate(0 0.02)" style="fill:#3B88F7"/><rect x="671.96" y="134.01" width="61.46" height="14.75" rx="6" transform="translate(243.24 691.56) rotate(-61.51)" style="fill:#3B88F7;stroke:#fff;stroke-miterlimit:10"/><rect x="656.13" y="114.23" width="61.46" height="14.75" rx="6" transform="translate(252.34 667.3) rotate(-61.51)" style="fill:#3B88F7;stroke:#fff;stroke-miterlimit:10"/><rect x="638.73" y="92.19" width="61.46" height="14.75" rx="6" transform="translate(262.62 640.48) rotate(-61.51)" style="fill:#3B88F7;stroke:#fff;stroke-miterlimit:10"/><rect x="632.73" y="41.39" width="61.46" height="14.75" rx="6" transform="translate(304.13 608.64) rotate(-61.51)" style="fill:#3B88F7;stroke:#fff;stroke-miterlimit:10"/><path d="M623.69,168.42s19.1-12-.47-35.21l39.19-20.68s8.3-17.87-17.69-13.79-24.5,9.08-24.5,9.08" transform="translate(0 0.02)" style="fill:#3B88F7;stroke:#fff;stroke-miterlimit:10"/></svg>