<svg id="ac370e99-250f-4203-ae2c-c306a69114f3" xmlns="http://www.w3.org/2000/svg" viewBox="0 0 1144 616.9"><defs><style>.cls-1,.cls-4{fill:#bbb;}.cls-1,.cls-5{opacity:0.1;isolation:isolate;}.cls-2{opacity:0.2;}.cls-3{fill:#3f3d56;}</style></defs><title>illustration-7</title><path class="cls-1" d="M1144,408.2a180.65,180.65,0,0,1-26.1,93.9c0,34.6-16.1,66-42.3,88.9a151.26,151.26,0,0,1-21.1,15.3,4.05,4.05,0,0,1-.9.5c-.6.3-1.1.7-1.7,1l-.5.3h0a164.35,164.35,0,0,1-81.1,20.8H217.2c-6,0-11.9-.2-17.8-.7a211.34,211.34,0,0,1-61.1-14.1c-3.8-1.5-7.6-3.1-11.2-4.9-1.7-.8-3.5-1.7-5.2-2.5-1.1-.5-2.1-1.1-3.2-1.7a187.08,187.08,0,0,1-34.5-23.4c-34-29.2-55.1-69.6-55.1-114.2A180.23,180.23,0,0,1,0,368.7c0-99.1,79.2-179.5,177-179.5q4.5,0,9,.3a5.7,5.7,0,0,1,1.3.1c16.5-28.1,38.5-53.9,65-76.6C324.5,51,430.1,12,547.7,12,646.5,12,736.9,39.5,806,85a173.63,173.63,0,0,1,86-22.5c97.7,0,177,80.4,177,179.5a169.15,169.15,0,0,1-1,18.8A179.81,179.81,0,0,1,1144,408.2Z" transform="translate(0 -12)"/><g class="cls-2"><path class="cls-3" d="M138.4,612.7c0,.5-.1.9-.1,1.3-3.8-1.5-7.6-3.1-11.2-4.9a9.1,9.1,0,0,1-5.2-2.5c-1.1-.5-2.1-1.1-3.2-1.7a10.93,10.93,0,0,1,.8-1.5c2.1-3.3,5.2-5.3,8.6-5.2s6.4,2.3,8.3,5.7A18.29,18.29,0,0,1,138.4,612.7Z" transform="translate(0 -12)"/><path class="cls-3" d="M138.9,595.6a17.15,17.15,0,0,1-2.5,8.5c-2.1,3.3-5.2,5.3-8.6,5.2h-.7a9.1,9.1,0,0,1-5.2-2.5,11.76,11.76,0,0,1-2.4-3.1,17.63,17.63,0,0,1,.5-17.1c2.1-3.3,5.2-5.3,8.6-5.2s6.4,2.3,8.3,5.7A15.51,15.51,0,0,1,138.9,595.6Z" transform="translate(0 -12)"/><ellipse class="cls-3" cx="128.73" cy="578.12" rx="14" ry="10.7" transform="translate(-453.16 676.52) rotate(-88.19)"/><ellipse class="cls-3" cx="129.27" cy="560.99" rx="14" ry="10.7" transform="translate(-435.52 660.48) rotate(-88.19)"/><ellipse class="cls-3" cx="130" cy="542.74" rx="14" ry="10.7" transform="translate(-416.4 644.41) rotate(-88.28)"/><path class="cls-4" d="M93.5,425.4a46.71,46.71,0,0,1-3.8-6l28.3-3.7L87.5,415a51.16,51.16,0,0,1,.3-40.6l40.1,22.5L91.1,368a51.28,51.28,0,1,1,87.2,54,52.4,52.4,0,0,1-4.4,6.1,60.7,60.7,0,0,1,5.6,9.5l-37.1,17.8,39.3-11.8a51.57,51.57,0,0,1-9.8,47.9,51.28,51.28,0,1,1-80.6-2.6,51.54,51.54,0,0,1,2.2-63.5Z" transform="translate(0 -12)"/><path class="cls-5" d="M184,460a51.33,51.33,0,0,1-12,31.3,51.28,51.28,0,1,1-80.6-2.6C84.9,479.9,184.2,454.3,184,460Z" transform="translate(0 -12)"/></g><circle class="cls-1" cx="70.5" cy="122.1" r="21.6"/><circle class="cls-1" cx="153.3" cy="84.7" r="36.3"/><g class="cls-2"><path class="cls-3" d="M1006.2,615.7a5.28,5.28,0,0,1-.1,1.3c-3.8-1.5-7.6-3.1-11.2-4.9a9.1,9.1,0,0,1-5.2-2.5c-1.1-.5-2.1-1.1-3.2-1.7a10.93,10.93,0,0,1,.8-1.5c2.1-3.3,5.2-5.3,8.6-5.2s6.4,2.3,8.3,5.7A16.27,16.27,0,0,1,1006.2,615.7Z" transform="translate(0 -12)"/><path class="cls-3" d="M1006.8,598.6a17.15,17.15,0,0,1-2.5,8.5c-2.1,3.3-5.2,5.3-8.6,5.2H995a9.1,9.1,0,0,1-5.2-2.5,11.76,11.76,0,0,1-2.4-3.1,17.63,17.63,0,0,1,.5-17.1c2.1-3.3,5.2-5.3,8.6-5.2s6.4,2.3,8.3,5.7A16.43,16.43,0,0,1,1006.8,598.6Z" transform="translate(0 -12)"/><ellipse class="cls-3" cx="996.61" cy="581.13" rx="14" ry="10.7" transform="translate(384.29 1546.89) rotate(-88.19)"/><ellipse class="cls-3" cx="997.15" cy="564" rx="14" ry="10.7" transform="translate(401.93 1530.84) rotate(-88.19)"/><ellipse class="cls-3" cx="997.82" cy="545.67" rx="14" ry="10.7" transform="translate(422.48 1514.68) rotate(-88.28)"/><path class="cls-4" d="M961.3,428.5a46.71,46.71,0,0,1-3.8-6l28.3-3.7-30.4-.7a51.16,51.16,0,0,1,.3-40.6L995.8,400,959,371a51.28,51.28,0,0,1,87.2,54,52.4,52.4,0,0,1-4.4,6.1,53.26,53.26,0,0,1,5.5,9.5l-37.1,17.8,39.3-11.8a51.57,51.57,0,0,1-9.8,47.9,51.28,51.28,0,1,1-80.6-2.6,51.67,51.67,0,0,1,2.2-63.4Z" transform="translate(0 -12)"/><path class="cls-5" d="M1051.9,463a51.33,51.33,0,0,1-12,31.3,51.28,51.28,0,1,1-80.6-2.6C952.7,482.9,1052,457.3,1051.9,463Z" transform="translate(0 -12)"/></g></svg>
