<svg id="bcfca5f0-de0d-458d-b0e1-91947ae777e0" xmlns="http://www.w3.org/2000/svg" xmlns:xlink="http://www.w3.org/1999/xlink" viewBox="0 0 1051.2 697.24"><defs><style>.cls-1,.cls-4{fill:#3B88F7;}.cls-1,.cls-14,.cls-15{opacity:0.1;}.cls-1,.cls-14,.cls-5{isolation:isolate;}.cls-2{opacity:0.6;}.cls-3,.cls-8{fill:none;}.cls-3{stroke:#535461;}.cls-3,.cls-6,.cls-7,.cls-8{stroke-miterlimit:10;}.cls-3,.cls-7{stroke-width:2px;}.cls-5{opacity:0.25;}.cls-6,.cls-7{fill:#fff;}.cls-6,.cls-7,.cls-8{stroke:#33313f;}.cls-6,.cls-8{stroke-width:3px;}.cls-9{fill:url(#linear-gradient);}.cls-10{fill:#33313f;}.cls-11{fill:#65617d;}.cls-12{fill:#fbbebe;}.cls-13{fill:#3f3d56;}.cls-16{fill:#ffd037;}.cls-17{fill:#444053;}.cls-18{fill:#9d9cb5;}</style><linearGradient id="linear-gradient" x1="790.73" y1="103.55" x2="943.73" y2="103.55" gradientTransform="matrix(1, 0, 0, -1, -74.4, 598.62)" gradientUnits="userSpaceOnUse"><stop offset="0" stop-color="gray" stop-opacity="0.25"/><stop offset="0.54" stop-color="gray" stop-opacity="0.12"/><stop offset="1" stop-color="gray" stop-opacity="0.1"/></linearGradient></defs><title>illustration-10</title><path class="cls-1" d="M602,133c-64.72-2.25-126.36-23.14-185.22-46S299.6,38.78,236.45,26.67c-40.63-7.79-87.09-8.89-119.83,12.89-31.5,21-41.68,57.15-47.16,90.73-4.11,25.26-6.53,51.84,4.75,75.49C82,222.2,96,236,105.57,251.73c33.46,54.72,9.81,122.2-26.46,175.63-17,25.07-36.74,49-49.87,75.66S10,560.27,21.52,587.49C32.91,614.49,60,634.73,89.43,649c59.68,28.95,130,37.23,198.61,41.92,151.82,10.39,304.46,5.89,456.68,1.39,56.34-1.67,112.93-3.36,168.35-12.07,30.77-4.84,62.55-12.51,84.89-31.05,28.36-23.53,35.39-63.38,16.39-92.88-31.88-49.49-120-61.78-142.31-114.9-12.27-29.23.33-61.79,18.15-88.91,38.24-58.16,102.33-109.19,105.71-175.67,2.32-45.67-28.49-91.39-76.13-113C869.83,41.17,800.59,44,763.77,81.5,725.81,120.1,659.15,135,602,133Z"/><g id="abffebd3-2ac6-4c6b-a0d4-e62621854ed7" class="cls-2"><path class="cls-3" d="M258.34,245.71S230.85,197,189.46,183a84.77,84.77,0,0,1-42.86-32.1,141.9,141.9,0,0,1-12.66-22.77"/><path class="cls-4" d="M107.86,119.12c4.71,4.58,26.68,9.31,26.68,9.31s-5.39-21.81-10.11-26.39a11.9,11.9,0,0,0-16.85,16.81l.28.27Z"/><path class="cls-4" d="M120.28,158.62c6.45,1.28,27.46-6.69,27.46-6.69s-16.38-15.38-22.83-16.66a11.9,11.9,0,1,0-4.63,23.35Z"/><path class="cls-4" d="M165.53,201.31c6.21-2.15,20.33-19.63,20.33-19.63s-21.91-5-28.12-2.86a11.9,11.9,0,1,0,7.79,22.49Z"/><path class="cls-4" d="M207,225.93C213.53,224.86,230.4,210,230.4,210s-20.74-8.64-27.23-7.57A11.9,11.9,0,0,0,207,225.93Z"/><path class="cls-4" d="M166.06,134.86c0,6.58-11.89,25.64-11.89,25.64s-11.91-19-11.91-25.63a11.9,11.9,0,0,1,23.8,0Z"/><path class="cls-4" d="M214.25,164.26c-2,6.28-19,20.91-19,20.91s-5.66-21.75-3.7-28a11.9,11.9,0,0,1,22.72,7.11h0Z"/><path class="cls-4" d="M257.16,199.26c-.87,6.52-15.21,23.83-15.21,23.83s-9.26-20.48-8.38-27a11.9,11.9,0,1,1,23.59,3.17Z"/><path class="cls-5" d="M107.86,119.12c4.71,4.58,26.68,9.31,26.68,9.31s-5.39-21.81-10.11-26.39a11.9,11.9,0,0,0-16.85,16.81l.28.27Z"/><path class="cls-5" d="M120.28,158.62c6.45,1.28,27.46-6.69,27.46-6.69s-16.38-15.38-22.83-16.66a11.9,11.9,0,1,0-4.63,23.35Z"/><path class="cls-5" d="M165.53,201.31c6.21-2.15,20.33-19.63,20.33-19.63s-21.91-5-28.12-2.86a11.9,11.9,0,1,0,7.79,22.49Z"/><path class="cls-5" d="M207,225.93C213.53,224.86,230.4,210,230.4,210s-20.74-8.64-27.23-7.57A11.9,11.9,0,0,0,207,225.93Z"/><path class="cls-5" d="M166.06,134.86c0,6.58-11.89,25.64-11.89,25.64s-11.91-19-11.91-25.63a11.9,11.9,0,0,1,23.8,0Z"/><path class="cls-5" d="M214.25,164.26c-2,6.28-19,20.91-19,20.91s-5.66-21.75-3.7-28a11.9,11.9,0,0,1,22.72,7.11h0Z"/><path class="cls-5" d="M257.16,199.26c-.87,6.52-15.21,23.83-15.21,23.83s-9.26-20.48-8.38-27a11.9,11.9,0,1,1,23.59,3.17Z"/><path class="cls-3" d="M256.76,244.75s-5.4-55.66-37.56-85.26A84.8,84.8,0,0,1,193,112.76a142.11,142.11,0,0,1-2.38-25.95"/><path class="cls-4" d="M170.48,68c2.46,6.1,20.62,19.33,20.62,19.33s3.92-22.13,1.46-28.23A11.9,11.9,0,1,0,170.48,68Z"/><path class="cls-4" d="M165.85,109.16c5.37,3.78,27.81,5,27.81,5s-8.74-20.7-14.12-24.48a11.9,11.9,0,1,0-13.69,19.47Z"/><path class="cls-4" d="M189.9,166.55c6.55.55,26.55-9.72,26.55-9.72s-18-13.45-24.55-14a11.9,11.9,0,0,0-2,23.72Z"/><path class="cls-4" d="M217.88,205.87c6.37,1.65,27.81-5.09,27.81-5.09s-15.47-16.3-21.83-18a11.9,11.9,0,1,0-7.16,22.7,11.61,11.61,0,0,0,1.16.3Z"/><path class="cls-4" d="M217.32,106c-2.66,6-21.26,18.62-21.26,18.62s-3.17-22.24-.51-28.25A11.9,11.9,0,1,1,217.32,106Z"/><path class="cls-4" d="M249.46,152.42c-4.34,4.93-25.86,11.4-25.86,11.4s3.63-22.17,8-27.11a11.9,11.9,0,0,1,17.89,15.71h0Z"/><path class="cls-4" d="M274.5,201.8c-3.44,5.6-23.55,15.62-23.55,15.62s-.17-22.47,3.27-28.08A11.9,11.9,0,1,1,274.5,201.8Z"/></g><path class="cls-6" d="M147.36,165.86s147,6,167,0c0,0-11,246-7,254,0,0-163,9-175,0S147.36,165.86,147.36,165.86Z"/><path class="cls-6" d="M169.36,211.86s68,108,91,118"/><path class="cls-6" d="M260.36,211.86s-65,85-75,114"/><path class="cls-6" d="M169.36,370.86"/><path class="cls-6" d="M254.36,370.86h-79c-6,0-6,28-6,28h85Z"/><path class="cls-6" d="M423.36,165.86s141-7,167,0c0,0-11,246-7,254,0,0-180.16,14.09-175,0C419.36,389.86,423.36,165.86,423.36,165.86Z"/><path class="cls-6" d="M478.31,184.62s31.38,49.85,42,54.46"/><path class="cls-6" d="M520.31,184.62s-30,39.23-34.62,52.62"/><path class="cls-6" d="M556.12,270.86h-106c-8,0-8,28-8,28h114Z"/><path class="cls-6" d="M541.65,359.86h-79c-6,0-6,28-6,28h85Z"/><path class="cls-6" d="M556.12,311.86c8,0-96.62,9-106,0-4.94-4.73-8,28-8,28h114Z"/><polyline class="cls-6" points="488.87 373.36 494.87 379.36 505.87 364.36"/><path class="cls-6" d="M692.36,167.86s140,17,167,0c0,0-11,246-7,254,0,0-185.8,10.41-175,0C704.36,395.86,692.36,167.86,692.36,167.86Z"/><path class="cls-6" d="M711.81,211.36s20.17,32,27,35"/><path class="cls-6" d="M738.81,211.36s-19.28,25.26-22.21,33.82"/><path class="cls-6" d="M827.12,277.36h-106c-8,0-8,14.82-8,14.82h114Z"/><path class="cls-6" d="M769.33,321.36h55.21c8,0,8,14.82,8,14.82h.24"/><path class="cls-6" d="M827.12,299.05c8,0-96.62,4.76-106,0-4.94-2.5-8,14.81-8,14.81h114Z"/><path class="cls-6" d="M693.2,186.62s155.2,11.47,165.18,3.85"/><path class="cls-7" d="M838.85,179.53c2.12-.45,4.3.19,6.45.52s4.59.29,6.15-1.21"/><path class="cls-7" d="M837.78,183.47a57.21,57.21,0,0,0,13.58.75"/><path class="cls-7" d="M837.76,189.06a102.82,102.82,0,0,1,11.61-1.3"/><path class="cls-7" d="M701.93,181.62a13.2,13.2,0,0,0,6,1.21,5.59,5.59,0,0,0,3.74-.81c1.31-1.06,1.42-3,1.42-4.69a3.54,3.54,0,0,0-.22-1.51,3,3,0,0,0-1.07-1.12c-2.47-1.72-7.06-2.42-9.95-1.25C697.89,175.05,698.53,179.77,701.93,181.62Z"/><path class="cls-6" d="M746.18,205.1c-.58,7.4,1.19,14.75,2.38,22.08a144.2,144.2,0,0,1,1.78,28q-23.67,1.44-47.4.69c1.47,0,1.1-33.44,1.24-36.52.18-3.94-.66-10.72,3.91-12.2,4.8-1.57,11.56-.6,16.6-.84Q735.43,205.82,746.18,205.1Z"/><path class="cls-8" d="M337.36,280.86s39-2,46,0"/><path class="cls-8" d="M383.36,259.86s17,17,17,21-22,18-22,18"/><path class="cls-8" d="M607.36,280.86s39-2,46,0"/><path class="cls-8" d="M653.36,259.86s17,17,17,21-22,18-22,18"/><circle class="cls-1" cx="377.32" cy="21.63" r="21.63"/><circle class="cls-1" cx="706.43" cy="51.49" r="21.63"/><circle class="cls-1" cx="937.58" cy="371.93" r="21.63"/><circle class="cls-1" cx="1014.95" cy="275.5" r="36.25" transform="translate(580.43 1233.21) rotate(-80.78)"/><circle class="cls-1" cx="966.96" cy="451.42" r="36.25"/><circle class="cls-1" cx="36.25" cy="338.07" r="36.25"/><path class="cls-9" d="M868.09,386.76a18.09,18.09,0,0,0-.45-3.59c-.91-3.37-2.93-7.46-6.28-8.48a53.5,53.5,0,0,1-9.93-4.2c-.61-10.72,1.86-21.69-.83-32.08-1-3.8-2.64-7.44-3.09-11.34-.55-4.83.78-10-1.15-14.46-1.52-3.51-4.86-6-8.46-7.3a45.57,45.57,0,0,0-11.27-2c-4.8-.4-20.34-2.24-25.75,2.06h0a5.26,5.26,0,0,0-1,1h0a2.85,2.85,0,0,0-.33.52V307c-.1.21-.19.43-.27.65h0a3.76,3.76,0,0,0-.16.74,1,1,0,0,0,0,.25,4.69,4.69,0,0,0,0,.53v1c.07.89.21,1.8.21,2.69a5.85,5.85,0,0,1-.12,1.32,9.36,9.36,0,0,1-1.66,3.23h0l-.18.26-.33.48-.26.41-.22.36c-.1.17-.18.34-.27.52l-.15.28a6.61,6.61,0,0,0-.3.85,5.65,5.65,0,0,0,0,2.65,10.19,10.19,0,0,0,1.36,3.16c.25.41.53.81.81,1.21s.46.63.7.94a20.33,20.33,0,0,0-.22,2.81,20.66,20.66,0,0,0,7.91,16.25,61.87,61.87,0,0,1-.13,12.69c-.1.89-.2,1.77-.32,2.65s-.22,1.47-.33,2.2a10.14,10.14,0,0,1-4.38-.34,20.13,20.13,0,0,0-2-.77c-2.92-.72-5.89,2.18-8.76,1.3a1.69,1.69,0,0,1-.13.4,4,4,0,0,0-2-.59c-1.7-.08-3.1-1.32-4.34-2.49l-3.8-3.59a4.21,4.21,0,0,1-.66-.74,4.93,4.93,0,0,1-.46-1.23,14.27,14.27,0,0,0-3.69-5.29,2.55,2.55,0,0,0-1.1-.79,1.35,1.35,0,0,0-.49,0c-.11-.14-.21-.28-.33-.41-.27-.29-.55-.57-.84-.83-1.81-1.68-2-3.12-3.58-5a47.14,47.14,0,0,1-3.73-5.65c-.14-1-.32-2.12-.54-3.22a41.29,41.29,0,0,0-2.18-7.29l1.37-1.5v-1.49l2.44-2.85-.17-.15,3-2.82-3-.11-1.4,1.94-.11-.1-2.5,2.5-1.75.2-.23.24c-1.45-2.16-3-3.34-4.38-3.06-2.33.48-3.49,5-3.12,10.91l-6.93,7.25-.78.82L741.47,345l2.81,2.7,4.31-4,.69-.75,4.29-4.65a2.42,2.42,0,0,0,.1.45,12,12,0,0,0-.22,2.16c0,.85.79,1.46,1.19,2.22a6.07,6.07,0,0,1,1,3.41c0,.42-.18.83-.19,1.26a4.74,4.74,0,0,0,.93,2.59q2.5,4.2,5,8.4c.34.59.7,1.18,1,1.76v.09a4.3,4.3,0,0,0,1.34,1.53,18.38,18.38,0,0,0,1.65,6.08c.18.37.37.74.57,1.1a35,35,0,0,0,4.71,6.12l2.39,2.67c2.34,2.63,4.69,5.25,7.24,7.68a9.66,9.66,0,0,0,3.25,2.26,3.61,3.61,0,0,0,3.63-.52v3.71a2.65,2.65,0,0,1,1.75,1.14,2.52,2.52,0,0,1-.17,2.16c-2.09,5.39-4.21,10.82-7.4,15.66a32.76,32.76,0,0,1,6.2,4.72,27.7,27.7,0,0,1,3.24,4.38c.08.73.15,1.47.2,2.2.74,11.92-3.87,23.75-8,35.11-1.18,3.21-2.49,6.59-2.38,9.93a20.06,20.06,0,0,0-2.25,1.62c.82,2.13.5,4,.42,6.33a11.23,11.23,0,0,1-.84,4c-.39.89-1,1.72-1.43,2.57-2.59,4.57-3.17,10-3.69,15.21-.31,3.16.92,7-.52,9.82-2.46,4.85-4.65,10-5,15.38a15.64,15.64,0,0,1-.45,3.6c-.31,1-.87,1.85-1.15,2.83a12,12,0,0,0-.19,4A38.26,38.26,0,0,1,763.34,546c-1.25,3.58-2.62,7.4-1.64,11.07a15.59,15.59,0,0,0-4.23,9.28,14.77,14.77,0,0,1-.33,2.65,12.93,12.93,0,0,1-1.19,2.56,22.41,22.41,0,0,0-2.73,12c-3,4.06-4.49,9.09-5.38,14.08s-1.29,10.07-2.43,15c-1.51,6.53-4.26,13.12-4.81,19.79-3.24,2.08-4.63,6.09-5.26,9.88s-.72,7.76-2.3,11.27c-.82,1.82-2,3.45-2.78,5.3a24.05,24.05,0,0,0-1.21,4.57c-.48,2.45-.9,5.16-.3,7.5a11.41,11.41,0,0,1-2.93,2.24c.15-.62.29-1.25.39-1.88-2.58,2.35-7.25,1.53-9.32,4.34a4.25,4.25,0,0,0,1,5.79,8.31,8.31,0,0,0,2.08.89c4.95,1.59,10.14,3.21,15.27,2.36a4.57,4.57,0,0,0,1.73-.56,5.45,5.45,0,0,0,1.61-1.86l2.31-3.66a49.12,49.12,0,0,0,5.61,1.32q.29,2.38.39,4.8c1,.2,2.34.25,2.81-.67a2.34,2.34,0,0,0,.18-1.11c0-.72.09-1.66.16-2.62h.2a19,19,0,0,0,8.85-1.8c-1.08-8.85,2.45-17.51,5.52-25.89,3.23-8.82,6-17.81,8.78-26.79,2-6.31,4.22-12.44,6.17-18.76q3.72-12,7.43-24c1.09-3.52,2.17-7,3.42-10.5A164.43,164.43,0,0,1,799.67,552c1-1.88,2-3.75,2.83-5.72,1-2.39,1.71-4.89,2.5-7.35a115.18,115.18,0,0,1,6.29-14.79l.18-.37c.81,3.31,1.63,6.68,2.16,10a37.7,37.7,0,0,1,.17,12.36c-.48,2.79-1.39,5.55-1.27,8.37.15,3.92,2.23,7.46,3.26,11.24a43.68,43.68,0,0,1,1.13,8.6c.27,4.49,2.72,9.54,1,13.71-5.34,13.21-2.75,28.13-5.81,42-1.56,7.12-6.37,13.82-6,21.1q.4,7.75,1.36,15.46a14.35,14.35,0,0,0,1.09,4.56,21.14,21.14,0,0,0,1.37,2.23c-.43.18-.81.63-1.12,1.58a6,6,0,0,0,2.22,7,9.76,9.76,0,0,0,2.88,1,15.56,15.56,0,0,0,4.18.58,8.24,8.24,0,0,0,1.31-.17,46.92,46.92,0,0,0,4.74,1.7,6.41,6.41,0,0,0,.12,1.23,1.45,1.45,0,0,0,.53,1.13,1.39,1.39,0,0,0,.8.15H831V686.2a4.45,4.45,0,0,0,3.45-1.13,5,5,0,0,0,1-2.07q2.22-7.54,4.42-15.07a46.42,46.42,0,0,0,1.55-6.49,44.28,44.28,0,0,0,.59-10.72c-1.92-18.43,2.32-36.92.94-55.4a132.16,132.16,0,0,1,1.7-33.23c.45-2.48,1-5,1.2-7.47.43-4.66-.1-9.37.22-14,.12-1.62.34-3.23.54-4.84A232.42,232.42,0,0,0,849,505.62a92.86,92.86,0,0,0-.61-10,5.89,5.89,0,0,0,2.72-1.6c.9-1.17.67-2.79.66-4.27,0-3.54,1.49-6.89,2.68-10.23a123.11,123.11,0,0,0,3.79-14,49.09,49.09,0,0,0,1.68-11.75,8.24,8.24,0,0,0-.06-1.21,2.91,2.91,0,0,0,.91-1,5.62,5.62,0,0,0,.48-1.85c.37-2.56.73-5.11,1.1-7.67.26-1.83.52-3.67.79-5.5q1.59-11.09,3.17-22.18c.28-1.93.55-3.85.83-5.78l.82-5.73c.1-.68.19-1.36.27-2.05C870.68,396.85,868.34,391.4,868.09,386.76ZM841.6,469.84c-1.19-2.79-2.29-5.66-2-8.69h-.1a4.54,4.54,0,0,0-.14-2.82c-.31-.74-.84-1.36-1.17-2.08a7.51,7.51,0,0,1-.54-2.81,76.6,76.6,0,0,1,1.42-18.13c.13-.71.27-1.41.41-2.12a5.63,5.63,0,0,0,1.13-.88,8,8,0,0,0,1.29-2q1.7-3.4,3.12-6.93c.31-.77.76-1.64,1.53-1.83-.16,5.85.44,11.82-2,17.1a10.83,10.83,0,0,0-1,2.7c-.22,1.48.4,3,.18,4.48-.11.76-.44,1.48-.58,2.23a2.2,2.2,0,0,0,.59,2.12,1.44,1.44,0,0,0,.42.23c-.06.4-.11.81-.14,1.2-.09.82-.12,1.59-.17,2.07a64.42,64.42,0,0,0-.28,7.35c0,2.65.11,5.31.06,8a5.33,5.33,0,0,1-.38,2.27,3.89,3.89,0,0,1-.76,1C842.21,471.41,841.89,470.62,841.6,469.84Z"/><polygon class="cls-10" points="766.01 324.14 769.37 321.01 766.37 320.9 764.8 323.3 766.01 324.14"/><polygon class="cls-11" points="741.84 346.06 745.4 341.49 746.19 340.67 757.09 329.26 760.8 325.37 762.54 325.17 765.04 322.68 766.51 323.97 764.08 326.81 764.13 328.3 760.33 332.42 749.63 344.03 748.94 344.77 744.64 348.75 741.84 346.06"/><polygon class="cls-10" points="746.19 340.67 757.09 329.26 760.33 332.42 749.63 344.03 746.19 340.67"/><ellipse class="cls-12" cx="759.42" cy="338.17" rx="5.64" ry="15.97" transform="translate(-52.42 159.33) rotate(-11.58)"/><path class="cls-13" d="M809.22,675.24a6,6,0,0,0,2.21,6.94,9.76,9.76,0,0,0,2.88,1,15.36,15.36,0,0,0,4.16.58c1.74-.09,3.4-.76,5.12-1a.87.87,0,0,1,.59.09.88.88,0,0,1,.23.69,26.43,26.43,0,0,0,.22,3,1.13,1.13,0,0,0,1,1.28,1.45,1.45,0,0,0,.36,0h5.41a51.85,51.85,0,0,0-1.57-14.14,3.09,3.09,0,0,0-.4-1,3.15,3.15,0,0,0-1.72-1,9.74,9.74,0,0,0-4.2-.73c-1.74.22-3.21,1.36-4.7,2.3s-3.52,1.77-5.33,1.28S810.14,672.46,809.22,675.24Z"/><path class="cls-12" d="M729.6,670.85a14.9,14.9,0,0,1-5.46,3.71l-.93.45a.5.5,0,0,0-.3.25.52.52,0,0,0,.09.45,6.48,6.48,0,0,0,7.34,2.67,4,4,0,0,0,1.62-.84,5.33,5.33,0,0,0,1.24-3.23,6.77,6.77,0,0,0-.15-3.68C731.69,667.49,731.18,668.91,729.6,670.85Z"/><path class="cls-13" d="M750.42,683.17a2.34,2.34,0,0,1-.18,1.11c-.46.92-1.78.86-2.8.67a67.25,67.25,0,0,0-1.22-10.11c-1.94-.09-3.35,1.76-4.38,3.4l-2.68,4.26a5.51,5.51,0,0,1-1.61,1.85,4.58,4.58,0,0,1-1.72.56c-5.12.84-10.29-.77-15.23-2.36a8.22,8.22,0,0,1-2.07-.88,4.22,4.22,0,0,1-1-5.78c2.06-2.8,6.72-2,9.29-4.32a22.67,22.67,0,0,1-1.32,4.77c3.46-.52,5.77-3.68,8.56-5.79a5.1,5.1,0,0,1,2.44-1.17,5.43,5.43,0,0,1,2,.22,23.39,23.39,0,0,1,8.8,4.33c1.05.83,2.69,2,3.15,3.28C750.94,678.74,750.41,681.54,750.42,683.17Z"/><circle class="cls-12" cx="819.21" cy="332.56" r="20.66"/><path class="cls-13" d="M859.91,454.55a48.76,48.76,0,0,1-1.68,11.71,119,119,0,0,1-3.77,14c-1.19,3.33-2.69,6.67-2.68,10.2,0,1.47.24,3.09-.65,4.26a6.34,6.34,0,0,1-2.93,1.67,3.64,3.64,0,0,0-2.45,2.18,15.4,15.4,0,0,1-2.09-4.57q-2.68-8.24-5-16.57a2.15,2.15,0,0,1,.13-2,2.38,2.38,0,0,1,.88-.49,9,9,0,0,0,2.76-1.79,4,4,0,0,0,.93-1.18,5.33,5.33,0,0,0,.38-2.27c0-2.64,0-5.29-.06-7.93a64.06,64.06,0,0,1,.27-7.33c0-.49.09-1.25.17-2.07.15-1.58.45-3.39,1.31-4,1.26-.86,5.06.29,6.51.48,2.48.35,4.95.75,7.41,1.22A20.5,20.5,0,0,1,859.91,454.55Z"/><path class="cls-13" d="M776.48,355.7c-.8,1.6-2.72,2.36-4.2,3.38l-5.07,3.48a3.42,3.42,0,0,1-2.5.86,3.31,3.31,0,0,1-1.87-1.75l-.06-.09-1-1.75-5-8.38a4.88,4.88,0,0,1-.93-2.59,10.83,10.83,0,0,1,.2-1.25,6.12,6.12,0,0,0-1-3.4c-.4-.76-1.21-1.37-1.18-2.21a8,8,0,0,1,.56-3.24,6.52,6.52,0,0,1,2.18-2.34c.47-.34,1-.66,1.45-1a2.89,2.89,0,0,1,.88-.39c.82-.17,1.64.51,2.48.54,3.62,2.42,5,7,7.85,10.31,1.6,1.87,1.76,3.31,3.57,5a10.83,10.83,0,0,1,.83.83,5.34,5.34,0,0,1,.91,1.3C774.9,353.86,776.9,354.88,776.48,355.7Z"/><path class="cls-12" d="M811.94,353.28c1.49,3.15,2.65,6.61,2.22,10.07a6.37,6.37,0,0,1-.86,2.65c-1.44,2.21-4.46,2.6-7.1,2.74a4.19,4.19,0,0,0-3.07,1,2.78,2.78,0,0,0,.19,3.42,7.45,7.45,0,0,0,3.06,2c4.16,1.84,8.64,3.35,13.17,2.92,2.1-.2,4.14-.8,6.23-1.11a62.18,62.18,0,0,1,6.82-.35c2.72-.1,5.43-.37,8.14-.64l7.17-.71a1.57,1.57,0,0,0,1.07-.39c.54-.62-.15-1.53-.8-2-3.82-2.83-8.67-4.76-10.83-9-1-2-1.32-4.37-2.06-6.54s-1.92-4.1-2.37-6.31a40.35,40.35,0,0,1-.33-5.81,7.75,7.75,0,0,0-2-5.32c-1.42-1.33-3.49-1.67-5.44-1.76-4.78-.2-9.86.94-13.26,4.31-.91.91-1.68,1.95-2.63,2.82s-2.21,1.06-1.59,2.14,1.83,1.74,2.49,2.7A23,23,0,0,1,811.94,353.28Z"/><path class="cls-13" d="M852.68,382.32a114,114,0,0,1-6.08,22.53A82.68,82.68,0,0,0,843,415c-.78,3.1-.62,6.42-1.34,9.53-.88,3.86-1.76,7.75-2.47,11.65a76.18,76.18,0,0,0-1.42,18.08,7.66,7.66,0,0,0,.54,2.8c.33.72.87,1.34,1.17,2.07a4.94,4.94,0,0,1-.27,4,11.63,11.63,0,0,1-2.06,3.13c-9.33,2.78-19.29,1.86-29,2.45-9,.55-18,2.39-26.82.85-1-4,.66-8.18,2.1-12.08,4.14-11.33,8.74-23.13,8-35a35.6,35.6,0,0,0-.48-4.12c-1.44-8.41.13-17.12,2.66-25.28,1.58-5.07,1.51-10.49,1.14-15.78a28.68,28.68,0,0,1-.07-5.16,9.17,9.17,0,0,1,1.88-4.83l.15-.21c.11-.17.44-.07.74,0h0a.62.62,0,0,0,.5,0,.26.26,0,0,1,.11-.07.3.3,0,0,1,.29,0c.23.15.35.62.85.71a18.5,18.5,0,0,0,2.23.22,11.94,11.94,0,0,1,2.66.38h.12a7.88,7.88,0,0,0,3.88-.33,10.57,10.57,0,0,0,2.38-.92,15.36,15.36,0,0,1,1.88-.63c.92-.56.72-3.14.91-4.19a11.41,11.41,0,0,1,.74-3.1,5.25,5.25,0,0,1,4.28-2.49,21.63,21.63,0,0,1,5.14.46c3.72.53,7.54.43,11.21,1.29,1.84.43,3.84,1.09,5.54.25.45.1.52.51.52,1a5.3,5.3,0,0,1-.28,1.37c-.63,2.76,1.54,5.29,3.53,7.3a11.6,11.6,0,0,0,3,2.35c1,.46,2,.65,3,1.15a5.41,5.41,0,0,1,2,1.83,7.48,7.48,0,0,1,1.14,2.91A17.25,17.25,0,0,1,852.68,382.32Z"/><path class="cls-14" d="M852.68,382.32a114,114,0,0,1-6.08,22.53A82.68,82.68,0,0,0,843,415c-.78,3.1-.62,6.42-1.34,9.53-.88,3.86-1.76,7.75-2.47,11.65-.21.12-.42.22-.64.32a15.37,15.37,0,0,1-3.92,1.27,24.36,24.36,0,0,1-7.33-.24L813,435.62c-5.7-.76-11.77-1.69-16-5.55-2.34-2.12-3.89-4.92-5.57-7.63a35.6,35.6,0,0,0-.48-4.12c-1.44-8.41.13-17.12,2.66-25.28,1.58-5.07,1.51-10.49,1.14-15.78a28.68,28.68,0,0,1-.07-5.16,9.17,9.17,0,0,1,1.88-4.83,6.77,6.77,0,0,1,.89-.21h0a4.22,4.22,0,0,1,.61-.07h.29a4.21,4.21,0,0,1,1,.12c.67.17,1.29.53,1.95.77h.12a7.76,7.76,0,0,0,2.66.38c1.32,0,2.68-.22,4-.3a7.37,7.37,0,0,1,4.74.84,28.79,28.79,0,0,1,2.64,2.42A11.89,11.89,0,0,0,818.8,373a35.32,35.32,0,0,0,26.61-.57,5.43,5.43,0,0,1,2.67-.67,5.06,5.06,0,0,1,1.93.81c.59.35,1.19.69,1.79,1a7.48,7.48,0,0,1,1.14,2.91A17.45,17.45,0,0,1,852.68,382.32Z"/><path class="cls-4" d="M861.38,375.7a52.77,52.77,0,0,1-11.39-5,5.08,5.08,0,0,0-1.93-.82,5.21,5.21,0,0,0-2.67.68,35.37,35.37,0,0,1-26.61.56,11.89,11.89,0,0,1-3.34-1.81,28.67,28.67,0,0,0-2.63-2.42c-3.29-2.13-7.84.38-11.53-1a20.24,20.24,0,0,0-1.95-.77c-2.91-.72-5.87,2.17-8.74,1.3a47.43,47.43,0,0,0-2.34,8.92,97.23,97.23,0,0,0-.65,10.52c-.06,2.1-.11,4.21,0,6.32a2.65,2.65,0,0,1,1.75,1.14,2.55,2.55,0,0,1-.17,2.14c-2.09,5.38-4.2,10.8-7.38,15.62A32.94,32.94,0,0,1,788,415.8c3.51,3.7,5.22,8.88,9,12.3,4.26,3.86,10.34,4.79,16,5.56l14.28,2a24.36,24.36,0,0,0,7.33.24,15.37,15.37,0,0,0,3.92-1.27,7.07,7.07,0,0,0,2.18-1.44,8.25,8.25,0,0,0,1.29-2c1.12-2.26,2.16-4.57,3.1-6.91.34-.83.84-1.81,1.74-1.87,5.29-4.78,10.3-9.68,15.59-14.46a34.41,34.41,0,0,0,5.69-6c2.64-3.89.24-9.41,0-14.1a17.19,17.19,0,0,0-.44-3.58C866.73,380.8,864.71,376.72,861.38,375.7Z"/><path class="cls-14" d="M776.48,355.7c-.8,1.6-2.72,2.36-4.2,3.38l-5.07,3.48a3.42,3.42,0,0,1-2.5.86,3.31,3.31,0,0,1-1.87-1.75V361a6.68,6.68,0,0,1,.32-2.39,7.53,7.53,0,0,1,2.24-2.88,18.15,18.15,0,0,1,6.57-4,2.26,2.26,0,0,1,1.21-.12,1.38,1.38,0,0,1,.43.19,5.34,5.34,0,0,1,.91,1.3C774.9,353.86,776.9,354.88,776.48,355.7Z"/><path class="cls-4" d="M788.42,366.27c-1.7-.08-3.09-1.32-4.32-2.49l-3.8-3.58a3.57,3.57,0,0,1-.66-.74,5.43,5.43,0,0,1-.45-1.22,14.32,14.32,0,0,0-3.68-5.28,2.55,2.55,0,0,0-1.1-.79,2.17,2.17,0,0,0-1.21.13,18.15,18.15,0,0,0-6.57,4,7.34,7.34,0,0,0-2.24,2.88,6.68,6.68,0,0,0-.32,2.39,18.36,18.36,0,0,0,1.75,7.68c.18.37.36.74.56,1.1a35.65,35.65,0,0,0,4.7,6.1l2.38,2.67c2.34,2.61,4.68,5.23,7.23,7.65a9.58,9.58,0,0,0,3.23,2.26,3.6,3.6,0,0,0,3.72-.61,5.31,5.31,0,0,0,1.06-1.9c1.55-4,3-8.15,3.09-12.46a44.61,44.61,0,0,0-.21-5.17C791.41,367.06,790.13,366.35,788.42,366.27Z"/><path class="cls-10" d="M849,506.27a230.93,230.93,0,0,1-2.13,30.07c-.2,1.6-.42,3.21-.53,4.83-.33,4.66.2,9.36-.23,14-.24,2.5-.75,5-1.2,7.45a131.91,131.91,0,0,0-1.69,33.14c1.37,18.43-2.85,36.87-.94,55.25a44.54,44.54,0,0,1-.58,10.69,46.49,46.49,0,0,1-1.55,6.47q-2.2,7.51-4.4,15a5.32,5.32,0,0,1-1,2.07,4.71,4.71,0,0,1-3.75,1.12c-5.77-.19-11.19-2.67-16.43-5.11a5.36,5.36,0,0,1-1.65-1c-1.09-1.13-1-2.92-1.48-4.4s-1.79-2.89-2.53-4.43a14.85,14.85,0,0,1-1.09-4.54q-1-7.7-1.36-15.42c-.37-7.26,4.42-13.94,6-21,3-13.88.47-28.76,5.8-41.94,1.67-4.15-.76-9.19-1-13.67a42.74,42.74,0,0,0-1.12-8.58c-1-3.77-3.1-7.3-3.25-11.2-.12-2.82.79-5.57,1.27-8.36a38,38,0,0,0-.17-12.32c-.53-3.36-1.35-6.72-2.16-10l-.18.37a112.57,112.57,0,0,0-6.27,14.75c-.79,2.45-1.5,4.94-2.5,7.33-.82,2-1.82,3.82-2.81,5.7a162.87,162.87,0,0,0-9.24,20.58c-1.24,3.46-2.32,7-3.41,10.47q-3.69,12-7.4,24c-1.95,6.31-4.2,12.41-6.15,18.71-2.77,9-5.54,17.92-8.76,26.71-3.06,8.36-6.58,17-5.51,25.83a19,19,0,0,1-8.82,1.79,51.79,51.79,0,0,1-15-3.65,11.46,11.46,0,0,1-5.17-3.08c-2.23-2.71-1.67-6.68-1-10.12a24,24,0,0,1,1.21-4.56c.75-1.85,1.95-3.48,2.77-5.29,1.58-3.5,1.68-7.45,2.3-11.24s2-7.78,5.24-9.85c.54-6.65,3.29-13.23,4.8-19.73,1.14-4.93,1.52-10,2.41-15s2.36-10,5.38-14a22.32,22.32,0,0,1,2.71-12,12.59,12.59,0,0,0,1.19-2.55,14.66,14.66,0,0,0,.33-2.64,15.54,15.54,0,0,1,4.21-9.26c-1-3.66.4-7.46,1.64-11a37.84,37.84,0,0,0,2.1-14.07,12.49,12.49,0,0,1,.2-4c.28-1,.83-1.85,1.14-2.82a14.47,14.47,0,0,0,.45-3.59c.4-5.4,2.58-10.5,5-15.33,1.43-2.82.21-6.65.52-9.8.52-5.22,1.09-10.61,3.67-15.17a25.83,25.83,0,0,0,1.43-2.57,10.8,10.8,0,0,0,.83-4c.09-2.28.41-4.19-.41-6.31,5.35-4.46,12.66-5.7,19.61-5.95s14,.33,20.81-1.16c2-.44,4-1.07,6.11-1.37,4.8-.7,9.65.4,14.38,1.48-.33,3,.77,5.88,2,8.67A93.08,93.08,0,0,1,849,506.27Z"/><path class="cls-14" d="M825.47,508.53,814,534.37c-.53-3.36-1.35-6.72-2.16-10l-.18.37.05-.54L818,510.42Z"/><path class="cls-14" d="M859.91,454.55a4.51,4.51,0,0,1-2.28.85,11.33,11.33,0,0,1-3.75-.51l-9-2.27a4,4,0,0,1-.82-.28c.15-1.58.45-3.39,1.31-4,1.26-.86,5.06.29,6.51.48,2.48.35,5,.75,7.41,1.22A20.19,20.19,0,0,1,859.91,454.55Z"/><path class="cls-4" d="M867.51,395.05c.2.83.47,1.65.62,2.49a19.14,19.14,0,0,1-.2,6.18l-.82,5.72-.82,5.76-3.17,22.13-.79,5.48-1.09,7.65a5.82,5.82,0,0,1-.48,1.84,3.86,3.86,0,0,1-3.14,1.85,11.27,11.27,0,0,1-3.74-.51l-9-2.26a2.9,2.9,0,0,1-1.09-.45,2.18,2.18,0,0,1-.59-2.11c.13-.76.46-1.47.58-2.23.22-1.48-.41-3-.18-4.47a10.45,10.45,0,0,1,1-2.7c3-6.63,1.26-14.36,2.28-21.56a32.57,32.57,0,0,1,6.84-15.45,43.5,43.5,0,0,1,7.65-7.51c1.13-.87,2.91-2.67,4.31-3C867.6,391.52,867.22,393.79,867.51,395.05Z"/><path class="cls-10" d="M799.41,308.91c-.66,2.09.37,4.4-.1,6.55-.52,2.36-2.73,4-3.36,6.37-1,3.61,2.06,6.9,4.29,9.9,8.3,11.13,7.21,26.55,4.37,40.15a206.09,206.09,0,0,1-9.45,32c-1.24,3.22-2.63,6.51-5.08,8.93,4.6-1.32,9.48-2.65,14.1-1.37,5.84,1.62,10.88,7.29,16.79,6,3.57-.8,6.06-4,9.27-5.7,6-3.23,13.22-1.2,19.92-.17a7.68,7.68,0,0,0,4.35-.22,7.22,7.22,0,0,0,2.64-2.42,24.65,24.65,0,0,0,5.13-13.3,17,17,0,0,0-4.91-13.13c-1.41-1.34-3.11-2.42-4.2-4a12.17,12.17,0,0,1-1.65-6.06c-.8-11,1.88-22.22-.87-32.86-1-3.79-2.64-7.42-3.08-11.31-.55-4.82.77-10-1.15-14.42a14.18,14.18,0,0,0-8.43-7.27,42.14,42.14,0,0,0-11.24-2C821.27,304.1,801.7,301.76,799.41,308.91Z"/><g class="cls-15"><path d="M804.6,371.88a206.57,206.57,0,0,1-9.4,31.87c.69-1.37,1.28-2.81,1.83-4.24a206.09,206.09,0,0,0,9.45-32c2.84-13.59,3.93-29-4.37-40.15-2-2.65-4.57-5.53-4.47-8.66a10.45,10.45,0,0,0-1.7,3.15c-1,3.61,2.06,6.9,4.29,9.9C808.54,342.86,807.45,358.28,804.6,371.88Z"/><path d="M799.43,314.44a10,10,0,0,0,1.76-3.37,17.53,17.53,0,0,0-.12-4.46,4.8,4.8,0,0,0-1.66,2.3C798.85,310.68,799.5,312.62,799.43,314.44Z"/><path d="M859,404.52a7.36,7.36,0,0,1-2.65,2.43,7.64,7.64,0,0,1-4.34.22c-6.7-1-14-3.07-19.92.17-3.21,1.74-5.71,4.9-9.27,5.69-5.92,1.32-11-4.34-16.8-6-4.13-1.15-8.49-.2-12.67,1a17.35,17.35,0,0,1-3.3,4.79c4.6-1.32,9.48-2.65,14.1-1.37,5.84,1.62,10.88,7.29,16.79,6,3.56-.8,6.06-4,9.27-5.7,6-3.23,13.22-1.2,19.92-.17a7.68,7.68,0,0,0,4.35-.22,7.22,7.22,0,0,0,2.64-2.42,27.61,27.61,0,0,0,4.14-7.92A28.61,28.61,0,0,1,859,404.52Z"/></g><path class="cls-4" d="M916.89,575.54s5.93,7.76-2.73,19.47-15.82,21.61-12.93,28.89c0,0,13.08-21.75,23.72-22S928.6,588.62,916.89,575.54Z"/><path class="cls-14" d="M916.89,575.54A9.27,9.27,0,0,1,918.1,578c10.39,12.2,15.92,23.58,5.94,23.87-9.3.27-20.45,16.89-23.13,21.09.09.33.2.64.32,1,0,0,13.08-21.75,23.72-22S928.6,588.62,916.89,575.54Z"/><path class="cls-16" d="M927.92,585.43c0,2.73-.31,4.94-.69,4.94s-.68-2.21-.68-4.94.38-1.45.76-1.45S927.92,582.7,927.92,585.43Z"/><path class="cls-16" d="M931.7,588.69c-2.4,1.3-4.49,2.09-4.67,1.76s1.62-1.66,4-3,1.46-.35,1.64,0S934.1,587.38,931.7,588.69Z"/><path class="cls-4" d="M885.6,575.54s-5.93,7.76,2.74,19.47,15.81,21.59,12.92,28.89c0,0-13.08-21.75-23.72-22S873.86,588.62,885.6,575.54Z"/><path class="cls-14" d="M885.6,575.54a9.27,9.27,0,0,0-1.21,2.44c-10.39,12.2-15.92,23.58-5.94,23.87,9.3.27,20.46,16.89,23.13,21.09-.09.33-.2.64-.32,1,0,0-13.08-21.75-23.72-22S873.86,588.62,885.6,575.54Z"/><path class="cls-16" d="M874.6,585.43c0,2.73.3,4.94.68,4.94s.68-2.21.68-4.94-.38-1.45-.76-1.45S874.6,582.7,874.6,585.43Z"/><path class="cls-16" d="M870.76,588.69c2.4,1.3,4.49,2.09,4.67,1.76s-1.62-1.66-4-3-1.45-.35-1.64,0S868.37,587.38,870.76,588.69Z"/><path class="cls-17" d="M933.14,613.45l-.29,2.42-.42,3.42-.17,1.42-.42,3.43-.18,1.42-.41,3.42-4.75,38.9c-.42,3.47-6.1,6.18-12.94,6.18H888.9c-6.84,0-12.51-2.71-12.93-6.18L871.22,629l-.42-3.42-.17-1.42-.43-3.43-.17-1.42-.41-3.42-.3-2.42c-.24-2,2.83-3.63,6.7-3.63h50.42C930.31,609.82,933.39,611.48,933.14,613.45Z"/><polygon class="cls-18" points="932.85 615.87 932.43 619.28 870.03 619.28 869.62 615.87 932.85 615.87"/><polygon class="cls-18" points="932.26 620.71 931.84 624.13 870.63 624.13 870.21 620.71 932.26 620.71"/><polygon class="cls-18" points="931.66 625.56 931.25 628.98 871.22 628.98 870.8 625.56 931.66 625.56"/></svg>