<?xml version="1.0" encoding="utf-8"?>
<!-- Generator: Adobe Illustrator 23.0.3, SVG Export Plug-In . SVG Version: 6.00 Build 0)  -->
<svg version="1.1" id="effd0595-b14c-4c7e-b56f-e463e9379f7d"
	 xmlns="http://www.w3.org/2000/svg" xmlns:xlink="http://www.w3.org/1999/xlink" x="0px" y="0px" viewBox="0 0 930 788"
	 style="enable-background:new 0 0 930 788;" xml:space="preserve">
<style type="text/css">
	.st0{fill:#F1F1F1;}
	.st1{fill:#4771E9;}
	.st2{fill:#2F2E41;}
	.st3{fill:#FDA57D;}
	.st4{fill:none;stroke:#3F3D56;stroke-width:2;stroke-miterlimit:10;}
	.st5{fill:#3F3D56;}
	.st6{opacity:0.3;fill:#4771E9;enable-background:new    ;}
</style>
<title>illustration-1</title>
<circle class="st0" cx="748.2" cy="49.5" r="14.8"/>
<circle class="st0" cx="661.2" cy="620.5" r="14.8"/>
<circle class="st0" cx="294.2" cy="191.5" r="14.8"/>
<ellipse class="st0" cx="157" cy="765" rx="157" ry="23"/>
<path class="st1" d="M239.9,599l39.4-12.3c-2.2-16.4-7.2-32.3-14.7-47L225.2,552C234.5,566,239.6,582.3,239.9,599z"/>
<circle class="st2" cx="145.2" cy="266.4" r="36.8"/>
<polygon class="st3" points="105.5,727.5 98.5,757.5 115.5,757.5 122.5,723.5 "/>
<polygon class="st3" points="187.5,727.5 187.5,755.5 204.5,757.5 204.5,727.5 "/>
<path class="st3" d="M100.5,409.5c0,0,2,43,4,46s20,46,20,46l9-28c0,0-14-23-12-36s0.7-29,0.7-29L100.5,409.5z"/>
<circle class="st3" cx="157.5" cy="277.5" r="28"/>
<path class="st3" d="M134.5,280.5c0,0,1,40-6,46s40,1,40,1s-10-28-2-34S134.5,280.5,134.5,280.5z"/>
<path class="st2" d="M171.5,325.5c0,0-6-11-14-10s-34,3-35,5s-4,9-6,11s-17,5-18,17s36,85,36,85s-5,17-4,21s-5,16-4,21s-15,35-7,74
	v63c0,0-27,109-19,117s35,3,40,0s26-154,26-154l10-51l1,112c0,0-2,94,5,97s34,4,36-2c1.6-4.7,9.2-129.2,12.5-183.8
	c1.1-18.8-0.3-37.7-4.4-56.2c-4.2-18.9-10.2-41.1-17.1-50.1c-13-17-21-71-21-71l17-31c0,0-10-10-16-10S171.5,325.5,171.5,325.5z"/>
<path class="st2" d="M104.5,341.5l-5.3,3.6c0,0-3.7,64.4-0.7,68.4s23.9,2,25.4-1.5S104.5,341.5,104.5,341.5z"/>
<path class="st3" d="M186.5,401.5c0,0,1,42,7,54s28,62,28,62s-1.3,55,9.9,41.5s4.1-45.5,4.1-45.5l-19-74c0,0-10-33-9-43
	S186.5,401.5,186.5,401.5z"/>
<path class="st2" d="M204.5,740.3c0,0,1-0.8,4,2.2s11,6.8,10,17.6c-1,10.8-7,12.7-7,12.7v-2.9h-3v4.9c0,0-5,15.6-28,5.9
	c0,0-1-7.8,0-12.7c1-4.9,1-28.3,4-27.4c3,1,11,2,13,5.9S205.5,748.9,204.5,740.3z"/>
<path class="st2" d="M101.5,740.3c0,0-1-0.8-4,2.2s-11,7-10,18s7,13,7,13v-3h3v5c0,0,5,16,28,6c0,0,1-8,0-13s-1-29-4-28s-11,2-13,6
	S100.5,749.1,101.5,740.3z"/>
<path class="st2" d="M191.5,336.5l14,3c0,0,0,22,4,31s11,30,8,31s-31,15-33,7S177.5,336.5,191.5,336.5z"/>
<circle class="st2" cx="105.3" cy="217.9" r="36.8"/>
<path class="st2" d="M73.6,248.4c16.5,11.9,39.5,8.2,51.4-8.3c2.4-3.4,4.3-7.1,5.4-11.1c-3.1,20.1-21.8,33.9-41.9,30.8
	c-19.4-2.9-33-20.5-31.1-40c0.2-2,0.6-3.9,1.2-5.9C57,227.3,62.7,240.5,73.6,248.4z"/>
<ellipse transform="matrix(9.853758e-02 -0.9951 0.9951 9.853758e-02 -149.1149 380.3706)" class="st2" cx="135.4" cy="272.5" rx="27" ry="27"/>
<ellipse class="st2" cx="158.1" cy="262.4" rx="23.9" ry="18.7"/>
<ellipse class="st3" cx="164.5" cy="281.5" rx="4.5" ry="8"/>
<rect x="385.7" y="36.9" transform="matrix(0.2875 -0.9578 0.9578 0.2875 136.5968 791.3325)" class="st0" width="429" height="534"/>
<line class="st4" x1="611.2" y1="141.9" x2="732.3" y2="190.9"/>
<polygon class="st5" points="614.2,152 616.1,151.1 611.9,142.2 621.1,138.7 620.4,136.8 609.2,141.1 "/>
<polygon class="st5" points="723.1,196 722.4,194.1 731.6,190.6 727.4,181.6 729.2,180.8 734.3,191.7 "/>
<circle class="st5" cx="671.7" cy="166.4" r="11"/>
<line class="st4" x1="601.9" y1="481.4" x2="713.5" y2="413.4"/>
<polygon class="st5" points="611.8,484.9 612.3,482.9 602.6,481 605.3,471.5 603.3,470.9 600.1,482.5 "/>
<polygon class="st5" points="712.1,423.8 710.2,423.3 712.9,413.8 703.2,411.8 703.6,409.9 715.4,412.3 "/>
<circle class="st5" cx="657.7" cy="447.4" r="11"/>
<line class="st4" x1="461.7" y1="266" x2="461.8" y2="396.7"/>
<polygon class="st5" points="453.5,272.7 455,274 461.7,266.8 468.4,274 469.9,272.7 461.7,263.9 "/>
<polygon class="st5" points="453.6,390.1 455,388.7 461.8,395.9 468.5,388.7 469.9,390.1 461.8,398.9 "/>
<circle class="st5" cx="461.7" cy="331.4" r="11"/>
<rect x="369" class="st5" width="182" height="226"/>
<rect x="748" y="215" class="st5" width="182" height="226"/>
<rect x="774" y="263" class="st1" width="130" height="6"/>
<rect x="774" y="284" class="st1" width="130" height="6"/>
<rect x="774" y="305" class="st1" width="130" height="6"/>
<rect x="774" y="326" class="st1" width="130" height="6"/>
<rect x="774" y="347" class="st1" width="130" height="6"/>
<rect x="805" y="369" class="st1" width="68" height="24"/>
<rect x="385" y="447" class="st5" width="182" height="226"/>
<rect x="411.3" y="572.8" class="st1" width="130" height="6"/>
<rect x="411.3" y="593.8" class="st1" width="130" height="6"/>
<rect x="411.3" y="614.8" class="st1" width="130" height="6"/>
<rect x="411.3" y="635.8" class="st1" width="130" height="6"/>
<path class="st6" d="M451.1,527.4h-41.3c-2.8-16.3-2.8-33,0-49.3h41.3C446.5,494.3,446.5,511.4,451.1,527.4z"/>
<rect x="468.3" y="482.8" class="st6" width="76" height="5"/>
<rect x="468.3" y="500.8" class="st6" width="76" height="5"/>
<rect x="468.3" y="518.8" class="st6" width="76" height="5"/>
<rect x="468.3" y="536.8" class="st6" width="76" height="5"/>
<rect x="396.8" y="31.9" class="st1" width="130" height="6"/>
<rect x="396.8" y="52.9" class="st1" width="130" height="6"/>
<rect x="396.8" y="115.9" class="st1" width="130" height="6"/>
<rect x="427.8" y="137.9" class="st1" width="68" height="24"/>
<rect x="396.8" y="71.8" class="st1" width="130" height="24"/>
</svg>
