<svg id="e7d62c2c-c7a6-4c77-8f5c-a3fe0c7ac473" xmlns="http://www.w3.org/2000/svg" xmlns:xlink="http://www.w3.org/1999/xlink" viewBox="0 0 1062 794.36"><defs><linearGradient id="linear-gradient" x1="643.37" y1="266.11" x2="643.37" y2="354.87" gradientTransform="matrix(1, 0, 0, -1, -69, 741.18)" gradientUnits="userSpaceOnUse"><stop offset="0" stop-color="gray" stop-opacity="0.25"/><stop offset="0.54" stop-color="gray" stop-opacity="0.12"/><stop offset="1" stop-color="gray" stop-opacity="0.1"/></linearGradient><linearGradient id="linear-gradient-2" x1="601.43" y1="-52.54" x2="601.43" y2="-31.34" xlink:href="#linear-gradient"/><linearGradient id="linear-gradient-3" x1="567.27" y1="-48.3" x2="567.27" y2="-27.1" xlink:href="#linear-gradient"/><linearGradient id="linear-gradient-4" x1="561.22" y1="-42.11" x2="561.22" y2="-33.95" xlink:href="#linear-gradient"/><linearGradient id="linear-gradient-5" x1="597.88" y1="-41.38" x2="597.88" y2="-32.89" xlink:href="#linear-gradient"/><linearGradient id="linear-gradient-6" x1="584.65" y1="-41.08" x2="584.65" y2="173.4" xlink:href="#linear-gradient"/><linearGradient id="linear-gradient-7" x1="599.49" y1="65.11" x2="599.49" y2="65.68" xlink:href="#linear-gradient"/><linearGradient id="linear-gradient-8" x1="600.1" y1="59.08" x2="600.1" y2="60.39" xlink:href="#linear-gradient"/><linearGradient id="linear-gradient-9" x1="562.27" y1="60.35" x2="562.27" y2="62.56" xlink:href="#linear-gradient"/><linearGradient id="linear-gradient-10" x1="542.45" y1="164.58" x2="542.45" y2="215" xlink:href="#linear-gradient"/><linearGradient id="linear-gradient-11" x1="522.24" y1="353.81" x2="522.24" y2="395.63" gradientTransform="matrix(1, 0, 0, -1, 0, 794)" xlink:href="#linear-gradient"/><linearGradient id="linear-gradient-12" x1="587.13" y1="280.62" x2="587.13" y2="312.83" xlink:href="#linear-gradient"/><linearGradient id="linear-gradient-13" x1="584.99" y1="158.55" x2="584.99" y2="173.5" xlink:href="#linear-gradient"/><linearGradient id="linear-gradient-14" x1="582.86" y1="160.16" x2="582.86" y2="297.24" xlink:href="#linear-gradient"/><linearGradient id="linear-gradient-15" x1="540.31" y1="211.29" x2="540.31" y2="261.25" xlink:href="#linear-gradient"/><linearGradient id="linear-gradient-16" x1="540.29" y1="211.29" x2="540.29" y2="221.82" xlink:href="#linear-gradient"/><linearGradient id="linear-gradient-17" x1="581.21" y1="211.59" x2="581.21" y2="223.14" xlink:href="#linear-gradient"/><linearGradient id="linear-gradient-18" x1="609.77" y1="187.02" x2="609.77" y2="205.04" xlink:href="#linear-gradient"/><linearGradient id="linear-gradient-19" x1="567.9" y1="185.98" x2="567.9" y2="188.54" xlink:href="#linear-gradient"/><linearGradient id="linear-gradient-20" x1="604.87" y1="252.32" x2="604.87" y2="269.12" xlink:href="#linear-gradient"/><linearGradient id="linear-gradient-21" x1="544.43" y1="268.87" x2="544.43" y2="280.08" xlink:href="#linear-gradient"/><linearGradient id="linear-gradient-22" x1="538.81" y1="229.85" x2="538.81" y2="236.45" xlink:href="#linear-gradient"/><linearGradient id="linear-gradient-23" x1="539.02" y1="241.43" x2="539.02" y2="246.77" xlink:href="#linear-gradient"/><linearGradient id="linear-gradient-24" x1="603.2" y1="138.02" x2="603.2" y2="141.49" xlink:href="#linear-gradient"/><linearGradient id="linear-gradient-25" x1="565.55" y1="136.89" x2="565.55" y2="139.77" xlink:href="#linear-gradient"/><linearGradient id="linear-gradient-26" x1="599.22" y1="130.83" x2="599.22" y2="131.17" xlink:href="#linear-gradient"/><linearGradient id="linear-gradient-27" x1="558.65" y1="122.27" x2="558.65" y2="126.92" xlink:href="#linear-gradient"/><linearGradient id="linear-gradient-28" x1="582.1" y1="209.4" x2="582.1" y2="359.69" xlink:href="#linear-gradient"/><linearGradient id="linear-gradient-29" x1="543" y1="292.19" x2="543" y2="316.39" xlink:href="#linear-gradient"/><linearGradient id="linear-gradient-30" x1="547.19" y1="231.57" x2="547.19" y2="259.43" xlink:href="#linear-gradient"/><linearGradient id="linear-gradient-31" x1="581" y1="209.17" x2="581" y2="239.04" xlink:href="#linear-gradient"/><linearGradient id="linear-gradient-32" x1="618.42" y1="309.81" x2="618.42" y2="331.65" xlink:href="#linear-gradient"/><linearGradient id="linear-gradient-33" x1="612.81" y1="259.74" x2="612.81" y2="284.23" xlink:href="#linear-gradient"/><linearGradient id="linear-gradient-34" x1="638.86" y1="262.7" x2="638.86" y2="286.12" xlink:href="#linear-gradient"/><linearGradient id="linear-gradient-35" x1="647.52" y1="262.94" x2="647.52" y2="285.6" xlink:href="#linear-gradient"/></defs><title>illustration-14</title><path d="M605.87,111.4c-64.72-2.24-126.36-23.14-185.22-46S303.49,17.18,240.32,5.11c-40.63-7.8-87.1-8.9-119.83,12.89C89,39,78.8,75.18,73.33,108.72c-4.12,25.26-6.54,51.85,4.74,75.5,7.84,16.42,21.74,30.22,31.36,45.94C142.9,284.89,119.24,352.37,83,405.8c-17,25.06-36.75,49-49.88,75.65s-19.2,57.25-7.71,84.47c11.38,27,38.51,47.24,67.9,61.49,59.69,29,130,37.23,198.61,41.93,151.83,10.38,304.46,5.89,456.69,1.38,56.34-1.66,112.92-3.35,168.34-12.06,30.78-4.84,62.55-12.52,84.9-31.06,28.36-23.53,35.39-63.37,16.38-92.88-31.88-49.49-120-61.78-142.31-114.89-12.26-29.24.33-61.8,18.16-88.91,38.24-58.17,102.33-109.2,105.7-175.68,2.32-45.66-28.49-91.39-76.13-113-49.93-22.65-119.18-19.8-156,17.68C729.68,98.53,663,113.39,605.87,111.4Z" transform="translate(0 0)" style="fill:#3B88F7;opacity:0.10000000149011612;isolation:isolate"/><rect y="123.48" width="259.51" height="259.51" style="fill:#e8e9ed"/><rect x="802.49" y="123.48" width="259.51" height="259.51" style="fill:#e8e9ed"/><path d="M145.39,32l-2.59-2.65a.56.56,0,0,0-.82,0l-17.9,18-6.52-6.51a.56.56,0,0,0-.79,0l0,0-2.61,2.61a.58.58,0,0,0,0,.82l0,0,8.22,8.21a2.55,2.55,0,0,0,1.71.84,2.7,2.7,0,0,0,1.71-.81h0L145.4,32.87a.64.64,0,0,0,0-.84Z" transform="translate(0 0)" style="fill:#3acc6c;opacity:0.5;isolation:isolate"/><path d="M129.75,14.88a26.39,26.39,0,1,1-18.68,7.73,26.39,26.39,0,0,1,18.68-7.73m0-4.11A30.53,30.53,0,1,0,160.28,41.3h0a30.51,30.51,0,0,0-30.5-30.52Z" transform="translate(0 0)" style="fill:#3B88F7;opacity:0.5;isolation:isolate"/><path d="M345.82,117.36,342.56,114a.7.7,0,0,0-.51-.22.64.64,0,0,0-.52.22L319,136.72l-8.21-8.2a.7.7,0,0,0-.51-.22.73.73,0,0,0-.52.22l-3.29,3.29a.72.72,0,0,0,0,1l0,0,10.34,10.32a3.25,3.25,0,0,0,2.16,1,3.41,3.41,0,0,0,2.14-1h0l24.7-24.84a.78.78,0,0,0,0-1Z" transform="translate(0 0)" style="fill:#3acc6c;opacity:0.800000011920929;isolation:isolate"/><path d="M326.12,95.76a33.25,33.25,0,1,1-23.52,9.74,33.24,33.24,0,0,1,23.52-9.74m0-5.17A38.43,38.43,0,1,0,364.55,129h0a38.42,38.42,0,0,0-38.41-38.43Z" transform="translate(0 0)" style="fill:#3B88F7;opacity:0.800000011920929;isolation:isolate"/><path d="M932.24,14.88a26.39,26.39,0,1,1-18.68,7.73,26.39,26.39,0,0,1,18.68-7.73m0-4.11A30.53,30.53,0,1,0,962.77,41.3h0a30.51,30.51,0,0,0-30.5-30.52Z" transform="translate(0 0)" style="fill:#3B88F7;opacity:0.5;isolation:isolate"/><path d="M734.47,95.76A33.25,33.25,0,1,1,711,105.5a33.25,33.25,0,0,1,23.47-9.74m0-5.17A38.43,38.43,0,1,0,773,129h0a38.42,38.42,0,0,0-38.41-38.43h0Z" transform="translate(0 0)" style="fill:#3B88F7;opacity:0.800000011920929;isolation:isolate"/><path d="M529.33,156.74a43.94,43.94,0,1,1-31.1,12.87,43.94,43.94,0,0,1,31.1-12.87m0-6.84a50.81,50.81,0,1,0,50.81,50.81h0a50.79,50.79,0,0,0-50.79-50.81Z" transform="translate(0 0)" style="fill:#3B88F7"/><rect x="181.52" y="191.5" width="289.2" height="289.2" style="fill:#f3f5f7"/><rect x="589.87" y="191.5" width="289.2" height="289.2" style="fill:#f3f5f7"/><rect x="25.93" y="169.55" width="96.46" height="10.72" style="opacity:0.10000000149011612;isolation:isolate"/><rect x="849.19" y="169.55" width="96.46" height="10.72" style="opacity:0.10000000149011612;isolation:isolate"/><path d="M701.19,618.41S726.25,574,764,561.23A77.21,77.21,0,0,0,803.11,532a130.58,130.58,0,0,0,11.54-20.79" transform="translate(0 0)" style="fill:none;stroke:#535461;stroke-miterlimit:10;stroke-width:2px"/><path d="M838.38,503c-4.3,4.17-24.33,8.49-24.33,8.49s4.92-19.89,9.22-24.07A10.85,10.85,0,0,1,838.38,503Z" transform="translate(0 0)" style="fill:#3B88F7"/><path d="M827.05,539c-5.88,1.17-25-6.09-25-6.09s14.93-14,20.81-15.19A10.85,10.85,0,0,1,827.08,539Z" transform="translate(0 0)" style="fill:#3B88F7"/><path d="M785.8,577.94c-5.66-2-18.53-17.9-18.53-17.9s20-4.57,25.63-2.61a10.85,10.85,0,0,1-7.1,20.51Z" transform="translate(0 0)" style="fill:#3B88F7"/><path d="M748,600.37c-5.92-1-21.3-14.51-21.3-14.51s18.92-7.87,24.83-6.9a10.85,10.85,0,0,1-3.33,21.44Z" transform="translate(0 0)" style="fill:#3B88F7"/><path d="M785.32,517.36c0,6,10.84,23.37,10.84,23.37S807,523.36,807,517.37a10.85,10.85,0,0,0-21.7,0Z" transform="translate(0 0)" style="fill:#3B88F7"/><path d="M741.39,544.18c1.79,5.72,17.34,19.06,17.34,19.06s5.16-19.82,3.37-25.54a10.85,10.85,0,1,0-20.71,6.48Z" transform="translate(0 0)" style="fill:#3B88F7"/><path d="M702.27,576.07c.8,5.94,13.86,21.71,13.86,21.71s8.44-18.66,7.65-24.6a10.85,10.85,0,0,0-21.51,2.89Z" transform="translate(0 0)" style="fill:#3B88F7"/><path d="M838.38,503c-4.3,4.17-24.33,8.49-24.33,8.49s4.92-19.89,9.22-24.07A10.85,10.85,0,0,1,838.38,503Z" transform="translate(0 0)" style="opacity:0.25;isolation:isolate"/><path d="M827.05,539c-5.88,1.17-25-6.09-25-6.09s14.93-14,20.81-15.19A10.85,10.85,0,0,1,827.08,539Z" transform="translate(0 0)" style="opacity:0.25;isolation:isolate"/><path d="M785.8,577.94c-5.66-2-18.53-17.9-18.53-17.9s20-4.57,25.63-2.61a10.85,10.85,0,0,1-7.1,20.51Z" transform="translate(0 0)" style="opacity:0.25;isolation:isolate"/><path d="M748,600.37c-5.92-1-21.3-14.51-21.3-14.51s18.92-7.87,24.83-6.9a10.85,10.85,0,0,1-3.33,21.44Z" transform="translate(0 0)" style="opacity:0.25;isolation:isolate"/><path d="M785.32,517.36c0,6,10.84,23.37,10.84,23.37S807,523.36,807,517.37a10.85,10.85,0,0,0-21.7,0Z" transform="translate(0 0)" style="opacity:0.25;isolation:isolate"/><path d="M741.39,544.18c1.79,5.72,17.34,19.06,17.34,19.06s5.16-19.82,3.37-25.54a10.85,10.85,0,1,0-20.71,6.48Z" transform="translate(0 0)" style="opacity:0.25;isolation:isolate"/><path d="M702.27,576.07c.8,5.94,13.86,21.71,13.86,21.71s8.44-18.66,7.65-24.6a10.85,10.85,0,0,0-21.51,2.89Z" transform="translate(0 0)" style="opacity:0.25;isolation:isolate"/><path d="M702.63,617.53s4.93-50.73,34.24-77.72a77.32,77.32,0,0,0,23.91-42.63,130.37,130.37,0,0,0,2.13-23.66" transform="translate(0 0)" style="fill:none;stroke:#535461;stroke-miterlimit:10;stroke-width:2px"/><path d="M781.29,456.43c-2.24,5.56-18.8,17.62-18.8,17.62s-3.57-20.17-1.33-25.73a10.85,10.85,0,0,1,20.13,8.11Z" transform="translate(0 0)" style="fill:#3B88F7"/><path d="M785.51,493.92c-4.9,3.45-25.35,4.58-25.35,4.58s8-18.88,12.87-22.32a10.85,10.85,0,0,1,12.48,17.74Z" transform="translate(0 0)" style="fill:#3B88F7"/><path d="M763.58,546.24c-6,.5-24.19-8.85-24.19-8.85s16.4-12.27,22.37-12.77A10.85,10.85,0,0,1,764,546.21Z" transform="translate(0 0)" style="fill:#3B88F7"/><path d="M738.08,582.09c-5.81,1.5-25.35-4.64-25.35-4.64s14.1-14.86,19.9-16.37a10.85,10.85,0,0,1,5.45,21Z" transform="translate(0 0)" style="fill:#3B88F7"/><path d="M738.59,491.06c2.43,5.48,19.38,17,19.38,17s2.89-20.28.47-25.76a10.85,10.85,0,0,0-19.85,8.79Z" transform="translate(0 0)" style="fill:#3B88F7"/><path d="M709.29,533.36c4,4.5,23.58,10.4,23.58,10.4s-3.32-20.22-7.27-24.72a10.85,10.85,0,0,0-16.31,14.32Z" transform="translate(0 0)" style="fill:#3B88F7"/><path d="M686.46,578.38c3.13,5.11,21.47,14.24,21.47,14.24s.16-20.49-3-25.6a10.85,10.85,0,0,0-18.49,11.36Z" transform="translate(0 0)" style="fill:#3B88F7"/><rect x="218.85" y="253.23" width="96.46" height="10.72" style="opacity:0.10000000149011612;isolation:isolate"/><rect x="396.6" y="347.46" width="57.59" height="10.72" style="opacity:0.10000000149011612;isolation:isolate"/><rect x="396.6" y="419.4" width="85.28" height="10.72" style="opacity:0.10000000149011612;isolation:isolate"/><rect x="218.85" y="291.01" width="96.46" height="10.72" style="opacity:0.10000000149011612;isolation:isolate"/><rect x="652.92" y="253.23" width="96.46" height="10.72" style="opacity:0.10000000149011612;isolation:isolate"/><rect x="652.92" y="291.01" width="96.46" height="10.72" style="opacity:0.10000000149011612;isolation:isolate"/><path d="M515.66,215.65l2.7-3.54a14,14,0,0,0,9.72,4c4.56,0,7.94-2.23,7.94-5.84,0-3.92-3.24-6.5-12.22-6.5V199.7c8,0,11-2.63,11-6.1,0-3.14-2.69-5.1-6.68-5.1a12.86,12.86,0,0,0-8.36,3.42l-2.87-3.42a17.48,17.48,0,0,1,11.45-4.45c6.91,0,12,3.32,12,9.14,0,4.1-3,6.78-7.32,8.26v.22c4.63,1,8.51,4.07,8.51,8.86,0,6.32-6,10.11-13.08,10.11A17.35,17.35,0,0,1,515.66,215.65Z" transform="translate(0 0)" style="fill:#3B88F7"/><g style="opacity:0.800000011920929"><path d="M737.66,123.5c0-1.92.17-4.37.27-6.29h-.25c-1.1,1.7-2.35,3.39-3.47,5.08l-8,10.26h21.24v4.13H720.73v-3.5l15.95-21h5.87v33.39h-4.89Z" transform="translate(0 0)" style="fill:#3B88F7"/></g><g style="opacity:0.5"><path d="M921.85,51.88l1.81-2.47a9.39,9.39,0,0,0,6.55,2.69c3.22,0,5.75-1.92,5.75-5.07s-2.23-4.85-5.54-4.85a8.49,8.49,0,0,0-4.72,1.39l-1.88-1.21.76-11.81h14V33.8h-10.7l-.59,6.47a9.89,9.89,0,0,1,4.15-.88c4.59,0,8.33,2.36,8.33,7.58s-4.38,8.27-9.11,8.27A12.25,12.25,0,0,1,921.85,51.88Z" transform="translate(0 0)" style="fill:#3B88F7"/></g><rect x="347.16" y="283.32" width="357.49" height="357.49" style="fill:#3B88F7;opacity:0.10000000149011612;isolation:isolate"/><rect x="359.16" y="266.32" width="357.49" height="357.49" style="fill:#fff"/><rect x="396.6" y="305.92" width="282.6" height="10.72" style="fill:#3B88F7;opacity:0.5;isolation:isolate"/><rect x="396.6" y="383.43" width="179.95" height="10.72" style="opacity:0.10000000149011612;isolation:isolate"/><rect x="396.6" y="455.38" width="174.6" height="10.72" style="opacity:0.10000000149011612;isolation:isolate"/><rect x="396.6" y="491.35" width="238.01" height="10.72" style="opacity:0.10000000149011612;isolation:isolate"/><path d="M627.52,384.38l-1.23-1.27a.3.3,0,0,0-.2-.08.27.27,0,0,0-.19.08l-8.53,8.6-3.11-3.11a.32.32,0,0,0-.2-.08.27.27,0,0,0-.19.08l-1.25,1.25a.28.28,0,0,0,0,.4h0l3.92,3.91a1.28,1.28,0,0,0,.82.4,1.25,1.25,0,0,0,.81-.39h0l9.35-9.39a.33.33,0,0,0,0-.4Z" transform="translate(0 0)" style="fill:#3acc6c;opacity:0.5;isolation:isolate"/><path d="M620.07,376.18a12.6,12.6,0,1,1-8.9,3.69,12.6,12.6,0,0,1,8.9-3.69m0-1.95a14.55,14.55,0,1,0,14.54,14.56v0a14.54,14.54,0,0,0-14.54-14.52Z" transform="translate(0 0)" style="fill:#3acc6c;opacity:0.5;isolation:isolate"/><path d="M627.52,456.32l-1.23-1.26a.28.28,0,0,0-.2-.08.27.27,0,0,0-.19.08l-8.53,8.59-3.11-3.1a.25.25,0,0,0-.2-.09.25.25,0,0,0-.19.09l-1.25,1.24a.28.28,0,0,0,0,.4h0l3.92,3.92a1.28,1.28,0,0,0,.82.4,1.32,1.32,0,0,0,.81-.39h0l9.35-9.4a.33.33,0,0,0,0-.4Z" transform="translate(0 0)" style="fill:#3acc6c;opacity:0.5;isolation:isolate"/><path d="M620.07,448.18a12.6,12.6,0,1,1-8.9,3.69,12.6,12.6,0,0,1,8.9-3.69m0-2a14.55,14.55,0,1,0,14.54,14.56h0a14.54,14.54,0,0,0-14.53-14.55Z" transform="translate(0 0)" style="fill:#3acc6c;opacity:0.5;isolation:isolate"/><ellipse cx="512.51" cy="782.38" rx="71.41" ry="11.98" style="fill:#3B88F7;opacity:0.10000000149011612;isolation:isolate"/><path d="M130.91,693.37s3.72,4.87-1.72,12.23-9.94,13.56-8.12,18.15c0,0,8.21-13.66,14.9-13.85S138.26,701.59,130.91,693.37Z" transform="translate(0 0)" style="fill:#3B88F7"/><path d="M130.91,693.37a6.24,6.24,0,0,1,.76,1.53c6.52,7.67,10,14.82,3.73,15-5.84.17-12.85,10.61-14.53,13.25a4.69,4.69,0,0,0,.2.6s8.21-13.66,14.9-13.85S138.26,701.59,130.91,693.37Z" transform="translate(0 0)" style="opacity:0.10000000149011612;isolation:isolate"/><path d="M137.83,699.58c0,1.72-.19,3.11-.43,3.11s-.43-1.39-.43-3.11.24-.91.48-.91S137.83,697.87,137.83,699.58Z" transform="translate(0 0)" style="fill:#ffd037"/><path d="M140.21,701.63c-1.51.82-2.82,1.32-2.93,1.11s1-1,2.52-1.87.91-.22,1,0S141.71,700.81,140.21,701.63Z" transform="translate(0 0)" style="fill:#ffd037"/><path d="M111.23,693.37s-3.73,4.87,1.72,12.23,9.93,13.56,8.12,18.15c0,0-8.22-13.66-14.9-13.85S103.87,701.59,111.23,693.37Z" transform="translate(0 0)" style="fill:#3B88F7"/><path d="M111.23,693.37a6.24,6.24,0,0,0-.76,1.53c-6.53,7.67-10,14.82-3.73,15,5.84.17,12.85,10.61,14.53,13.25-.06.2-.12.4-.2.6,0,0-8.22-13.66-14.9-13.85S103.87,701.59,111.23,693.37Z" transform="translate(0 0)" style="opacity:0.10000000149011612;isolation:isolate"/><path d="M104.3,699.58c0,1.72.19,3.11.43,3.11s.43-1.39.43-3.11-.24-.91-.48-.91S104.3,697.87,104.3,699.58Z" transform="translate(0 0)" style="fill:#ffd037"/><path d="M101.93,701.63c1.5.82,2.81,1.32,2.93,1.11s-1-1-2.52-1.87-.91-.22-1,0S100.42,700.81,101.93,701.63Z" transform="translate(0 0)" style="fill:#ffd037"/><ellipse cx="121.07" cy="755.04" rx="38.95" ry="5.98" style="fill:#3B88F7;opacity:0.10000000149011612;isolation:isolate"/><path d="M141.12,717.18l-.19,1.53-.26,2.14-.11.9-.26,2.15-.11.9-.27,2.14-3,24.44c-.26,2.18-3.83,3.88-8.13,3.88H113.32c-4.3,0-7.86-1.7-8.12-3.88l-3-24.44-.26-2.14-.11-.9-.26-2.15-.11-.9-.26-2.14-.2-1.53c-.15-1.23,1.78-2.27,4.21-2.27h31.68C139.34,714.91,141.27,716,141.12,717.18Z" transform="translate(0 0)" style="fill:#65617d"/><polygon points="140.93 718.7 140.67 720.85 101.47 720.85 101.2 718.7 140.93 718.7" style="fill:#9d9cb5"/><polygon points="140.56 721.75 140.3 723.9 101.84 723.9 101.58 721.75 140.56 721.75" style="fill:#9d9cb5"/><polygon points="140.19 724.79 139.92 726.94 102.21 726.94 101.95 724.79 140.19 724.79" style="fill:#9d9cb5"/><path d="M590.84,461.79c-.67-1.37-6-19-6-19l-10.27-26.07S568.34,382.41,559,391s5,29.1,5,29.1,5.87,15,5.57,18,3.27,14,3.27,14l-1.16,6.32c-1.51-.1-2.49-.1-2.49-.1s-.92,1.32-1.8,1.41a.83.83,0,0,1-.44-.06c-1-.45-4.31-.36-6-.36a13.42,13.42,0,0,1-4.49-1.44c-.58-1.16-3.86-1.85-6.77-2.24-2.21-5.5-5.32-10.85-5.75-16.59a7.2,7.2,0,0,1,.88-4.52,5.16,5.16,0,0,1,.66-.82c.81-.82,1.8-1.54,2.7-2.3.45-.38.86-.77,1.25-1.17,7.63-7.4,6.42-18.86-.5-26.79-8-9.17-44.08-28.9-55-12-1.52,2.36-1.57,5.09-2,7.71a32.1,32.1,0,0,1-8.62,17c-3.62,3.85-8.37,7.4-10.45,11.76l-.07-.16a11.58,11.58,0,0,0-1.08,3c-1.05,5.31,2.53,10.42,4.41,15.59a28.17,28.17,0,0,1,1.38,5.42l.12-1.14a35.13,35.13,0,0,1,.47,8C465,461.27,465,483.85,465,483.85s-1.61,9-1.34,12.21S464,506.29,464,508s-1.62,12.21-1.8,13.47h0c-.23,1.39-2.69,8,3.25,9.55.41.11.85.2,1.3.28.25,5.39.72,16.7.31,19.2,0,0,2.16,15.18,3.95,19a45,45,0,0,0,4,6.45,7.13,7.13,0,0,1-.91,2.61c-.91,1.33-.44,2.42,1.09,2.89q-.08.69-.18,1.56c-.65,5.86-1.63,17.49,0,23.39,2.29,8.08,2.42,10.77,2.42,10.77a8,8,0,0,0,.94,3.77c1,1.35,2.7,13.87,2.7,15.89s4.58,20.2,3.23,24.51-.27,10.37-.27,10.37-.81,10.64-1.75,12.93-1.35,39.19.13,48.75,2.43,17.51,2.43,17.51-1,8.75-.14,10,2.29,8.49,1.21,8.89-1.61,3.37-1.61,3.37a28.35,28.35,0,0,0,1.84,2.51,10.16,10.16,0,0,1-1.22-.52c.43.61,1.07,1.45,1.85,2.37L486,787.2a1.63,1.63,0,0,0,1.2,1.7,13.45,13.45,0,0,0,13.38-3.79c6.73-6.87,9-5.92,10.24-10.1.12-.45.24-.88.33-1.3a4.38,4.38,0,0,0-3.28-5.24,4.43,4.43,0,0,0-2.91.34c.43-3,.77-6.29.44-8.18-.67-3.9-.54-14.14-.54-14.14l-.94-49s1.75-9.69,3.77-13.46,1.75-17,1.75-17l2.29-43.37,2.28-21s2.15-7.27,4.84.81c0,0-1.48,16.29-.8,20.2s1.61,22.89.94,27.07-3.64,27.07-1.75,32.86,3.9,12.79,3.5,15.08-1.75,52-1.75,52,3.63,9.56.94,12.66-.13,15.49-.13,15.49.32.23.88.56l-.08,1-.84,11.14a1.63,1.63,0,0,0,1.2,1.7,13.45,13.45,0,0,0,13.38-3.79c6.73-6.87,9-5.93,10.24-10.1.12-.45.24-.89.34-1.31a4.38,4.38,0,0,0-7.06-4.35l-.15.13c-.17.15-.35.28-.53.41l-.26.17c.67-3.08,1.65-8.33,1.19-10.81-.67-3.64.67-14.68.67-14.68s3.91-13.2,4-18.45,1.08-42,1.08-42-.13-17.1.41-21.27,4.84-40.27,9.15-51c3.31-8.26,4.79-29.31,3.91-40-.05-.54-.1-1-.15-1.52A16,16,0,0,0,563,564.18s-4.85-9.34-9.52-13.29-5.75-10.77-5.57-13.65a7.09,7.09,0,0,0-1.61-4.84s-2.16-7-3.6-7.72a1,1,0,0,1-.31-.24c-1-1.06-.23-4.07-.23-4.07v-.09c.16-.7,1.21-5.22.87-6.38s.18-7.18.18-7.18,3.42-10.23,2.88-18.31,7-7.37,7-7.37l23.29-.24H579a19.42,19.42,0,0,0,3-3.21,6.43,6.43,0,0,0,5.15-1.26C592.12,471.81,591.51,463.18,590.84,461.79Zm-108.31,70,.17-4.1.91.78a6.51,6.51,0,0,1,0,3.28,3.52,3.52,0,0,1-2,2.28,1.81,1.81,0,0,0-.33.2l-.23-2.34c.95-.06,1.48-.11,1.48-.11Z" transform="translate(0 0)" style="opacity:0.10000000149011612;isolation:isolate"/><path d="M569.9,469.74s13.26,8.53,18.28,4,4.4-13.27,3.72-14.65S585.82,440,585.82,440l-10.43-26.28s-6.34-34.59-15.8-26,5.1,29.33,5.1,29.33,6,15.13,5.66,18.16,3.32,14.13,3.32,14.13Z" transform="translate(0 0)" style="fill:url(#linear-gradient)"/><path d="M545.17,777.91c-.1.43-.21.87-.35,1.32-1.23,4.21-3.56,3.26-10.4,10.18a13.71,13.71,0,0,1-13.6,3.82,1.64,1.64,0,0,1-1.22-1.71l.86-11.23.41-5.41s10.89,3.06,16.44-.81c.18-.13.36-.26.53-.41l.16-.13a4.45,4.45,0,0,1,7.17,4.38Z" transform="translate(0 0)" style="fill:url(#linear-gradient-2)"/><path d="M511,773.67c-.09.43-.21.87-.34,1.32-1.23,4.21-3.56,3.26-10.4,10.18a13.78,13.78,0,0,1-13.6,3.83,1.64,1.64,0,0,1-1.22-1.72l.85-11.23.42-5.41s10.89,3.06,16.43-.81c.19-.13.36-.26.54-.41l.16-.13a4.44,4.44,0,0,1,7.16,4.38Z" transform="translate(0 0)" style="fill:url(#linear-gradient-3)"/><g style="opacity:0.10000000149011612"><path d="M499.72,775.36l.45,5.83c-6.26,6.2-13.7-3-15.9-6.06C490,778.07,499.72,775.36,499.72,775.36Z" transform="translate(0 0)" style="fill:url(#linear-gradient-4)"/></g><g style="opacity:0.10000000149011612"><path d="M536.47,777.73l.83-.54c-5.72,8.62-14.2,4.64-16.84,3.1l.41-5.41s10.89,3.06,16.44-.81C536.87,776.18,536.47,777.73,536.47,777.73Z" transform="translate(0 0)" style="fill:url(#linear-gradient-5)"/></g><path d="M553.86,614.67c-4.38,10.86-8.76,47.25-9.31,51.46s-.41,21.45-.41,21.45L543,729.94c-.13,5.3-4.1,18.6-4.1,18.6s-1.37,11.14-.69,14.8-1.78,13.31-1.78,13.31l.83-.54c-6.85,10.31-17.66,2.57-17.66,2.57s-2.6-12.49.13-15.61-1-12.76-1-12.76,1.36-50.1,1.78-52.41S519,688.53,517,682.69s1.09-28.92,1.78-33.13-.28-23.35-1-27.29.82-20.37.82-20.37c-2.74-8.14-4.93-.81-4.93-.81l-2.19,21.32-2.25,43.77s.28,13.3-1.78,17.1-3.83,13.58-3.83,13.58l1,49.42s-.14,10.32.55,14.26-1.51,14.12-1.51,14.12c-7.66,17.92-20-1.49-20-1.49s.54-3,1.64-3.4-.41-7.74-1.23-9,.13-10,.13-10-.95-8-2.46-17.66-1.09-46.84-.14-49.15,1.78-13,1.78-13-1.09-6.11.28-10.46-3.29-22.67-3.29-24.71-1.78-14.66-2.74-16a8,8,0,0,1-1-3.8s-.14-2.72-2.47-10.86c-1.7-6-.7-17.68,0-23.58.24-2.19.44-3.58.44-3.58s78.57-12.63,81.72-9.77c.74.66,1.23,3,1.51,6.26C558.72,585.12,557.21,606.35,553.86,614.67Z" transform="translate(0 0)" style="fill:url(#linear-gradient-6)"/><g style="opacity:0.10000000149011612"><path d="M524.15,675.72c.37,0,9,.73,12.23.09S524.15,675.72,524.15,675.72Z" transform="translate(0 0)" style="fill:url(#linear-gradient-7)"/></g><g style="opacity:0.10000000149011612"><path d="M524.79,680.79s12,2.08,12.6,1S524.79,680.79,524.79,680.79Z" transform="translate(0 0)" style="fill:url(#linear-gradient-8)"/></g><g style="opacity:0.10000000149011612"><path d="M488.2,678.62s6.2.27,9.58,1.81S488.2,678.62,488.2,678.62Z" transform="translate(0 0)" style="fill:url(#linear-gradient-9)"/></g><path d="M465.66,526.37s1,18.92.46,22.26c0,0,2.19,15.3,4,19.19a55.28,55.28,0,0,0,5.75,8.78L481.25,539,480,526.18Z" transform="translate(0 0)" style="fill:url(#linear-gradient-10)"/><ellipse cx="522.24" cy="419.28" rx="21.08" ry="20.91" style="fill:url(#linear-gradient-11)"/><path d="M511.29,429.06s-6.57,12.76-13.14,18.74,39.42,12.76,40.51,12.76-8.21-27.15-6.57-30.41S511.29,429.06,511.29,429.06Z" transform="translate(0 0)" style="fill:url(#linear-gradient-12)"/><g style="opacity:0.10000000149011612"><path d="M557.83,574.36a13.65,13.65,0,0,1-3.38,1.88c-8.39,3.26-17.52,7.79-23.73,6s-19.34,0-19.34,0-26.47-2.18-31.76-.91a10.23,10.23,0,0,1-5.46.14c.24-2.19.44-3.58.44-3.58s78.57-12.63,81.72-9.77C557.06,568.76,557.55,571.07,557.83,574.36Z" transform="translate(0 0)" style="fill:url(#linear-gradient-13)"/></g><path d="M563.58,562.3s-.73,9-9.13,12.31-17.52,7.79-23.73,6-19.34,0-19.34,0-26.47-2.18-31.76-.91-8-.36-6.39-2.72,1.47-10.13,1.47-13.39-1.83-16.48-.19-18.83,3.1-11.4,6.39-12.85a3.54,3.54,0,0,0,2.05-2.3,6.41,6.41,0,0,0,0-3.31s-.55-.45-1.32-1.13c-1.93-1.71-5.21-4.89-4.16-5.93,1.46-1.45,0-10.87,0-10.87s-3.47-7.24-2.19-9.95-11.13-17-11.13-17,0-24.62,15-25.71c0,0,10.58.37,11.86-4.34s9.67-7.43,9.67-7.43l19.16,4.17s17,3.62,20.08,1.45,5.48,2.89,5.48,2.89,10.58.55,11.68,2.72-3.47,23.35-3.47,23.35-7.67-.72-7.12,7.43-2.92,18.46-2.92,18.46-.55,6-.18,7.24-.72,5.72-.89,6.43v.09s-.76,3,.23,4.11a1.91,1.91,0,0,0,.32.24c1.46.72,3.65,7.78,3.65,7.78a7.14,7.14,0,0,1,1.65,4.89c-.18,2.9.91,9.77,5.65,13.76S563.58,562.3,563.58,562.3Z" transform="translate(0 0)" style="fill:url(#linear-gradient-14)"/><path d="M482.17,520.39v.77l-.34,8.47s-11.22.9-17.34-.64-3.53-8.23-3.29-9.63h0c.18-1.27,1.82-11.86,1.82-13.58s0-8.78-.27-12,1.37-12.31,1.37-12.31L465.3,480l12.87,4.89Z" transform="translate(0 0)" style="fill:url(#linear-gradient-15)"/><g style="opacity:0.10000000149011612"><path d="M482.15,521.18l-.34,8.47s-11.22.9-17.34-.64-3.53-8.23-3.29-9.63Z" transform="translate(0 0)" style="fill:url(#linear-gradient-16)"/></g><g style="opacity:0.10000000149011612"><path d="M483,529.59a6.41,6.41,0,0,0,0-3.31s-.55-.45-1.32-1.13c9.67-1.33,47.94-6.55,60.84-7.11v.09s-.76,3,.23,4.11Z" transform="translate(0 0)" style="fill:url(#linear-gradient-17)"/></g><g style="opacity:0.10000000149011612"><path d="M543.87,536.18s2.37,13.31-6.48,18C537.39,554.18,542.41,547.55,543.87,536.18Z" transform="translate(0 0)" style="fill:url(#linear-gradient-18)"/></g><g style="opacity:0.10000000149011612"><path d="M485.92,554.52s21.35-3.62,25.55-.82S485.92,554.52,485.92,554.52Z" transform="translate(0 0)" style="fill:url(#linear-gradient-19)"/></g><g style="opacity:0.10000000149011612"><path d="M536.47,472.06s-3.28,13.39-.82,16.47S536.47,472.06,536.47,472.06Z" transform="translate(0 0)" style="fill:url(#linear-gradient-20)"/></g><g style="opacity:0.10000000149011612"><path d="M474.6,461.1s3,5,1.19,10.14S474.6,461.1,474.6,461.1Z" transform="translate(0 0)" style="fill:url(#linear-gradient-21)"/></g><path d="M468.4,504.73s3.83,2.27,2.55,5.8S468.4,504.73,468.4,504.73Z" transform="translate(0 0)" style="fill:url(#linear-gradient-22)"/><g style="opacity:0.10000000149011612"><path d="M468,494.41s3.56,1.91,4,4.71S468,494.41,468,494.41Z" transform="translate(0 0)" style="fill:url(#linear-gradient-23)"/></g><g style="opacity:0.10000000149011612"><path d="M520.78,602.67s22.36,2.27,26.83-3C547.61,599.69,527.44,603.67,520.78,602.67Z" transform="translate(0 0)" style="fill:url(#linear-gradient-24)"/></g><g style="opacity:0.10000000149011612"><path d="M482.18,601.41s24,5.61,28.74,1.17C510.92,602.58,490.3,604.12,482.18,601.41Z" transform="translate(0 0)" style="fill:url(#linear-gradient-25)"/></g><g style="opacity:0.10000000149011612"><path d="M522.51,610s10,0,14.69.27S522.51,610,522.51,610Z" transform="translate(0 0)" style="fill:url(#linear-gradient-26)"/></g><g style="opacity:0.10000000149011612"><path d="M483.82,614.26s4.93,5.52,10.49,4.53S483.82,614.26,483.82,614.26Z" transform="translate(0 0)" style="fill:url(#linear-gradient-27)"/></g><path d="M493.5,388.18c-1.55,2.38-1.6,5.13-2,7.77a32.3,32.3,0,0,1-8.76,17.19c-4.38,4.62-10.39,8.8-11.52,14.44-1.07,5.36,2.57,10.51,4.48,15.72,5,13.75-2,28.16-4.05,42.35-.56,3.92.12,8.93,5,10.23,1.52.41,3.26.36,4.62,1,1.84.87,2.4,2.68,2.74,4.31a65.56,65.56,0,0,1,1.25,17.73c-.22,3.34-.46,7.17,2.71,9.46a16.17,16.17,0,0,0,5.26,2.08c5,1.34,11.47,2.41,14.84-.72,1.42-1.31,2-3.17,3.71-4.21,2.64-1.55,6.39-.5,9.72-.34a17.66,17.66,0,0,0,15.81-8.42c2.69-4.81,2.46-10.29,1.46-15.47s-2.72-10.3-2.85-15.54a9,9,0,0,1,1.18-5.27c2-3.12,6.77-4.54,10-7,6.06-4.6,6-12.14,3.84-18.45s-6.16-12.34-6.65-18.86a7.12,7.12,0,0,1,.9-4.56,17.83,17.83,0,0,1,3.68-3.42c8.85-7.41,7.81-19.59.49-27.92C541.24,391,504.55,371.11,493.5,388.18Z" transform="translate(0 0)" style="fill:url(#linear-gradient-28)"/><g style="opacity:0.10000000149011612"><path d="M476.82,449a34.13,34.13,0,0,0-1.39-16.32c-1-2.63-2.37-5.25-3.38-7.88a11,11,0,0,0-1.1,3c-1.08,5.35,2.57,10.5,4.48,15.72A28.78,28.78,0,0,1,476.82,449Z" transform="translate(0 0)" style="fill:url(#linear-gradient-29)"/><path d="M485,508.29a65.14,65.14,0,0,0-1.26-17.73c-.34-1.63-.9-3.44-2.73-4.31-1.37-.65-3.11-.6-4.63-1a6.31,6.31,0,0,1-4.26-3.5c-.27,1.38-.52,2.76-.72,4.13-.57,3.92.11,8.93,5,10.23,1.52.41,3.26.36,4.63,1,1.83.87,2.39,2.68,2.73,4.31a64.62,64.62,0,0,1,1.18,8.19C484.92,509.18,485,508.73,485,508.29Z" transform="translate(0 0)" style="fill:url(#linear-gradient-30)"/><path d="M537,506.18a17.65,17.65,0,0,1-15.8,8.42c-3.33-.16-7.08-1.21-9.72.34-1.76,1-2.3,2.9-3.71,4.21-3.37,3.13-9.84,2.06-14.84.72a16.17,16.17,0,0,1-5.26-2.08,6.48,6.48,0,0,1-2.59-4.18c0,1.86,0,3.73-.12,5.59-.22,3.33-.46,7.16,2.71,9.45a16.17,16.17,0,0,0,5.26,2.08c5,1.35,11.47,2.41,14.84-.72,1.41-1.31,2-3.16,3.71-4.2,2.64-1.56,6.39-.51,9.72-.34A17.6,17.6,0,0,0,537,517c2.59-4.62,2.48-9.86,1.58-14.86A16.43,16.43,0,0,1,537,506.18Z" transform="translate(0 0)" style="fill:url(#linear-gradient-31)"/><path d="M548.59,417.58A17.63,17.63,0,0,0,544.9,421a7.18,7.18,0,0,0-.89,4.56,23.64,23.64,0,0,0,1.25,5.81,25.77,25.77,0,0,1,3.33-2.93c6-5,7.44-12.2,5.5-18.91A17.42,17.42,0,0,1,548.59,417.58Z" transform="translate(0 0)" style="fill:url(#linear-gradient-32)"/><path d="M546.82,462.87c-3.24,2.45-8,3.87-10,7a8.9,8.9,0,0,0-1.18,5.27,37,37,0,0,0,.78,6.3,7.14,7.14,0,0,1,.4-.71c2-3.11,6.76-4.54,10-7,5.53-4.2,6-10.85,4.36-16.78A12.68,12.68,0,0,1,546.82,462.87Z" transform="translate(0 0)" style="fill:url(#linear-gradient-33)"/></g><path d="M588.49,465.09c-3.74,9.41-8.58,13.12-8.58,13.12h-2.69l-23.68.24L550.8,471l3.84-16,2.36.15a13.59,13.59,0,0,0,4.56,1.45c1.73,0,5.11-.09,6.11.36a.87.87,0,0,0,.45.06c.89-.09,1.84-1.42,1.84-1.42S592.23,455.67,588.49,465.09Z" transform="translate(0 0)" style="fill:url(#linear-gradient-34)"/><g style="opacity:0.10000000149011612"><path d="M588.49,465.09c-3.74,9.41-8.58,13.12-8.58,13.12h-2.69c1.4-3.73,4.36-11.39,5.52-13.15s-8.81-5.84-14.61-8.09c.89-.09,1.84-1.42,1.84-1.42S592.23,455.67,588.49,465.09Z" transform="translate(0 0)" style="fill:url(#linear-gradient-35)"/></g><path d="M569.2,472.38s13,8.46,18,3.94,4.33-13.16,3.66-14.53-6-19-6-19l-10.27-26.07s-6.23-34.31-15.53-25.75,5,29.1,5,29.1,5.87,15,5.57,18,3.27,14,3.27,14Z" transform="translate(0 0)" style="fill:#efb7b9"/><path d="M544.87,778c-.1.42-.22.86-.34,1.31-1.22,4.17-3.51,3.23-10.24,10.1a13.45,13.45,0,0,1-13.38,3.79,1.63,1.63,0,0,1-1.2-1.7l.84-11.14L521,775s10.72,3,16.17-.81c.18-.13.36-.26.53-.41l.15-.13a4.38,4.38,0,0,1,7.06,4.35Z" transform="translate(0 0)" style="fill:#3B88F7"/><path d="M511.22,773.84c-.09.42-.21.85-.33,1.3-1.22,4.18-3.51,3.23-10.24,10.1A13.45,13.45,0,0,1,487.27,789a1.63,1.63,0,0,1-1.2-1.7l.84-11.14.41-5.36s10.72,3,16.17-.81c.18-.12.36-.26.53-.4l.15-.14a4.38,4.38,0,0,1,7.05,4.36Z" transform="translate(0 0)" style="fill:#3B88F7"/><path d="M500.15,775.51l.44,5.79c-6.15,6.14-13.48-3-15.64-6C490.61,778.18,500.15,775.51,500.15,775.51Z" transform="translate(0 0)" style="opacity:0.10000000149011612;isolation:isolate"/><path d="M536.31,777.86l.81-.53c-5.62,8.54-14,4.6-16.57,3.07L521,775s10.72,3,16.17-.81C536.7,776.32,536.31,777.86,536.31,777.86Z" transform="translate(0 0)" style="opacity:0.10000000149011612;isolation:isolate"/><path d="M553.41,616.18c-4.31,10.77-8.62,46.86-9.15,51s-.41,21.27-.41,21.27l-1.08,42c-.13,5.25-4,18.45-4,18.45s-1.34,11-.67,14.68-1.75,13.2-1.75,13.2l.81-.54c-6.73,10.23-17.37,2.56-17.37,2.56s-2.56-12.39.13-15.49-.94-12.66-.94-12.66,1.35-49.69,1.75-52-1.62-9.29-3.5-15.08,1.08-28.69,1.75-32.86-.27-23.17-.94-27.07.8-20.2.8-20.2c-2.69-8.08-4.84-.81-4.84-.81l-2.16,21.14-2.33,43.41s.27,13.19-1.75,17S504,697.6,504,697.6l.94,49s-.13,10.24.54,14.14-1.48,14-1.48,14c-7.54,17.77-19.66-1.48-19.66-1.48s.54-3,1.61-3.37-.4-7.68-1.21-8.89.14-10,.14-10-1-8-2.43-17.51-1.07-46.46-.13-48.75,1.75-12.93,1.75-12.93-1.08-6.06.27-10.37-3.23-22.49-3.23-24.51-1.75-14.54-2.7-15.89a8,8,0,0,1-.94-3.77s-.13-2.69-2.42-10.77c-1.67-5.9-.69-17.53,0-23.39.24-2.17.44-3.55.44-3.55s77.3-12.52,80.4-9.69c.72.66,1.21,3,1.48,6.21C558.2,586.82,556.72,607.87,553.41,616.18Z" transform="translate(0 0)" style="fill:#444053"/><path d="M524.19,676.68c.36,0,8.89.72,12,.09S524.19,676.68,524.19,676.68Z" transform="translate(0 0)" style="opacity:0.10000000149011612;isolation:isolate"/><path d="M524.82,681.71s11.76,2.07,12.39,1S524.82,681.71,524.82,681.71Z" transform="translate(0 0)" style="opacity:0.10000000149011612;isolation:isolate"/><path d="M488.82,679.56s6.1.27,9.42,1.79S488.82,679.56,488.82,679.56Z" transform="translate(0 0)" style="opacity:0.10000000149011612;isolation:isolate"/><path d="M466.64,528.55s1,18.76.45,22.08c0,0,2.16,15.18,4,19a54.84,54.84,0,0,0,5.66,8.71l5.3-37.22-1.25-12.75Z" transform="translate(0 0)" style="fill:#efb7b9"/><circle cx="522.31" cy="422.34" r="20.74" style="fill:#efb7b9"/><path d="M511.53,432s-6.46,12.65-12.93,18.58,38.79,12.66,39.87,12.66-8.08-26.94-6.47-30.17S511.53,432,511.53,432Z" transform="translate(0 0)" style="fill:#efb7b9"/><path d="M557.32,576.18a13.25,13.25,0,0,1-3.32,1.87c-8.26,3.23-17.24,7.72-23.35,5.92s-19,0-19,0-26-2.15-31.24-.9a10,10,0,0,1-5.41.11c.24-2.17.44-3.55.44-3.55s77.3-12.52,80.4-9.69C556.56,570.6,557.05,572.89,557.32,576.18Z" transform="translate(0 0)" style="opacity:0.10000000149011612;isolation:isolate"/><path d="M563,564.18s-.72,9-9,12.21-17.24,7.72-23.35,5.93-19,0-19,0-26-2.16-31.24-.9-7.9-.36-6.29-2.7,1.44-10,1.44-13.28-1.8-16.34-.18-18.68,3-11.31,6.29-12.75a3.52,3.52,0,0,0,2-2.28,6.51,6.51,0,0,0,0-3.28s-.54-.45-1.3-1.12c-1.9-1.7-5.12-4.85-4.08-5.88,1.43-1.44,0-10.78,0-10.78s-3.42-7.18-2.16-9.87-11-16.88-11-16.88,0-24.42,14.73-25.5c0,0,10.41.36,11.67-4.31s9.52-7.36,9.52-7.36l18.85,4.13s16.7,3.59,19.75,1.44,5.35,2.86,5.35,2.86,10.41.54,11.49,2.69S553.08,481,553.08,481s-7.54-.71-7,7.37-2.88,18.31-2.88,18.31-.54,5.93-.18,7.18-.71,5.68-.87,6.38v.09s-.74,3,.23,4.07a1,1,0,0,0,.31.24c1.44.71,3.6,7.72,3.6,7.72a7.09,7.09,0,0,1,1.61,4.84c-.18,2.88.9,9.7,5.57,13.65S563,564.18,563,564.18Z" transform="translate(0 0)" style="fill:#3B88F7"/><path d="M482.89,522.62v.76l-.33,8.4s-11,.9-17-.63-3.48-8.16-3.25-9.55h0c.18-1.26,1.8-11.77,1.8-13.47s0-8.71-.27-11.94S465.18,484,465.18,484l1.17-1.44L479,487.39Z" transform="translate(0 0)" style="fill:#3B88F7"/><path d="M482.86,523.38l-.33,8.4s-11,.9-17-.63-3.48-8.16-3.25-9.55Z" transform="translate(0 0)" style="opacity:0.10000000149011612;isolation:isolate"/><path d="M483.66,531.74a6.51,6.51,0,0,0,0-3.28s-.54-.45-1.3-1.12c9.52-1.32,47.17-6.49,59.86-7v.09s-.74,3,.23,4.07Z" transform="translate(0 0)" style="opacity:0.10000000149011612;isolation:isolate"/><path d="M543.58,538.24s2.34,13.2-6.37,17.87C537.21,556.11,542.15,549.56,543.58,538.24Z" transform="translate(0 0)" style="opacity:0.10000000149011612;isolation:isolate"/><path d="M486.57,556.47s21-3.59,25.14-.81S486.57,556.47,486.57,556.47Z" transform="translate(0 0)" style="opacity:0.10000000149011612;isolation:isolate"/><path d="M536.31,474.68S533.08,488,535.5,491,536.31,474.68,536.31,474.68Z" transform="translate(0 0)" style="opacity:0.10000000149011612;isolation:isolate"/><path d="M475.44,463.82s3,4.93,1.17,10.05S475.44,463.82,475.44,463.82Z" transform="translate(0 0)" style="opacity:0.10000000149011612;isolation:isolate"/><path d="M469.34,507.09s3.77,2.25,2.51,5.75S469.34,507.09,469.34,507.09Z" transform="translate(0 0)" style="fill:#3B88F7"/><path d="M469,496.86s3.5,1.88,3.95,4.66S469,496.86,469,496.86Z" transform="translate(0 0)" style="opacity:0.10000000149011612;isolation:isolate"/><path d="M520.87,604.23s22,2.25,26.39-3C547.26,601.27,527.42,605.18,520.87,604.23Z" transform="translate(0 0)" style="opacity:0.10000000149011612;isolation:isolate"/><path d="M482.89,603s23.61,5.57,28.28,1.17C511.17,604.18,490.88,605.67,482.89,603Z" transform="translate(0 0)" style="opacity:0.10000000149011612;isolation:isolate"/><path d="M522.57,611.5s9.88,0,14.46.27S522.57,611.5,522.57,611.5Z" transform="translate(0 0)" style="opacity:0.10000000149011612;isolation:isolate"/><path d="M484.51,615.72s4.85,5.48,10.32,4.49S484.51,615.72,484.51,615.72Z" transform="translate(0 0)" style="opacity:0.10000000149011612;isolation:isolate"/><path d="M494,391.44c-1.52,2.36-1.57,5.09-2,7.71a32.1,32.1,0,0,1-8.62,17c-4.3,4.58-10.21,8.73-11.33,14.32-1.05,5.31,2.53,10.42,4.41,15.59,5,13.63-2,27.93-4,42-.56,3.89.11,8.86,4.9,10.15,1.5.4,3.21.35,4.56,1,1.8.86,2.35,2.66,2.68,4.27a65.74,65.74,0,0,1,1.24,17.59c-.22,3.31-.46,7.11,2.66,9.39a16.15,16.15,0,0,0,5.18,2.06c4.92,1.33,11.28,2.38,14.6-.72,1.39-1.3,1.91-3.14,3.65-4.17,2.6-1.54,6.29-.5,9.56-.34A17.34,17.34,0,0,0,537,518.94c2.65-4.78,2.42-10.2,1.44-15.34s-2.68-10.22-2.8-15.42a8.9,8.9,0,0,1,1.16-5.22c2-3.1,6.65-4.51,9.84-6.94,6-4.56,5.94-12,3.78-18.3s-6.07-12.24-6.55-18.71a7.2,7.2,0,0,1,.88-4.52,18.26,18.26,0,0,1,3.71-3.31c8.71-7.35,7.68-19.43.48-27.69C541,394.29,504.9,374.56,494,391.44Z" transform="translate(0 0)" style="fill:#e3787d"/><g style="opacity:0.10000000149011612"><path d="M477.63,451.8a34.09,34.09,0,0,0-1.38-16.19c-.94-2.61-2.32-5.2-3.33-7.81a11.58,11.58,0,0,0-1.08,3c-1,5.31,2.53,10.42,4.41,15.59A28.07,28.07,0,0,1,477.63,451.8Z" transform="translate(0 0)"/><path d="M485.65,510.62A65.74,65.74,0,0,0,484.41,493c-.33-1.61-.88-3.41-2.68-4.27-1.35-.65-3.06-.6-4.56-1a6.27,6.27,0,0,1-4.19-3.47c-.27,1.36-.51,2.73-.71,4.09-.56,3.89.11,8.86,4.9,10.15,1.5.4,3.21.35,4.56,1,1.8.87,2.35,2.66,2.68,4.28a65.32,65.32,0,0,1,1.16,8.12C485.59,511.49,485.62,511.05,485.65,510.62Z" transform="translate(0 0)"/><path d="M536.85,508.49a17.34,17.34,0,0,1-15.55,8.35c-3.27-.16-7-1.2-9.56.34-1.73,1-2.26,2.87-3.65,4.17-3.32,3.1-9.68,2-14.6.72a15.89,15.89,0,0,1-5.17-2.07,6.52,6.52,0,0,1-2.56-4.14c0,1.84,0,3.69-.11,5.53-.22,3.31-.46,7.11,2.67,9.39a16.1,16.1,0,0,0,5.17,2.06c4.92,1.33,11.28,2.38,14.6-.71,1.39-1.31,1.92-3.15,3.65-4.18,2.6-1.54,6.29-.5,9.56-.34a17.34,17.34,0,0,0,15.55-8.35c2.55-4.59,2.44-9.78,1.55-14.74A16.13,16.13,0,0,1,536.85,508.49Z" transform="translate(0 0)"/><path d="M548.23,420.65A17.43,17.43,0,0,0,544.6,424a7.2,7.2,0,0,0-.88,4.52,24.25,24.25,0,0,0,1.24,5.77,23.79,23.79,0,0,1,3.27-2.91c5.89-5,7.32-12.1,5.41-18.75A17.14,17.14,0,0,1,548.23,420.65Z" transform="translate(0 0)"/><path d="M546.49,465.57c-3.19,2.43-7.84,3.84-9.84,6.93a9,9,0,0,0-1.16,5.23,36.56,36.56,0,0,0,.77,6.25,4.8,4.8,0,0,1,.39-.7c2-3.1,6.65-4.51,9.84-6.94,5.44-4.17,5.9-10.76,4.29-16.64A12.64,12.64,0,0,1,546.49,465.57Z" transform="translate(0 0)"/></g><path d="M587.49,467.77c-3.68,9.34-8.45,13-8.45,13h-2.65L553.1,481l-2.69-7.36,3.77-15.89,2.33.09a13.42,13.42,0,0,0,4.49,1.44c1.71,0,5-.09,6,.36a.83.83,0,0,0,.44.06c.88-.09,1.8-1.41,1.8-1.41S591.16,458.43,587.49,467.77Z" transform="translate(0 0)" style="fill:#3B88F7"/><path d="M587.49,467.77c-3.68,9.34-8.45,13-8.45,13h-2.65c1.39-3.7,4.3-11.29,5.44-13s-8.67-5.79-14.37-8c.88-.09,1.8-1.41,1.8-1.41S591.16,458.43,587.49,467.77Z" transform="translate(0 0)" style="opacity:0.10000000149011612;isolation:isolate"/></svg>