<?xml version="1.0" encoding="utf-8"?>
<!-- Generator: Adobe Illustrator 19.0.0, SVG Export Plug-In . SVG Version: 6.00 Build 0)  -->
<svg version="1.1" id="_x36_b5bbc3a-7ba8-40c4-8b79-fdc85beb38a1"
	 xmlns="http://www.w3.org/2000/svg" xmlns:xlink="http://www.w3.org/1999/xlink" x="0px" y="0px" viewBox="218 4.3 1032.2 832.6"
	 style="enable-background:new 218 4.3 1032.2 832.6;" xml:space="preserve">
<title>warning</title>
<ellipse style="opacity:0.1;fill:#3B88F7;enable-background:new    ;" cx="749" cy="420.6" rx="466.5" ry="416.3"/>
<ellipse style="opacity:0.1;fill:#3B88F7;enable-background:new    ;" cx="378.8" cy="635.3" rx="160.8" ry="24.9"/>
<ellipse style="opacity:0.1;fill:#3B88F7;enable-background:new    ;" cx="472.7" cy="773.4" rx="66.9" ry="13.8"/>
<ellipse style="opacity:0.1;fill:#3B88F7;enable-background:new    ;" cx="929.8" cy="720.2" rx="66.9" ry="13.8"/>
<ellipse style="opacity:0.1;fill:#3B88F7;enable-background:new    ;" cx="702.8" cy="704" rx="108.8" ry="18.4"/>
<ellipse style="opacity:0.1;fill:#3B88F7;enable-background:new    ;" cx="1083.2" cy="622.2" rx="167.1" ry="26.2"/>
<path style="fill:#A8A8A8;" d="M262,557.9c-9.7,18.9-8.5,41.5,3.1,59.3c1.9,2.8,3.6,4.8,5,5.4c6.6,2.6,19.8,9,19.8,9l31.8-12.5
	c0,0,5.2-27.3,10-50.7l0,0c3.3-16,6.5-30.2,7.9-32.7c3.3-6.1,0-72.8,0-72.8s-31.8-2.1-40.5,22.4l-3.8,7.5L262,557.9z"/>
<path style="opacity:0.1;fill:#FFFFFF;enable-background:new    ;" d="M304.2,565.3c19.3,22.1,27.5,3,27.5,3l0,0l0,0
	c3.3-16,6.5-30.2,7.9-32.7c3.3-6.1,0-72.8,0-72.8s-31.8-2.1-40.5,22.4l-3.8,7.5C292.7,512.3,290.3,549.3,304.2,565.3z"/>
<g>
	<path style="fill:#3B88F7;" d="M604.1,474.2v39.2c0,6.4-3.6,10-10,10h-18v34.8c0,6.4-3.6,10-10,10h-44.8c-6.4,0-10-3.6-10-10v-34.8
		H390.1c-6.4,0-10-3.6-10-10v-42.8c0-4.4,0.8-8,2.8-12.4l82.8-162.8c2.4-4.8,6-7.2,11.6-7.2h47.6c7.6,0,10.8,4.8,7.2,12l-83.2,164
		h62.4v-50c0-6.4,3.6-10,10-10h44.8c6.4,0,10,3.6,10,10v50h18C600.5,464.2,604.1,467.8,604.1,474.2z"/>
	<path style="fill:#3B88F7;" d="M620.1,428.2c0-86.4,41.6-145.6,114-145.6c72.4,0,114,59.2,114,145.6c0,86.4-41.6,145.6-114,145.6
		C661.7,573.7,620.1,514.6,620.1,428.2z M784.1,428.2c0-54-16.4-83.2-50-83.2s-50,29.2-50,83.2s16.4,83.2,50,83.2
		S784.1,482.2,784.1,428.2z"/>
	<path style="fill:#3B88F7;" d="M1092.1,474.2v39.2c0,6.4-3.6,10-10,10h-18v34.8c0,6.4-3.6,10-10,10h-44.8c-6.4,0-10-3.6-10-10
		v-34.8H878.1c-6.4,0-10-3.6-10-10v-42.8c0-4.4,0.8-8,2.8-12.4l82.8-162.8c2.4-4.8,6-7.2,11.6-7.2h47.6c7.6,0,10.8,4.8,7.2,12
		l-83.2,164h62.4v-50c0-6.4,3.6-10,10-10h44.8c6.4,0,10,3.6,10,10v50h18C1088.5,464.2,1092.1,467.8,1092.1,474.2z"/>
</g>
<path style="fill:#A8A8A8;" d="M308.4,627l112.2-13l20-131.7l-15.1-34.2c-6.4-14.6-15.2-27.9-26.2-39.5c-7.6-8-16.8-15.8-26.5-19.6
	c-1.3-0.5-2.7-1-4-1.4c-3.2-1-6.7-0.4-9.3,1.7c-13.8,9.8-18.8,51.5-20.4,71.6c-0.7,8.2-1.8,16.5-3.3,24.6L308.4,627z"/>
<path style="opacity:0.1;fill:#FFFFFF;enable-background:new    ;" d="M383.1,480.9l-23.4,57.5c12.2-9,30.4-57.7,30.4-57.7
	l16.3,55.6l-13-58.6c1.9-12.7,2.4-25.6,1.6-38.5c-1-14.7-14.8-38.3-22.3-50.2c-1.3-0.5-2.7-1-4-1.4c-3.2-1-6.7-0.4-9.3,1.7
	c5.9,11.8,20.6,41.4,25.1,50.2C390.1,450.5,383.1,480.9,383.1,480.9z"/>
<path style="fill:#A8A8A8;" d="M402.2,631.5H463c10.2,0,18.5-8.3,18.5-18.5c0-0.3,0-0.6,0-0.9c-1.3-26.1-4.8-72.6-12.9-102.2
	c-4.4-15.9-9.5-24.3-14.2-28.4c-2.2-2.1-5-3.4-8-3.8c-2.3-0.2-4.6,0.4-6.5,1.6c-11.3,10.8-24.5,67.8-24.5,67.8L402.2,631.5z"/>
<path style="opacity:0.1;fill:#FFFFFF;enable-background:new    ;" d="M458.4,580.9c2.5,6.9,3.5,15,0,22.8l-13.6,6.7
	c0,0-36.5-15.5-32-47.1c0,0,1.2-6.5,13.8-6C441,557.9,453.5,567.3,458.4,580.9z"/>
<path style="opacity:0.1;fill:#FFFFFF;enable-background:new    ;" d="M443.9,497.6c-0.4-11.1,5.6-15,10.6-16.2
	c-2.2-2.1-5-3.4-8-3.8c-3.5,2.9-5.9,6.8-7,11.2l-12.7,62C426.7,550.9,444.6,516.3,443.9,497.6z"/>
<path style="fill:#A8A8A8;" d="M386.2,546.6l30.1,41.2l5.2,34l-19.4,9.6l-27.9,6.2c-2.7,0.6-5.5,0.8-8.2,0.5l-76.2-6.7l10.4-24
	l35.8-50.3L386.2,546.6z"/>
<path style="opacity:0.1;fill:#FFFFFF;enable-background:new    ;" d="M374.5,532.5c0,0,20.6,1.4,12.8,36.7
	c-7.7,35.3-87.2,38.2-87.2,38.2s16.9-29.9,42.9-51.3c2.9-2.4,5.7-4.9,8.4-7.6C357.4,542.5,368.8,532,374.5,532.5z"/>
<path style="opacity:0.1;enable-background:new    ;" d="M393,559.1c0,0,27.9,25.4,25.2,64.4"/>
<path style="opacity:0.1;enable-background:new    ;" d="M439.9,479.3c0,0-29.2,38.9-32.5,98.7"/>
<path style="opacity:0.1;enable-background:new    ;" d="M339.5,462.8c0,0,14.2,64.3-21.2,112.7"/>
<path style="fill:#464353;" d="M623.7,703.6h163.1c5,0,9.1-4.1,9.1-9.2c0-1.5-0.4-3-1.1-4.3l-81.5-151.5c-2.4-4.4-7.9-6.1-12.4-3.7
	c-1.6,0.8-2.9,2.1-3.7,3.7l-81.6,151.5c-2.4,4.4-0.7,10,3.7,12.4C620.7,703.3,622.2,703.6,623.7,703.6z M715.7,676h-20.8v-20.8h20.8
	V676z M715.7,641.4h-20.8v-41.5h20.8V641.4z"/>
<path style="opacity:0.1;enable-background:new    ;" d="M623.7,703.6h163.1c5,0,9.1-4.1,9.1-9.2c0-1.5-0.4-3-1.1-4.3l-81.5-151.5
	c-2.4-4.4-7.9-6.1-12.4-3.7c-1.6,0.8-2.9,2.1-3.7,3.7l-81.6,151.5c-2.4,4.4-0.7,10,3.7,12.4C620.7,703.3,622.2,703.6,623.7,703.6z
	 M715.7,676h-20.8v-20.8h20.8V676z M715.7,641.4h-20.8v-41.5h20.8V641.4z"/>
<path style="fill:#464353;" d="M623.7,708.6h163.1c5,0,9.1-4.1,9.1-9.2c0-1.5-0.4-3-1.1-4.3l-81.5-151.5c-2.4-4.4-7.9-6.1-12.4-3.7
	c-1.6,0.8-2.9,2.1-3.7,3.7l-81.6,151.5c-2.4,4.4-0.7,10,3.7,12.4C620.7,708.3,622.2,708.6,623.7,708.6z M715.7,681h-20.8v-20.8h20.8
	V681z M715.7,646.4h-20.8v-41.5h20.8V646.4z"/>
<path style="fill:#FBBEBE;" d="M449.7,286.9c-0.9-0.3-1.9-0.6-2.8-0.9l1.9,0.1C449.1,286.4,449.4,286.6,449.7,286.9z"/>
<path style="opacity:0.1;enable-background:new    ;" d="M481.9,322.5C482.3,322.5,482.2,322.5,481.9,322.5
	C481.7,322.7,481.4,322.7,481.9,322.5z"/>
<path style="fill:#444176;" d="M1002.2,550.4c0,0-17.1,22.5-31.3,22.7c-14.2,0.2-22.5,9.5-15.8,15.3c6.7,5.8,80.1-3.3,80.1-3.3
	s0.7-27.6-5.7-31.7C1023.2,549.3,1002.2,550.4,1002.2,550.4z"/>
<path style="fill:#444176;" d="M1185.8,577.4c0,0,2.6,17.8-5.5,29.9s14.6,16.8,14.6,16.8s16.5,4.6,17.7-11.7
	c1.2-16.3,0.8-28.7-0.7-30s-2.8-10.5-2.8-10.5L1185.8,577.4z"/>
<path style="fill:#A8A8A8;" d="M927.3,611c0,0-0.6-57.6,56.4-81l13.2-25.2l6.3-15.5c4.7-11.4,14.6-19.7,26.6-22.4l10.3-2.3l3.2-13.4
	c3.5-14.6,15.3-25.8,30-28.4c6.2-1.2,12.6-1.7,18.9-1.8c5.7,0.1,11,3.2,13.8,8.1l0,0c0,0,54-0.6,56.4,28.8c0,0,5.4,27,13.2,31.8
	c0,0,13.2-3,26.4,16.2l14.4,49.2c0,0,37.8,35.4,26.4,67.7c0,0-15.6,22.2-94.8,7.2c0,0-84.6,25.8-129.6-9.6
	C1018.4,620.6,943.5,635,927.3,611z"/>
<path style="opacity:0.1;fill:none;stroke:#000000;stroke-miterlimit:10;enable-background:new    ;" d="M965.1,602
	c0,0,12-16.8,11.4-28.8c-0.6-12,2.8-41.2,2.8-41.2"/>
<path style="opacity:0.1;fill:none;stroke:#000000;stroke-miterlimit:10;enable-background:new    ;" d="M1008.8,557
	c0,0,12-22.2,10.8-34.2c0,0,12.6-22.8,22.2-21"/>
<path style="opacity:0.1;fill:none;stroke:#000000;stroke-miterlimit:10;enable-background:new    ;" d="M1074.8,494.1
	c0,0,33-12,34.8-21.6"/>
<path style="opacity:0.1;fill:none;stroke:#000000;stroke-miterlimit:10;enable-background:new    ;" d="M1086.8,521.7
	c0,0,34.8-15.6,34.8-19.8h17.4c0,0,25.2,33,22.2,47.4"/>
<path style="opacity:0.1;fill:none;stroke:#000000;stroke-miterlimit:10;enable-background:new    ;" d="M1127.6,545.6
	c0,0-33.6-2.4-45.6,7.2c-12,9.6-33.6,14.4-33.6,14.4s-12.6,27-17.4,31.8c-4.8,4.8-12.6,21.6-12.6,21.6"/>
<path style="opacity:0.1;fill:none;stroke:#000000;stroke-miterlimit:10;enable-background:new    ;" d="M1127.6,577.4
	c0,0,3.6,12.6,8.4,19.8c4.8,7.2,12,33,12,33"/>
<path style="opacity:0.1;fill:none;stroke:#000000;stroke-miterlimit:10;enable-background:new    ;" d="M1184,614
	c0,0,7.6,21.2,14.3,21.4"/>
<path style="opacity:0.1;fill:none;stroke:#000000;stroke-miterlimit:10;enable-background:new    ;" d="M1134.1,523.1
	c0,0,19.8,5.3,28,18.3c8.3,13,33.5,24.7,33.5,24.7"/>
<path style="opacity:0.1;fill:none;stroke:#000000;stroke-miterlimit:10;enable-background:new    ;" d="M1142.6,459.3
	c0,0,0,27.6,7.8,27.6s25.2,3,25.2,3"/>
<path style="opacity:0.1;fill:none;stroke:#000000;stroke-miterlimit:10;enable-background:new    ;" d="M1104.4,426.5
	c0,0-2,47.7-12.2,60"/>
<g style="opacity:5.000000e-002;">
	<path d="M1215.2,554.6l-14.4-49.2c-13.2-19.2-26.4-16.2-26.4-16.2c-7.8-4.8-13.2-31.8-13.2-31.8c-2.4-29.4-56.4-28.8-56.4-28.8l0,0
		c-2.9-4.9-8.1-8-13.9-8.1c-2.5,0-5.2,0.1-7.8,0.3c1.5,0.1,2.9,0.4,4.2,0.6l4.2,7.2c0,0,54-0.6,56.4,28.8c0,0,5.4,27,13.2,31.8
		c0,0,13.2-3,26.4,16.2l14.4,49.2c0,0,37.8,35.4,26.4,67.7c0,0-7.7,10.9-39.7,12.3c43.2,1.6,52.9-12.3,52.9-12.3
		C1252.9,590,1215.2,554.6,1215.2,554.6z"/>
	<path d="M1004,620c-12.7,2.3-25.5,3.7-38.4,4.2c15,0.6,30.7-1.1,40.7-2.4C1005.6,621.2,1004.8,620.6,1004,620z"/>
	<path d="M1133.6,629.6c-18.5,5.2-37.5,8.2-56.6,9c27.6,1,53.8-4.8,64.6-7.5C1139,630.6,1136.3,630.1,1133.6,629.6z"/>
</g>
<path style="fill:#A8A8A8;" d="M440.9,750c0,0,22.4-0.7,29.2-5.5s34.5-10.5,36.1-2.8s33.7,38.3,8.4,38.6s-58.8-3.9-65.5-8
	S440.9,750,440.9,750z"/>
<path style="opacity:0.2;enable-background:new    ;" d="M515,777.5c-25.3,0.2-58.8-3.9-65.5-8c-5.1-3.1-7.2-14.3-7.9-19.5h-0.8
	c0,0,1.4,18.1,8.2,22.2s40.2,8.3,65.5,8c7.3-0.1,9.8-2.7,9.7-6.5C523.2,776,520.4,777.5,515,777.5z"/>
<path style="fill:#A8A8A8;" d="M987.2,693.8c0,0-26.4-5.3-33.4-12.3s-38.7-19.3-42.2-10.5s-47.5,38.7-17.6,44s70.4,7,79.2,3.5
	S987.2,693.8,987.2,693.8z"/>
<path style="opacity:0.2;enable-background:new    ;" d="M894,711.6c29.9,5.3,70.4,7,79.2,3.5c6.7-2.7,11.3-15.5,13.2-21.5l0.9,0.2
	c0,0-5.3,21.1-14.1,24.6s-49.3,1.8-79.2-3.5c-8.6-1.5-11.1-5.1-10.2-9.6C884.5,708.2,887.5,710.5,894,711.6z"/>
<path style="opacity:0.1;fill:#3B88F7;enable-background:new    ;" d="M734.5,119.1h-6.3c2.4,0,4.4-2,4.4-4.4c0-2.4-2-4.4-4.4-4.4
	h-50.9c-2.4,0-4.4,2-4.4,4.4c0,2.4,2,4.4,4.4,4.4l0,0h6.3c-2.4,0.1-4.3,2.2-4.2,4.6c0.1,2.3,1.9,4.1,4.2,4.2h-8.8
	c-2.4,0-4.4,2-4.4,4.4c0,2.4,2,4.4,4.4,4.4h50.9c2.4,0,4.4-2,4.4-4.4c0-2.4-2-4.4-4.4-4.4h8.8c2.4,0.1,4.5-1.8,4.6-4.2
	c0.1-2.4-1.8-4.5-4.2-4.6C734.8,119.1,734.6,119.1,734.5,119.1z"/>
<path style="opacity:0.1;fill:#3B88F7;enable-background:new    ;" d="M932.1,273.9h-6.3c2.4-0.1,4.3-2.2,4.2-4.6
	c-0.1-2.3-1.9-4.1-4.2-4.2h-50.9c-2.4-0.1-4.5,1.8-4.6,4.2c-0.1,2.4,1.8,4.5,4.2,4.6c0.1,0,0.3,0,0.4,0h6.3
	c-2.4,0.1-4.3,2.2-4.2,4.6c0.1,2.3,1.9,4.1,4.2,4.2h-8.8c-2.4,0-4.4,2-4.4,4.4c0,2.4,2,4.4,4.4,4.4c0,0,0,0,0,0h50.9
	c2.4,0,4.4-2,4.4-4.4c0-2.4-2-4.4-4.4-4.4h8.8c2.4,0.1,4.5-1.8,4.6-4.2c0.1-2.4-1.8-4.5-4.2-4.6
	C932.4,273.9,932.3,273.9,932.1,273.9z"/>
<path style="opacity:0.1;fill:#3B88F7;enable-background:new    ;" d="M639.3,245.3H633c2.4,0.1,4.5-1.8,4.6-4.2
	c0.1-2.4-1.8-4.5-4.2-4.6c-0.1,0-0.3,0-0.4,0h-50.9c-2.4-0.1-4.5,1.8-4.6,4.2c-0.1,2.4,1.8,4.5,4.2,4.6c0.1,0,0.3,0,0.4,0h6.3
	c-2.4-0.1-4.5,1.8-4.6,4.2c-0.1,2.4,1.8,4.5,4.2,4.6c0.1,0,0.3,0,0.4,0h-8.8c-2.4,0-4.4,2-4.4,4.4c0,2.4,2,4.4,4.4,4.4h50.9
	c2.4,0,4.4-2,4.4-4.4c0-2.4-2-4.4-4.4-4.4h8.8c2.4,0.1,4.5-1.8,4.6-4.2c0.1-2.4-1.8-4.5-4.2-4.6
	C639.5,245.3,639.4,245.3,639.3,245.3L639.3,245.3z"/>
</svg>
