<?xml version="1.0" encoding="utf-8"?>
<!-- Generator: Adobe Illustrator 23.0.3, SVG Export Plug-In . SVG Version: 6.00 Build 0)  -->
<svg version="1.1" id="e7d62c2c-c7a6-4c77-8f5c-a3fe0c7ac473"
	 xmlns="http://www.w3.org/2000/svg" xmlns:xlink="http://www.w3.org/1999/xlink" x="0px" y="0px" viewBox="0 0 1062 794.4"
	 style="enable-background:new 0 0 1062 794.4;" xml:space="preserve">
<style type="text/css">
	.st0{opacity:0.5;fill:#FFFFFF;enable-background:new    ;}
	.st1{fill:#DFE1E5;}
	.st2{opacity:0.1;enable-background:new    ;}
	.st3{opacity:0.28;}
	.st4{opacity:0.11;enable-background:new    ;}
	.st5{fill:#E9EBF2;}
	.st6{opacity:0.1;fill:#3B88F7;enable-background:new    ;}
	.st7{fill:#FFFFFF;}
	.st8{opacity:0.5;fill:#3B88F7;enable-background:new    ;}
	.st9{fill:#3B88F7;}
	.st10{opacity:0.1;}
	.st11{fill:url(#SVGID_1_);}
</style>
<path class="st0" d="M605.9,111.4c-64.7-2.2-126.4-23.1-185.2-46S303.5,17.2,240.3,5.1C199.7-2.7,153.2-3.8,120.5,18
	C89,39,78.8,75.2,73.3,108.7c-4.1,25.3-6.5,51.8,4.7,75.5c7.8,16.4,21.7,30.2,31.4,45.9c33.5,54.7,9.8,122.2-26.4,175.6
	c-17,25.1-36.8,49-49.9,75.7s-19.2,57.3-7.7,84.5c11.4,27,38.5,47.2,67.9,61.5c59.7,29,130,37.2,198.6,41.9
	c151.8,10.4,304.5,5.9,456.7,1.4c56.3-1.7,112.9-3.3,168.3-12.1c30.8-4.8,62.6-12.5,84.9-31.1c28.4-23.5,35.4-63.4,16.4-92.9
	c-31.9-49.5-120-61.8-142.3-114.9c-12.3-29.2,0.3-61.8,18.2-88.9c38.2-58.2,102.3-109.2,105.7-175.7c2.3-45.7-28.5-91.4-76.1-113
	c-49.9-22.7-119.2-19.8-156,17.7C729.7,98.5,663,113.4,605.9,111.4z"/>
<g id="form-1">
	<rect y="123.5" class="st1" width="259.5" height="259.5"/>
	<rect x="25.3" y="275.8" class="st2" width="174.6" height="10.7"/>
	<rect x="25.3" y="237.1" class="st2" width="117.8" height="10.7"/>
	<rect x="24.3" y="200.8" class="st2" width="174.6" height="10.7"/>
	<rect x="25.8" y="165.6" class="st2" width="96.5" height="10.7"/>
	<path class="st3" d="M113.7,326.1H33.8c-4.7,0-8.5-3.8-8.5-8.5l0,0c0-4.7,3.8-8.5,8.5-8.5h79.9c4.7,0,8.5,3.8,8.5,8.5l0,0
		C122.2,322.4,118.4,326.1,113.7,326.1z"/>
</g>
<g id="form-5">
	<rect x="802.5" y="123.5" class="st1" width="259.5" height="259.5"/>
	<rect x="826.2" y="314.2" class="st2" width="174.6" height="10.7"/>
	<rect x="826.2" y="275.5" class="st2" width="117.8" height="10.7"/>
	<rect x="825.2" y="239.2" class="st2" width="174.6" height="10.7"/>
	<rect x="826.3" y="203.7" class="st2" width="45.3" height="10.7"/>
	<path class="st4" d="M885.3,206.8L885.3,206.8c1.3,0,2.3,1,2.3,2.3l0,0c0,1.3-1,2.3-2.3,2.3l0,0c-1.3,0-2.3-1-2.3-2.3l0,0
		C883,207.8,884,206.8,885.3,206.8z"/>
	<rect x="895" y="203.7" class="st2" width="45.3" height="10.7"/>
	<path class="st4" d="M963.5,206.8L963.5,206.8c1.3,0,2.3,1,2.3,2.3l0,0c0,1.3-1,2.3-2.3,2.3l0,0c-1.3,0-2.3-1-2.3-2.3l0,0
		C961.3,207.8,962.3,206.8,963.5,206.8z"/>
	<rect x="973.3" y="203.7" class="st2" width="45.3" height="10.7"/>
	<rect x="826.7" y="172" class="st2" width="96.5" height="10.7"/>
</g>
<g id="form-4">
	<rect x="589.9" y="191.5" class="st5" width="289.2" height="289.2"/>
	<rect x="628.5" y="339.8" class="st2" width="174.6" height="10.7"/>
	<rect x="628.5" y="373.1" class="st2" width="213" height="45"/>
	<rect x="628.5" y="301.1" class="st2" width="117.8" height="10.7"/>
	<rect x="627.5" y="264.8" class="st2" width="174.6" height="10.7"/>
	<rect x="629" y="229.6" class="st2" width="96.5" height="10.7"/>
</g>
<g id="form-2">
	<rect x="181.5" y="191.5" class="st5" width="289.2" height="289.2"/>
	<rect x="218.4" y="371.4" class="st2" width="174.6" height="10.7"/>
	<rect x="218.4" y="332.7" class="st2" width="117.8" height="10.7"/>
	<rect x="217.4" y="296.4" class="st2" width="174.6" height="10.7"/>
	<rect x="218.5" y="260.9" class="st2" width="45.3" height="10.7"/>
	<path class="st4" d="M277.5,264L277.5,264c1.3,0,2.3,1,2.3,2.3l0,0c0,1.3-1,2.3-2.3,2.3l0,0c-1.3,0-2.3-1-2.3-2.3l0,0
		C275.2,265,276.2,264,277.5,264z"/>
	<rect x="287.2" y="260.9" class="st2" width="45.3" height="10.7"/>
	<path class="st4" d="M355.7,264L355.7,264c1.3,0,2.3,1,2.3,2.3l0,0c0,1.3-1,2.3-2.3,2.3l0,0c-1.3,0-2.3-1-2.3-2.3l0,0
		C353.5,265,354.5,264,355.7,264z"/>
	<rect x="365.5" y="260.9" class="st2" width="45.3" height="10.7"/>
	<rect x="218.9" y="229.2" class="st2" width="96.5" height="10.7"/>
</g>
<g id="form-3">
	<rect x="396.6" y="347.5" class="st2" width="57.6" height="10.7"/>
	<rect x="396.6" y="419.4" class="st2" width="85.3" height="10.7"/>
	<rect x="347.2" y="283.3" class="st6" width="357.5" height="357.5"/>
	<rect x="359.2" y="266.3" class="st7" width="357.5" height="357.5"/>
	<rect x="396.6" y="305.9" class="st8" width="282.6" height="10.7"/>
	<rect x="396.6" y="455.4" class="st2" width="174.6" height="10.7"/>
	<rect x="396.6" y="490.7" class="st2" width="238" height="45"/>
	<path class="st9" d="M627.5,456.3l-1.2-1.3c-0.1-0.1-0.1-0.1-0.2-0.1c-0.1,0-0.1,0-0.2,0.1l-8.5,8.6l-3.1-3.1
		c-0.1,0-0.1-0.1-0.2-0.1c-0.1,0-0.1,0-0.2,0.1l-1.3,1.3c-0.1,0.1-0.1,0.3,0,0.4l0,0l3.9,3.9c0.2,0.2,0.5,0.4,0.8,0.4
		s0.6-0.2,0.8-0.4l0,0l9.3-9.4C627.6,456.6,627.6,456.5,627.5,456.3L627.5,456.3z"/>
	<path class="st9" d="M620,448.1c7,0,12.6,5.6,12.6,12.6s-5.6,12.6-12.6,12.6s-12.6-5.6-12.6-12.6c0-3.3,1.3-6.6,3.7-8.9
		C613.5,449.5,616.7,448.1,620,448.1 M620,446.2c-8,0-14.6,6.5-14.6,14.5s6.5,14.6,14.5,14.6s14.6-6.5,14.6-14.5l0,0
		C634.5,452.7,628,446.2,620,446.2L620,446.2z"/>
	<g class="st10">
		
			<linearGradient id="SVGID_1_" gradientUnits="userSpaceOnUse" x1="647.5071" y1="-12.94" x2="647.5071" y2="-35.6" gradientTransform="matrix(1 0 0 1 -69 491.18)">
			<stop  offset="0" style="stop-color:#808080;stop-opacity:0.25"/>
			<stop  offset="0.54" style="stop-color:#808080;stop-opacity:0.12"/>
			<stop  offset="1" style="stop-color:#808080;stop-opacity:0.1"/>
		</linearGradient>
		<path class="st11" d="M588.5,465.1c-3.7,9.4-8.6,13.1-8.6,13.1h-2.7c1.4-3.7,4.4-11.4,5.5-13.2s-8.8-5.8-14.6-8.1
			c0.9-0.1,1.8-1.4,1.8-1.4S592.2,455.7,588.5,465.1z"/>
	</g>
	<path class="st9" d="M485,576.7h-79.9c-4.7,0-8.5-3.8-8.5-8.5l0,0c0-4.7,3.8-8.5,8.5-8.5H485c4.7,0,8.5,3.8,8.5,8.5l0,0
		C493.5,572.9,489.7,576.7,485,576.7z"/>
	<rect x="396.6" y="418.4" class="st2" width="117.8" height="10.7"/>
	<rect x="395.6" y="376.4" class="st2" width="174.6" height="10.7"/>
	<path class="st9" d="M529.4,418.4h34.3c3,0,5.4,2.4,5.4,5.4l0,0c0,3-2.4,5.4-5.4,5.4h-34.3c-3,0-5.4-2.4-5.4-5.4l0,0
		C524.1,420.8,526.5,418.4,529.4,418.4z"/>
	<path class="st4" d="M399,344L399,344c1.3,0,2.3,1,2.3,2.3l0,0c0,1.3-1,2.3-2.3,2.3l0,0c-1.3,0-2.3-1-2.3-2.3l0,0
		C396.7,345,397.7,344,399,344z"/>
	<rect x="408.7" y="340.9" class="st2" width="45.3" height="10.7"/>
	<path class="st4" d="M467.7,344L467.7,344c1.3,0,2.3,1,2.3,2.3l0,0c0,1.3-1,2.3-2.3,2.3l0,0c-1.3,0-2.3-1-2.3-2.3l0,0
		C465.4,345,466.4,344,467.7,344z"/>
	<rect x="477.4" y="340.9" class="st2" width="45.3" height="10.7"/>
	<path class="st4" d="M545.9,344L545.9,344c1.3,0,2.3,1,2.3,2.3l0,0c0,1.3-1,2.3-2.3,2.3l0,0c-1.3,0-2.3-1-2.3-2.3l0,0
		C543.7,345,544.7,344,545.9,344z"/>
	<rect x="555.7" y="340.9" class="st2" width="45.3" height="10.7"/>
</g>
</svg>
