<?xml version="1.0" encoding="utf-8"?>
<!-- Generator: Adobe Illustrator 23.0.3, SVG Export Plug-In . SVG Version: 6.00 Build 0)  -->
<svg version="1.1" id="Layer_1" xmlns="http://www.w3.org/2000/svg" xmlns:xlink="http://www.w3.org/1999/xlink" x="0px" y="0px"
	 viewBox="0 0 313.2 58.5" style="enable-background:new 0 0 313.2 58.5;" xml:space="preserve">
<style type="text/css">
	.st0{fill:#0A182D;}
	.st1{display:none;}
	.st2{font-family:'CircularStd-Bold';}
	.st3{font-size:53px;}
	.st4{fill:#FFFFFF;}
</style>
<g>
	<path d="M101.7,35.4l10.7,15.1h-8.6l-6.9-10l-2.9,3.1v6.9h-7V24.2h7v9.9l9-9.7h9.2L101.7,35.4z"/>
	<path d="M122.7,35.4l6.4-1c1.5-0.2,2-1,2-1.9c0-1.9-1.4-3.4-4.4-3.4c-3.1,0-4.8,2-5,4.2l-6.3-1.3c0.4-4.1,4.2-8.6,11.2-8.6
		c8.3,0,11.3,4.7,11.3,9.9v12.8c0,1.4,0.2,3.2,0.3,4.1h-6.5c-0.2-0.7-0.3-2.1-0.3-3.1c-1.3,2.1-3.8,3.9-7.7,3.9c-5.6,0-9-3.8-9-7.8
		C114.9,38.6,118.3,36,122.7,35.4z M131.1,39.9v-1.2l-5.9,0.9c-1.8,0.3-3.2,1.3-3.2,3.3c0,1.5,1.1,3,3.4,3
		C128.3,45.9,131.1,44.5,131.1,39.9z"/>
	<path d="M144.1,50.4V12h7v38.4H144.1z"/>
	<path d="M157.8,50.4V24.3h7v26.1H157.8z M157.8,18.9V12h7v6.9H157.8z"/>
	<path d="M179.9,21.5v2.9h5.9v6h-5.9v20h-7.1v-20h-4.3v-6h4.3v-3c0-5.9,3.7-9.7,9.5-9.7c1.5,0,2.9,0.3,3.5,0.5v5.9
		c-0.4-0.1-1.1-0.3-2.2-0.3C182,17.9,179.9,18.6,179.9,21.5z"/>
	<path d="M214.3,37.4c0,8-5.9,13.8-13.7,13.8s-13.7-5.8-13.7-13.8c0-8.1,5.9-13.8,13.7-13.8S214.3,29.3,214.3,37.4z M207.2,37.4
		c0-4.9-3.2-7.4-6.6-7.4c-3.4,0-6.6,2.5-6.6,7.4c0,4.9,3.2,7.4,6.6,7.4C204,44.8,207.2,42.3,207.2,37.4z"/>
	<path d="M234.8,31.3c-0.8-0.2-1.5-0.2-2.1-0.2c-3.6,0-6.7,1.7-6.7,7.4v11.9h-7V24.3h6.8v3.9c1.6-3.4,5.2-4.1,7.4-4.1
		c0.6,0,1.1,0.1,1.6,0.1V31.3z"/>
	<path d="M238.9,50.4V24.3h6.7v3.2c1.4-2.5,4.8-3.9,7.6-3.9c3.6,0,6.4,1.5,7.7,4.3c2.1-3.2,4.8-4.3,8.3-4.3c4.8,0,9.4,2.9,9.4,9.9
		v16.9h-6.8V34.9c0-2.8-1.4-4.9-4.6-4.9c-3,0-4.8,2.3-4.8,5.1v15.3h-7V34.9c0-2.8-1.4-4.9-4.6-4.9c-3.1,0-4.9,2.3-4.9,5.1v15.3
		H238.9z"/>
	<path d="M288.8,41.8c0.2,2.1,1.7,4,4.8,4c2.3,0,3.4-1.2,3.4-2.6c0-1.2-0.8-2.1-2.8-2.5l-3.4-0.8c-5-1.1-7.3-4.1-7.3-7.8
		c0-4.7,4.1-8.5,9.8-8.5c7.4,0,9.9,4.7,10.2,7.5l-5.9,1.3c-0.2-1.5-1.3-3.5-4.3-3.5c-1.9,0-3.3,1.1-3.3,2.6c0,1.3,1,2.1,2.4,2.3
		l3.7,0.8c5.1,1.1,7.7,4.2,7.7,8c0,4.2-3.3,8.6-10.1,8.6c-7.8,0-10.5-5.1-10.9-8.1L288.8,41.8z"/>
</g>
<rect y="0" class="st0" width="58.5" height="58.5"/>
<text transform="matrix(1 0 0 1 84.6299 50.3998)" class="st1 st2 st3">kaliforms</text>
<path class="st4" d="M36,30.1l14.3,20.3H38.7L29.5,37l-3.9,4.1v9.2h-9.5V15.1h9.5v13.3l12.1-13H50L36,30.1z"/>
</svg>
